%TF.GenerationSoftware,KiCad,Pcbnew,8.0.3*%
%TF.CreationDate,2024-07-10T23:14:42+09:00*%
%TF.ProjectId,power_24V,706f7765-725f-4323-9456-2e6b69636164,rev?*%
%TF.SameCoordinates,PX5d967f0PY416e000*%
%TF.FileFunction,Copper,L2,Bot*%
%TF.FilePolarity,Positive*%
%FSLAX46Y46*%
G04 Gerber Fmt 4.6, Leading zero omitted, Abs format (unit mm)*
G04 Created by KiCad (PCBNEW 8.0.3) date 2024-07-10 23:14:42*
%MOMM*%
%LPD*%
G01*
G04 APERTURE LIST*
G04 Aperture macros list*
%AMRoundRect*
0 Rectangle with rounded corners*
0 $1 Rounding radius*
0 $2 $3 $4 $5 $6 $7 $8 $9 X,Y pos of 4 corners*
0 Add a 4 corners polygon primitive as box body*
4,1,4,$2,$3,$4,$5,$6,$7,$8,$9,$2,$3,0*
0 Add four circle primitives for the rounded corners*
1,1,$1+$1,$2,$3*
1,1,$1+$1,$4,$5*
1,1,$1+$1,$6,$7*
1,1,$1+$1,$8,$9*
0 Add four rect primitives between the rounded corners*
20,1,$1+$1,$2,$3,$4,$5,0*
20,1,$1+$1,$4,$5,$6,$7,0*
20,1,$1+$1,$6,$7,$8,$9,0*
20,1,$1+$1,$8,$9,$2,$3,0*%
G04 Aperture macros list end*
%TA.AperFunction,ComponentPad*%
%ADD10C,1.600000*%
%TD*%
%TA.AperFunction,ComponentPad*%
%ADD11O,1.600000X1.600000*%
%TD*%
%TA.AperFunction,ComponentPad*%
%ADD12R,2.000000X0.900000*%
%TD*%
%TA.AperFunction,ComponentPad*%
%ADD13RoundRect,1.025000X-1.025000X1.025000X-1.025000X-1.025000X1.025000X-1.025000X1.025000X1.025000X0*%
%TD*%
%TA.AperFunction,ComponentPad*%
%ADD14C,4.100000*%
%TD*%
%TA.AperFunction,ComponentPad*%
%ADD15C,2.000000*%
%TD*%
%TA.AperFunction,ComponentPad*%
%ADD16R,2.000000X2.000000*%
%TD*%
%TA.AperFunction,ComponentPad*%
%ADD17R,2.240000X2.240000*%
%TD*%
%TA.AperFunction,ComponentPad*%
%ADD18O,2.240000X2.240000*%
%TD*%
%TA.AperFunction,ComponentPad*%
%ADD19O,3.200000X1.900000*%
%TD*%
%TA.AperFunction,ComponentPad*%
%ADD20R,1.800000X1.800000*%
%TD*%
%TA.AperFunction,ComponentPad*%
%ADD21C,1.800000*%
%TD*%
%TA.AperFunction,ComponentPad*%
%ADD22C,2.300000*%
%TD*%
%TA.AperFunction,ComponentPad*%
%ADD23R,1.050000X1.500000*%
%TD*%
%TA.AperFunction,ComponentPad*%
%ADD24O,1.050000X1.500000*%
%TD*%
%TA.AperFunction,ComponentPad*%
%ADD25C,1.803400*%
%TD*%
%TA.AperFunction,ComponentPad*%
%ADD26R,1.600000X1.600000*%
%TD*%
%TA.AperFunction,ComponentPad*%
%ADD27RoundRect,1.025000X1.025000X-1.025000X1.025000X1.025000X-1.025000X1.025000X-1.025000X-1.025000X0*%
%TD*%
%TA.AperFunction,ViaPad*%
%ADD28C,0.600000*%
%TD*%
%TA.AperFunction,Conductor*%
%ADD29C,0.500000*%
%TD*%
G04 APERTURE END LIST*
D10*
%TO.P,R7,1*%
%TO.N,Net-(D9-A)*%
X17680000Y-79323000D03*
D11*
%TO.P,R7,2*%
%TO.N,Relay_NomallyClosed*%
X17680000Y-76783000D03*
%TD*%
D12*
%TO.P,J1,*%
%TO.N,*%
X110050000Y-54300000D03*
X110050000Y-67800000D03*
D13*
%TO.P,J1,1,Pin_1*%
%TO.N,GND2*%
X104050000Y-64650000D03*
D14*
%TO.P,J1,2,Pin_2*%
%TO.N,Net-(D4-K)*%
X104050000Y-57450000D03*
%TD*%
D15*
%TO.P,K3,11*%
%TO.N,Relay_NomallyClosed*%
X87471000Y-18594000D03*
%TO.P,K3,12*%
%TO.N,VOUT2_OFF*%
X82471000Y-18594000D03*
%TO.P,K3,14*%
%TO.N,VOUT2*%
X92471000Y-18594000D03*
%TO.P,K3,21*%
%TO.N,Relay_NomallyClosed*%
X87471000Y-11094000D03*
%TO.P,K3,22*%
%TO.N,unconnected-(K3-Pad22)*%
X82471000Y-11094000D03*
%TO.P,K3,24*%
%TO.N,Relay_NomallyOpen*%
X92471000Y-11094000D03*
D16*
%TO.P,K3,A1*%
%TO.N,GND2*%
X67471000Y-18594000D03*
D15*
%TO.P,K3,A2*%
%TO.N,Relay_NomallyOpen*%
X67471000Y-11094000D03*
%TD*%
D17*
%TO.P,D2,1,K*%
%TO.N,VCC*%
X32594000Y-50230000D03*
D18*
%TO.P,D2,2,A*%
%TO.N,Net-(D2-A)*%
X35134000Y-50230000D03*
%TD*%
D10*
%TO.P,R3,1*%
%TO.N,GND2*%
X30200000Y-57755000D03*
D11*
%TO.P,R3,2*%
%TO.N,Net-(Q1-B)*%
X30200000Y-60295000D03*
%TD*%
D19*
%TO.P,SW1,1,1*%
%TO.N,Net-(D2-A)*%
X23695000Y-80137000D03*
X36195000Y-80137000D03*
%TO.P,SW1,2,2*%
%TO.N,GND2*%
X23695000Y-85137000D03*
X36195000Y-85137000D03*
%TD*%
D10*
%TO.P,R1,1*%
%TO.N,GND1*%
X38925000Y-68360000D03*
D11*
%TO.P,R1,2*%
%TO.N,Net-(R1-Pad2)*%
X38925000Y-70900000D03*
%TD*%
D10*
%TO.P,R9,1*%
%TO.N,Net-(D11-A)*%
X103854000Y-72600000D03*
D11*
%TO.P,R9,2*%
%TO.N,VOUT1*%
X101314000Y-72600000D03*
%TD*%
D15*
%TO.P,K1,11*%
%TO.N,Relay_NomallyClosed*%
X87742000Y-52738000D03*
%TO.P,K1,12*%
%TO.N,VOUT1_OFF*%
X82742000Y-52738000D03*
%TO.P,K1,14*%
%TO.N,VOUT1*%
X92742000Y-52738000D03*
%TO.P,K1,21*%
%TO.N,Relay_NomallyClosed*%
X87742000Y-45238000D03*
%TO.P,K1,22*%
%TO.N,unconnected-(K1-Pad22)*%
X82742000Y-45238000D03*
%TO.P,K1,24*%
%TO.N,Relay_NomallyOpen*%
X92742000Y-45238000D03*
D16*
%TO.P,K1,A1*%
%TO.N,GND2*%
X67742000Y-52738000D03*
D15*
%TO.P,K1,A2*%
%TO.N,Relay_NomallyOpen*%
X67742000Y-45238000D03*
%TD*%
D20*
%TO.P,D14,1,K*%
%TO.N,GND2*%
X109430000Y-18000000D03*
D21*
%TO.P,D14,2,A*%
%TO.N,Net-(D14-A)*%
X109430000Y-15460000D03*
%TD*%
D17*
%TO.P,D3,1,K*%
%TO.N,Relay_NomallyOpen*%
X61279000Y-13774000D03*
D18*
%TO.P,D3,2,A*%
%TO.N,GND2*%
X61279000Y-16314000D03*
%TD*%
D20*
%TO.P,D11,1,K*%
%TO.N,GND2*%
X109728000Y-71220000D03*
D21*
%TO.P,D11,2,A*%
%TO.N,Net-(D11-A)*%
X109728000Y-73760000D03*
%TD*%
D10*
%TO.P,R6,1*%
%TO.N,GND2*%
X46800000Y-57660000D03*
D11*
%TO.P,R6,2*%
%TO.N,Net-(Q2-B)*%
X46800000Y-60200000D03*
%TD*%
D22*
%TO.P,F1,1*%
%TO.N,VCC*%
X38886000Y-8382000D03*
X32186000Y-8382000D03*
%TO.P,F1,2*%
%TO.N,Net-(J4-Pin_2)*%
X23186000Y-8382000D03*
X16486000Y-8382000D03*
%TD*%
D10*
%TO.P,R2,1*%
%TO.N,Net-(R2-Pad1)*%
X35900000Y-60300000D03*
D11*
%TO.P,R2,2*%
%TO.N,Net-(Q1-B)*%
X33360000Y-60300000D03*
%TD*%
D21*
%TO.P,J5,1,Pin_1*%
%TO.N,VCC*%
X19200000Y-60900000D03*
%TO.P,J5,2,Pin_2*%
%TO.N,GND2*%
X19200000Y-63400000D03*
%TD*%
D23*
%TO.P,Q1,1,E*%
%TO.N,GND2*%
X35900000Y-55800000D03*
D24*
%TO.P,Q1,2,C*%
%TO.N,Net-(D2-A)*%
X34630000Y-55800000D03*
%TO.P,Q1,3,B*%
%TO.N,Net-(Q1-B)*%
X33360000Y-55800000D03*
%TD*%
D20*
%TO.P,D12,1,K*%
%TO.N,GND2*%
X109816500Y-76818000D03*
D21*
%TO.P,D12,2,A*%
%TO.N,Net-(D12-A)*%
X109816500Y-79358000D03*
%TD*%
D17*
%TO.P,D8,1,K*%
%TO.N,VCC*%
X48850000Y-50230000D03*
D18*
%TO.P,D8,2,A*%
%TO.N,Net-(D8-A)*%
X51390000Y-50230000D03*
%TD*%
D20*
%TO.P,D13,1,K*%
%TO.N,GND2*%
X109407000Y-12243000D03*
D21*
%TO.P,D13,2,A*%
%TO.N,Net-(D13-A)*%
X109407000Y-9703000D03*
%TD*%
D20*
%TO.P,D10,1,K*%
%TO.N,GND2*%
X41910000Y-84796000D03*
D21*
%TO.P,D10,2,A*%
%TO.N,Net-(D10-A)*%
X41910000Y-82256000D03*
%TD*%
D10*
%TO.P,R12,1*%
%TO.N,Net-(D14-A)*%
X104090000Y-16440000D03*
D11*
%TO.P,R12,2*%
%TO.N,VOUT2_OFF*%
X101550000Y-16440000D03*
%TD*%
D23*
%TO.P,Q2,1,E*%
%TO.N,GND2*%
X52500000Y-55750000D03*
D24*
%TO.P,Q2,2,C*%
%TO.N,Net-(D8-A)*%
X51230000Y-55750000D03*
%TO.P,Q2,3,B*%
%TO.N,Net-(Q2-B)*%
X49960000Y-55750000D03*
%TD*%
D17*
%TO.P,D1,1,K*%
%TO.N,Relay_NomallyOpen*%
X61834000Y-47826000D03*
D18*
%TO.P,D1,2,A*%
%TO.N,GND2*%
X61834000Y-50366000D03*
%TD*%
D21*
%TO.P,J3,1,Pin_1*%
%TO.N,START_SIGNAL*%
X10922000Y-40680000D03*
%TO.P,J3,2,Pin_2*%
%TO.N,STOP_SIGNAL*%
X10922000Y-43180000D03*
%TO.P,J3,3,Pin_3*%
%TO.N,GND1*%
X10922000Y-45680000D03*
%TD*%
D15*
%TO.P,J6,1,Pin_1*%
%TO.N,Net-(J4-Pin_2)*%
X8000000Y-11860000D03*
%TO.P,J6,2,Pin_2*%
%TO.N,GND2*%
X8000000Y-16940000D03*
%TD*%
D25*
%TO.P,K4,1,R*%
%TO.N,Net-(D8-A)*%
X54200000Y-44400000D03*
%TO.P,K4,2,NC*%
%TO.N,unconnected-(K4-NC-Pad2)*%
X54200000Y-29400000D03*
%TO.P,K4,3,C*%
%TO.N,Relay_NomallyClosed*%
X54200000Y-24399999D03*
%TO.P,K4,4,NO*%
%TO.N,Relay_NomallyOpen*%
X54200000Y-19399999D03*
%TO.P,K4,5,NO*%
X46700000Y-19399999D03*
%TO.P,K4,6,C*%
%TO.N,Relay_NomallyClosed*%
X46700000Y-24399999D03*
%TO.P,K4,7,NC*%
%TO.N,unconnected-(K4-NC-Pad7)*%
X46700000Y-29400000D03*
%TO.P,K4,8,R*%
%TO.N,VCC*%
X46700000Y-44400000D03*
%TD*%
D10*
%TO.P,R4,1*%
%TO.N,GND1*%
X55500000Y-68255000D03*
D11*
%TO.P,R4,2*%
%TO.N,Net-(R4-Pad2)*%
X55500000Y-70795000D03*
%TD*%
D26*
%TO.P,U2,1*%
%TO.N,START_SIGNAL*%
X49705000Y-70720000D03*
D11*
%TO.P,U2,2*%
%TO.N,Net-(R4-Pad2)*%
X52245000Y-70720000D03*
%TO.P,U2,3*%
%TO.N,Net-(R5-Pad1)*%
X52245000Y-63100000D03*
%TO.P,U2,4*%
%TO.N,VCC*%
X49705000Y-63100000D03*
%TD*%
D25*
%TO.P,K2,1,R*%
%TO.N,Net-(D2-A)*%
X37900000Y-44400000D03*
%TO.P,K2,2,NC*%
%TO.N,Relay_NomallyClosed*%
X37900000Y-29400000D03*
%TO.P,K2,3,C*%
%TO.N,VCC*%
X37900000Y-24399999D03*
%TO.P,K2,4,NO*%
%TO.N,unconnected-(K2-NO-Pad4)*%
X37900000Y-19399999D03*
%TO.P,K2,5,NO*%
%TO.N,unconnected-(K2-NO-Pad5)*%
X30400000Y-19399999D03*
%TO.P,K2,6,C*%
%TO.N,VCC*%
X30400000Y-24399999D03*
%TO.P,K2,7,NC*%
%TO.N,Relay_NomallyClosed*%
X30400000Y-29400000D03*
%TO.P,K2,8,R*%
%TO.N,VCC*%
X30400000Y-44400000D03*
%TD*%
D15*
%TO.P,J7,1,Pin_1*%
%TO.N,Net-(D4-K)*%
X108000000Y-49480000D03*
%TO.P,J7,2,Pin_2*%
%TO.N,Net-(D6-K)*%
X108000000Y-44440000D03*
%TO.P,J7,3,Pin_3*%
%TO.N,GND2*%
X108000000Y-39320000D03*
%TD*%
D19*
%TO.P,SW2,1,1*%
%TO.N,Net-(D8-A)*%
X47598000Y-80177000D03*
X60098000Y-80177000D03*
%TO.P,SW2,2,2*%
%TO.N,GND2*%
X47598000Y-85177000D03*
X60098000Y-85177000D03*
%TD*%
D10*
%TO.P,R10,1*%
%TO.N,Net-(D12-A)*%
X103942500Y-78088000D03*
D11*
%TO.P,R10,2*%
%TO.N,VOUT1_OFF*%
X101402500Y-78088000D03*
%TD*%
D26*
%TO.P,U1,1*%
%TO.N,STOP_SIGNAL*%
X33125000Y-70900000D03*
D11*
%TO.P,U1,2*%
%TO.N,Net-(R1-Pad2)*%
X35665000Y-70900000D03*
%TO.P,U1,3*%
%TO.N,Net-(R2-Pad1)*%
X35665000Y-63280000D03*
%TO.P,U1,4*%
%TO.N,VCC*%
X33125000Y-63280000D03*
%TD*%
D12*
%TO.P,J4,*%
%TO.N,*%
X10900000Y-35100000D03*
X10900000Y-21600000D03*
D27*
%TO.P,J4,1,Pin_1*%
%TO.N,GND2*%
X16900000Y-31950000D03*
D14*
%TO.P,J4,2,Pin_2*%
%TO.N,Net-(J4-Pin_2)*%
X16900000Y-24750000D03*
%TD*%
D12*
%TO.P,J2,*%
%TO.N,*%
X110050000Y-21329643D03*
X110050000Y-34829643D03*
D13*
%TO.P,J2,1,Pin_1*%
%TO.N,GND2*%
X104050000Y-31679643D03*
D14*
%TO.P,J2,2,Pin_2*%
%TO.N,Net-(D6-K)*%
X104050000Y-24479643D03*
%TD*%
D10*
%TO.P,R8,1*%
%TO.N,Net-(D10-A)*%
X41910000Y-79203000D03*
D11*
%TO.P,R8,2*%
%TO.N,Relay_NomallyOpen*%
X41910000Y-76663000D03*
%TD*%
D10*
%TO.P,R11,1*%
%TO.N,Net-(D13-A)*%
X104074000Y-11175000D03*
D11*
%TO.P,R11,2*%
%TO.N,VOUT2*%
X101534000Y-11175000D03*
%TD*%
D20*
%TO.P,D9,1,K*%
%TO.N,GND2*%
X17680000Y-85424000D03*
D21*
%TO.P,D9,2,A*%
%TO.N,Net-(D9-A)*%
X17680000Y-82884000D03*
%TD*%
D10*
%TO.P,R5,1*%
%TO.N,Net-(R5-Pad1)*%
X52245000Y-60200000D03*
D11*
%TO.P,R5,2*%
%TO.N,Net-(Q2-B)*%
X49705000Y-60200000D03*
%TD*%
D28*
%TO.N,VCC*%
X27500000Y-22500000D03*
X42500000Y-7500000D03*
X32500000Y-17500000D03*
X27500000Y-17500000D03*
X37500000Y-12500000D03*
X27500000Y-12500000D03*
X32500000Y-22500000D03*
X37500000Y-17500000D03*
X32500000Y-12500000D03*
X27500000Y-7500000D03*
X42500000Y-12500000D03*
X37500000Y-22500000D03*
X42500000Y-17500000D03*
%TO.N,GND2*%
X57500000Y-2500000D03*
X87500000Y-77500000D03*
X2500000Y-12500000D03*
X47500000Y-82500000D03*
X52500000Y-82500000D03*
X97500000Y-12500000D03*
X7500000Y-2500000D03*
X87500000Y-67500000D03*
X27500000Y-52500000D03*
X57500000Y-62500000D03*
X87500000Y-2500000D03*
X77500000Y-82500000D03*
X112500000Y-32500000D03*
X112500000Y-12500000D03*
X37500000Y-82500000D03*
X57500000Y-47500000D03*
X12520000Y-37240000D03*
X52500000Y-12500000D03*
X82500000Y-87500000D03*
X42500000Y-2500000D03*
X32500000Y-52500000D03*
X72500000Y-87500000D03*
X77500000Y-87500000D03*
X62500000Y-52500000D03*
X47500000Y-87500000D03*
X117500000Y-27500000D03*
X72500000Y-52500000D03*
X62500000Y-82500000D03*
X17500000Y-87500000D03*
X32500000Y-87500000D03*
X117500000Y-12500000D03*
X67500000Y-2500000D03*
X77500000Y-72500000D03*
X12500000Y-77500000D03*
X57500000Y-82500000D03*
X77500000Y-67500000D03*
X112500000Y-22500000D03*
X47500000Y-17500000D03*
X57500000Y-57500000D03*
X112500000Y-82500000D03*
X27500000Y-42500000D03*
X37500000Y-2500000D03*
X2500000Y-82500000D03*
X87500000Y-87500000D03*
X47500000Y-7500000D03*
X47500000Y-77500000D03*
X117500000Y-57500000D03*
X27500000Y-47500000D03*
X77500000Y-77500000D03*
X72500000Y-57500000D03*
X87500000Y-82500000D03*
X12500000Y-2500000D03*
X52500000Y-2500000D03*
X22500000Y-47500000D03*
X82500000Y-67500000D03*
X92500000Y-87500000D03*
X22500000Y-87500000D03*
X107500000Y-67500000D03*
X47500000Y-52500000D03*
X107500000Y-72500000D03*
X2741699Y-37357881D03*
X12500000Y-32500000D03*
X117500000Y-82500000D03*
X112500000Y-77500000D03*
X42500000Y-47500000D03*
X7500000Y-27500000D03*
X37500000Y-57500000D03*
X112500000Y-27500000D03*
X72500000Y-82500000D03*
X102500000Y-2500000D03*
X72500000Y-72500000D03*
X7500000Y-7500000D03*
X67500000Y-72500000D03*
X117500000Y-52500000D03*
X7500000Y-32500000D03*
X112500000Y-62500000D03*
X97500000Y-32500000D03*
X7500000Y-82500000D03*
X67500000Y-87500000D03*
X52500000Y-87500000D03*
X2500000Y-72500000D03*
X117500000Y-67500000D03*
X17500000Y-37320000D03*
X92500000Y-72500000D03*
X117500000Y-42500000D03*
X117500000Y-2500000D03*
X67500000Y-82500000D03*
X67500000Y-77500000D03*
X72500000Y-62500000D03*
X112500000Y-37500000D03*
X37500000Y-52500000D03*
X72500000Y-12500000D03*
X62500000Y-72500000D03*
X57500000Y-87500000D03*
X82500000Y-77500000D03*
X22500000Y-82500000D03*
X62500000Y-2500000D03*
X57500000Y-52500000D03*
X107500000Y-12500000D03*
X112500000Y-67500000D03*
X27500000Y-62500000D03*
X12500000Y-87500000D03*
X62500000Y-67500000D03*
X97500000Y-87500000D03*
X47500000Y-2500000D03*
X37500000Y-87500000D03*
X52500000Y-57500000D03*
X117500000Y-22500000D03*
X107500000Y-2500000D03*
X77500000Y-17500000D03*
X77500000Y-57500000D03*
X47500000Y-62500000D03*
X107500000Y-37500000D03*
X27500000Y-87500000D03*
X27500000Y-77500000D03*
X112500000Y-17500000D03*
X52500000Y-7500000D03*
X62500000Y-62500000D03*
X107500000Y-82500000D03*
X62500000Y-7500000D03*
X32500000Y-2500000D03*
X27500000Y-57500000D03*
X2500000Y-57500000D03*
X2500000Y-77500000D03*
X97500000Y-67500000D03*
X62500000Y-87500000D03*
X2500000Y-17500000D03*
X112500000Y-7500000D03*
X77500000Y-2500000D03*
X57500000Y-7500000D03*
X2500000Y-22500000D03*
X97500000Y-82500000D03*
X42500000Y-62500000D03*
X97500000Y-77500000D03*
X72500000Y-2500000D03*
X82500000Y-2500000D03*
X22500000Y-52500000D03*
X117500000Y-72500000D03*
X87500000Y-62500000D03*
X2500000Y-52500000D03*
X92500000Y-77500000D03*
X42500000Y-87500000D03*
X97500000Y-7500000D03*
X107500000Y-87500000D03*
X37500000Y-62500000D03*
X22500000Y-42500000D03*
X92500000Y-82500000D03*
X2500000Y-7500000D03*
X42500000Y-57500000D03*
X117500000Y-7500000D03*
X107500000Y-77500000D03*
X42500000Y-52500000D03*
X22500000Y-32500000D03*
X2500000Y-2500000D03*
X102500000Y-7500000D03*
X112500000Y-57500000D03*
X72500000Y-77500000D03*
X67500000Y-57500000D03*
X102500000Y-67500000D03*
X22500000Y-27500000D03*
X102500000Y-37500000D03*
X77500000Y-62500000D03*
X32500000Y-82500000D03*
X82500000Y-62500000D03*
X2500000Y-67500000D03*
X112500000Y-52500000D03*
X82500000Y-72500000D03*
X52500000Y-52500000D03*
X102500000Y-87500000D03*
X22500000Y-77500000D03*
X117500000Y-87500000D03*
X57500000Y-12500000D03*
X117500000Y-17500000D03*
X92500000Y-2500000D03*
X27500000Y-37500000D03*
X7500000Y-37330000D03*
X22500000Y-57500000D03*
X117500000Y-37500000D03*
X102500000Y-82500000D03*
X2500000Y-47500000D03*
X87500000Y-72500000D03*
X62500000Y-57500000D03*
X117500000Y-47500000D03*
X12500000Y-82500000D03*
X117500000Y-62500000D03*
X7500000Y-22500000D03*
X7500000Y-87500000D03*
X92500000Y-7500000D03*
X112500000Y-72500000D03*
X2500000Y-42500000D03*
X27500000Y-2500000D03*
X17500000Y-2500000D03*
X97500000Y-2500000D03*
X52500000Y-17500000D03*
X7500000Y-77500000D03*
X72500000Y-17500000D03*
X107500000Y-32500000D03*
X62500000Y-77500000D03*
X27500000Y-82500000D03*
X2500000Y-32500000D03*
X112500000Y-47500000D03*
X87500000Y-57500000D03*
X112500000Y-87500000D03*
X72500000Y-67500000D03*
X112500000Y-2500000D03*
X37500000Y-77500000D03*
X22500000Y-2500000D03*
X67500000Y-67500000D03*
X67500000Y-62500000D03*
X117500000Y-77500000D03*
X52500000Y-77500000D03*
X112500000Y-42500000D03*
X82500000Y-82500000D03*
X67500000Y-7500000D03*
X117500000Y-32500000D03*
X47500000Y-12500000D03*
X2500000Y-27500000D03*
X12500000Y-27500000D03*
X107500000Y-7500000D03*
X77500000Y-12500000D03*
X2500000Y-62500000D03*
X2500000Y-87500000D03*
%TO.N,Relay_NomallyClosed*%
X82500000Y-47500000D03*
X82500000Y-37500000D03*
X67500000Y-22500000D03*
X87500000Y-47500000D03*
X87500000Y-37500000D03*
X57500000Y-37500000D03*
X42500000Y-27500000D03*
X72500000Y-27500000D03*
X72500000Y-47500000D03*
X67500000Y-32500000D03*
X62500000Y-27500000D03*
X37500000Y-32500000D03*
X42500000Y-32500000D03*
X57500000Y-42500000D03*
X82500000Y-27500000D03*
X77500000Y-22500000D03*
X47500000Y-27500000D03*
X67500000Y-42500000D03*
X62500000Y-42500000D03*
X87500000Y-27500000D03*
X72500000Y-22500000D03*
X52500000Y-32500000D03*
X77500000Y-32500000D03*
X87500000Y-32500000D03*
X72500000Y-37500000D03*
X67500000Y-37500000D03*
X47500000Y-22500000D03*
X67500000Y-27500000D03*
X87500000Y-22500000D03*
X82500000Y-32500000D03*
X47500000Y-32500000D03*
X77500000Y-47500000D03*
X62500000Y-22500000D03*
X37500000Y-27500000D03*
X72500000Y-32500000D03*
X52500000Y-27500000D03*
X52500000Y-22500000D03*
X27500000Y-27500000D03*
X32500000Y-27500000D03*
X47500000Y-37500000D03*
X62500000Y-32500000D03*
X82500000Y-22500000D03*
X77500000Y-27500000D03*
X52500000Y-37500000D03*
X62500000Y-37500000D03*
X77500000Y-37500000D03*
%TO.N,GND1*%
X32500000Y-67500000D03*
X52500000Y-72500000D03*
X52500000Y-67500000D03*
X12500000Y-62500000D03*
X12500000Y-42500000D03*
X12500000Y-67500000D03*
X12500000Y-47500000D03*
X22500000Y-72500000D03*
X42500000Y-72500000D03*
X12500000Y-57500000D03*
X7500000Y-42500000D03*
X42500000Y-67500000D03*
X27500000Y-72500000D03*
X37500000Y-67500000D03*
X47500000Y-67500000D03*
X12500000Y-72500000D03*
X47500000Y-72500000D03*
X12500000Y-52500000D03*
X37500000Y-72500000D03*
X22500000Y-67500000D03*
X27500000Y-67500000D03*
%TO.N,Net-(D4-K)*%
X102500000Y-52500000D03*
X107500000Y-62500000D03*
X97500000Y-62500000D03*
X107500000Y-52500000D03*
X107500000Y-57500000D03*
X102500000Y-47500000D03*
%TO.N,VOUT1*%
X97500000Y-52500000D03*
X92500000Y-47500000D03*
X97500000Y-47500000D03*
%TO.N,Net-(D6-K)*%
X107500000Y-27500000D03*
X102500000Y-42500000D03*
X102500000Y-27500000D03*
X107500000Y-22500000D03*
X92500000Y-32500000D03*
X92500000Y-37500000D03*
X92500000Y-42500000D03*
X107500000Y-42500000D03*
X92500000Y-27500000D03*
X92500000Y-22500000D03*
X97500000Y-42500000D03*
%TO.N,VOUT2*%
X107500000Y-17500000D03*
X97500000Y-17500000D03*
%TO.N,Net-(J4-Pin_2)*%
X16900000Y-17500000D03*
X17500000Y-12500000D03*
X12500000Y-12500000D03*
X22500000Y-17500000D03*
X22500000Y-12500000D03*
X22500000Y-22500000D03*
X12500000Y-7500000D03*
%TD*%
D29*
%TO.N,Net-(D2-A)*%
X35134000Y-50230000D02*
X34630000Y-50734000D01*
X36195000Y-80137000D02*
X36195000Y-76805000D01*
X36717919Y-50230000D02*
X35134000Y-50230000D01*
X41000000Y-72000000D02*
X41000000Y-54512081D01*
X36195000Y-76805000D02*
X41000000Y-72000000D01*
X41000000Y-54512081D02*
X36717919Y-50230000D01*
X23695000Y-80137000D02*
X36195000Y-80137000D01*
%TO.N,GND2*%
X60098000Y-85177000D02*
X47598000Y-85177000D01*
X41910000Y-84796000D02*
X36536000Y-84796000D01*
X60098000Y-85177000D02*
X61635000Y-85177000D01*
X23695000Y-85137000D02*
X36195000Y-85137000D01*
X17680000Y-85424000D02*
X23408000Y-85424000D01*
X47598000Y-85177000D02*
X42291000Y-85177000D01*
X61635000Y-85177000D02*
X67310000Y-79502000D01*
X42291000Y-85177000D02*
X41910000Y-84796000D01*
X23408000Y-85424000D02*
X23695000Y-85137000D01*
X36536000Y-84796000D02*
X36195000Y-85137000D01*
%TO.N,Net-(D9-A)*%
X17680000Y-79323000D02*
X17680000Y-82884000D01*
%TO.N,Relay_NomallyClosed*%
X17680000Y-76783000D02*
X17680000Y-42008000D01*
X17680000Y-42008000D02*
X30420000Y-29268000D01*
%TO.N,Net-(D8-A)*%
X61301000Y-80177000D02*
X60098000Y-80177000D01*
X60098000Y-80177000D02*
X61200000Y-79075000D01*
X61200000Y-68902000D02*
X59400000Y-67102000D01*
X47598000Y-80177000D02*
X60098000Y-80177000D01*
X61200000Y-79075000D02*
X61200000Y-68902000D01*
X59400000Y-58240000D02*
X51390000Y-50230000D01*
X59400000Y-67102000D02*
X59400000Y-58240000D01*
%TO.N,VOUT2_OFF*%
X101380000Y-16270000D02*
X101550000Y-16440000D01*
X80075000Y-16198000D02*
X82471000Y-18594000D01*
X91200000Y-4625000D02*
X80075000Y-4625000D01*
X101550000Y-14975000D02*
X91200000Y-4625000D01*
X101550000Y-16440000D02*
X101550000Y-14975000D01*
X80075000Y-4625000D02*
X80075000Y-16198000D01*
%TD*%
%TA.AperFunction,Conductor*%
%TO.N,GND2*%
G36*
X116026182Y-1013091D02*
G01*
X117963030Y-1981515D01*
X118014189Y-2029102D01*
X118018485Y-2036970D01*
X118590581Y-3181161D01*
X118621974Y-3243947D01*
X118668389Y-3336777D01*
X118729034Y-3458067D01*
X118802867Y-3605733D01*
X118951672Y-3903343D01*
X118979957Y-3959913D01*
X118979960Y-3959919D01*
X118984855Y-3969709D01*
X118986909Y-3973818D01*
X119000000Y-4029272D01*
X119000000Y-85970728D01*
X118986909Y-86026182D01*
X118984854Y-86030293D01*
X118888629Y-86222743D01*
X118018485Y-87963030D01*
X117970898Y-88014189D01*
X117963030Y-88018485D01*
X116026182Y-88986909D01*
X115970728Y-89000000D01*
X4029272Y-89000000D01*
X3973818Y-88986909D01*
X2036970Y-88018485D01*
X1985811Y-87970898D01*
X1981515Y-87963030D01*
X1111372Y-86222743D01*
X1015147Y-86030293D01*
X1013091Y-86026182D01*
X1000000Y-85970728D01*
X1000000Y-84878711D01*
X3149500Y-84878711D01*
X3149500Y-85121288D01*
X3181161Y-85361785D01*
X3243947Y-85596104D01*
X3336773Y-85820205D01*
X3336776Y-85820212D01*
X3458064Y-86030289D01*
X3458066Y-86030292D01*
X3458067Y-86030293D01*
X3605733Y-86222736D01*
X3605739Y-86222743D01*
X3777256Y-86394260D01*
X3777262Y-86394265D01*
X3969711Y-86541936D01*
X4179788Y-86663224D01*
X4403900Y-86756054D01*
X4638211Y-86818838D01*
X4818586Y-86842584D01*
X4878711Y-86850500D01*
X4878712Y-86850500D01*
X5121289Y-86850500D01*
X5169388Y-86844167D01*
X5361789Y-86818838D01*
X5596100Y-86756054D01*
X5820212Y-86663224D01*
X6030289Y-86541936D01*
X6222738Y-86394265D01*
X6394265Y-86222738D01*
X6541936Y-86030289D01*
X6663224Y-85820212D01*
X6756054Y-85596100D01*
X6818838Y-85361789D01*
X6850500Y-85121288D01*
X6850500Y-84878712D01*
X6850500Y-84878711D01*
X113149500Y-84878711D01*
X113149500Y-85121288D01*
X113181161Y-85361785D01*
X113243947Y-85596104D01*
X113336773Y-85820205D01*
X113336776Y-85820212D01*
X113458064Y-86030289D01*
X113458066Y-86030292D01*
X113458067Y-86030293D01*
X113605733Y-86222736D01*
X113605739Y-86222743D01*
X113777256Y-86394260D01*
X113777262Y-86394265D01*
X113969711Y-86541936D01*
X114179788Y-86663224D01*
X114403900Y-86756054D01*
X114638211Y-86818838D01*
X114818586Y-86842584D01*
X114878711Y-86850500D01*
X114878712Y-86850500D01*
X115121289Y-86850500D01*
X115169388Y-86844167D01*
X115361789Y-86818838D01*
X115596100Y-86756054D01*
X115820212Y-86663224D01*
X116030289Y-86541936D01*
X116222738Y-86394265D01*
X116394265Y-86222738D01*
X116541936Y-86030289D01*
X116663224Y-85820212D01*
X116756054Y-85596100D01*
X116818838Y-85361789D01*
X116850500Y-85121288D01*
X116850500Y-84878712D01*
X116818838Y-84638211D01*
X116756054Y-84403900D01*
X116663224Y-84179788D01*
X116541936Y-83969711D01*
X116394265Y-83777262D01*
X116394260Y-83777256D01*
X116222743Y-83605739D01*
X116222736Y-83605733D01*
X116030293Y-83458067D01*
X116030292Y-83458066D01*
X116030289Y-83458064D01*
X115820212Y-83336776D01*
X115707087Y-83289918D01*
X115596104Y-83243947D01*
X115361785Y-83181161D01*
X115121289Y-83149500D01*
X115121288Y-83149500D01*
X114878712Y-83149500D01*
X114878711Y-83149500D01*
X114638214Y-83181161D01*
X114403895Y-83243947D01*
X114179794Y-83336773D01*
X114179785Y-83336777D01*
X113969706Y-83458067D01*
X113777263Y-83605733D01*
X113777256Y-83605739D01*
X113605739Y-83777256D01*
X113605733Y-83777263D01*
X113458067Y-83969706D01*
X113336777Y-84179785D01*
X113336773Y-84179794D01*
X113243947Y-84403895D01*
X113181161Y-84638214D01*
X113149500Y-84878711D01*
X6850500Y-84878711D01*
X6818838Y-84638211D01*
X6756054Y-84403900D01*
X6663224Y-84179788D01*
X6541936Y-83969711D01*
X6394265Y-83777262D01*
X6394260Y-83777256D01*
X6222743Y-83605739D01*
X6222736Y-83605733D01*
X6030293Y-83458067D01*
X6030292Y-83458066D01*
X6030289Y-83458064D01*
X5820212Y-83336776D01*
X5707087Y-83289918D01*
X5596104Y-83243947D01*
X5361785Y-83181161D01*
X5121289Y-83149500D01*
X5121288Y-83149500D01*
X4878712Y-83149500D01*
X4878711Y-83149500D01*
X4638214Y-83181161D01*
X4403895Y-83243947D01*
X4179794Y-83336773D01*
X4179785Y-83336777D01*
X3969706Y-83458067D01*
X3777263Y-83605733D01*
X3777256Y-83605739D01*
X3605739Y-83777256D01*
X3605733Y-83777263D01*
X3458067Y-83969706D01*
X3336777Y-84179785D01*
X3336773Y-84179794D01*
X3243947Y-84403895D01*
X3181161Y-84638214D01*
X3149500Y-84878711D01*
X1000000Y-84878711D01*
X1000000Y-38421974D01*
X3794500Y-38421974D01*
X3794500Y-70646785D01*
X3798129Y-70707238D01*
X3801678Y-70736687D01*
X3801679Y-70736695D01*
X3812516Y-70796292D01*
X3812516Y-70796293D01*
X3866240Y-70929777D01*
X3901285Y-70990220D01*
X3990430Y-71103151D01*
X4274754Y-71373258D01*
X4350272Y-71445000D01*
X5043852Y-72103901D01*
X5643749Y-72673803D01*
X7875448Y-74793918D01*
X9582062Y-76415201D01*
X9617108Y-76475646D01*
X9613911Y-76545442D01*
X9573487Y-76602431D01*
X9516055Y-76627574D01*
X9324047Y-76657985D01*
X9114396Y-76726103D01*
X9114393Y-76726104D01*
X8917974Y-76826187D01*
X8739641Y-76955752D01*
X8739636Y-76955756D01*
X8583756Y-77111636D01*
X8583752Y-77111641D01*
X8454187Y-77289974D01*
X8354104Y-77486393D01*
X8354103Y-77486396D01*
X8285985Y-77696047D01*
X8270539Y-77793568D01*
X8251500Y-77913778D01*
X8251500Y-78134222D01*
X8260720Y-78192432D01*
X8285985Y-78351952D01*
X8354103Y-78561603D01*
X8354104Y-78561606D01*
X8409471Y-78670267D01*
X8453415Y-78756511D01*
X8454187Y-78758025D01*
X8583752Y-78936358D01*
X8583756Y-78936363D01*
X8739636Y-79092243D01*
X8739641Y-79092247D01*
X8787065Y-79126702D01*
X8917978Y-79221815D01*
X9002452Y-79264857D01*
X9114393Y-79321895D01*
X9114396Y-79321896D01*
X9219221Y-79355955D01*
X9324049Y-79390015D01*
X9541778Y-79424500D01*
X9541779Y-79424500D01*
X9762221Y-79424500D01*
X9762222Y-79424500D01*
X9979951Y-79390015D01*
X10189606Y-79321895D01*
X10386022Y-79221815D01*
X10564365Y-79092242D01*
X10720242Y-78936365D01*
X10849815Y-78758022D01*
X10949895Y-78561606D01*
X11018015Y-78351951D01*
X11052500Y-78134222D01*
X11052500Y-77913778D01*
X11018015Y-77696049D01*
X10968823Y-77544650D01*
X10949896Y-77486396D01*
X10949895Y-77486393D01*
X10862937Y-77315732D01*
X10849815Y-77289978D01*
X10720242Y-77111635D01*
X10720236Y-77111629D01*
X10718877Y-77110037D01*
X10718546Y-77109300D01*
X10717379Y-77107693D01*
X10717716Y-77107447D01*
X10690303Y-77046277D01*
X10700736Y-76977191D01*
X10746864Y-76924712D01*
X10813163Y-76905500D01*
X16271945Y-76905500D01*
X16338984Y-76925185D01*
X16384739Y-76977989D01*
X16394062Y-77007970D01*
X16394366Y-77009697D01*
X16453258Y-77229488D01*
X16453261Y-77229497D01*
X16549431Y-77435732D01*
X16549432Y-77435734D01*
X16679954Y-77622141D01*
X16840858Y-77783045D01*
X16869296Y-77802957D01*
X17027266Y-77913568D01*
X17085275Y-77940618D01*
X17137714Y-77986791D01*
X17156866Y-78053984D01*
X17136650Y-78120865D01*
X17085275Y-78165382D01*
X17027267Y-78192431D01*
X17027265Y-78192432D01*
X16840858Y-78322954D01*
X16679954Y-78483858D01*
X16549432Y-78670265D01*
X16549431Y-78670267D01*
X16453261Y-78876502D01*
X16453258Y-78876511D01*
X16394366Y-79096302D01*
X16394364Y-79096313D01*
X16374532Y-79322998D01*
X16374532Y-79323001D01*
X16394364Y-79549686D01*
X16394366Y-79549697D01*
X16453258Y-79769488D01*
X16453261Y-79769497D01*
X16549431Y-79975732D01*
X16549432Y-79975734D01*
X16679954Y-80162141D01*
X16840859Y-80323046D01*
X16876621Y-80348086D01*
X16920247Y-80402662D01*
X16929500Y-80449662D01*
X16929500Y-81632801D01*
X16909815Y-81699840D01*
X16881663Y-81730654D01*
X16728218Y-81850085D01*
X16571016Y-82020852D01*
X16444075Y-82215151D01*
X16350842Y-82427699D01*
X16293866Y-82652691D01*
X16293864Y-82652702D01*
X16274700Y-82883993D01*
X16274700Y-82884006D01*
X16293864Y-83115297D01*
X16293866Y-83115308D01*
X16350842Y-83340300D01*
X16444075Y-83552848D01*
X16571016Y-83747147D01*
X16571019Y-83747151D01*
X16571021Y-83747153D01*
X16728216Y-83917913D01*
X16728219Y-83917915D01*
X16728222Y-83917918D01*
X16911365Y-84060464D01*
X16911371Y-84060468D01*
X16911374Y-84060470D01*
X17115497Y-84170936D01*
X17229487Y-84210068D01*
X17335015Y-84246297D01*
X17335017Y-84246297D01*
X17335019Y-84246298D01*
X17563951Y-84284500D01*
X17563952Y-84284500D01*
X17796048Y-84284500D01*
X17796049Y-84284500D01*
X18024981Y-84246298D01*
X18244503Y-84170936D01*
X18448626Y-84060470D01*
X18631784Y-83917913D01*
X18788979Y-83747153D01*
X18915924Y-83552849D01*
X19009157Y-83340300D01*
X19066134Y-83115305D01*
X19066135Y-83115297D01*
X19085300Y-82884006D01*
X19085300Y-82883993D01*
X19066135Y-82652702D01*
X19066133Y-82652691D01*
X19009157Y-82427699D01*
X18933839Y-82255993D01*
X40504700Y-82255993D01*
X40504700Y-82256006D01*
X40523864Y-82487297D01*
X40523866Y-82487308D01*
X40580842Y-82712300D01*
X40674075Y-82924848D01*
X40801016Y-83119147D01*
X40801019Y-83119151D01*
X40801021Y-83119153D01*
X40958216Y-83289913D01*
X40958219Y-83289915D01*
X40958222Y-83289918D01*
X41141365Y-83432464D01*
X41141371Y-83432468D01*
X41141374Y-83432470D01*
X41345497Y-83542936D01*
X41374373Y-83552849D01*
X41565015Y-83618297D01*
X41565017Y-83618297D01*
X41565019Y-83618298D01*
X41793951Y-83656500D01*
X41793952Y-83656500D01*
X42026048Y-83656500D01*
X42026049Y-83656500D01*
X42254981Y-83618298D01*
X42474503Y-83542936D01*
X42678626Y-83432470D01*
X42861784Y-83289913D01*
X43018979Y-83119153D01*
X43145924Y-82924849D01*
X43239157Y-82712300D01*
X43296134Y-82487305D01*
X43315300Y-82256000D01*
X43315300Y-82255993D01*
X43296135Y-82024702D01*
X43296133Y-82024691D01*
X43239157Y-81799699D01*
X43145924Y-81587151D01*
X43018983Y-81392852D01*
X43018980Y-81392849D01*
X43018979Y-81392847D01*
X42861784Y-81222087D01*
X42861779Y-81222083D01*
X42861777Y-81222081D01*
X42678634Y-81079535D01*
X42678628Y-81079531D01*
X42474504Y-80969064D01*
X42474495Y-80969061D01*
X42254984Y-80893702D01*
X42083282Y-80865050D01*
X42026049Y-80855500D01*
X41793951Y-80855500D01*
X41748164Y-80863140D01*
X41565015Y-80893702D01*
X41345504Y-80969061D01*
X41345495Y-80969064D01*
X41141371Y-81079531D01*
X41141365Y-81079535D01*
X40958222Y-81222081D01*
X40958219Y-81222084D01*
X40958216Y-81222086D01*
X40958216Y-81222087D01*
X40901795Y-81283377D01*
X40801016Y-81392852D01*
X40674075Y-81587151D01*
X40580842Y-81799699D01*
X40523866Y-82024691D01*
X40523864Y-82024702D01*
X40504700Y-82255993D01*
X18933839Y-82255993D01*
X18915924Y-82215151D01*
X18788983Y-82020852D01*
X18788980Y-82020849D01*
X18788979Y-82020847D01*
X18631784Y-81850087D01*
X18567045Y-81799699D01*
X18478337Y-81730654D01*
X18437524Y-81673944D01*
X18430500Y-81632801D01*
X18430500Y-80449662D01*
X18450185Y-80382623D01*
X18483379Y-80348086D01*
X18504113Y-80333568D01*
X18519139Y-80323047D01*
X18680047Y-80162139D01*
X18810568Y-79975734D01*
X18906739Y-79769496D01*
X18965635Y-79549692D01*
X18985468Y-79323000D01*
X18985371Y-79321896D01*
X18970238Y-79148920D01*
X18965635Y-79096308D01*
X18906739Y-78876504D01*
X18810568Y-78670266D01*
X18680047Y-78483861D01*
X18680045Y-78483858D01*
X18519141Y-78322954D01*
X18332734Y-78192432D01*
X18332728Y-78192429D01*
X18274725Y-78165382D01*
X18222285Y-78119210D01*
X18203133Y-78052017D01*
X18223348Y-77985135D01*
X18274725Y-77940618D01*
X18332734Y-77913568D01*
X18519139Y-77783047D01*
X18680047Y-77622139D01*
X18810568Y-77435734D01*
X18906739Y-77229496D01*
X18965635Y-77009692D01*
X18965636Y-77009679D01*
X18965938Y-77007970D01*
X18966282Y-77007274D01*
X18967036Y-77004463D01*
X18967601Y-77004614D01*
X18996964Y-76945367D01*
X19056910Y-76909475D01*
X19088055Y-76905500D01*
X35320500Y-76905500D01*
X35387539Y-76925185D01*
X35433294Y-76977989D01*
X35444500Y-77029500D01*
X35444500Y-78578430D01*
X35424815Y-78645469D01*
X35372011Y-78691224D01*
X35339899Y-78700903D01*
X35205338Y-78722216D01*
X34988196Y-78792770D01*
X34784771Y-78896421D01*
X34600061Y-79030622D01*
X34438622Y-79192061D01*
X34334490Y-79335386D01*
X34279159Y-79378051D01*
X34234172Y-79386500D01*
X25655828Y-79386500D01*
X25588789Y-79366815D01*
X25555510Y-79335386D01*
X25546511Y-79323000D01*
X25451379Y-79192063D01*
X25289937Y-79030621D01*
X25105228Y-78896421D01*
X24901803Y-78792770D01*
X24684660Y-78722215D01*
X24459162Y-78686500D01*
X24459157Y-78686500D01*
X22930843Y-78686500D01*
X22930838Y-78686500D01*
X22705339Y-78722215D01*
X22488196Y-78792770D01*
X22284771Y-78896421D01*
X22100061Y-79030622D01*
X21938622Y-79192061D01*
X21804421Y-79376771D01*
X21700770Y-79580196D01*
X21630215Y-79797339D01*
X21594500Y-80022837D01*
X21594500Y-80251162D01*
X21630215Y-80476660D01*
X21700770Y-80693803D01*
X21799464Y-80887500D01*
X21804421Y-80897228D01*
X21938621Y-81081937D01*
X22100063Y-81243379D01*
X22284772Y-81377579D01*
X22363275Y-81417578D01*
X22488196Y-81481229D01*
X22488198Y-81481229D01*
X22488201Y-81481231D01*
X22604592Y-81519049D01*
X22705339Y-81551784D01*
X22930838Y-81587500D01*
X22930843Y-81587500D01*
X24459162Y-81587500D01*
X24684660Y-81551784D01*
X24901799Y-81481231D01*
X25105228Y-81377579D01*
X25289937Y-81243379D01*
X25451379Y-81081937D01*
X25555510Y-80938613D01*
X25610841Y-80895949D01*
X25655828Y-80887500D01*
X34234172Y-80887500D01*
X34301211Y-80907185D01*
X34334489Y-80938613D01*
X34438621Y-81081937D01*
X34600063Y-81243379D01*
X34784772Y-81377579D01*
X34863275Y-81417578D01*
X34988196Y-81481229D01*
X34988198Y-81481229D01*
X34988201Y-81481231D01*
X35104592Y-81519049D01*
X35205339Y-81551784D01*
X35430838Y-81587500D01*
X35430843Y-81587500D01*
X36959162Y-81587500D01*
X37184660Y-81551784D01*
X37401799Y-81481231D01*
X37605228Y-81377579D01*
X37789937Y-81243379D01*
X37951379Y-81081937D01*
X38085579Y-80897228D01*
X38189231Y-80693799D01*
X38259784Y-80476660D01*
X38273206Y-80391918D01*
X38295500Y-80251162D01*
X38295500Y-80022837D01*
X38259784Y-79797339D01*
X38189229Y-79580196D01*
X38134550Y-79472884D01*
X38085579Y-79376772D01*
X37951379Y-79192063D01*
X37789937Y-79030621D01*
X37605228Y-78896421D01*
X37401803Y-78792770D01*
X37184661Y-78722216D01*
X37050101Y-78700903D01*
X36986967Y-78670973D01*
X36950036Y-78611662D01*
X36945500Y-78578430D01*
X36945500Y-77167229D01*
X36965185Y-77100190D01*
X36981819Y-77079548D01*
X37084176Y-76977191D01*
X37198384Y-76862982D01*
X37259705Y-76829499D01*
X37329396Y-76834483D01*
X37337569Y-76837869D01*
X37374058Y-76854533D01*
X37392562Y-76862984D01*
X37397717Y-76865338D01*
X37464756Y-76885023D01*
X37464760Y-76885024D01*
X37607176Y-76905500D01*
X40533452Y-76905500D01*
X40600491Y-76925185D01*
X40646246Y-76977989D01*
X40653227Y-76997407D01*
X40683258Y-77109488D01*
X40683261Y-77109497D01*
X40779431Y-77315732D01*
X40779432Y-77315734D01*
X40909954Y-77502141D01*
X41070858Y-77663045D01*
X41070861Y-77663047D01*
X41257266Y-77793568D01*
X41277401Y-77802957D01*
X41315275Y-77820618D01*
X41367714Y-77866791D01*
X41386866Y-77933984D01*
X41366650Y-78000865D01*
X41315275Y-78045382D01*
X41257267Y-78072431D01*
X41257265Y-78072432D01*
X41070858Y-78202954D01*
X40909954Y-78363858D01*
X40779432Y-78550265D01*
X40779431Y-78550267D01*
X40683261Y-78756502D01*
X40683258Y-78756511D01*
X40624366Y-78976302D01*
X40624364Y-78976313D01*
X40604532Y-79202998D01*
X40604532Y-79203001D01*
X40624364Y-79429686D01*
X40624366Y-79429697D01*
X40683258Y-79649488D01*
X40683261Y-79649497D01*
X40779431Y-79855732D01*
X40779432Y-79855734D01*
X40909954Y-80042141D01*
X41070858Y-80203045D01*
X41070861Y-80203047D01*
X41257266Y-80333568D01*
X41463504Y-80429739D01*
X41683308Y-80488635D01*
X41845230Y-80502801D01*
X41909998Y-80508468D01*
X41910000Y-80508468D01*
X41910002Y-80508468D01*
X41966673Y-80503509D01*
X42136692Y-80488635D01*
X42356496Y-80429739D01*
X42562734Y-80333568D01*
X42749139Y-80203047D01*
X42910047Y-80042139D01*
X43040568Y-79855734D01*
X43136739Y-79649496D01*
X43195635Y-79429692D01*
X43215468Y-79203000D01*
X43195635Y-78976308D01*
X43136739Y-78756504D01*
X43040568Y-78550266D01*
X42910047Y-78363861D01*
X42910045Y-78363858D01*
X42749141Y-78202954D01*
X42562734Y-78072432D01*
X42562728Y-78072429D01*
X42504725Y-78045382D01*
X42452285Y-77999210D01*
X42433133Y-77932017D01*
X42453348Y-77865135D01*
X42504725Y-77820618D01*
X42562734Y-77793568D01*
X42749139Y-77663047D01*
X42910047Y-77502139D01*
X43040568Y-77315734D01*
X43136739Y-77109496D01*
X43166773Y-76997407D01*
X43203138Y-76937746D01*
X43265985Y-76907217D01*
X43286548Y-76905500D01*
X52548596Y-76905500D01*
X52548606Y-76905500D01*
X52602747Y-76902592D01*
X52629157Y-76899747D01*
X52682677Y-76891057D01*
X52751551Y-76865335D01*
X52817462Y-76840720D01*
X52817462Y-76840719D01*
X52817464Y-76840719D01*
X52876806Y-76808283D01*
X52878290Y-76807506D01*
X52878765Y-76807212D01*
X52878773Y-76807208D01*
X52878775Y-76807207D01*
X52993920Y-76720934D01*
X60237782Y-69470885D01*
X60299090Y-69437375D01*
X60368784Y-69442330D01*
X60424735Y-69484177D01*
X60449180Y-69549631D01*
X60449500Y-69558530D01*
X60449500Y-78602500D01*
X60429815Y-78669539D01*
X60377011Y-78715294D01*
X60325500Y-78726500D01*
X59333838Y-78726500D01*
X59108339Y-78762215D01*
X58891196Y-78832770D01*
X58687771Y-78936421D01*
X58503061Y-79070622D01*
X58341622Y-79232061D01*
X58237490Y-79375386D01*
X58182159Y-79418051D01*
X58137172Y-79426500D01*
X49558828Y-79426500D01*
X49491789Y-79406815D01*
X49458510Y-79375386D01*
X49452283Y-79366815D01*
X49354379Y-79232063D01*
X49192937Y-79070621D01*
X49008228Y-78936421D01*
X48990011Y-78927139D01*
X48804803Y-78832770D01*
X48587660Y-78762215D01*
X48362162Y-78726500D01*
X48362157Y-78726500D01*
X46833843Y-78726500D01*
X46833838Y-78726500D01*
X46608339Y-78762215D01*
X46391196Y-78832770D01*
X46187771Y-78936421D01*
X46003061Y-79070622D01*
X45841622Y-79232061D01*
X45707421Y-79416771D01*
X45603770Y-79620196D01*
X45533215Y-79837339D01*
X45497500Y-80062837D01*
X45497500Y-80291162D01*
X45533215Y-80516660D01*
X45603770Y-80733803D01*
X45682083Y-80887500D01*
X45707421Y-80937228D01*
X45841621Y-81121937D01*
X46003063Y-81283379D01*
X46187772Y-81417579D01*
X46283884Y-81466550D01*
X46391196Y-81521229D01*
X46391198Y-81521229D01*
X46391201Y-81521231D01*
X46485233Y-81551784D01*
X46608339Y-81591784D01*
X46833838Y-81627500D01*
X46833843Y-81627500D01*
X48362162Y-81627500D01*
X48587660Y-81591784D01*
X48601919Y-81587151D01*
X48804799Y-81521231D01*
X49008228Y-81417579D01*
X49192937Y-81283379D01*
X49354379Y-81121937D01*
X49458510Y-80978613D01*
X49513841Y-80935949D01*
X49558828Y-80927500D01*
X58137172Y-80927500D01*
X58204211Y-80947185D01*
X58237489Y-80978613D01*
X58341621Y-81121937D01*
X58503063Y-81283379D01*
X58687772Y-81417579D01*
X58783884Y-81466550D01*
X58891196Y-81521229D01*
X58891198Y-81521229D01*
X58891201Y-81521231D01*
X58985233Y-81551784D01*
X59108339Y-81591784D01*
X59333838Y-81627500D01*
X59333843Y-81627500D01*
X60862162Y-81627500D01*
X61087660Y-81591784D01*
X61101919Y-81587151D01*
X61304799Y-81521231D01*
X61508228Y-81417579D01*
X61692937Y-81283379D01*
X61854379Y-81121937D01*
X61988579Y-80937228D01*
X62092231Y-80733799D01*
X62162784Y-80516660D01*
X62198500Y-80291162D01*
X62198500Y-80062837D01*
X62162784Y-79837339D01*
X62101750Y-79649497D01*
X62092231Y-79620201D01*
X62092229Y-79620198D01*
X62092229Y-79620196D01*
X62041291Y-79520226D01*
X61988579Y-79416772D01*
X61959517Y-79376772D01*
X61948737Y-79361934D01*
X61925257Y-79296127D01*
X61927438Y-79264857D01*
X61950500Y-79148920D01*
X61950500Y-78087998D01*
X100097032Y-78087998D01*
X100097032Y-78088001D01*
X100116864Y-78314686D01*
X100116866Y-78314697D01*
X100175758Y-78534488D01*
X100175761Y-78534497D01*
X100271931Y-78740732D01*
X100271932Y-78740734D01*
X100402454Y-78927141D01*
X100563358Y-79088045D01*
X100569359Y-79092247D01*
X100749766Y-79218568D01*
X100956004Y-79314739D01*
X100956009Y-79314740D01*
X100956011Y-79314741D01*
X100986838Y-79323001D01*
X101175808Y-79373635D01*
X101337730Y-79387801D01*
X101402498Y-79393468D01*
X101402500Y-79393468D01*
X101402502Y-79393468D01*
X101459173Y-79388509D01*
X101629192Y-79373635D01*
X101848996Y-79314739D01*
X102055234Y-79218568D01*
X102241639Y-79088047D01*
X102402547Y-78927139D01*
X102533068Y-78740734D01*
X102560118Y-78682724D01*
X102606290Y-78630285D01*
X102673483Y-78611133D01*
X102740365Y-78631348D01*
X102784882Y-78682725D01*
X102811929Y-78740728D01*
X102811932Y-78740734D01*
X102942454Y-78927141D01*
X103103358Y-79088045D01*
X103109359Y-79092247D01*
X103289766Y-79218568D01*
X103496004Y-79314739D01*
X103496009Y-79314740D01*
X103496011Y-79314741D01*
X103526838Y-79323001D01*
X103715808Y-79373635D01*
X103877730Y-79387801D01*
X103942498Y-79393468D01*
X103942500Y-79393468D01*
X103942502Y-79393468D01*
X103999173Y-79388509D01*
X104169192Y-79373635D01*
X104227569Y-79357993D01*
X108411200Y-79357993D01*
X108411200Y-79358006D01*
X108430364Y-79589297D01*
X108430366Y-79589308D01*
X108487342Y-79814300D01*
X108580575Y-80026848D01*
X108707516Y-80221147D01*
X108707519Y-80221151D01*
X108707521Y-80221153D01*
X108864716Y-80391913D01*
X108864719Y-80391915D01*
X108864722Y-80391918D01*
X109047865Y-80534464D01*
X109047871Y-80534468D01*
X109047874Y-80534470D01*
X109251997Y-80644936D01*
X109365987Y-80684068D01*
X109471515Y-80720297D01*
X109471517Y-80720297D01*
X109471519Y-80720298D01*
X109700451Y-80758500D01*
X109700452Y-80758500D01*
X109932548Y-80758500D01*
X109932549Y-80758500D01*
X110161481Y-80720298D01*
X110381003Y-80644936D01*
X110585126Y-80534470D01*
X110608009Y-80516660D01*
X110719686Y-80429738D01*
X110768284Y-80391913D01*
X110925479Y-80221153D01*
X111052424Y-80026849D01*
X111145657Y-79814300D01*
X111202634Y-79589305D01*
X111202635Y-79589297D01*
X111221800Y-79358006D01*
X111221800Y-79357993D01*
X111202635Y-79126702D01*
X111202633Y-79126691D01*
X111145657Y-78901699D01*
X111052424Y-78689151D01*
X110925483Y-78494852D01*
X110925480Y-78494849D01*
X110925479Y-78494847D01*
X110768284Y-78324087D01*
X110768279Y-78324083D01*
X110768277Y-78324081D01*
X110585134Y-78181535D01*
X110585128Y-78181531D01*
X110381004Y-78071064D01*
X110380995Y-78071061D01*
X110161484Y-77995702D01*
X109989782Y-77967050D01*
X109932549Y-77957500D01*
X109700451Y-77957500D01*
X109654664Y-77965140D01*
X109471515Y-77995702D01*
X109252004Y-78071061D01*
X109251995Y-78071064D01*
X109047871Y-78181531D01*
X109047865Y-78181535D01*
X108864722Y-78324081D01*
X108864719Y-78324084D01*
X108864716Y-78324086D01*
X108864716Y-78324087D01*
X108839065Y-78351952D01*
X108707516Y-78494852D01*
X108580575Y-78689151D01*
X108487342Y-78901699D01*
X108430366Y-79126691D01*
X108430364Y-79126702D01*
X108411200Y-79357993D01*
X104227569Y-79357993D01*
X104388996Y-79314739D01*
X104595234Y-79218568D01*
X104781639Y-79088047D01*
X104942547Y-78927139D01*
X105073068Y-78740734D01*
X105169239Y-78534496D01*
X105228135Y-78314692D01*
X105247968Y-78088000D01*
X105228135Y-77861308D01*
X105169239Y-77641504D01*
X105073068Y-77435266D01*
X104942547Y-77248861D01*
X104942545Y-77248858D01*
X104781641Y-77087954D01*
X104595234Y-76957432D01*
X104595232Y-76957431D01*
X104388997Y-76861261D01*
X104388988Y-76861258D01*
X104169197Y-76802366D01*
X104169193Y-76802365D01*
X104169192Y-76802365D01*
X104169191Y-76802364D01*
X104169186Y-76802364D01*
X103942502Y-76782532D01*
X103942498Y-76782532D01*
X103715813Y-76802364D01*
X103715802Y-76802366D01*
X103496011Y-76861258D01*
X103496002Y-76861261D01*
X103289767Y-76957431D01*
X103289765Y-76957432D01*
X103103358Y-77087954D01*
X102942454Y-77248858D01*
X102811932Y-77435265D01*
X102811931Y-77435267D01*
X102792810Y-77476272D01*
X102788091Y-77486394D01*
X102784882Y-77493275D01*
X102738709Y-77545714D01*
X102671516Y-77564866D01*
X102604635Y-77544650D01*
X102560118Y-77493275D01*
X102556910Y-77486396D01*
X102533068Y-77435266D01*
X102402547Y-77248861D01*
X102402545Y-77248858D01*
X102241641Y-77087954D01*
X102055234Y-76957432D01*
X102055232Y-76957431D01*
X101848997Y-76861261D01*
X101848988Y-76861258D01*
X101629197Y-76802366D01*
X101629193Y-76802365D01*
X101629192Y-76802365D01*
X101629191Y-76802364D01*
X101629186Y-76802364D01*
X101402502Y-76782532D01*
X101402498Y-76782532D01*
X101175813Y-76802364D01*
X101175802Y-76802366D01*
X100956011Y-76861258D01*
X100956002Y-76861261D01*
X100749767Y-76957431D01*
X100749765Y-76957432D01*
X100563358Y-77087954D01*
X100402454Y-77248858D01*
X100271932Y-77435265D01*
X100271931Y-77435267D01*
X100175761Y-77641502D01*
X100175758Y-77641511D01*
X100116866Y-77861302D01*
X100116864Y-77861313D01*
X100097032Y-78087998D01*
X61950500Y-78087998D01*
X61950500Y-72599998D01*
X100008532Y-72599998D01*
X100008532Y-72600001D01*
X100028364Y-72826686D01*
X100028366Y-72826697D01*
X100087258Y-73046488D01*
X100087261Y-73046497D01*
X100183431Y-73252732D01*
X100183432Y-73252734D01*
X100313954Y-73439141D01*
X100474858Y-73600045D01*
X100474861Y-73600047D01*
X100661266Y-73730568D01*
X100867504Y-73826739D01*
X101087308Y-73885635D01*
X101249230Y-73899801D01*
X101313998Y-73905468D01*
X101314000Y-73905468D01*
X101314002Y-73905468D01*
X101370673Y-73900509D01*
X101540692Y-73885635D01*
X101760496Y-73826739D01*
X101966734Y-73730568D01*
X102153139Y-73600047D01*
X102314047Y-73439139D01*
X102444568Y-73252734D01*
X102471618Y-73194724D01*
X102517790Y-73142285D01*
X102584983Y-73123133D01*
X102651865Y-73143348D01*
X102696382Y-73194725D01*
X102723429Y-73252728D01*
X102723432Y-73252734D01*
X102853954Y-73439141D01*
X103014858Y-73600045D01*
X103014861Y-73600047D01*
X103201266Y-73730568D01*
X103407504Y-73826739D01*
X103627308Y-73885635D01*
X103789230Y-73899801D01*
X103853998Y-73905468D01*
X103854000Y-73905468D01*
X103854002Y-73905468D01*
X103910673Y-73900509D01*
X104080692Y-73885635D01*
X104300496Y-73826739D01*
X104443632Y-73759993D01*
X108322700Y-73759993D01*
X108322700Y-73760006D01*
X108341864Y-73991297D01*
X108341866Y-73991308D01*
X108398842Y-74216300D01*
X108492075Y-74428848D01*
X108619016Y-74623147D01*
X108619019Y-74623151D01*
X108619021Y-74623153D01*
X108776216Y-74793913D01*
X108776219Y-74793915D01*
X108776222Y-74793918D01*
X108959365Y-74936464D01*
X108959371Y-74936468D01*
X108959374Y-74936470D01*
X109163497Y-75046936D01*
X109277487Y-75086068D01*
X109383015Y-75122297D01*
X109383017Y-75122297D01*
X109383019Y-75122298D01*
X109611951Y-75160500D01*
X109611952Y-75160500D01*
X109844048Y-75160500D01*
X109844049Y-75160500D01*
X110072981Y-75122298D01*
X110292503Y-75046936D01*
X110496626Y-74936470D01*
X110679784Y-74793913D01*
X110836979Y-74623153D01*
X110963924Y-74428849D01*
X111057157Y-74216300D01*
X111114134Y-73991305D01*
X111114135Y-73991297D01*
X111133300Y-73760006D01*
X111133300Y-73759993D01*
X111114135Y-73528702D01*
X111114133Y-73528691D01*
X111057157Y-73303699D01*
X110963924Y-73091151D01*
X110836983Y-72896852D01*
X110836980Y-72896849D01*
X110836979Y-72896847D01*
X110679784Y-72726087D01*
X110679779Y-72726083D01*
X110679777Y-72726081D01*
X110496634Y-72583535D01*
X110496628Y-72583531D01*
X110292504Y-72473064D01*
X110292495Y-72473061D01*
X110072984Y-72397702D01*
X109901282Y-72369050D01*
X109844049Y-72359500D01*
X109611951Y-72359500D01*
X109566164Y-72367140D01*
X109383015Y-72397702D01*
X109163504Y-72473061D01*
X109163495Y-72473064D01*
X108959371Y-72583531D01*
X108959365Y-72583535D01*
X108776222Y-72726081D01*
X108776219Y-72726084D01*
X108619016Y-72896852D01*
X108492075Y-73091151D01*
X108398842Y-73303699D01*
X108341866Y-73528691D01*
X108341864Y-73528702D01*
X108322700Y-73759993D01*
X104443632Y-73759993D01*
X104506734Y-73730568D01*
X104693139Y-73600047D01*
X104854047Y-73439139D01*
X104984568Y-73252734D01*
X105080739Y-73046496D01*
X105139635Y-72826692D01*
X105159468Y-72600000D01*
X105158027Y-72583535D01*
X105153801Y-72535230D01*
X105139635Y-72373308D01*
X105080739Y-72153504D01*
X104984568Y-71947266D01*
X104854047Y-71760861D01*
X104854045Y-71760858D01*
X104693141Y-71599954D01*
X104506734Y-71469432D01*
X104506732Y-71469431D01*
X104300497Y-71373261D01*
X104300488Y-71373258D01*
X104080697Y-71314366D01*
X104080693Y-71314365D01*
X104080692Y-71314365D01*
X104080691Y-71314364D01*
X104080686Y-71314364D01*
X103854002Y-71294532D01*
X103853998Y-71294532D01*
X103627313Y-71314364D01*
X103627302Y-71314366D01*
X103407511Y-71373258D01*
X103407502Y-71373261D01*
X103201267Y-71469431D01*
X103201265Y-71469432D01*
X103014858Y-71599954D01*
X102853954Y-71760858D01*
X102723432Y-71947265D01*
X102723431Y-71947267D01*
X102696382Y-72005275D01*
X102650209Y-72057714D01*
X102583016Y-72076866D01*
X102516135Y-72056650D01*
X102471618Y-72005275D01*
X102444568Y-71947267D01*
X102444567Y-71947265D01*
X102314045Y-71760858D01*
X102153141Y-71599954D01*
X101966734Y-71469432D01*
X101966732Y-71469431D01*
X101760497Y-71373261D01*
X101760488Y-71373258D01*
X101540697Y-71314366D01*
X101540693Y-71314365D01*
X101540692Y-71314365D01*
X101540691Y-71314364D01*
X101540686Y-71314364D01*
X101314002Y-71294532D01*
X101313998Y-71294532D01*
X101087313Y-71314364D01*
X101087302Y-71314366D01*
X100867511Y-71373258D01*
X100867502Y-71373261D01*
X100661267Y-71469431D01*
X100661265Y-71469432D01*
X100474858Y-71599954D01*
X100313954Y-71760858D01*
X100183432Y-71947265D01*
X100183431Y-71947267D01*
X100087261Y-72153502D01*
X100087258Y-72153511D01*
X100028366Y-72373302D01*
X100028364Y-72373313D01*
X100008532Y-72599998D01*
X61950500Y-72599998D01*
X61950500Y-68828079D01*
X61921659Y-68683092D01*
X61921658Y-68683091D01*
X61921658Y-68683087D01*
X61921656Y-68683082D01*
X61865087Y-68546511D01*
X61865080Y-68546498D01*
X61782952Y-68423585D01*
X61782951Y-68423584D01*
X61678416Y-68319049D01*
X61621109Y-68261742D01*
X61587624Y-68200419D01*
X61592608Y-68130727D01*
X61621071Y-68086417D01*
X62146442Y-67560598D01*
X62158746Y-67547844D01*
X62164655Y-67541500D01*
X62176442Y-67528394D01*
X62254356Y-67407436D01*
X62254360Y-67407426D01*
X62254365Y-67407418D01*
X62283439Y-67343929D01*
X62283439Y-67343926D01*
X62283447Y-67343911D01*
X62295761Y-67302135D01*
X108549500Y-67302135D01*
X108549500Y-68297870D01*
X108549501Y-68297876D01*
X108555908Y-68357483D01*
X108606202Y-68492328D01*
X108606206Y-68492335D01*
X108692452Y-68607544D01*
X108692455Y-68607547D01*
X108807664Y-68693793D01*
X108807671Y-68693797D01*
X108942517Y-68744091D01*
X108942516Y-68744091D01*
X108949444Y-68744835D01*
X109002127Y-68750500D01*
X111097872Y-68750499D01*
X111157483Y-68744091D01*
X111292331Y-68693796D01*
X111407546Y-68607546D01*
X111493796Y-68492331D01*
X111544091Y-68357483D01*
X111550500Y-68297873D01*
X111550499Y-67302128D01*
X111544091Y-67242517D01*
X111530435Y-67205904D01*
X111493797Y-67107671D01*
X111493793Y-67107664D01*
X111407547Y-66992455D01*
X111407544Y-66992452D01*
X111292335Y-66906206D01*
X111292328Y-66906202D01*
X111157482Y-66855908D01*
X111157483Y-66855908D01*
X111097883Y-66849501D01*
X111097881Y-66849500D01*
X111097873Y-66849500D01*
X111097864Y-66849500D01*
X109002129Y-66849500D01*
X109002123Y-66849501D01*
X108942516Y-66855908D01*
X108807671Y-66906202D01*
X108807664Y-66906206D01*
X108692455Y-66992452D01*
X108692452Y-66992455D01*
X108606206Y-67107664D01*
X108606202Y-67107671D01*
X108555908Y-67242517D01*
X108549501Y-67302116D01*
X108549501Y-67302123D01*
X108549500Y-67302135D01*
X62295761Y-67302135D01*
X62324126Y-67205904D01*
X62324277Y-67062023D01*
X62323526Y-67056764D01*
X62315650Y-67001571D01*
X62315645Y-67001501D01*
X62314406Y-66992856D01*
X62314406Y-66992854D01*
X62314406Y-66992852D01*
X62274014Y-66854758D01*
X62196353Y-66733637D01*
X62150653Y-66680785D01*
X62042014Y-66586450D01*
X61911198Y-66526543D01*
X61844181Y-66506789D01*
X61844180Y-66506789D01*
X61844177Y-66506788D01*
X61843704Y-66506720D01*
X61843429Y-66506680D01*
X61843396Y-66506675D01*
X61701793Y-66486165D01*
X61701788Y-66486164D01*
X61701785Y-66486164D01*
X60295995Y-66484700D01*
X60295994Y-66484700D01*
X60295986Y-66484700D01*
X60276611Y-66485030D01*
X60209246Y-66466489D01*
X60162599Y-66414472D01*
X60150500Y-66361048D01*
X60150500Y-58166081D01*
X60150499Y-58166080D01*
X60139881Y-58112696D01*
X60121659Y-58021088D01*
X60067408Y-57890117D01*
X60065764Y-57885522D01*
X59982954Y-57761588D01*
X59982953Y-57761587D01*
X59982951Y-57761584D01*
X59878416Y-57657049D01*
X56437886Y-54216519D01*
X52988488Y-50767120D01*
X52955003Y-50705797D01*
X52955595Y-50650492D01*
X52995498Y-50484286D01*
X53015511Y-50230000D01*
X52995498Y-49975714D01*
X52935953Y-49727689D01*
X52902552Y-49647052D01*
X52838343Y-49492036D01*
X52838341Y-49492033D01*
X52705069Y-49274554D01*
X52705063Y-49274545D01*
X52539412Y-49080592D01*
X52539407Y-49080587D01*
X52345454Y-48914936D01*
X52345445Y-48914930D01*
X52127966Y-48781658D01*
X52127963Y-48781656D01*
X51892318Y-48684049D01*
X51892301Y-48684044D01*
X51644289Y-48624502D01*
X51390000Y-48604489D01*
X51135710Y-48624502D01*
X50887698Y-48684044D01*
X50887681Y-48684049D01*
X50652036Y-48781656D01*
X50652033Y-48781658D01*
X50540920Y-48849749D01*
X50473474Y-48867994D01*
X50406872Y-48846878D01*
X50376864Y-48818334D01*
X50349408Y-48781658D01*
X50327546Y-48752454D01*
X50327544Y-48752453D01*
X50327544Y-48752452D01*
X50212335Y-48666206D01*
X50212328Y-48666202D01*
X50077482Y-48615908D01*
X50077483Y-48615908D01*
X50017883Y-48609501D01*
X50017881Y-48609500D01*
X50017873Y-48609500D01*
X50017864Y-48609500D01*
X47682129Y-48609500D01*
X47682123Y-48609501D01*
X47622516Y-48615908D01*
X47487671Y-48666202D01*
X47487664Y-48666206D01*
X47372455Y-48752452D01*
X47372452Y-48752455D01*
X47286206Y-48867664D01*
X47286202Y-48867671D01*
X47235908Y-49002517D01*
X47229501Y-49062116D01*
X47229500Y-49062135D01*
X47229500Y-51397870D01*
X47229501Y-51397876D01*
X47235908Y-51457483D01*
X47286202Y-51592328D01*
X47286206Y-51592335D01*
X47372452Y-51707544D01*
X47372455Y-51707547D01*
X47487664Y-51793793D01*
X47487671Y-51793797D01*
X47622517Y-51844091D01*
X47622516Y-51844091D01*
X47629444Y-51844835D01*
X47682127Y-51850500D01*
X50017872Y-51850499D01*
X50077483Y-51844091D01*
X50212331Y-51793796D01*
X50327546Y-51707546D01*
X50376864Y-51641665D01*
X50432795Y-51599795D01*
X50502487Y-51594811D01*
X50540919Y-51610250D01*
X50652033Y-51678341D01*
X50652036Y-51678343D01*
X50887681Y-51775950D01*
X50887683Y-51775950D01*
X50887689Y-51775953D01*
X51135714Y-51835498D01*
X51390000Y-51855511D01*
X51644286Y-51835498D01*
X51810492Y-51795595D01*
X51880274Y-51799086D01*
X51927120Y-51828488D01*
X58613181Y-58514548D01*
X58646666Y-58575871D01*
X58649500Y-58602229D01*
X58649500Y-66358854D01*
X58629815Y-66425893D01*
X58577011Y-66471648D01*
X58525371Y-66482854D01*
X56344839Y-66480583D01*
X56344838Y-66480583D01*
X56344833Y-66480583D01*
X56344827Y-66480583D01*
X56344823Y-66480584D01*
X56215656Y-66497228D01*
X56154379Y-66513354D01*
X56033764Y-66562442D01*
X55919966Y-66650481D01*
X55871350Y-66700666D01*
X55786965Y-66817200D01*
X55764851Y-66879491D01*
X55723873Y-66936082D01*
X55658804Y-66961534D01*
X55637190Y-66961534D01*
X55500002Y-66949532D01*
X55499998Y-66949532D01*
X55366413Y-66961219D01*
X55297913Y-66947452D01*
X55247730Y-66898837D01*
X55237098Y-66874185D01*
X55228857Y-66847418D01*
X55155904Y-66733639D01*
X55151197Y-66726298D01*
X55151192Y-66726292D01*
X55108309Y-66676697D01*
X55106923Y-66674977D01*
X55105489Y-66673436D01*
X54996855Y-66579108D01*
X54996849Y-66579104D01*
X54866037Y-66519202D01*
X54823566Y-66506684D01*
X54799020Y-66499449D01*
X54799017Y-66499448D01*
X54799012Y-66499447D01*
X54656640Y-66478826D01*
X54656631Y-66478825D01*
X54656630Y-66478825D01*
X54445991Y-66478605D01*
X41874371Y-66465507D01*
X41807352Y-66445753D01*
X41761652Y-66392901D01*
X41750500Y-66341507D01*
X41750500Y-63099998D01*
X48399532Y-63099998D01*
X48399532Y-63100001D01*
X48419364Y-63326686D01*
X48419366Y-63326697D01*
X48478258Y-63546488D01*
X48478261Y-63546497D01*
X48574431Y-63752732D01*
X48574432Y-63752734D01*
X48704954Y-63939141D01*
X48865858Y-64100045D01*
X48865861Y-64100047D01*
X49052266Y-64230568D01*
X49258504Y-64326739D01*
X49478308Y-64385635D01*
X49640230Y-64399801D01*
X49704998Y-64405468D01*
X49705000Y-64405468D01*
X49705002Y-64405468D01*
X49761673Y-64400509D01*
X49931692Y-64385635D01*
X50151496Y-64326739D01*
X50357734Y-64230568D01*
X50544139Y-64100047D01*
X50705047Y-63939139D01*
X50835568Y-63752734D01*
X50862618Y-63694724D01*
X50908790Y-63642285D01*
X50975983Y-63623133D01*
X51042865Y-63643348D01*
X51087382Y-63694725D01*
X51114429Y-63752728D01*
X51114432Y-63752734D01*
X51244954Y-63939141D01*
X51405858Y-64100045D01*
X51405861Y-64100047D01*
X51592266Y-64230568D01*
X51798504Y-64326739D01*
X52018308Y-64385635D01*
X52180230Y-64399801D01*
X52244998Y-64405468D01*
X52245000Y-64405468D01*
X52245002Y-64405468D01*
X52301673Y-64400509D01*
X52471692Y-64385635D01*
X52691496Y-64326739D01*
X52897734Y-64230568D01*
X53084139Y-64100047D01*
X53245047Y-63939139D01*
X53375568Y-63752734D01*
X53471739Y-63546496D01*
X53530635Y-63326692D01*
X53550468Y-63100000D01*
X53530635Y-62873308D01*
X53471739Y-62653504D01*
X53375568Y-62447266D01*
X53246053Y-62262298D01*
X53245045Y-62260858D01*
X53084141Y-62099954D01*
X52897734Y-61969432D01*
X52897732Y-61969431D01*
X52691497Y-61873261D01*
X52691488Y-61873258D01*
X52471697Y-61814366D01*
X52471693Y-61814365D01*
X52471692Y-61814365D01*
X52471691Y-61814364D01*
X52471686Y-61814364D01*
X52245002Y-61794532D01*
X52244998Y-61794532D01*
X52018313Y-61814364D01*
X52018302Y-61814366D01*
X51798511Y-61873258D01*
X51798502Y-61873261D01*
X51592267Y-61969431D01*
X51592265Y-61969432D01*
X51405858Y-62099954D01*
X51244954Y-62260858D01*
X51114432Y-62447265D01*
X51114431Y-62447267D01*
X51087382Y-62505275D01*
X51041209Y-62557714D01*
X50974016Y-62576866D01*
X50907135Y-62556650D01*
X50862618Y-62505275D01*
X50835568Y-62447267D01*
X50835567Y-62447265D01*
X50705045Y-62260858D01*
X50544141Y-62099954D01*
X50357734Y-61969432D01*
X50357732Y-61969431D01*
X50151497Y-61873261D01*
X50151488Y-61873258D01*
X49931697Y-61814366D01*
X49931693Y-61814365D01*
X49931692Y-61814365D01*
X49931691Y-61814364D01*
X49931686Y-61814364D01*
X49705002Y-61794532D01*
X49704998Y-61794532D01*
X49478313Y-61814364D01*
X49478302Y-61814366D01*
X49258511Y-61873258D01*
X49258502Y-61873261D01*
X49052267Y-61969431D01*
X49052265Y-61969432D01*
X48865858Y-62099954D01*
X48704954Y-62260858D01*
X48574432Y-62447265D01*
X48574431Y-62447267D01*
X48478261Y-62653502D01*
X48478258Y-62653511D01*
X48419366Y-62873302D01*
X48419364Y-62873313D01*
X48399532Y-63099998D01*
X41750500Y-63099998D01*
X41750500Y-60199998D01*
X45494532Y-60199998D01*
X45494532Y-60200001D01*
X45514364Y-60426686D01*
X45514366Y-60426697D01*
X45573258Y-60646488D01*
X45573261Y-60646497D01*
X45669431Y-60852732D01*
X45669432Y-60852734D01*
X45799954Y-61039141D01*
X45960858Y-61200045D01*
X45960861Y-61200047D01*
X46147266Y-61330568D01*
X46353504Y-61426739D01*
X46573308Y-61485635D01*
X46735230Y-61499801D01*
X46799998Y-61505468D01*
X46800000Y-61505468D01*
X46800002Y-61505468D01*
X46856673Y-61500509D01*
X47026692Y-61485635D01*
X47246496Y-61426739D01*
X47452734Y-61330568D01*
X47639139Y-61200047D01*
X47800047Y-61039139D01*
X47930568Y-60852734D01*
X48026739Y-60646496D01*
X48085635Y-60426692D01*
X48105468Y-60200000D01*
X48105468Y-60199998D01*
X48399532Y-60199998D01*
X48399532Y-60200001D01*
X48419364Y-60426686D01*
X48419366Y-60426697D01*
X48478258Y-60646488D01*
X48478261Y-60646497D01*
X48574431Y-60852732D01*
X48574432Y-60852734D01*
X48704954Y-61039141D01*
X48865858Y-61200045D01*
X48865861Y-61200047D01*
X49052266Y-61330568D01*
X49258504Y-61426739D01*
X49478308Y-61485635D01*
X49640230Y-61499801D01*
X49704998Y-61505468D01*
X49705000Y-61505468D01*
X49705002Y-61505468D01*
X49761673Y-61500509D01*
X49931692Y-61485635D01*
X50151496Y-61426739D01*
X50357734Y-61330568D01*
X50544139Y-61200047D01*
X50705047Y-61039139D01*
X50835568Y-60852734D01*
X50862618Y-60794724D01*
X50908790Y-60742285D01*
X50975983Y-60723133D01*
X51042865Y-60743348D01*
X51087382Y-60794725D01*
X51114429Y-60852728D01*
X51114432Y-60852734D01*
X51244954Y-61039141D01*
X51405858Y-61200045D01*
X51405861Y-61200047D01*
X51592266Y-61330568D01*
X51798504Y-61426739D01*
X52018308Y-61485635D01*
X52180230Y-61499801D01*
X52244998Y-61505468D01*
X52245000Y-61505468D01*
X52245002Y-61505468D01*
X52301673Y-61500509D01*
X52471692Y-61485635D01*
X52691496Y-61426739D01*
X52897734Y-61330568D01*
X53084139Y-61200047D01*
X53245047Y-61039139D01*
X53375568Y-60852734D01*
X53471739Y-60646496D01*
X53530635Y-60426692D01*
X53550468Y-60200000D01*
X53530635Y-59973308D01*
X53471739Y-59753504D01*
X53375568Y-59547266D01*
X53245047Y-59360861D01*
X53245045Y-59360858D01*
X53084141Y-59199954D01*
X52897734Y-59069432D01*
X52897732Y-59069431D01*
X52691497Y-58973261D01*
X52691488Y-58973258D01*
X52471697Y-58914366D01*
X52471693Y-58914365D01*
X52471692Y-58914365D01*
X52471691Y-58914364D01*
X52471686Y-58914364D01*
X52245002Y-58894532D01*
X52244998Y-58894532D01*
X52018313Y-58914364D01*
X52018302Y-58914366D01*
X51798511Y-58973258D01*
X51798502Y-58973261D01*
X51592267Y-59069431D01*
X51592265Y-59069432D01*
X51405858Y-59199954D01*
X51244954Y-59360858D01*
X51114432Y-59547265D01*
X51114431Y-59547267D01*
X51087382Y-59605275D01*
X51041209Y-59657714D01*
X50974016Y-59676866D01*
X50907135Y-59656650D01*
X50862618Y-59605275D01*
X50835568Y-59547267D01*
X50835567Y-59547265D01*
X50813607Y-59515903D01*
X50705047Y-59360861D01*
X50705045Y-59360858D01*
X50544141Y-59199954D01*
X50357734Y-59069432D01*
X50357732Y-59069431D01*
X50151497Y-58973261D01*
X50151488Y-58973258D01*
X49931697Y-58914366D01*
X49931693Y-58914365D01*
X49931692Y-58914365D01*
X49931691Y-58914364D01*
X49931686Y-58914364D01*
X49705002Y-58894532D01*
X49704998Y-58894532D01*
X49478313Y-58914364D01*
X49478302Y-58914366D01*
X49258511Y-58973258D01*
X49258502Y-58973261D01*
X49052267Y-59069431D01*
X49052265Y-59069432D01*
X48865858Y-59199954D01*
X48704954Y-59360858D01*
X48574432Y-59547265D01*
X48574431Y-59547267D01*
X48478261Y-59753502D01*
X48478258Y-59753511D01*
X48419366Y-59973302D01*
X48419364Y-59973313D01*
X48399532Y-60199998D01*
X48105468Y-60199998D01*
X48085635Y-59973308D01*
X48026739Y-59753504D01*
X47930568Y-59547266D01*
X47800047Y-59360861D01*
X47800045Y-59360858D01*
X47639141Y-59199954D01*
X47452734Y-59069432D01*
X47452732Y-59069431D01*
X47246497Y-58973261D01*
X47246488Y-58973258D01*
X47026697Y-58914366D01*
X47026693Y-58914365D01*
X47026692Y-58914365D01*
X47026691Y-58914364D01*
X47026686Y-58914364D01*
X46800002Y-58894532D01*
X46799998Y-58894532D01*
X46573313Y-58914364D01*
X46573302Y-58914366D01*
X46353511Y-58973258D01*
X46353502Y-58973261D01*
X46147267Y-59069431D01*
X46147265Y-59069432D01*
X45960858Y-59199954D01*
X45799954Y-59360858D01*
X45669432Y-59547265D01*
X45669431Y-59547267D01*
X45573261Y-59753502D01*
X45573258Y-59753511D01*
X45514366Y-59973302D01*
X45514364Y-59973313D01*
X45494532Y-60199998D01*
X41750500Y-60199998D01*
X41750500Y-55423992D01*
X48934500Y-55423992D01*
X48934500Y-56076007D01*
X48973907Y-56274119D01*
X48973909Y-56274127D01*
X49051212Y-56460752D01*
X49051217Y-56460762D01*
X49163441Y-56628718D01*
X49306281Y-56771558D01*
X49474237Y-56883782D01*
X49474241Y-56883784D01*
X49474244Y-56883786D01*
X49660873Y-56961091D01*
X49858992Y-57000499D01*
X49858996Y-57000500D01*
X49858997Y-57000500D01*
X50061004Y-57000500D01*
X50061005Y-57000499D01*
X50259127Y-56961091D01*
X50445756Y-56883786D01*
X50526110Y-56830094D01*
X50592786Y-56809217D01*
X50660166Y-56827701D01*
X50663865Y-56830078D01*
X50744244Y-56883786D01*
X50930873Y-56961091D01*
X51128992Y-57000499D01*
X51128996Y-57000500D01*
X51128997Y-57000500D01*
X51331004Y-57000500D01*
X51331005Y-57000499D01*
X51529127Y-56961091D01*
X51715756Y-56883786D01*
X51883718Y-56771558D01*
X52026558Y-56628718D01*
X52138786Y-56460756D01*
X52216091Y-56274127D01*
X52255500Y-56076003D01*
X52255500Y-55423997D01*
X52216091Y-55225873D01*
X52138786Y-55039244D01*
X52138784Y-55039241D01*
X52138782Y-55039237D01*
X52026558Y-54871281D01*
X51883718Y-54728441D01*
X51715762Y-54616217D01*
X51715752Y-54616212D01*
X51529127Y-54538909D01*
X51529119Y-54538907D01*
X51331007Y-54499500D01*
X51331003Y-54499500D01*
X51128997Y-54499500D01*
X51128992Y-54499500D01*
X50930880Y-54538907D01*
X50930872Y-54538909D01*
X50744244Y-54616213D01*
X50663891Y-54669904D01*
X50597213Y-54690782D01*
X50529833Y-54672297D01*
X50526109Y-54669904D01*
X50445755Y-54616213D01*
X50259127Y-54538909D01*
X50259119Y-54538907D01*
X50061007Y-54499500D01*
X50061003Y-54499500D01*
X49858997Y-54499500D01*
X49858992Y-54499500D01*
X49660880Y-54538907D01*
X49660872Y-54538909D01*
X49474247Y-54616212D01*
X49474237Y-54616217D01*
X49306281Y-54728441D01*
X49163441Y-54871281D01*
X49051217Y-55039237D01*
X49051212Y-55039247D01*
X48973909Y-55225872D01*
X48973907Y-55225880D01*
X48934500Y-55423992D01*
X41750500Y-55423992D01*
X41750500Y-54438160D01*
X41721659Y-54293173D01*
X41721658Y-54293172D01*
X41721658Y-54293168D01*
X41721656Y-54293163D01*
X41665086Y-54156589D01*
X41604893Y-54066503D01*
X41604893Y-54066502D01*
X41604891Y-54066501D01*
X41582952Y-54033665D01*
X39393378Y-51844091D01*
X37196340Y-49647052D01*
X37196333Y-49647046D01*
X37122648Y-49597812D01*
X37122648Y-49597813D01*
X37073410Y-49564913D01*
X36936836Y-49508343D01*
X36936826Y-49508340D01*
X36791839Y-49479500D01*
X36791837Y-49479500D01*
X36644104Y-49479500D01*
X36577065Y-49459815D01*
X36538377Y-49420290D01*
X36466836Y-49303547D01*
X36449066Y-49274549D01*
X36375429Y-49188331D01*
X36283412Y-49080592D01*
X36283407Y-49080587D01*
X36089454Y-48914936D01*
X36089445Y-48914930D01*
X35871966Y-48781658D01*
X35871963Y-48781656D01*
X35636318Y-48684049D01*
X35636301Y-48684044D01*
X35388289Y-48624502D01*
X35134000Y-48604489D01*
X34879710Y-48624502D01*
X34631698Y-48684044D01*
X34631681Y-48684049D01*
X34396036Y-48781656D01*
X34396033Y-48781658D01*
X34284920Y-48849749D01*
X34217474Y-48867994D01*
X34150872Y-48846878D01*
X34120864Y-48818334D01*
X34093408Y-48781658D01*
X34071546Y-48752454D01*
X34071544Y-48752453D01*
X34071544Y-48752452D01*
X33956335Y-48666206D01*
X33956328Y-48666202D01*
X33821482Y-48615908D01*
X33821483Y-48615908D01*
X33761883Y-48609501D01*
X33761881Y-48609500D01*
X33761873Y-48609500D01*
X33761864Y-48609500D01*
X31426129Y-48609500D01*
X31426123Y-48609501D01*
X31366516Y-48615908D01*
X31231671Y-48666202D01*
X31231664Y-48666206D01*
X31116455Y-48752452D01*
X31116452Y-48752455D01*
X31030206Y-48867664D01*
X31030202Y-48867671D01*
X30979908Y-49002517D01*
X30973501Y-49062116D01*
X30973500Y-49062135D01*
X30973500Y-51397870D01*
X30973501Y-51397876D01*
X30979908Y-51457483D01*
X31030202Y-51592328D01*
X31030206Y-51592335D01*
X31116452Y-51707544D01*
X31116455Y-51707547D01*
X31231664Y-51793793D01*
X31231671Y-51793797D01*
X31366517Y-51844091D01*
X31366516Y-51844091D01*
X31373444Y-51844835D01*
X31426127Y-51850500D01*
X33761872Y-51850499D01*
X33821483Y-51844091D01*
X33956331Y-51793796D01*
X34071546Y-51707546D01*
X34120864Y-51641665D01*
X34176795Y-51599795D01*
X34246487Y-51594811D01*
X34284919Y-51610250D01*
X34396033Y-51678341D01*
X34396036Y-51678343D01*
X34631681Y-51775950D01*
X34631683Y-51775950D01*
X34631689Y-51775953D01*
X34879714Y-51835498D01*
X35134000Y-51855511D01*
X35388286Y-51835498D01*
X35636311Y-51775953D01*
X35801465Y-51707544D01*
X35871963Y-51678343D01*
X35871964Y-51678342D01*
X35871967Y-51678341D01*
X36089451Y-51545066D01*
X36283410Y-51379410D01*
X36437004Y-51199572D01*
X36495510Y-51161380D01*
X36565378Y-51160881D01*
X36618975Y-51192424D01*
X40213181Y-54786630D01*
X40246666Y-54847953D01*
X40249500Y-54874311D01*
X40249500Y-66339685D01*
X40229815Y-66406724D01*
X40177011Y-66452479D01*
X40125371Y-66463685D01*
X39577955Y-66463115D01*
X39577203Y-66463115D01*
X39577202Y-66463115D01*
X39570518Y-66463815D01*
X39471442Y-66474190D01*
X39471438Y-66474190D01*
X39471436Y-66474191D01*
X39471433Y-66474191D01*
X39420705Y-66484988D01*
X39420701Y-66484989D01*
X39319601Y-66517943D01*
X39197944Y-66594771D01*
X39144784Y-66640102D01*
X39049701Y-66748091D01*
X39038276Y-66772591D01*
X38992102Y-66825029D01*
X38924908Y-66844179D01*
X38858028Y-66823961D01*
X38821511Y-66787114D01*
X38771575Y-66709233D01*
X38725875Y-66656381D01*
X38617236Y-66562046D01*
X38486420Y-66502139D01*
X38419403Y-66482385D01*
X38419393Y-66482382D01*
X38418674Y-66482279D01*
X38418619Y-66482271D01*
X38277016Y-66461761D01*
X38277011Y-66461760D01*
X38277008Y-66461760D01*
X37860023Y-66461325D01*
X18554371Y-66441213D01*
X18487352Y-66421459D01*
X18441652Y-66368607D01*
X18430500Y-66317213D01*
X18430500Y-63279998D01*
X31819532Y-63279998D01*
X31819532Y-63280001D01*
X31839364Y-63506686D01*
X31839366Y-63506697D01*
X31898258Y-63726488D01*
X31898261Y-63726497D01*
X31994431Y-63932732D01*
X31994432Y-63932734D01*
X32124954Y-64119141D01*
X32285858Y-64280045D01*
X32285861Y-64280047D01*
X32472266Y-64410568D01*
X32678504Y-64506739D01*
X32898308Y-64565635D01*
X33060230Y-64579801D01*
X33124998Y-64585468D01*
X33125000Y-64585468D01*
X33125002Y-64585468D01*
X33181673Y-64580509D01*
X33351692Y-64565635D01*
X33571496Y-64506739D01*
X33777734Y-64410568D01*
X33964139Y-64280047D01*
X34125047Y-64119139D01*
X34255568Y-63932734D01*
X34282618Y-63874724D01*
X34328790Y-63822285D01*
X34395983Y-63803133D01*
X34462865Y-63823348D01*
X34507382Y-63874725D01*
X34534429Y-63932728D01*
X34534432Y-63932734D01*
X34664954Y-64119141D01*
X34825858Y-64280045D01*
X34825861Y-64280047D01*
X35012266Y-64410568D01*
X35218504Y-64506739D01*
X35438308Y-64565635D01*
X35600230Y-64579801D01*
X35664998Y-64585468D01*
X35665000Y-64585468D01*
X35665002Y-64585468D01*
X35721673Y-64580509D01*
X35891692Y-64565635D01*
X36111496Y-64506739D01*
X36317734Y-64410568D01*
X36504139Y-64280047D01*
X36665047Y-64119139D01*
X36795568Y-63932734D01*
X36891739Y-63726496D01*
X36950635Y-63506692D01*
X36970468Y-63280000D01*
X36950635Y-63053308D01*
X36891739Y-62833504D01*
X36795568Y-62627266D01*
X36697839Y-62487693D01*
X36665045Y-62440858D01*
X36504141Y-62279954D01*
X36317734Y-62149432D01*
X36317732Y-62149431D01*
X36111497Y-62053261D01*
X36111488Y-62053258D01*
X35891697Y-61994366D01*
X35891693Y-61994365D01*
X35891692Y-61994365D01*
X35891691Y-61994364D01*
X35891686Y-61994364D01*
X35665002Y-61974532D01*
X35664998Y-61974532D01*
X35438313Y-61994364D01*
X35438302Y-61994366D01*
X35218511Y-62053258D01*
X35218502Y-62053261D01*
X35012267Y-62149431D01*
X35012265Y-62149432D01*
X34825858Y-62279954D01*
X34664954Y-62440858D01*
X34534432Y-62627265D01*
X34534431Y-62627267D01*
X34507382Y-62685275D01*
X34461209Y-62737714D01*
X34394016Y-62756866D01*
X34327135Y-62736650D01*
X34282618Y-62685275D01*
X34265244Y-62648017D01*
X34255568Y-62627266D01*
X34157839Y-62487693D01*
X34125045Y-62440858D01*
X33964141Y-62279954D01*
X33777734Y-62149432D01*
X33777732Y-62149431D01*
X33571497Y-62053261D01*
X33571488Y-62053258D01*
X33351697Y-61994366D01*
X33351693Y-61994365D01*
X33351692Y-61994365D01*
X33351691Y-61994364D01*
X33351686Y-61994364D01*
X33125002Y-61974532D01*
X33124998Y-61974532D01*
X32898313Y-61994364D01*
X32898302Y-61994366D01*
X32678511Y-62053258D01*
X32678502Y-62053261D01*
X32472267Y-62149431D01*
X32472265Y-62149432D01*
X32285858Y-62279954D01*
X32124954Y-62440858D01*
X31994432Y-62627265D01*
X31994431Y-62627267D01*
X31898261Y-62833502D01*
X31898258Y-62833511D01*
X31839366Y-63053302D01*
X31839364Y-63053313D01*
X31819532Y-63279998D01*
X18430500Y-63279998D01*
X18430500Y-62284096D01*
X18450185Y-62217057D01*
X18502989Y-62171302D01*
X18572147Y-62161358D01*
X18613518Y-62175041D01*
X18635497Y-62186936D01*
X18749487Y-62226068D01*
X18855015Y-62262297D01*
X18855017Y-62262297D01*
X18855019Y-62262298D01*
X19083951Y-62300500D01*
X19083952Y-62300500D01*
X19316048Y-62300500D01*
X19316049Y-62300500D01*
X19544981Y-62262298D01*
X19764503Y-62186936D01*
X19968626Y-62076470D01*
X20151784Y-61933913D01*
X20308979Y-61763153D01*
X20435924Y-61568849D01*
X20529157Y-61356300D01*
X20586134Y-61131305D01*
X20593771Y-61039139D01*
X20605300Y-60900006D01*
X20605300Y-60899993D01*
X20586135Y-60668702D01*
X20586133Y-60668691D01*
X20529157Y-60443699D01*
X20463930Y-60294998D01*
X28894532Y-60294998D01*
X28894532Y-60295001D01*
X28914364Y-60521686D01*
X28914366Y-60521697D01*
X28973258Y-60741488D01*
X28973261Y-60741497D01*
X29069431Y-60947732D01*
X29069432Y-60947734D01*
X29199954Y-61134141D01*
X29360858Y-61295045D01*
X29360861Y-61295047D01*
X29547266Y-61425568D01*
X29753504Y-61521739D01*
X29753509Y-61521740D01*
X29753511Y-61521741D01*
X29772164Y-61526739D01*
X29973308Y-61580635D01*
X30135230Y-61594801D01*
X30199998Y-61600468D01*
X30200000Y-61600468D01*
X30200002Y-61600468D01*
X30256673Y-61595509D01*
X30426692Y-61580635D01*
X30646496Y-61521739D01*
X30852734Y-61425568D01*
X31039139Y-61295047D01*
X31200047Y-61134139D01*
X31330568Y-60947734D01*
X31426739Y-60741496D01*
X31485635Y-60521692D01*
X31502634Y-60327384D01*
X31505031Y-60299998D01*
X32054532Y-60299998D01*
X32054532Y-60300001D01*
X32074364Y-60526686D01*
X32074366Y-60526697D01*
X32133258Y-60746488D01*
X32133261Y-60746497D01*
X32229431Y-60952732D01*
X32229432Y-60952734D01*
X32359954Y-61139141D01*
X32520858Y-61300045D01*
X32520861Y-61300047D01*
X32707266Y-61430568D01*
X32913504Y-61526739D01*
X33133308Y-61585635D01*
X33295230Y-61599801D01*
X33359998Y-61605468D01*
X33360000Y-61605468D01*
X33360002Y-61605468D01*
X33417150Y-61600468D01*
X33586692Y-61585635D01*
X33806496Y-61526739D01*
X34012734Y-61430568D01*
X34199139Y-61300047D01*
X34360047Y-61139139D01*
X34490568Y-60952734D01*
X34517618Y-60894724D01*
X34563790Y-60842285D01*
X34630983Y-60823133D01*
X34697865Y-60843348D01*
X34742381Y-60894724D01*
X34756517Y-60925038D01*
X34769429Y-60952728D01*
X34769432Y-60952734D01*
X34899954Y-61139141D01*
X35060858Y-61300045D01*
X35060861Y-61300047D01*
X35247266Y-61430568D01*
X35453504Y-61526739D01*
X35673308Y-61585635D01*
X35835230Y-61599801D01*
X35899998Y-61605468D01*
X35900000Y-61605468D01*
X35900002Y-61605468D01*
X35957150Y-61600468D01*
X36126692Y-61585635D01*
X36346496Y-61526739D01*
X36552734Y-61430568D01*
X36739139Y-61300047D01*
X36900047Y-61139139D01*
X37030568Y-60952734D01*
X37126739Y-60746496D01*
X37185635Y-60526692D01*
X37205468Y-60300000D01*
X37205030Y-60294998D01*
X37185635Y-60073313D01*
X37185635Y-60073308D01*
X37126739Y-59853504D01*
X37030568Y-59647266D01*
X36900047Y-59460861D01*
X36900045Y-59460858D01*
X36739141Y-59299954D01*
X36552734Y-59169432D01*
X36552732Y-59169431D01*
X36346497Y-59073261D01*
X36346488Y-59073258D01*
X36126697Y-59014366D01*
X36126693Y-59014365D01*
X36126692Y-59014365D01*
X36126691Y-59014364D01*
X36126686Y-59014364D01*
X35900002Y-58994532D01*
X35899998Y-58994532D01*
X35673313Y-59014364D01*
X35673302Y-59014366D01*
X35453511Y-59073258D01*
X35453502Y-59073261D01*
X35247267Y-59169431D01*
X35247265Y-59169432D01*
X35060858Y-59299954D01*
X34899954Y-59460858D01*
X34769432Y-59647265D01*
X34769431Y-59647267D01*
X34742382Y-59705275D01*
X34696209Y-59757714D01*
X34629016Y-59776866D01*
X34562135Y-59756650D01*
X34517618Y-59705275D01*
X34490568Y-59647266D01*
X34360047Y-59460861D01*
X34360045Y-59460858D01*
X34199141Y-59299954D01*
X34012734Y-59169432D01*
X34012732Y-59169431D01*
X33806497Y-59073261D01*
X33806488Y-59073258D01*
X33586697Y-59014366D01*
X33586693Y-59014365D01*
X33586692Y-59014365D01*
X33586691Y-59014364D01*
X33586686Y-59014364D01*
X33360002Y-58994532D01*
X33359998Y-58994532D01*
X33133313Y-59014364D01*
X33133302Y-59014366D01*
X32913511Y-59073258D01*
X32913502Y-59073261D01*
X32707267Y-59169431D01*
X32707265Y-59169432D01*
X32520858Y-59299954D01*
X32359954Y-59460858D01*
X32229432Y-59647265D01*
X32229431Y-59647267D01*
X32133261Y-59853502D01*
X32133258Y-59853511D01*
X32074366Y-60073302D01*
X32074364Y-60073313D01*
X32054532Y-60299998D01*
X31505031Y-60299998D01*
X31505468Y-60295001D01*
X31505468Y-60294998D01*
X31497157Y-60200001D01*
X31485635Y-60068308D01*
X31426739Y-59848504D01*
X31330568Y-59642266D01*
X31200047Y-59455861D01*
X31200045Y-59455858D01*
X31039141Y-59294954D01*
X30852734Y-59164432D01*
X30852732Y-59164431D01*
X30646497Y-59068261D01*
X30646488Y-59068258D01*
X30426697Y-59009366D01*
X30426693Y-59009365D01*
X30426692Y-59009365D01*
X30426691Y-59009364D01*
X30426686Y-59009364D01*
X30200002Y-58989532D01*
X30199998Y-58989532D01*
X29973313Y-59009364D01*
X29973302Y-59009366D01*
X29753511Y-59068258D01*
X29753502Y-59068261D01*
X29547267Y-59164431D01*
X29547265Y-59164432D01*
X29360858Y-59294954D01*
X29199954Y-59455858D01*
X29069432Y-59642265D01*
X29069431Y-59642267D01*
X28973261Y-59848502D01*
X28973258Y-59848511D01*
X28914366Y-60068302D01*
X28914364Y-60068313D01*
X28894532Y-60294998D01*
X20463930Y-60294998D01*
X20435924Y-60231151D01*
X20308983Y-60036852D01*
X20308980Y-60036849D01*
X20308979Y-60036847D01*
X20151784Y-59866087D01*
X20151779Y-59866083D01*
X20151777Y-59866081D01*
X19968634Y-59723535D01*
X19968628Y-59723531D01*
X19764504Y-59613064D01*
X19764495Y-59613061D01*
X19544984Y-59537702D01*
X19373282Y-59509050D01*
X19316049Y-59499500D01*
X19083951Y-59499500D01*
X19038164Y-59507140D01*
X18855015Y-59537702D01*
X18635504Y-59613061D01*
X18635488Y-59613067D01*
X18613515Y-59624959D01*
X18545187Y-59639553D01*
X18479815Y-59614889D01*
X18438155Y-59558797D01*
X18430500Y-59515903D01*
X18430500Y-55473992D01*
X32334500Y-55473992D01*
X32334500Y-56126007D01*
X32373907Y-56324119D01*
X32373909Y-56324127D01*
X32451212Y-56510752D01*
X32451217Y-56510762D01*
X32563441Y-56678718D01*
X32706281Y-56821558D01*
X32874237Y-56933782D01*
X32874241Y-56933784D01*
X32874244Y-56933786D01*
X33060873Y-57011091D01*
X33258992Y-57050499D01*
X33258996Y-57050500D01*
X33258997Y-57050500D01*
X33461004Y-57050500D01*
X33461005Y-57050499D01*
X33659127Y-57011091D01*
X33845756Y-56933786D01*
X33926110Y-56880094D01*
X33992786Y-56859217D01*
X34060166Y-56877701D01*
X34063865Y-56880078D01*
X34144244Y-56933786D01*
X34330873Y-57011091D01*
X34528992Y-57050499D01*
X34528996Y-57050500D01*
X34528997Y-57050500D01*
X34731004Y-57050500D01*
X34731005Y-57050499D01*
X34929127Y-57011091D01*
X35115756Y-56933786D01*
X35283718Y-56821558D01*
X35426558Y-56678718D01*
X35538786Y-56510756D01*
X35616091Y-56324127D01*
X35655500Y-56126003D01*
X35655500Y-55473997D01*
X35616091Y-55275873D01*
X35538786Y-55089244D01*
X35538784Y-55089241D01*
X35538782Y-55089237D01*
X35426558Y-54921281D01*
X35283718Y-54778441D01*
X35115762Y-54666217D01*
X35115752Y-54666212D01*
X34929127Y-54588909D01*
X34929119Y-54588907D01*
X34731007Y-54549500D01*
X34731003Y-54549500D01*
X34528997Y-54549500D01*
X34528992Y-54549500D01*
X34330880Y-54588907D01*
X34330872Y-54588909D01*
X34144244Y-54666213D01*
X34063891Y-54719904D01*
X33997213Y-54740782D01*
X33929833Y-54722297D01*
X33926109Y-54719904D01*
X33845755Y-54666213D01*
X33659127Y-54588909D01*
X33659119Y-54588907D01*
X33461007Y-54549500D01*
X33461003Y-54549500D01*
X33258997Y-54549500D01*
X33258992Y-54549500D01*
X33060880Y-54588907D01*
X33060872Y-54588909D01*
X32874247Y-54666212D01*
X32874237Y-54666217D01*
X32706281Y-54778441D01*
X32563441Y-54921281D01*
X32451217Y-55089237D01*
X32451212Y-55089247D01*
X32373909Y-55275872D01*
X32373907Y-55275880D01*
X32334500Y-55473992D01*
X18430500Y-55473992D01*
X18430500Y-46600000D01*
X27900000Y-46600000D01*
X40699999Y-46600000D01*
X40700000Y-46600000D01*
X40600000Y-40800000D01*
X27900000Y-40800000D01*
X27900000Y-46600000D01*
X18430500Y-46600000D01*
X18430500Y-42370229D01*
X18450185Y-42303190D01*
X18466814Y-42282553D01*
X27776270Y-32973096D01*
X27837591Y-32939613D01*
X27907283Y-32944597D01*
X27908725Y-32945146D01*
X42012768Y-38421974D01*
X48292277Y-40860409D01*
X48347645Y-40903026D01*
X48371182Y-40968811D01*
X48355417Y-41036879D01*
X48305355Y-41085618D01*
X48247391Y-41100000D01*
X44000000Y-41100000D01*
X44000000Y-46900000D01*
X56800000Y-46900000D01*
X56800000Y-44345266D01*
X56819685Y-44278227D01*
X56872489Y-44232472D01*
X56941647Y-44222528D01*
X56968884Y-44229674D01*
X59565542Y-45237999D01*
X60779022Y-45709213D01*
X61440072Y-45965909D01*
X61495439Y-46008526D01*
X61518977Y-46074311D01*
X61503212Y-46142379D01*
X61453150Y-46191118D01*
X61395186Y-46205500D01*
X60666129Y-46205500D01*
X60666123Y-46205501D01*
X60606516Y-46211908D01*
X60471671Y-46262202D01*
X60471664Y-46262206D01*
X60356455Y-46348452D01*
X60356452Y-46348455D01*
X60270206Y-46463664D01*
X60270202Y-46463671D01*
X60219908Y-46598517D01*
X60213501Y-46658116D01*
X60213500Y-46658135D01*
X60213500Y-48993870D01*
X60213501Y-48993876D01*
X60219908Y-49053483D01*
X60270202Y-49188328D01*
X60270206Y-49188335D01*
X60356452Y-49303544D01*
X60356455Y-49303547D01*
X60471664Y-49389793D01*
X60471671Y-49389797D01*
X60606517Y-49440091D01*
X60606516Y-49440091D01*
X60613444Y-49440835D01*
X60666127Y-49446500D01*
X63001872Y-49446499D01*
X63061483Y-49440091D01*
X63196331Y-49389796D01*
X63311546Y-49303546D01*
X63397796Y-49188331D01*
X63448091Y-49053483D01*
X63454500Y-48993873D01*
X63454499Y-46929314D01*
X63474184Y-46862276D01*
X63526987Y-46816521D01*
X63596146Y-46806577D01*
X63623383Y-46813723D01*
X80900461Y-53522693D01*
X80975468Y-53545308D01*
X81012903Y-53553493D01*
X81090506Y-53564246D01*
X81090506Y-53564245D01*
X81090507Y-53564246D01*
X81233888Y-53552364D01*
X81233891Y-53552363D01*
X81233894Y-53552363D01*
X81301995Y-53536742D01*
X81343778Y-53520618D01*
X81413405Y-53514848D01*
X81475102Y-53547638D01*
X81492224Y-53568481D01*
X81553836Y-53662785D01*
X81722256Y-53845738D01*
X81918491Y-53998474D01*
X82137190Y-54116828D01*
X82253001Y-54156586D01*
X82369927Y-54196727D01*
X82372386Y-54197571D01*
X82617665Y-54238500D01*
X82866335Y-54238500D01*
X83116673Y-54196727D01*
X83117072Y-54199123D01*
X83176785Y-54201334D01*
X83234125Y-54241257D01*
X83247090Y-54260973D01*
X83290841Y-54343711D01*
X83290844Y-54343716D01*
X83391209Y-54446808D01*
X83446571Y-54489420D01*
X83446579Y-54489426D01*
X83571925Y-54560065D01*
X83571927Y-54560066D01*
X83845276Y-54666212D01*
X84995363Y-55112810D01*
X85085263Y-55138447D01*
X85130149Y-55146856D01*
X85223231Y-55155500D01*
X88834145Y-55155500D01*
X88901184Y-55175185D01*
X88946939Y-55227989D01*
X88958145Y-55279500D01*
X88958145Y-56905775D01*
X88958146Y-56905784D01*
X88969697Y-57013225D01*
X88969699Y-57013237D01*
X88980905Y-57064747D01*
X89015028Y-57167272D01*
X89015031Y-57167278D01*
X89092816Y-57288312D01*
X89092824Y-57288323D01*
X89138568Y-57341115D01*
X89138571Y-57341118D01*
X89138575Y-57341122D01*
X89247309Y-57435342D01*
X89378186Y-57495113D01*
X89445225Y-57514798D01*
X89445229Y-57514799D01*
X89587645Y-57535275D01*
X94656500Y-57535275D01*
X94723539Y-57554960D01*
X94769294Y-57607764D01*
X94780500Y-57659275D01*
X94780500Y-64876000D01*
X94780501Y-64876009D01*
X94792052Y-64983450D01*
X94792054Y-64983462D01*
X94803260Y-65034972D01*
X94837383Y-65137497D01*
X94837386Y-65137503D01*
X94915171Y-65258537D01*
X94915179Y-65258548D01*
X94960923Y-65311340D01*
X94960926Y-65311343D01*
X94960930Y-65311347D01*
X95069664Y-65405567D01*
X95069667Y-65405568D01*
X95069668Y-65405569D01*
X95163925Y-65448616D01*
X95200541Y-65465338D01*
X95267580Y-65485023D01*
X95267584Y-65485024D01*
X95410000Y-65505500D01*
X95410003Y-65505500D01*
X101375492Y-65505500D01*
X101375501Y-65505500D01*
X101482955Y-65493947D01*
X101534467Y-65482741D01*
X101586763Y-65465335D01*
X101637008Y-65448612D01*
X101637010Y-65448611D01*
X101758049Y-65370822D01*
X101810852Y-65325067D01*
X101905068Y-65216336D01*
X101964839Y-65085459D01*
X101984524Y-65018420D01*
X101984525Y-65018415D01*
X102005001Y-64876000D01*
X102005000Y-63576892D01*
X102005308Y-63568161D01*
X102010608Y-63493083D01*
X102013330Y-63474571D01*
X102014191Y-63470743D01*
X102045820Y-63330308D01*
X102051751Y-63311276D01*
X102105766Y-63177064D01*
X102114681Y-63159215D01*
X102189524Y-63035409D01*
X102201185Y-63019225D01*
X102294916Y-62909029D01*
X102309029Y-62894916D01*
X102383061Y-62831946D01*
X102419226Y-62801184D01*
X102435409Y-62789524D01*
X102559218Y-62714679D01*
X102577064Y-62705766D01*
X102711278Y-62651750D01*
X102730311Y-62645819D01*
X102874569Y-62613330D01*
X102893079Y-62610608D01*
X102968171Y-62605308D01*
X102976902Y-62605000D01*
X105123104Y-62605000D01*
X105131836Y-62605308D01*
X105206917Y-62610608D01*
X105225428Y-62613330D01*
X105270944Y-62623581D01*
X105369681Y-62645818D01*
X105388717Y-62651750D01*
X105522936Y-62705768D01*
X105540785Y-62714683D01*
X105664581Y-62789520D01*
X105680771Y-62801184D01*
X105716937Y-62831946D01*
X105716950Y-62831955D01*
X105790975Y-62894921D01*
X105805071Y-62909017D01*
X105865883Y-62980510D01*
X105865884Y-62980511D01*
X105898815Y-63019227D01*
X105910478Y-63035417D01*
X105985316Y-63159215D01*
X105994232Y-63177068D01*
X106048244Y-63311269D01*
X106054181Y-63330322D01*
X106086667Y-63474567D01*
X106089389Y-63493077D01*
X106094691Y-63568161D01*
X106094999Y-63576895D01*
X106094999Y-64875989D01*
X106095001Y-64876009D01*
X106106552Y-64983450D01*
X106106554Y-64983462D01*
X106117760Y-65034972D01*
X106151883Y-65137497D01*
X106151886Y-65137503D01*
X106229671Y-65258537D01*
X106229679Y-65258548D01*
X106275423Y-65311340D01*
X106275426Y-65311343D01*
X106275430Y-65311347D01*
X106384164Y-65405567D01*
X106384167Y-65405568D01*
X106384168Y-65405569D01*
X106478425Y-65448616D01*
X106515041Y-65465338D01*
X106582080Y-65485023D01*
X106582084Y-65485024D01*
X106724500Y-65505500D01*
X106724503Y-65505500D01*
X110875990Y-65505500D01*
X110876000Y-65505500D01*
X110983456Y-65493947D01*
X111034967Y-65482741D01*
X111069197Y-65471347D01*
X111137497Y-65448616D01*
X111137501Y-65448613D01*
X111137504Y-65448613D01*
X111258543Y-65370825D01*
X111311347Y-65325070D01*
X111405567Y-65216336D01*
X111465338Y-65085459D01*
X111485023Y-65018420D01*
X111485024Y-65018416D01*
X111505500Y-64876000D01*
X111505500Y-55374499D01*
X111493947Y-55267045D01*
X111482741Y-55215533D01*
X111455201Y-55132792D01*
X111452708Y-55062968D01*
X111473589Y-55019322D01*
X111493796Y-54992331D01*
X111544091Y-54857483D01*
X111550500Y-54797873D01*
X111550499Y-53802128D01*
X111544091Y-53742517D01*
X111493796Y-53607669D01*
X111471222Y-53577514D01*
X111446805Y-53512053D01*
X111457695Y-53451693D01*
X111465338Y-53434959D01*
X111485023Y-53367920D01*
X111485024Y-53367916D01*
X111505500Y-53225500D01*
X111505500Y-47088514D01*
X111493724Y-46980039D01*
X111482580Y-46929315D01*
X111482305Y-46928063D01*
X111482304Y-46928062D01*
X111472867Y-46900000D01*
X111447526Y-46824642D01*
X111419919Y-46782073D01*
X111399957Y-46715116D01*
X111411161Y-46663093D01*
X111465338Y-46544466D01*
X111485023Y-46477427D01*
X111485024Y-46477423D01*
X111505500Y-46335007D01*
X111505500Y-42125259D01*
X111493398Y-42015311D01*
X111481666Y-41962663D01*
X111445942Y-41857984D01*
X111366936Y-41737736D01*
X111320650Y-41685397D01*
X111210970Y-41592281D01*
X111079497Y-41533836D01*
X111012260Y-41514828D01*
X110869646Y-41495791D01*
X110869642Y-41495791D01*
X110263111Y-41501917D01*
X101406705Y-41591375D01*
X101339471Y-41572368D01*
X101307573Y-41543510D01*
X100254572Y-40189652D01*
X98768941Y-38279555D01*
X96000577Y-34720230D01*
X95975797Y-34662273D01*
X95954327Y-34517346D01*
X95938079Y-34407671D01*
X95926836Y-34331778D01*
X108549500Y-34331778D01*
X108549500Y-35327513D01*
X108549501Y-35327519D01*
X108555908Y-35387126D01*
X108606202Y-35521971D01*
X108606206Y-35521978D01*
X108692452Y-35637187D01*
X108692455Y-35637190D01*
X108807664Y-35723436D01*
X108807671Y-35723440D01*
X108942517Y-35773734D01*
X108942516Y-35773734D01*
X108949444Y-35774478D01*
X109002127Y-35780143D01*
X111097872Y-35780142D01*
X111157483Y-35773734D01*
X111292331Y-35723439D01*
X111407546Y-35637189D01*
X111493796Y-35521974D01*
X111544091Y-35387126D01*
X111550500Y-35327516D01*
X111550499Y-34331771D01*
X111544091Y-34272160D01*
X111519490Y-34206202D01*
X111493797Y-34137314D01*
X111493793Y-34137307D01*
X111407547Y-34022098D01*
X111407544Y-34022095D01*
X111292335Y-33935849D01*
X111292328Y-33935845D01*
X111157482Y-33885551D01*
X111157483Y-33885551D01*
X111097883Y-33879144D01*
X111097881Y-33879143D01*
X111097873Y-33879143D01*
X111097864Y-33879143D01*
X109002129Y-33879143D01*
X109002123Y-33879144D01*
X108942516Y-33885551D01*
X108807671Y-33935845D01*
X108807664Y-33935849D01*
X108692455Y-34022095D01*
X108692452Y-34022098D01*
X108606206Y-34137307D01*
X108606202Y-34137314D01*
X108555908Y-34272160D01*
X108549501Y-34331759D01*
X108549501Y-34331766D01*
X108549500Y-34331778D01*
X95926836Y-34331778D01*
X95625223Y-32295900D01*
X95633001Y-32231062D01*
X96708847Y-29582828D01*
X96752316Y-29528128D01*
X96818459Y-29505612D01*
X96823729Y-29505500D01*
X110875990Y-29505500D01*
X110876000Y-29505500D01*
X110983456Y-29493947D01*
X111034967Y-29482741D01*
X111069197Y-29471347D01*
X111137497Y-29448616D01*
X111137501Y-29448613D01*
X111137504Y-29448613D01*
X111258543Y-29370825D01*
X111311347Y-29325070D01*
X111405567Y-29216336D01*
X111465338Y-29085459D01*
X111485023Y-29018420D01*
X111485024Y-29018416D01*
X111505500Y-28876000D01*
X111505500Y-22404142D01*
X111493947Y-22296688D01*
X111482741Y-22245176D01*
X111455201Y-22162435D01*
X111452708Y-22092611D01*
X111473589Y-22048965D01*
X111493796Y-22021974D01*
X111544091Y-21887126D01*
X111550500Y-21827516D01*
X111550499Y-20831771D01*
X111544091Y-20772160D01*
X111493796Y-20637312D01*
X111471222Y-20607157D01*
X111446805Y-20541696D01*
X111457695Y-20481336D01*
X111465338Y-20464602D01*
X111485023Y-20397563D01*
X111485024Y-20397559D01*
X111505500Y-20255143D01*
X111505500Y-19212718D01*
X111502603Y-19158676D01*
X111499769Y-19132319D01*
X111491116Y-19078918D01*
X111440837Y-18944109D01*
X111440835Y-18944106D01*
X111440832Y-18944098D01*
X111408427Y-18884752D01*
X111407645Y-18883257D01*
X111407352Y-18882783D01*
X111407349Y-18882777D01*
X111321125Y-18767595D01*
X111275880Y-18733725D01*
X111205945Y-18681372D01*
X111205943Y-18681371D01*
X111144620Y-18647886D01*
X111009814Y-18597605D01*
X110866300Y-18587340D01*
X110866298Y-18587340D01*
X110796608Y-18592324D01*
X110796600Y-18592325D01*
X110656016Y-18622906D01*
X110529729Y-18691863D01*
X110473807Y-18733725D01*
X110381317Y-18826198D01*
X110376284Y-18829827D01*
X110374773Y-18831846D01*
X110374767Y-18831855D01*
X110368167Y-18840669D01*
X110368112Y-18840745D01*
X110364693Y-18845312D01*
X110308759Y-18887182D01*
X110265428Y-18894999D01*
X108659000Y-18894999D01*
X108591961Y-18875314D01*
X108546206Y-18822510D01*
X108535000Y-18770999D01*
X108535000Y-17184430D01*
X108554685Y-17117391D01*
X108601835Y-17074393D01*
X108627769Y-17060920D01*
X108680663Y-17029199D01*
X108786520Y-16931753D01*
X108829735Y-16878742D01*
X108830521Y-16877801D01*
X108830668Y-16877598D01*
X108830674Y-16877591D01*
X108850049Y-16845350D01*
X108901452Y-16798029D01*
X108970280Y-16786010D01*
X108996592Y-16791941D01*
X109049391Y-16810066D01*
X109085018Y-16822298D01*
X109199485Y-16841399D01*
X109313951Y-16860500D01*
X109313952Y-16860500D01*
X109546048Y-16860500D01*
X109546049Y-16860500D01*
X109774981Y-16822298D01*
X109862132Y-16792378D01*
X109931926Y-16789228D01*
X109992348Y-16824314D01*
X110011223Y-16850231D01*
X110031489Y-16887345D01*
X110031490Y-16887346D01*
X110073842Y-16929697D01*
X110133228Y-16989082D01*
X110189162Y-17030953D01*
X110244060Y-17060929D01*
X110305709Y-17094592D01*
X110345546Y-17129109D01*
X110372064Y-17164532D01*
X110406762Y-17206050D01*
X110424825Y-17225451D01*
X110463765Y-17263026D01*
X110584805Y-17340813D01*
X110584810Y-17340815D01*
X110584815Y-17340818D01*
X110613528Y-17353930D01*
X110647938Y-17369645D01*
X110648349Y-17369834D01*
X110648358Y-17369836D01*
X110648361Y-17369838D01*
X110648364Y-17369840D01*
X110786417Y-17410374D01*
X110930297Y-17410373D01*
X110999455Y-17400429D01*
X111137504Y-17359894D01*
X111258543Y-17282106D01*
X111311347Y-17236351D01*
X111405567Y-17127617D01*
X111465338Y-16996740D01*
X111485023Y-16929701D01*
X111485024Y-16929697D01*
X111505500Y-16787281D01*
X111505500Y-15957840D01*
X111488112Y-15826398D01*
X111471344Y-15764130D01*
X111420376Y-15641730D01*
X111331153Y-15528855D01*
X111280466Y-15480766D01*
X111163058Y-15397601D01*
X111116337Y-15381560D01*
X111026974Y-15350880D01*
X111026966Y-15350878D01*
X110958339Y-15337829D01*
X110957453Y-15337746D01*
X110955540Y-15337703D01*
X110933610Y-15336713D01*
X110867526Y-15314025D01*
X110824199Y-15259211D01*
X110816891Y-15233235D01*
X110816133Y-15228692D01*
X110759157Y-15003699D01*
X110665924Y-14791151D01*
X110538983Y-14596852D01*
X110538980Y-14596849D01*
X110538979Y-14596847D01*
X110381784Y-14426087D01*
X110381779Y-14426083D01*
X110381777Y-14426081D01*
X110198634Y-14283535D01*
X110198628Y-14283531D01*
X109994504Y-14173064D01*
X109994495Y-14173061D01*
X109774984Y-14097702D01*
X109603282Y-14069050D01*
X109546049Y-14059500D01*
X109313951Y-14059500D01*
X109268164Y-14067140D01*
X109085015Y-14097702D01*
X108865504Y-14173061D01*
X108865495Y-14173064D01*
X108661371Y-14283531D01*
X108661365Y-14283535D01*
X108478222Y-14426081D01*
X108478219Y-14426084D01*
X108478216Y-14426086D01*
X108478216Y-14426087D01*
X108470037Y-14434972D01*
X108321018Y-14596850D01*
X108209036Y-14768253D01*
X108155889Y-14813609D01*
X108086658Y-14823033D01*
X108070189Y-14819378D01*
X108046435Y-14812380D01*
X107904040Y-14791780D01*
X105083887Y-14789303D01*
X105083885Y-14789303D01*
X105083866Y-14789303D01*
X105070621Y-14789531D01*
X105065568Y-14789618D01*
X105056620Y-14789934D01*
X105038439Y-14790906D01*
X105038438Y-14790906D01*
X104897856Y-14821488D01*
X104897851Y-14821489D01*
X104897850Y-14821490D01*
X104882024Y-14827392D01*
X104832384Y-14845907D01*
X104832380Y-14845909D01*
X104706112Y-14914857D01*
X104604374Y-15016591D01*
X104604368Y-15016598D01*
X104562565Y-15072440D01*
X104562506Y-15072519D01*
X104562493Y-15072535D01*
X104562490Y-15072539D01*
X104538874Y-15115790D01*
X104489468Y-15165195D01*
X104421195Y-15180046D01*
X104397950Y-15176137D01*
X104316700Y-15154367D01*
X104316697Y-15154366D01*
X104316692Y-15154365D01*
X104316689Y-15154364D01*
X104316686Y-15154364D01*
X104090002Y-15134532D01*
X104089998Y-15134532D01*
X103863313Y-15154364D01*
X103863299Y-15154367D01*
X103786013Y-15175075D01*
X103716163Y-15173412D01*
X103658301Y-15134249D01*
X103649547Y-15122248D01*
X103645405Y-15115790D01*
X103593554Y-15034952D01*
X103547845Y-14982107D01*
X103439192Y-14887790D01*
X103439190Y-14887789D01*
X103439189Y-14887788D01*
X103308372Y-14827907D01*
X103308357Y-14827901D01*
X103242415Y-14808476D01*
X103241401Y-14808167D01*
X103098948Y-14787559D01*
X102541679Y-14787070D01*
X102541677Y-14787070D01*
X102541658Y-14787070D01*
X102528409Y-14787298D01*
X102523355Y-14787385D01*
X102514382Y-14787702D01*
X102496208Y-14788673D01*
X102496197Y-14788675D01*
X102403861Y-14808761D01*
X102334169Y-14803776D01*
X102278236Y-14761905D01*
X102262943Y-14735047D01*
X102215087Y-14619511D01*
X102215080Y-14619498D01*
X102132952Y-14496585D01*
X102132951Y-14496584D01*
X102028416Y-14392049D01*
X99446973Y-11810606D01*
X98811365Y-11174998D01*
X100228532Y-11174998D01*
X100228532Y-11175001D01*
X100248364Y-11401686D01*
X100248366Y-11401697D01*
X100307258Y-11621488D01*
X100307261Y-11621497D01*
X100403431Y-11827732D01*
X100403432Y-11827734D01*
X100533954Y-12014141D01*
X100694858Y-12175045D01*
X100694861Y-12175047D01*
X100881266Y-12305568D01*
X101087504Y-12401739D01*
X101307308Y-12460635D01*
X101469230Y-12474801D01*
X101533998Y-12480468D01*
X101534000Y-12480468D01*
X101534002Y-12480468D01*
X101590673Y-12475509D01*
X101760692Y-12460635D01*
X101980496Y-12401739D01*
X102186734Y-12305568D01*
X102373139Y-12175047D01*
X102534047Y-12014139D01*
X102664568Y-11827734D01*
X102691618Y-11769724D01*
X102737790Y-11717285D01*
X102804983Y-11698133D01*
X102871865Y-11718348D01*
X102916382Y-11769725D01*
X102943429Y-11827728D01*
X102943432Y-11827734D01*
X103073954Y-12014141D01*
X103234858Y-12175045D01*
X103234861Y-12175047D01*
X103421266Y-12305568D01*
X103627504Y-12401739D01*
X103847308Y-12460635D01*
X104009230Y-12474801D01*
X104073998Y-12480468D01*
X104074000Y-12480468D01*
X104074002Y-12480468D01*
X104130673Y-12475509D01*
X104300692Y-12460635D01*
X104520496Y-12401739D01*
X104726734Y-12305568D01*
X104913139Y-12175047D01*
X105074047Y-12014139D01*
X105204568Y-11827734D01*
X105300739Y-11621496D01*
X105359635Y-11401692D01*
X105379468Y-11175000D01*
X105359635Y-10948308D01*
X105300739Y-10728504D01*
X105204568Y-10522266D01*
X105074047Y-10335861D01*
X105074045Y-10335858D01*
X104913141Y-10174954D01*
X104726734Y-10044432D01*
X104726732Y-10044431D01*
X104520497Y-9948261D01*
X104520488Y-9948258D01*
X104300697Y-9889366D01*
X104300693Y-9889365D01*
X104300692Y-9889365D01*
X104300691Y-9889364D01*
X104300686Y-9889364D01*
X104074002Y-9869532D01*
X104073998Y-9869532D01*
X103847313Y-9889364D01*
X103847302Y-9889366D01*
X103627511Y-9948258D01*
X103627502Y-9948261D01*
X103421267Y-10044431D01*
X103421265Y-10044432D01*
X103234858Y-10174954D01*
X103073954Y-10335858D01*
X102943432Y-10522265D01*
X102943431Y-10522267D01*
X102924310Y-10563272D01*
X102920352Y-10571762D01*
X102916382Y-10580275D01*
X102870209Y-10632714D01*
X102803016Y-10651866D01*
X102736135Y-10631650D01*
X102691618Y-10580275D01*
X102664568Y-10522266D01*
X102534047Y-10335861D01*
X102534045Y-10335858D01*
X102373141Y-10174954D01*
X102186734Y-10044432D01*
X102186732Y-10044431D01*
X101980497Y-9948261D01*
X101980488Y-9948258D01*
X101760697Y-9889366D01*
X101760693Y-9889365D01*
X101760692Y-9889365D01*
X101760691Y-9889364D01*
X101760686Y-9889364D01*
X101534002Y-9869532D01*
X101533998Y-9869532D01*
X101307313Y-9889364D01*
X101307302Y-9889366D01*
X101087511Y-9948258D01*
X101087502Y-9948261D01*
X100881267Y-10044431D01*
X100881265Y-10044432D01*
X100694858Y-10174954D01*
X100533954Y-10335858D01*
X100403432Y-10522265D01*
X100403431Y-10522267D01*
X100307261Y-10728502D01*
X100307258Y-10728511D01*
X100248366Y-10948302D01*
X100248364Y-10948313D01*
X100228532Y-11174998D01*
X98811365Y-11174998D01*
X97339360Y-9702993D01*
X108001700Y-9702993D01*
X108001700Y-9703006D01*
X108020864Y-9934297D01*
X108020866Y-9934308D01*
X108077842Y-10159300D01*
X108171075Y-10371848D01*
X108298016Y-10566147D01*
X108298019Y-10566151D01*
X108298021Y-10566153D01*
X108455216Y-10736913D01*
X108455219Y-10736915D01*
X108455222Y-10736918D01*
X108638365Y-10879464D01*
X108638371Y-10879468D01*
X108638374Y-10879470D01*
X108842497Y-10989936D01*
X108956487Y-11029068D01*
X109062015Y-11065297D01*
X109062017Y-11065297D01*
X109062019Y-11065298D01*
X109290951Y-11103500D01*
X109290952Y-11103500D01*
X109523048Y-11103500D01*
X109523049Y-11103500D01*
X109751981Y-11065298D01*
X109971503Y-10989936D01*
X110175626Y-10879470D01*
X110218399Y-10846179D01*
X110237129Y-10831600D01*
X110358784Y-10736913D01*
X110515979Y-10566153D01*
X110642924Y-10371849D01*
X110736157Y-10159300D01*
X110793134Y-9934305D01*
X110799803Y-9853824D01*
X110812300Y-9703006D01*
X110812300Y-9702993D01*
X110793135Y-9471702D01*
X110793133Y-9471691D01*
X110736157Y-9246699D01*
X110642924Y-9034151D01*
X110515983Y-8839852D01*
X110515980Y-8839849D01*
X110515979Y-8839847D01*
X110358784Y-8669087D01*
X110358779Y-8669083D01*
X110358777Y-8669081D01*
X110175634Y-8526535D01*
X110175628Y-8526531D01*
X109971504Y-8416064D01*
X109971495Y-8416061D01*
X109751984Y-8340702D01*
X109580282Y-8312050D01*
X109523049Y-8302500D01*
X109290951Y-8302500D01*
X109245164Y-8310140D01*
X109062015Y-8340702D01*
X108842504Y-8416061D01*
X108842495Y-8416064D01*
X108638371Y-8526531D01*
X108638365Y-8526535D01*
X108455222Y-8669081D01*
X108455219Y-8669084D01*
X108298016Y-8839852D01*
X108171075Y-9034151D01*
X108077842Y-9246699D01*
X108020866Y-9471691D01*
X108020864Y-9471702D01*
X108001700Y-9702993D01*
X97339360Y-9702993D01*
X92515080Y-4878711D01*
X113149500Y-4878711D01*
X113149500Y-5121288D01*
X113181161Y-5361785D01*
X113243947Y-5596104D01*
X113312869Y-5762496D01*
X113336776Y-5820212D01*
X113458064Y-6030289D01*
X113458066Y-6030292D01*
X113458067Y-6030293D01*
X113605733Y-6222736D01*
X113605739Y-6222743D01*
X113777256Y-6394260D01*
X113777262Y-6394265D01*
X113969711Y-6541936D01*
X114179788Y-6663224D01*
X114403900Y-6756054D01*
X114638211Y-6818838D01*
X114818586Y-6842584D01*
X114878711Y-6850500D01*
X114878712Y-6850500D01*
X115121289Y-6850500D01*
X115169388Y-6844167D01*
X115361789Y-6818838D01*
X115596100Y-6756054D01*
X115820212Y-6663224D01*
X116030289Y-6541936D01*
X116222738Y-6394265D01*
X116394265Y-6222738D01*
X116541936Y-6030289D01*
X116663224Y-5820212D01*
X116756054Y-5596100D01*
X116818838Y-5361789D01*
X116850500Y-5121288D01*
X116850500Y-4878712D01*
X116818838Y-4638211D01*
X116756054Y-4403900D01*
X116663224Y-4179788D01*
X116541936Y-3969711D01*
X116394265Y-3777262D01*
X116394260Y-3777256D01*
X116222743Y-3605739D01*
X116222736Y-3605733D01*
X116030293Y-3458067D01*
X116030292Y-3458066D01*
X116030289Y-3458064D01*
X115820212Y-3336776D01*
X115820205Y-3336773D01*
X115596104Y-3243947D01*
X115361785Y-3181161D01*
X115121289Y-3149500D01*
X115121288Y-3149500D01*
X114878712Y-3149500D01*
X114878711Y-3149500D01*
X114638214Y-3181161D01*
X114403895Y-3243947D01*
X114179794Y-3336773D01*
X114179785Y-3336777D01*
X113969706Y-3458067D01*
X113777263Y-3605733D01*
X113777256Y-3605739D01*
X113605739Y-3777256D01*
X113605733Y-3777263D01*
X113458067Y-3969706D01*
X113458064Y-3969710D01*
X113458064Y-3969711D01*
X113455693Y-3973818D01*
X113336777Y-4179785D01*
X113336773Y-4179794D01*
X113243947Y-4403895D01*
X113181161Y-4638214D01*
X113149500Y-4878711D01*
X92515080Y-4878711D01*
X91678421Y-4042052D01*
X91678420Y-4042051D01*
X91659295Y-4029272D01*
X91570154Y-3969711D01*
X91570153Y-3969709D01*
X91555499Y-3959919D01*
X91555495Y-3959916D01*
X91555493Y-3959915D01*
X91555490Y-3959913D01*
X91418917Y-3903343D01*
X91418907Y-3903340D01*
X91273920Y-3874500D01*
X91273918Y-3874500D01*
X80148918Y-3874500D01*
X80001082Y-3874500D01*
X80001080Y-3874500D01*
X79856092Y-3903340D01*
X79856082Y-3903343D01*
X79719511Y-3959912D01*
X79719498Y-3959919D01*
X79596584Y-4042048D01*
X79596580Y-4042051D01*
X79492051Y-4146580D01*
X79492048Y-4146584D01*
X79409919Y-4269498D01*
X79409912Y-4269511D01*
X79353343Y-4406082D01*
X79353340Y-4406092D01*
X79324500Y-4551079D01*
X79324500Y-4551082D01*
X79324500Y-16271918D01*
X79324500Y-16271920D01*
X79324499Y-16271920D01*
X79353340Y-16416907D01*
X79353343Y-16416917D01*
X79409912Y-16553488D01*
X79409916Y-16553495D01*
X79426672Y-16578572D01*
X79426673Y-16578575D01*
X79426674Y-16578575D01*
X79492051Y-16676420D01*
X79492052Y-16676421D01*
X80971618Y-18155986D01*
X81005103Y-18217309D01*
X81004143Y-18274107D01*
X80985891Y-18346182D01*
X80965357Y-18593994D01*
X80965357Y-18594005D01*
X80985890Y-18841812D01*
X80985892Y-18841824D01*
X81046936Y-19082881D01*
X81146826Y-19310606D01*
X81282833Y-19518782D01*
X81282836Y-19518785D01*
X81451256Y-19701738D01*
X81647491Y-19854474D01*
X81866190Y-19972828D01*
X82101386Y-20053571D01*
X82346665Y-20094500D01*
X82595335Y-20094500D01*
X82840614Y-20053571D01*
X83075810Y-19972828D01*
X83294509Y-19854474D01*
X83490744Y-19701738D01*
X83659164Y-19518785D01*
X83795173Y-19310607D01*
X83895063Y-19082881D01*
X83956108Y-18841821D01*
X83956197Y-18840745D01*
X83976643Y-18594005D01*
X83976643Y-18593994D01*
X83956109Y-18346187D01*
X83956107Y-18346175D01*
X83895063Y-18105118D01*
X83795173Y-17877393D01*
X83659166Y-17669217D01*
X83637557Y-17645744D01*
X83490744Y-17486262D01*
X83294509Y-17333526D01*
X83294507Y-17333525D01*
X83294506Y-17333524D01*
X83075811Y-17215172D01*
X83075802Y-17215169D01*
X82840616Y-17134429D01*
X82595335Y-17093500D01*
X82346665Y-17093500D01*
X82139841Y-17128011D01*
X82070476Y-17119629D01*
X82031751Y-17093383D01*
X80861819Y-15923451D01*
X80828334Y-15862128D01*
X80825500Y-15835770D01*
X80825500Y-11669438D01*
X80845185Y-11602399D01*
X80897989Y-11556644D01*
X80967147Y-11546700D01*
X81030703Y-11575725D01*
X81063055Y-11619627D01*
X81089065Y-11678923D01*
X81146826Y-11810606D01*
X81282833Y-12018782D01*
X81282836Y-12018785D01*
X81451256Y-12201738D01*
X81647491Y-12354474D01*
X81647493Y-12354475D01*
X81843655Y-12460633D01*
X81866190Y-12472828D01*
X82101386Y-12553571D01*
X82346665Y-12594500D01*
X82595335Y-12594500D01*
X82840614Y-12553571D01*
X83075810Y-12472828D01*
X83294509Y-12354474D01*
X83490744Y-12201738D01*
X83659164Y-12018785D01*
X83795173Y-11810607D01*
X83895063Y-11582881D01*
X83956108Y-11341821D01*
X83969931Y-11175001D01*
X83976643Y-11094005D01*
X83976643Y-11093994D01*
X83956109Y-10846187D01*
X83956107Y-10846175D01*
X83895063Y-10605118D01*
X83795173Y-10377393D01*
X83659166Y-10169217D01*
X83544292Y-10044431D01*
X83490744Y-9986262D01*
X83294509Y-9833526D01*
X83294507Y-9833525D01*
X83294506Y-9833524D01*
X83075811Y-9715172D01*
X83075802Y-9715169D01*
X82840616Y-9634429D01*
X82595335Y-9593500D01*
X82346665Y-9593500D01*
X82101383Y-9634429D01*
X81866197Y-9715169D01*
X81866188Y-9715172D01*
X81647493Y-9833524D01*
X81451257Y-9986261D01*
X81282833Y-10169217D01*
X81146826Y-10377393D01*
X81063056Y-10568371D01*
X81018100Y-10621857D01*
X80951364Y-10642547D01*
X80884036Y-10623872D01*
X80837493Y-10571762D01*
X80825500Y-10518561D01*
X80825500Y-5499500D01*
X80845185Y-5432461D01*
X80897989Y-5386706D01*
X80949500Y-5375500D01*
X90837770Y-5375500D01*
X90904809Y-5395185D01*
X90925451Y-5411819D01*
X95558064Y-10044432D01*
X100086787Y-14573154D01*
X100120272Y-14634477D01*
X100115288Y-14704169D01*
X100073416Y-14760102D01*
X100007952Y-14784519D01*
X99998997Y-14784835D01*
X91579391Y-14777441D01*
X91512369Y-14757698D01*
X91466660Y-14704853D01*
X91455500Y-14653441D01*
X91455500Y-12458171D01*
X91475185Y-12391132D01*
X91527989Y-12345377D01*
X91597147Y-12335433D01*
X91642667Y-12352611D01*
X91642981Y-12352033D01*
X91647234Y-12354334D01*
X91647341Y-12354375D01*
X91647481Y-12354466D01*
X91647491Y-12354474D01*
X91866190Y-12472828D01*
X92101386Y-12553571D01*
X92346665Y-12594500D01*
X92595335Y-12594500D01*
X92840614Y-12553571D01*
X93075810Y-12472828D01*
X93294509Y-12354474D01*
X93490744Y-12201738D01*
X93659164Y-12018785D01*
X93795173Y-11810607D01*
X93895063Y-11582881D01*
X93956108Y-11341821D01*
X93969931Y-11175001D01*
X93976643Y-11094005D01*
X93976643Y-11093994D01*
X93956109Y-10846187D01*
X93956107Y-10846175D01*
X93895063Y-10605118D01*
X93795173Y-10377393D01*
X93659166Y-10169217D01*
X93544292Y-10044431D01*
X93490744Y-9986262D01*
X93294509Y-9833526D01*
X93294507Y-9833525D01*
X93294506Y-9833524D01*
X93075811Y-9715172D01*
X93075802Y-9715169D01*
X92840616Y-9634429D01*
X92595335Y-9593500D01*
X92346665Y-9593500D01*
X92101383Y-9634429D01*
X91866197Y-9715169D01*
X91866188Y-9715172D01*
X91647474Y-9833535D01*
X91647308Y-9833644D01*
X91647230Y-9833667D01*
X91642981Y-9835967D01*
X91642507Y-9835092D01*
X91580416Y-9853824D01*
X91513233Y-9834635D01*
X91467089Y-9782170D01*
X91455500Y-9729827D01*
X91455500Y-8951359D01*
X91452602Y-8897311D01*
X91452602Y-8897310D01*
X91449770Y-8870977D01*
X91449767Y-8870950D01*
X91445845Y-8846751D01*
X91441114Y-8817552D01*
X91390832Y-8682743D01*
X91357347Y-8621420D01*
X91271123Y-8506239D01*
X91271118Y-8506234D01*
X91271113Y-8506228D01*
X90343776Y-7578892D01*
X90343770Y-7578886D01*
X90343761Y-7578877D01*
X90343737Y-7578855D01*
X90303519Y-7542728D01*
X90303507Y-7542718D01*
X90282856Y-7526076D01*
X90238974Y-7494433D01*
X90108100Y-7434663D01*
X90041055Y-7414976D01*
X89993582Y-7408150D01*
X89898638Y-7394500D01*
X86001362Y-7394500D01*
X86001360Y-7394500D01*
X85947311Y-7397397D01*
X85947310Y-7397397D01*
X85920977Y-7400229D01*
X85920950Y-7400232D01*
X85867554Y-7408885D01*
X85867552Y-7408885D01*
X85732747Y-7459166D01*
X85671422Y-7492651D01*
X85556240Y-7578876D01*
X85556228Y-7578886D01*
X84628892Y-8506223D01*
X84628855Y-8506262D01*
X84592728Y-8546480D01*
X84592718Y-8546492D01*
X84576076Y-8567143D01*
X84544433Y-8611025D01*
X84484663Y-8741899D01*
X84464976Y-8808944D01*
X84463738Y-8817554D01*
X84444501Y-8951359D01*
X84444500Y-8951363D01*
X84444500Y-19639254D01*
X84424815Y-19706293D01*
X84408181Y-19726935D01*
X83776935Y-20358181D01*
X83715612Y-20391666D01*
X83689254Y-20394500D01*
X55454328Y-20394500D01*
X55387289Y-20374815D01*
X55341534Y-20322011D01*
X55331590Y-20252853D01*
X55350520Y-20202678D01*
X55437424Y-20069661D01*
X55437425Y-20069660D01*
X55530771Y-19856853D01*
X55587816Y-19631585D01*
X55607006Y-19399999D01*
X55587816Y-19168413D01*
X55530771Y-18943145D01*
X55437425Y-18730338D01*
X55310325Y-18535798D01*
X55152939Y-18364831D01*
X55152934Y-18364827D01*
X55152932Y-18364825D01*
X54969567Y-18222106D01*
X54969561Y-18222102D01*
X54765188Y-18111500D01*
X54765180Y-18111497D01*
X54545402Y-18036047D01*
X54316190Y-17997799D01*
X54083810Y-17997799D01*
X53854597Y-18036047D01*
X53634819Y-18111497D01*
X53634811Y-18111500D01*
X53430438Y-18222102D01*
X53430432Y-18222106D01*
X53247067Y-18364825D01*
X53247064Y-18364828D01*
X53089676Y-18535796D01*
X53089673Y-18535800D01*
X52962575Y-18730336D01*
X52869229Y-18943144D01*
X52812183Y-19168416D01*
X52792994Y-19399993D01*
X52792994Y-19400004D01*
X52812183Y-19631581D01*
X52869229Y-19856853D01*
X52962575Y-20069661D01*
X53049480Y-20202678D01*
X53069668Y-20269568D01*
X53050489Y-20336753D01*
X52998030Y-20382904D01*
X52945672Y-20394500D01*
X47954328Y-20394500D01*
X47887289Y-20374815D01*
X47841534Y-20322011D01*
X47831590Y-20252853D01*
X47850520Y-20202678D01*
X47937424Y-20069661D01*
X47937425Y-20069660D01*
X48030771Y-19856853D01*
X48087816Y-19631585D01*
X48107006Y-19399999D01*
X48087816Y-19168413D01*
X48030771Y-18943145D01*
X47937425Y-18730338D01*
X47810325Y-18535798D01*
X47652939Y-18364831D01*
X47652934Y-18364827D01*
X47652932Y-18364825D01*
X47469567Y-18222106D01*
X47469561Y-18222102D01*
X47265188Y-18111500D01*
X47265180Y-18111497D01*
X47045402Y-18036047D01*
X46816190Y-17997799D01*
X46583810Y-17997799D01*
X46354597Y-18036047D01*
X46134819Y-18111497D01*
X46134811Y-18111500D01*
X45930438Y-18222102D01*
X45930432Y-18222106D01*
X45747067Y-18364825D01*
X45747064Y-18364828D01*
X45589676Y-18535796D01*
X45589673Y-18535800D01*
X45462575Y-18730336D01*
X45369229Y-18943144D01*
X45312183Y-19168416D01*
X45292994Y-19399993D01*
X45292994Y-19400004D01*
X45312183Y-19631581D01*
X45369229Y-19856853D01*
X45462575Y-20069661D01*
X45549480Y-20202678D01*
X45569668Y-20269568D01*
X45550489Y-20336753D01*
X45498030Y-20382904D01*
X45445672Y-20394500D01*
X44629500Y-20394500D01*
X44562461Y-20374815D01*
X44516706Y-20322011D01*
X44505500Y-20270500D01*
X44505500Y-12606135D01*
X59658500Y-12606135D01*
X59658500Y-14941870D01*
X59658501Y-14941876D01*
X59664908Y-15001483D01*
X59715202Y-15136328D01*
X59715206Y-15136335D01*
X59801452Y-15251544D01*
X59801455Y-15251547D01*
X59916664Y-15337793D01*
X59916671Y-15337797D01*
X60051517Y-15388091D01*
X60051516Y-15388091D01*
X60058444Y-15388835D01*
X60111127Y-15394500D01*
X62446872Y-15394499D01*
X62506483Y-15388091D01*
X62641331Y-15337796D01*
X62756546Y-15251546D01*
X62842796Y-15136331D01*
X62893091Y-15001483D01*
X62899500Y-14941873D01*
X62899499Y-12606128D01*
X62893091Y-12546517D01*
X62868456Y-12480468D01*
X62842797Y-12411671D01*
X62842793Y-12411664D01*
X62756547Y-12296455D01*
X62756544Y-12296452D01*
X62641335Y-12210206D01*
X62641328Y-12210202D01*
X62506482Y-12159908D01*
X62506483Y-12159908D01*
X62446883Y-12153501D01*
X62446881Y-12153500D01*
X62446873Y-12153500D01*
X62446864Y-12153500D01*
X60111129Y-12153500D01*
X60111123Y-12153501D01*
X60051516Y-12159908D01*
X59916671Y-12210202D01*
X59916664Y-12210206D01*
X59801455Y-12296452D01*
X59801452Y-12296455D01*
X59715206Y-12411664D01*
X59715202Y-12411671D01*
X59664908Y-12546517D01*
X59659750Y-12594500D01*
X59658501Y-12606123D01*
X59658500Y-12606135D01*
X44505500Y-12606135D01*
X44505500Y-11093994D01*
X65965357Y-11093994D01*
X65965357Y-11094005D01*
X65985890Y-11341812D01*
X65985892Y-11341824D01*
X66046936Y-11582881D01*
X66146826Y-11810606D01*
X66282833Y-12018782D01*
X66282836Y-12018785D01*
X66451256Y-12201738D01*
X66647491Y-12354474D01*
X66647493Y-12354475D01*
X66843655Y-12460633D01*
X66866190Y-12472828D01*
X67101386Y-12553571D01*
X67346665Y-12594500D01*
X67595335Y-12594500D01*
X67840614Y-12553571D01*
X68075810Y-12472828D01*
X68294509Y-12354474D01*
X68490744Y-12201738D01*
X68659164Y-12018785D01*
X68795173Y-11810607D01*
X68895063Y-11582881D01*
X68956108Y-11341821D01*
X68969931Y-11175001D01*
X68976643Y-11094005D01*
X68976643Y-11093994D01*
X68956109Y-10846187D01*
X68956107Y-10846175D01*
X68895063Y-10605118D01*
X68795173Y-10377393D01*
X68659166Y-10169217D01*
X68544292Y-10044431D01*
X68490744Y-9986262D01*
X68294509Y-9833526D01*
X68294507Y-9833525D01*
X68294506Y-9833524D01*
X68075811Y-9715172D01*
X68075802Y-9715169D01*
X67840616Y-9634429D01*
X67595335Y-9593500D01*
X67346665Y-9593500D01*
X67101383Y-9634429D01*
X66866197Y-9715169D01*
X66866188Y-9715172D01*
X66647493Y-9833524D01*
X66451257Y-9986261D01*
X66282833Y-10169217D01*
X66146826Y-10377393D01*
X66046936Y-10605118D01*
X65985892Y-10846175D01*
X65985890Y-10846187D01*
X65965357Y-11093994D01*
X44505500Y-11093994D01*
X44505500Y-6024010D01*
X44505500Y-6024000D01*
X44493947Y-5916544D01*
X44482741Y-5865033D01*
X44467821Y-5820205D01*
X44448616Y-5762502D01*
X44448613Y-5762496D01*
X44370828Y-5641462D01*
X44370825Y-5641457D01*
X44370820Y-5641451D01*
X44325076Y-5588659D01*
X44325072Y-5588656D01*
X44325070Y-5588653D01*
X44216336Y-5494433D01*
X44216333Y-5494431D01*
X44216331Y-5494430D01*
X44085465Y-5434664D01*
X44085460Y-5434662D01*
X44085459Y-5434662D01*
X44018420Y-5414977D01*
X44018422Y-5414977D01*
X44018417Y-5414976D01*
X43956347Y-5406052D01*
X43876000Y-5394500D01*
X27124000Y-5394500D01*
X27123991Y-5394500D01*
X27123990Y-5394501D01*
X27016549Y-5406052D01*
X27016537Y-5406054D01*
X26965027Y-5417260D01*
X26862499Y-5451385D01*
X26817297Y-5480434D01*
X26750257Y-5500117D01*
X26698747Y-5488911D01*
X26579965Y-5434664D01*
X26579960Y-5434662D01*
X26579959Y-5434662D01*
X26512920Y-5414977D01*
X26512922Y-5414977D01*
X26512917Y-5414976D01*
X26450847Y-5406052D01*
X26370500Y-5394500D01*
X10451362Y-5394500D01*
X10451360Y-5394500D01*
X10397311Y-5397397D01*
X10397310Y-5397397D01*
X10370977Y-5400229D01*
X10370950Y-5400232D01*
X10317554Y-5408885D01*
X10317552Y-5408885D01*
X10182747Y-5459166D01*
X10121422Y-5492651D01*
X10006240Y-5578876D01*
X10006228Y-5578886D01*
X5178892Y-10406223D01*
X5178855Y-10406262D01*
X5142728Y-10446480D01*
X5142718Y-10446492D01*
X5126076Y-10467143D01*
X5094433Y-10511025D01*
X5034663Y-10641899D01*
X5031737Y-10651866D01*
X5014977Y-10708942D01*
X5014976Y-10708946D01*
X4994500Y-10851362D01*
X4994500Y-14276000D01*
X4994501Y-14276009D01*
X5006052Y-14383450D01*
X5006054Y-14383462D01*
X5017260Y-14434972D01*
X5051383Y-14537497D01*
X5051386Y-14537503D01*
X5129171Y-14658537D01*
X5129179Y-14658548D01*
X5174923Y-14711340D01*
X5174926Y-14711343D01*
X5174930Y-14711347D01*
X5283664Y-14805567D01*
X5283667Y-14805568D01*
X5283668Y-14805569D01*
X5368260Y-14844202D01*
X5414541Y-14865338D01*
X5481580Y-14885023D01*
X5481584Y-14885024D01*
X5624000Y-14905500D01*
X13570500Y-14905500D01*
X13637539Y-14925185D01*
X13683294Y-14977989D01*
X13694500Y-15029500D01*
X13694500Y-27276000D01*
X13695466Y-27284990D01*
X13706052Y-27383450D01*
X13706054Y-27383462D01*
X13717260Y-27434972D01*
X13751383Y-27537497D01*
X13751386Y-27537503D01*
X13829171Y-27658537D01*
X13829179Y-27658548D01*
X13874923Y-27711340D01*
X13874926Y-27711343D01*
X13874930Y-27711347D01*
X13983664Y-27805567D01*
X13983667Y-27805568D01*
X13983668Y-27805569D01*
X14067060Y-27843654D01*
X14114541Y-27865338D01*
X14181580Y-27885023D01*
X14181584Y-27885024D01*
X14324000Y-27905500D01*
X14324003Y-27905500D01*
X21598935Y-27905500D01*
X21616307Y-27905101D01*
X21622104Y-27904968D01*
X21633472Y-27904446D01*
X21645877Y-27903590D01*
X21656624Y-27902850D01*
X21656626Y-27902850D01*
X21656629Y-27902849D01*
X21656632Y-27902849D01*
X21796570Y-27869402D01*
X21861522Y-27843654D01*
X21986362Y-27772141D01*
X22086005Y-27668349D01*
X22126727Y-27611573D01*
X22126730Y-27611568D01*
X22165231Y-27537505D01*
X22193089Y-27483914D01*
X22193091Y-27483909D01*
X22193093Y-27483906D01*
X22227918Y-27384376D01*
X22239965Y-27359362D01*
X22260468Y-27326732D01*
X22277776Y-27305027D01*
X22305026Y-27277777D01*
X22326731Y-27260469D01*
X22359361Y-27239966D01*
X22384373Y-27227919D01*
X22420761Y-27215186D01*
X22447822Y-27209010D01*
X22486118Y-27204696D01*
X22513880Y-27204696D01*
X22552173Y-27209010D01*
X22579237Y-27215187D01*
X22615620Y-27227918D01*
X22640636Y-27239966D01*
X22673266Y-27260469D01*
X22694975Y-27277781D01*
X22722217Y-27305023D01*
X22739529Y-27326732D01*
X22760032Y-27359362D01*
X22772080Y-27384378D01*
X22806906Y-27483904D01*
X22815090Y-27505676D01*
X22819334Y-27516223D01*
X22828465Y-27537495D01*
X22828470Y-27537505D01*
X22906254Y-27658537D01*
X22906262Y-27658548D01*
X22952006Y-27711340D01*
X22952009Y-27711343D01*
X22952013Y-27711347D01*
X23060747Y-27805567D01*
X23060750Y-27805568D01*
X23060751Y-27805569D01*
X23144143Y-27843654D01*
X23191624Y-27865338D01*
X23258663Y-27885023D01*
X23258667Y-27885024D01*
X23401083Y-27905500D01*
X23401086Y-27905500D01*
X26370500Y-27905500D01*
X26437539Y-27925185D01*
X26483294Y-27977989D01*
X26494500Y-28029500D01*
X26494500Y-31965129D01*
X26494713Y-31979844D01*
X26494922Y-31987011D01*
X26495558Y-32001613D01*
X26495559Y-32001619D01*
X26504161Y-32043887D01*
X26498241Y-32113506D01*
X26470333Y-32156297D01*
X17097049Y-41529582D01*
X17097048Y-41529583D01*
X17074847Y-41562811D01*
X17014914Y-41652508D01*
X16958343Y-41789082D01*
X16958340Y-41789092D01*
X16929500Y-41934079D01*
X16929500Y-66315390D01*
X16909815Y-66382429D01*
X16857011Y-66428184D01*
X16805371Y-66439390D01*
X14635655Y-66437131D01*
X14568636Y-66417377D01*
X14522936Y-66364525D01*
X14511784Y-66313109D01*
X14511963Y-65325076D01*
X14514171Y-53092334D01*
X14516848Y-38266149D01*
X14504403Y-38154581D01*
X14492333Y-38101196D01*
X14485554Y-38081637D01*
X14455576Y-37995137D01*
X14455575Y-37995134D01*
X14375813Y-37875404D01*
X14375810Y-37875401D01*
X14375806Y-37875394D01*
X14329188Y-37823351D01*
X14329185Y-37823348D01*
X14218909Y-37730931D01*
X14218908Y-37730930D01*
X14087065Y-37673325D01*
X14019707Y-37654747D01*
X13876976Y-37636621D01*
X4413629Y-37792558D01*
X4310447Y-37804943D01*
X4310435Y-37804945D01*
X4310431Y-37804945D01*
X4310430Y-37804946D01*
X4271567Y-37813736D01*
X4260955Y-37816137D01*
X4163649Y-37848970D01*
X4162496Y-37849360D01*
X4162494Y-37849361D01*
X4162490Y-37849363D01*
X4041462Y-37927143D01*
X4041451Y-37927152D01*
X3988659Y-37972896D01*
X3894433Y-38081637D01*
X3894430Y-38081641D01*
X3834664Y-38212507D01*
X3814976Y-38279555D01*
X3794500Y-38421974D01*
X1000000Y-38421974D01*
X1000000Y-34602135D01*
X9399500Y-34602135D01*
X9399500Y-35597870D01*
X9399501Y-35597876D01*
X9405908Y-35657483D01*
X9456202Y-35792328D01*
X9456206Y-35792335D01*
X9542452Y-35907544D01*
X9542455Y-35907547D01*
X9657664Y-35993793D01*
X9657671Y-35993797D01*
X9792517Y-36044091D01*
X9792516Y-36044091D01*
X9799444Y-36044835D01*
X9852127Y-36050500D01*
X11947872Y-36050499D01*
X12007483Y-36044091D01*
X12142331Y-35993796D01*
X12257546Y-35907546D01*
X12343796Y-35792331D01*
X12394091Y-35657483D01*
X12400500Y-35597873D01*
X12400499Y-34602128D01*
X12394091Y-34542517D01*
X12343796Y-34407669D01*
X12343795Y-34407668D01*
X12343793Y-34407664D01*
X12257547Y-34292455D01*
X12257544Y-34292452D01*
X12142335Y-34206206D01*
X12142328Y-34206202D01*
X12007482Y-34155908D01*
X12007483Y-34155908D01*
X11947883Y-34149501D01*
X11947881Y-34149500D01*
X11947873Y-34149500D01*
X11947864Y-34149500D01*
X9852129Y-34149500D01*
X9852123Y-34149501D01*
X9792516Y-34155908D01*
X9657671Y-34206202D01*
X9657664Y-34206206D01*
X9542455Y-34292452D01*
X9542452Y-34292455D01*
X9456206Y-34407664D01*
X9456202Y-34407671D01*
X9405908Y-34542517D01*
X9399501Y-34602116D01*
X9399501Y-34602123D01*
X9399500Y-34602135D01*
X1000000Y-34602135D01*
X1000000Y-21102135D01*
X9399500Y-21102135D01*
X9399500Y-22097870D01*
X9399501Y-22097876D01*
X9405908Y-22157483D01*
X9456202Y-22292328D01*
X9456206Y-22292335D01*
X9542452Y-22407544D01*
X9542455Y-22407547D01*
X9657664Y-22493793D01*
X9657671Y-22493797D01*
X9792517Y-22544091D01*
X9792516Y-22544091D01*
X9799444Y-22544835D01*
X9852127Y-22550500D01*
X11947872Y-22550499D01*
X12007483Y-22544091D01*
X12142331Y-22493796D01*
X12257546Y-22407546D01*
X12343796Y-22292331D01*
X12394091Y-22157483D01*
X12400500Y-22097873D01*
X12400499Y-21102128D01*
X12394091Y-21042517D01*
X12343796Y-20907669D01*
X12343795Y-20907668D01*
X12343793Y-20907664D01*
X12257547Y-20792455D01*
X12257544Y-20792452D01*
X12142335Y-20706206D01*
X12142328Y-20706202D01*
X12007482Y-20655908D01*
X12007483Y-20655908D01*
X11947883Y-20649501D01*
X11947881Y-20649500D01*
X11947873Y-20649500D01*
X11947864Y-20649500D01*
X9852129Y-20649500D01*
X9852123Y-20649501D01*
X9792516Y-20655908D01*
X9657671Y-20706202D01*
X9657664Y-20706206D01*
X9542455Y-20792452D01*
X9542452Y-20792455D01*
X9456206Y-20907664D01*
X9456202Y-20907671D01*
X9405908Y-21042517D01*
X9399501Y-21102116D01*
X9399501Y-21102123D01*
X9399500Y-21102135D01*
X1000000Y-21102135D01*
X1000000Y-4878711D01*
X3149500Y-4878711D01*
X3149500Y-5121288D01*
X3181161Y-5361785D01*
X3243947Y-5596104D01*
X3312869Y-5762496D01*
X3336776Y-5820212D01*
X3458064Y-6030289D01*
X3458066Y-6030292D01*
X3458067Y-6030293D01*
X3605733Y-6222736D01*
X3605739Y-6222743D01*
X3777256Y-6394260D01*
X3777262Y-6394265D01*
X3969711Y-6541936D01*
X4179788Y-6663224D01*
X4403900Y-6756054D01*
X4638211Y-6818838D01*
X4818586Y-6842584D01*
X4878711Y-6850500D01*
X4878712Y-6850500D01*
X5121289Y-6850500D01*
X5169388Y-6844167D01*
X5361789Y-6818838D01*
X5596100Y-6756054D01*
X5820212Y-6663224D01*
X6030289Y-6541936D01*
X6222738Y-6394265D01*
X6394265Y-6222738D01*
X6541936Y-6030289D01*
X6663224Y-5820212D01*
X6756054Y-5596100D01*
X6818838Y-5361789D01*
X6850500Y-5121288D01*
X6850500Y-4878712D01*
X6818838Y-4638211D01*
X6756054Y-4403900D01*
X6663224Y-4179788D01*
X6541936Y-3969711D01*
X6394265Y-3777262D01*
X6394260Y-3777256D01*
X6222743Y-3605739D01*
X6222736Y-3605733D01*
X6030293Y-3458067D01*
X6030292Y-3458066D01*
X6030289Y-3458064D01*
X5820212Y-3336776D01*
X5820205Y-3336773D01*
X5596104Y-3243947D01*
X5361785Y-3181161D01*
X5121289Y-3149500D01*
X5121288Y-3149500D01*
X4878712Y-3149500D01*
X4878711Y-3149500D01*
X4638214Y-3181161D01*
X4403895Y-3243947D01*
X4179794Y-3336773D01*
X4179785Y-3336777D01*
X3969706Y-3458067D01*
X3777263Y-3605733D01*
X3777256Y-3605739D01*
X3605739Y-3777256D01*
X3605733Y-3777263D01*
X3458067Y-3969706D01*
X3458064Y-3969710D01*
X3458064Y-3969711D01*
X3455693Y-3973818D01*
X3336777Y-4179785D01*
X3336773Y-4179794D01*
X3243947Y-4403895D01*
X3181161Y-4638214D01*
X3149500Y-4878711D01*
X1000000Y-4878711D01*
X1000000Y-4029272D01*
X1013091Y-3973818D01*
X1015146Y-3969709D01*
X1020041Y-3959919D01*
X1020044Y-3959913D01*
X1048329Y-3903343D01*
X1197134Y-3605733D01*
X1270967Y-3458067D01*
X1331612Y-3336777D01*
X1378027Y-3243947D01*
X1409420Y-3181161D01*
X1981515Y-2036970D01*
X2029102Y-1985811D01*
X2036970Y-1981515D01*
X3973818Y-1013091D01*
X4029272Y-1000000D01*
X115970728Y-1000000D01*
X116026182Y-1013091D01*
G37*
%TD.AperFunction*%
%TD*%
%TA.AperFunction,Conductor*%
%TO.N,VOUT1*%
G36*
X97473806Y-45591112D02*
G01*
X97497431Y-45610715D01*
X99427388Y-47665606D01*
X99458935Y-47727949D01*
X99460999Y-47749593D01*
X99512930Y-54873973D01*
X99502901Y-54923737D01*
X98632214Y-56954635D01*
X98587706Y-57008495D01*
X98521145Y-57029741D01*
X98518246Y-57029775D01*
X89587645Y-57029775D01*
X89520606Y-57010090D01*
X89474851Y-56957286D01*
X89463645Y-56905775D01*
X89463645Y-55279500D01*
X89483330Y-55212461D01*
X89536134Y-55166706D01*
X89587645Y-55155500D01*
X89890410Y-55155500D01*
X89957716Y-55150020D01*
X89972152Y-55148846D01*
X90011730Y-55142360D01*
X90091322Y-55122575D01*
X90219754Y-55057714D01*
X90277004Y-55017662D01*
X90381959Y-54919245D01*
X91317747Y-53749509D01*
X91332927Y-53729538D01*
X91340119Y-53719572D01*
X91354258Y-53698921D01*
X91414603Y-53568307D01*
X91434582Y-53501355D01*
X91434583Y-53501350D01*
X91455684Y-53359025D01*
X91486176Y-46406523D01*
X91506155Y-46339575D01*
X91559159Y-46294052D01*
X91628360Y-46284412D01*
X91691788Y-46313715D01*
X91701403Y-46323086D01*
X91722256Y-46345738D01*
X91918491Y-46498474D01*
X92137190Y-46616828D01*
X92372386Y-46697571D01*
X92617665Y-46738500D01*
X92866335Y-46738500D01*
X93111614Y-46697571D01*
X93346810Y-46616828D01*
X93565509Y-46498474D01*
X93761744Y-46345738D01*
X93930164Y-46162785D01*
X94066173Y-45954607D01*
X94166063Y-45726881D01*
X94179594Y-45673445D01*
X94215133Y-45613291D01*
X94277553Y-45581898D01*
X94299454Y-45579887D01*
X97406716Y-45571606D01*
X97473806Y-45591112D01*
G37*
%TD.AperFunction*%
%TD*%
%TA.AperFunction,Conductor*%
%TO.N,Net-(D4-K)*%
G36*
X110942607Y-46983922D02*
G01*
X110988580Y-47036536D01*
X111000000Y-47088514D01*
X111000000Y-53225500D01*
X110980315Y-53292539D01*
X110927511Y-53338294D01*
X110876000Y-53349500D01*
X109002129Y-53349500D01*
X109002123Y-53349501D01*
X108942516Y-53355908D01*
X108807671Y-53406202D01*
X108807664Y-53406206D01*
X108692455Y-53492452D01*
X108692452Y-53492455D01*
X108606206Y-53607664D01*
X108606202Y-53607671D01*
X108555908Y-53742517D01*
X108549501Y-53802116D01*
X108549500Y-53802135D01*
X108549500Y-54797870D01*
X108549501Y-54797876D01*
X108555908Y-54857483D01*
X108606202Y-54992328D01*
X108606206Y-54992335D01*
X108692452Y-55107544D01*
X108692455Y-55107547D01*
X108807664Y-55193793D01*
X108807671Y-55193797D01*
X108942517Y-55244091D01*
X108942516Y-55244091D01*
X108949444Y-55244835D01*
X109002127Y-55250500D01*
X110876000Y-55250499D01*
X110943039Y-55270184D01*
X110988794Y-55322987D01*
X111000000Y-55374499D01*
X111000000Y-64876000D01*
X110980315Y-64943039D01*
X110927511Y-64988794D01*
X110876000Y-65000000D01*
X106724500Y-65000000D01*
X106657461Y-64980315D01*
X106611706Y-64927511D01*
X106600500Y-64876000D01*
X106600499Y-63554707D01*
X106600499Y-63554704D01*
X106590281Y-63409966D01*
X106536165Y-63169683D01*
X106444205Y-62941191D01*
X106316784Y-62730411D01*
X106250930Y-62652990D01*
X106157201Y-62542798D01*
X106027654Y-62432606D01*
X105969589Y-62383216D01*
X105758809Y-62255795D01*
X105530318Y-62163835D01*
X105290036Y-62109719D01*
X105290029Y-62109718D01*
X105145296Y-62099500D01*
X102954707Y-62099500D01*
X102954701Y-62099501D01*
X102809972Y-62109718D01*
X102809966Y-62109718D01*
X102809966Y-62109719D01*
X102809963Y-62109719D01*
X102809961Y-62109720D01*
X102569685Y-62163834D01*
X102569680Y-62163835D01*
X102341190Y-62255795D01*
X102341185Y-62255798D01*
X102130417Y-62383212D01*
X102130407Y-62383219D01*
X101942798Y-62542798D01*
X101783219Y-62730407D01*
X101783212Y-62730417D01*
X101655798Y-62941185D01*
X101655795Y-62941190D01*
X101563835Y-63169680D01*
X101563835Y-63169682D01*
X101509719Y-63409963D01*
X101509718Y-63409970D01*
X101499500Y-63554702D01*
X101499500Y-63554704D01*
X101499501Y-64876000D01*
X101479816Y-64943039D01*
X101427013Y-64988794D01*
X101375501Y-65000000D01*
X95410000Y-65000000D01*
X95342961Y-64980315D01*
X95297206Y-64927511D01*
X95286000Y-64876000D01*
X95286000Y-57659275D01*
X95305685Y-57592236D01*
X95358489Y-57546481D01*
X95410000Y-57535275D01*
X98518226Y-57535275D01*
X98518246Y-57535275D01*
X98524174Y-57535240D01*
X98527073Y-57535206D01*
X98532960Y-57535103D01*
X98674858Y-57511304D01*
X98741419Y-57490058D01*
X98741425Y-57490056D01*
X98870870Y-57427241D01*
X98977374Y-57330503D01*
X99021882Y-57276643D01*
X99096817Y-57153820D01*
X99967504Y-55122922D01*
X99998438Y-55023603D01*
X100008467Y-54973839D01*
X100018417Y-54870288D01*
X99966486Y-47745908D01*
X99964216Y-47701606D01*
X99962152Y-47679962D01*
X99956008Y-47636030D01*
X99909976Y-47499712D01*
X99909974Y-47499708D01*
X99909974Y-47499707D01*
X99882998Y-47446399D01*
X99880551Y-47440397D01*
X99878429Y-47437369D01*
X99878429Y-47437368D01*
X99795856Y-47319540D01*
X99701662Y-47219248D01*
X99670117Y-47156910D01*
X99677283Y-47087408D01*
X99720886Y-47032814D01*
X99787084Y-47010460D01*
X99791474Y-47010363D01*
X110875487Y-46964515D01*
X110942607Y-46983922D01*
G37*
%TD.AperFunction*%
%TD*%
%TA.AperFunction,Conductor*%
%TO.N,VOUT2*%
G36*
X100560733Y-15290830D02*
G01*
X100627752Y-15310573D01*
X100673461Y-15363418D01*
X100683343Y-15432585D01*
X100654263Y-15496115D01*
X100648302Y-15502511D01*
X100549954Y-15600858D01*
X100419432Y-15787265D01*
X100419431Y-15787267D01*
X100323261Y-15993502D01*
X100323258Y-15993511D01*
X100264366Y-16213302D01*
X100264364Y-16213313D01*
X100244532Y-16439998D01*
X100244532Y-16440001D01*
X100264364Y-16666686D01*
X100264366Y-16666697D01*
X100323258Y-16886488D01*
X100323261Y-16886497D01*
X100419431Y-17092732D01*
X100419432Y-17092734D01*
X100549954Y-17279141D01*
X100710858Y-17440045D01*
X100710861Y-17440047D01*
X100897266Y-17570568D01*
X101103504Y-17666739D01*
X101323308Y-17725635D01*
X101485230Y-17739801D01*
X101549998Y-17745468D01*
X101550000Y-17745468D01*
X101550002Y-17745468D01*
X101606673Y-17740509D01*
X101776692Y-17725635D01*
X101996496Y-17666739D01*
X102202734Y-17570568D01*
X102389139Y-17440047D01*
X102550047Y-17279139D01*
X102680568Y-17092734D01*
X102707618Y-17034724D01*
X102753790Y-16982285D01*
X102820983Y-16963133D01*
X102887865Y-16983348D01*
X102932382Y-17034725D01*
X102959429Y-17092728D01*
X102959432Y-17092734D01*
X103089954Y-17279141D01*
X103250858Y-17440045D01*
X103250861Y-17440047D01*
X103437266Y-17570568D01*
X103643504Y-17666739D01*
X103863308Y-17725635D01*
X104025230Y-17739801D01*
X104089998Y-17745468D01*
X104090000Y-17745468D01*
X104090002Y-17745468D01*
X104146673Y-17740509D01*
X104316692Y-17725635D01*
X104536496Y-17666739D01*
X104742734Y-17570568D01*
X104929139Y-17440047D01*
X105090047Y-17279139D01*
X105220568Y-17092734D01*
X105316739Y-16886496D01*
X105375635Y-16666692D01*
X105395468Y-16440000D01*
X105375635Y-16213308D01*
X105316739Y-15993504D01*
X105220568Y-15787266D01*
X105090047Y-15600861D01*
X105090045Y-15600858D01*
X104995670Y-15506483D01*
X104962185Y-15445160D01*
X104967169Y-15375468D01*
X105009041Y-15319535D01*
X105074505Y-15295118D01*
X105083422Y-15294803D01*
X107903596Y-15297280D01*
X107970614Y-15317022D01*
X108016323Y-15369867D01*
X108027060Y-15431517D01*
X108024700Y-15460004D01*
X108024700Y-15460006D01*
X108043864Y-15691297D01*
X108043866Y-15691308D01*
X108100842Y-15916300D01*
X108194075Y-16128848D01*
X108321016Y-16323147D01*
X108321019Y-16323151D01*
X108321021Y-16323153D01*
X108415803Y-16426114D01*
X108446724Y-16488767D01*
X108438864Y-16558193D01*
X108394716Y-16612348D01*
X108367906Y-16626277D01*
X108287669Y-16656203D01*
X108287664Y-16656206D01*
X108172455Y-16742452D01*
X108172452Y-16742455D01*
X108086206Y-16857664D01*
X108086202Y-16857671D01*
X108035908Y-16992517D01*
X108029501Y-17052116D01*
X108029500Y-17052135D01*
X108029500Y-18947870D01*
X108029501Y-18947876D01*
X108035908Y-19007483D01*
X108086202Y-19142328D01*
X108086206Y-19142335D01*
X108172452Y-19257544D01*
X108172455Y-19257547D01*
X108287664Y-19343793D01*
X108287671Y-19343797D01*
X108422517Y-19394091D01*
X108422516Y-19394091D01*
X108429444Y-19394835D01*
X108482127Y-19400500D01*
X110377872Y-19400499D01*
X110437483Y-19394091D01*
X110572331Y-19343796D01*
X110687546Y-19257546D01*
X110773796Y-19142331D01*
X110773796Y-19142329D01*
X110776733Y-19138407D01*
X110832667Y-19096536D01*
X110902359Y-19091552D01*
X110963682Y-19125037D01*
X110997166Y-19186361D01*
X111000000Y-19212718D01*
X111000000Y-20255143D01*
X110980315Y-20322182D01*
X110927511Y-20367937D01*
X110876000Y-20379143D01*
X109002129Y-20379143D01*
X109002123Y-20379144D01*
X108942516Y-20385551D01*
X108807671Y-20435845D01*
X108807664Y-20435849D01*
X108692455Y-20522095D01*
X108692452Y-20522098D01*
X108606206Y-20637307D01*
X108606202Y-20637314D01*
X108555910Y-20772156D01*
X108555909Y-20772160D01*
X108549500Y-20831770D01*
X108549500Y-20831777D01*
X108549500Y-20831778D01*
X108549500Y-20831779D01*
X108549501Y-21407643D01*
X108529817Y-21474682D01*
X108477013Y-21520437D01*
X108425501Y-21531643D01*
X90224000Y-21531643D01*
X90156961Y-21511958D01*
X90111206Y-21459154D01*
X90100000Y-21407643D01*
X90100000Y-15405752D01*
X90119685Y-15338713D01*
X90172489Y-15292958D01*
X90224108Y-15281752D01*
X100560733Y-15290830D01*
G37*
%TD.AperFunction*%
%TD*%
%TA.AperFunction,Conductor*%
%TO.N,Net-(D6-K)*%
G36*
X108601806Y-22037985D02*
G01*
X108645567Y-22074556D01*
X108692454Y-22137189D01*
X108724893Y-22161473D01*
X108807664Y-22223436D01*
X108807671Y-22223440D01*
X108942517Y-22273734D01*
X108942516Y-22273734D01*
X108949444Y-22274478D01*
X109002127Y-22280143D01*
X110876000Y-22280142D01*
X110943039Y-22299827D01*
X110988794Y-22352630D01*
X111000000Y-22404142D01*
X111000000Y-28876000D01*
X110980315Y-28943039D01*
X110927511Y-28988794D01*
X110876000Y-29000000D01*
X96400000Y-29000000D01*
X95099999Y-32200001D01*
X95454285Y-34591427D01*
X95500000Y-34900000D01*
X99855554Y-40499999D01*
X100988428Y-41956551D01*
X101100000Y-42100000D01*
X110874748Y-42001265D01*
X110941982Y-42020272D01*
X110988268Y-42072611D01*
X111000000Y-42125259D01*
X111000000Y-46335007D01*
X110980315Y-46402046D01*
X110927511Y-46447801D01*
X110876513Y-46459006D01*
X99789348Y-46504866D01*
X99780386Y-46504984D01*
X99778854Y-46505018D01*
X99775917Y-46505083D01*
X99766838Y-46505366D01*
X99766837Y-46505366D01*
X99625356Y-46531529D01*
X99557955Y-46554289D01*
X99554335Y-46556324D01*
X99430778Y-46618847D01*
X99365480Y-46680176D01*
X99303137Y-46711723D01*
X99233636Y-46704557D01*
X99190203Y-46674681D01*
X99076749Y-46553883D01*
X97865899Y-45264649D01*
X97837554Y-45237994D01*
X97820230Y-45221703D01*
X97820214Y-45221689D01*
X97796596Y-45202092D01*
X97745969Y-45165133D01*
X97614941Y-45105715D01*
X97614922Y-45105708D01*
X97549041Y-45086554D01*
X97547913Y-45086214D01*
X97405371Y-45066108D01*
X97405369Y-45066108D01*
X94345241Y-45074263D01*
X94278153Y-45054758D01*
X94232257Y-45002076D01*
X94224710Y-44980709D01*
X94166063Y-44749119D01*
X94066173Y-44521393D01*
X94054446Y-44503444D01*
X93930166Y-44313217D01*
X93890511Y-44270140D01*
X93761744Y-44130262D01*
X93565509Y-43977526D01*
X93565507Y-43977525D01*
X93565506Y-43977524D01*
X93346811Y-43859172D01*
X93346802Y-43859169D01*
X93111616Y-43778429D01*
X92866335Y-43737500D01*
X92691726Y-43737500D01*
X92624687Y-43717815D01*
X92601505Y-43698566D01*
X91537158Y-42569713D01*
X91505490Y-42507432D01*
X91503381Y-42484114D01*
X91505429Y-42017193D01*
X91502047Y-41956555D01*
X91498610Y-41927015D01*
X91487982Y-41867231D01*
X89619432Y-34098000D01*
X89617195Y-34051800D01*
X90380438Y-28605962D01*
X91271443Y-22248514D01*
X91271211Y-22161472D01*
X91290718Y-22094381D01*
X91343400Y-22048486D01*
X91395211Y-22037143D01*
X108425492Y-22037143D01*
X108425501Y-22037143D01*
X108532955Y-22025590D01*
X108532956Y-22025589D01*
X108533046Y-22025580D01*
X108601806Y-22037985D01*
G37*
%TD.AperFunction*%
%TD*%
%TA.AperFunction,Conductor*%
%TO.N,GND1*%
G36*
X13952660Y-38160630D02*
G01*
X13999278Y-38212673D01*
X14011348Y-38266058D01*
X14008671Y-53092243D01*
X14006171Y-66941976D01*
X17055635Y-66945152D01*
X17122648Y-66964905D01*
X17168348Y-67017757D01*
X17179500Y-67069151D01*
X17179500Y-75785051D01*
X17159815Y-75852090D01*
X17113955Y-75894408D01*
X17093548Y-75905315D01*
X16933589Y-76036589D01*
X16802317Y-76196547D01*
X16728603Y-76334454D01*
X16679640Y-76384298D01*
X16619245Y-76400000D01*
X10349510Y-76400000D01*
X10282471Y-76380315D01*
X10264105Y-76365900D01*
X10261730Y-76363644D01*
X5991912Y-72307316D01*
X4338595Y-70736665D01*
X4303549Y-70676220D01*
X4300000Y-70646765D01*
X4300000Y-51913778D01*
X8251500Y-51913778D01*
X8251500Y-52134221D01*
X8285985Y-52351952D01*
X8354103Y-52561603D01*
X8354104Y-52561606D01*
X8454187Y-52758025D01*
X8583752Y-52936358D01*
X8583756Y-52936363D01*
X8739636Y-53092243D01*
X8739641Y-53092247D01*
X8895192Y-53205260D01*
X8917978Y-53221815D01*
X9046375Y-53287237D01*
X9114393Y-53321895D01*
X9114396Y-53321896D01*
X9219221Y-53355955D01*
X9324049Y-53390015D01*
X9541778Y-53424500D01*
X9541779Y-53424500D01*
X9762221Y-53424500D01*
X9762222Y-53424500D01*
X9979951Y-53390015D01*
X10189606Y-53321895D01*
X10386022Y-53221815D01*
X10564365Y-53092242D01*
X10720242Y-52936365D01*
X10849815Y-52758022D01*
X10949895Y-52561606D01*
X11018015Y-52351951D01*
X11052500Y-52134222D01*
X11052500Y-51913778D01*
X11018015Y-51696049D01*
X10959927Y-51517269D01*
X10949896Y-51486396D01*
X10949895Y-51486393D01*
X10915237Y-51418375D01*
X10849815Y-51289978D01*
X10833260Y-51267192D01*
X10720247Y-51111641D01*
X10720243Y-51111636D01*
X10564363Y-50955756D01*
X10564358Y-50955752D01*
X10386025Y-50826187D01*
X10386024Y-50826186D01*
X10386022Y-50826185D01*
X10323096Y-50794122D01*
X10189606Y-50726104D01*
X10189603Y-50726103D01*
X9979952Y-50657985D01*
X9871086Y-50640742D01*
X9762222Y-50623500D01*
X9541778Y-50623500D01*
X9469201Y-50634995D01*
X9324047Y-50657985D01*
X9114396Y-50726103D01*
X9114393Y-50726104D01*
X8917974Y-50826187D01*
X8739641Y-50955752D01*
X8739636Y-50955756D01*
X8583756Y-51111636D01*
X8583752Y-51111641D01*
X8454187Y-51289974D01*
X8354104Y-51486393D01*
X8354103Y-51486396D01*
X8285985Y-51696047D01*
X8251500Y-51913778D01*
X4300000Y-51913778D01*
X4300000Y-45679994D01*
X9517202Y-45679994D01*
X9517202Y-45680005D01*
X9536361Y-45911218D01*
X9593317Y-46136135D01*
X9686515Y-46348606D01*
X9770812Y-46477633D01*
X10439037Y-45809408D01*
X10456075Y-45872993D01*
X10521901Y-45987007D01*
X10614993Y-46080099D01*
X10729007Y-46145925D01*
X10792590Y-46162962D01*
X10123201Y-46832351D01*
X10153649Y-46856050D01*
X10357697Y-46966476D01*
X10357706Y-46966479D01*
X10577139Y-47041811D01*
X10805993Y-47080000D01*
X11038007Y-47080000D01*
X11266860Y-47041811D01*
X11486293Y-46966479D01*
X11486301Y-46966476D01*
X11690355Y-46856047D01*
X11720797Y-46832351D01*
X11720798Y-46832350D01*
X11051410Y-46162962D01*
X11114993Y-46145925D01*
X11229007Y-46080099D01*
X11322099Y-45987007D01*
X11387925Y-45872993D01*
X11404962Y-45809409D01*
X12073186Y-46477633D01*
X12157482Y-46348611D01*
X12250682Y-46136135D01*
X12307638Y-45911218D01*
X12326798Y-45680005D01*
X12326798Y-45679994D01*
X12307638Y-45448781D01*
X12250682Y-45223864D01*
X12157484Y-45011393D01*
X12073186Y-44882365D01*
X11404962Y-45550589D01*
X11387925Y-45487007D01*
X11322099Y-45372993D01*
X11229007Y-45279901D01*
X11114993Y-45214075D01*
X11051409Y-45197037D01*
X11720797Y-44527647D01*
X11720797Y-44527645D01*
X11690360Y-44503955D01*
X11690354Y-44503951D01*
X11493728Y-44397542D01*
X11444138Y-44348322D01*
X11429030Y-44280105D01*
X11453201Y-44214550D01*
X11487467Y-44183061D01*
X11618302Y-44102052D01*
X11775872Y-43958407D01*
X11904366Y-43788255D01*
X11904367Y-43788253D01*
X11999403Y-43597394D01*
X11999403Y-43597393D01*
X11999405Y-43597389D01*
X12057756Y-43392310D01*
X12077429Y-43180000D01*
X12057756Y-42967690D01*
X11999405Y-42762611D01*
X11999403Y-42762606D01*
X11999403Y-42762605D01*
X11904367Y-42571746D01*
X11775872Y-42401593D01*
X11726178Y-42356291D01*
X11618302Y-42257948D01*
X11437019Y-42145702D01*
X11437017Y-42145701D01*
X11337608Y-42107190D01*
X11238198Y-42068679D01*
X11148375Y-42051888D01*
X11086096Y-42020221D01*
X11050823Y-41959908D01*
X11053757Y-41890100D01*
X11093966Y-41832960D01*
X11148374Y-41808111D01*
X11238198Y-41791321D01*
X11437019Y-41714298D01*
X11618302Y-41602052D01*
X11775872Y-41458407D01*
X11904366Y-41288255D01*
X11999405Y-41097389D01*
X12057756Y-40892310D01*
X12077429Y-40680000D01*
X12057756Y-40467690D01*
X11999405Y-40262611D01*
X11999403Y-40262606D01*
X11999403Y-40262605D01*
X11904367Y-40071746D01*
X11775872Y-39901593D01*
X11618302Y-39757948D01*
X11437019Y-39645702D01*
X11437017Y-39645701D01*
X11337608Y-39607190D01*
X11238198Y-39568679D01*
X11028610Y-39529500D01*
X10815390Y-39529500D01*
X10605802Y-39568679D01*
X10605799Y-39568679D01*
X10605799Y-39568680D01*
X10406982Y-39645701D01*
X10406980Y-39645702D01*
X10225699Y-39757947D01*
X10068127Y-39901593D01*
X9939632Y-40071746D01*
X9844596Y-40262605D01*
X9844596Y-40262607D01*
X9786244Y-40467689D01*
X9766571Y-40679999D01*
X9766571Y-40680000D01*
X9786244Y-40892310D01*
X9844596Y-41097392D01*
X9844596Y-41097394D01*
X9939632Y-41288253D01*
X9939634Y-41288255D01*
X10068128Y-41458407D01*
X10225698Y-41602052D01*
X10406981Y-41714298D01*
X10605802Y-41791321D01*
X10695623Y-41808111D01*
X10757903Y-41839780D01*
X10793176Y-41900092D01*
X10790242Y-41969900D01*
X10750033Y-42027040D01*
X10695623Y-42051888D01*
X10605802Y-42068679D01*
X10605799Y-42068679D01*
X10605799Y-42068680D01*
X10406982Y-42145701D01*
X10406980Y-42145702D01*
X10225699Y-42257947D01*
X10068127Y-42401593D01*
X9939632Y-42571746D01*
X9844596Y-42762605D01*
X9844596Y-42762607D01*
X9786244Y-42967689D01*
X9766571Y-43179999D01*
X9766571Y-43180000D01*
X9786244Y-43392310D01*
X9844596Y-43597392D01*
X9844596Y-43597394D01*
X9939632Y-43788253D01*
X9939634Y-43788255D01*
X10068128Y-43958407D01*
X10225698Y-44102052D01*
X10225700Y-44102053D01*
X10225701Y-44102054D01*
X10356530Y-44183060D01*
X10403166Y-44235088D01*
X10414270Y-44304070D01*
X10386317Y-44368104D01*
X10350271Y-44397541D01*
X10153656Y-44503944D01*
X10153652Y-44503947D01*
X10123200Y-44527647D01*
X10792591Y-45197037D01*
X10729007Y-45214075D01*
X10614993Y-45279901D01*
X10521901Y-45372993D01*
X10456075Y-45487007D01*
X10439037Y-45550591D01*
X9770811Y-44882365D01*
X9686516Y-45011390D01*
X9593317Y-45223864D01*
X9536361Y-45448781D01*
X9517202Y-45679994D01*
X4300000Y-45679994D01*
X4300000Y-38421973D01*
X4319685Y-38354934D01*
X4372489Y-38309179D01*
X4421955Y-38297990D01*
X13885306Y-38142053D01*
X13952660Y-38160630D01*
G37*
%TD.AperFunction*%
%TA.AperFunction,Conductor*%
G36*
X38276481Y-66967260D02*
G01*
X38343498Y-66987014D01*
X38389198Y-67039866D01*
X38399069Y-67109035D01*
X38369978Y-67172560D01*
X38328755Y-67203642D01*
X38272516Y-67229866D01*
X38272512Y-67229868D01*
X38199526Y-67280973D01*
X38199526Y-67280974D01*
X38878553Y-67960000D01*
X38872339Y-67960000D01*
X38770606Y-67987259D01*
X38679394Y-68039920D01*
X38604920Y-68114394D01*
X38552259Y-68205606D01*
X38525000Y-68307339D01*
X38525000Y-68313552D01*
X37845974Y-67634526D01*
X37845973Y-67634526D01*
X37794868Y-67707512D01*
X37794866Y-67707516D01*
X37698734Y-67913673D01*
X37698730Y-67913682D01*
X37639860Y-68133389D01*
X37639858Y-68133400D01*
X37620034Y-68359997D01*
X37620034Y-68360002D01*
X37639858Y-68586599D01*
X37639860Y-68586610D01*
X37698730Y-68806317D01*
X37698735Y-68806331D01*
X37794863Y-69012478D01*
X37845974Y-69085472D01*
X38525000Y-68406446D01*
X38525000Y-68412661D01*
X38552259Y-68514394D01*
X38604920Y-68605606D01*
X38679394Y-68680080D01*
X38770606Y-68732741D01*
X38872339Y-68760000D01*
X38878553Y-68760000D01*
X38199526Y-69439025D01*
X38272513Y-69490132D01*
X38272521Y-69490136D01*
X38478668Y-69586264D01*
X38478682Y-69586269D01*
X38674256Y-69638673D01*
X38733917Y-69675038D01*
X38764446Y-69737885D01*
X38756151Y-69807261D01*
X38711666Y-69861138D01*
X38678158Y-69877109D01*
X38618121Y-69895321D01*
X38538746Y-69919399D01*
X38521043Y-69924769D01*
X38429709Y-69973589D01*
X38338550Y-70022315D01*
X38338548Y-70022316D01*
X38338547Y-70022317D01*
X38178589Y-70153589D01*
X38047317Y-70313547D01*
X38047315Y-70313550D01*
X38045981Y-70316046D01*
X37949769Y-70496043D01*
X37889699Y-70694067D01*
X37869417Y-70900000D01*
X37889699Y-71105932D01*
X37889700Y-71105934D01*
X37949768Y-71303954D01*
X38047315Y-71486450D01*
X38047317Y-71486452D01*
X38178589Y-71646410D01*
X38238080Y-71695232D01*
X38338550Y-71777685D01*
X38521046Y-71875232D01*
X38719066Y-71935300D01*
X38719065Y-71935300D01*
X38737529Y-71937118D01*
X38925000Y-71955583D01*
X39130934Y-71935300D01*
X39328954Y-71875232D01*
X39511450Y-71777685D01*
X39671410Y-71646410D01*
X39802685Y-71486450D01*
X39900232Y-71303954D01*
X39960300Y-71105934D01*
X39980583Y-70900000D01*
X39960300Y-70694066D01*
X39900232Y-70496046D01*
X39802685Y-70313550D01*
X39750702Y-70250209D01*
X39671410Y-70153589D01*
X39511452Y-70022317D01*
X39511453Y-70022317D01*
X39511450Y-70022315D01*
X39328954Y-69924768D01*
X39171840Y-69877108D01*
X39113402Y-69838811D01*
X39084946Y-69774999D01*
X39095506Y-69705932D01*
X39141730Y-69653538D01*
X39175743Y-69638673D01*
X39371317Y-69586269D01*
X39371331Y-69586264D01*
X39577478Y-69490136D01*
X39650471Y-69439024D01*
X38971447Y-68760000D01*
X38977661Y-68760000D01*
X39079394Y-68732741D01*
X39170606Y-68680080D01*
X39245080Y-68605606D01*
X39297741Y-68514394D01*
X39325000Y-68412661D01*
X39325000Y-68406447D01*
X40004024Y-69085471D01*
X40055136Y-69012478D01*
X40151264Y-68806331D01*
X40151269Y-68806317D01*
X40210139Y-68586610D01*
X40210141Y-68586599D01*
X40229966Y-68360002D01*
X40229966Y-68359997D01*
X40210141Y-68133400D01*
X40210139Y-68133389D01*
X40151269Y-67913682D01*
X40151264Y-67913668D01*
X40055136Y-67707521D01*
X40055132Y-67707513D01*
X40004025Y-67634526D01*
X39325000Y-68313551D01*
X39325000Y-68307339D01*
X39297741Y-68205606D01*
X39245080Y-68114394D01*
X39170606Y-68039920D01*
X39079394Y-67987259D01*
X38977661Y-67960000D01*
X38971448Y-67960000D01*
X39650472Y-67280974D01*
X39577480Y-67229864D01*
X39524150Y-67204996D01*
X39471711Y-67158823D01*
X39452559Y-67091630D01*
X39472775Y-67024749D01*
X39525940Y-66979414D01*
X39576677Y-66968615D01*
X40375634Y-66969447D01*
X40442648Y-66989200D01*
X40488348Y-67042052D01*
X40499500Y-67093446D01*
X40499500Y-71741324D01*
X40479815Y-71808363D01*
X40463181Y-71829005D01*
X35928505Y-76363681D01*
X35867182Y-76397166D01*
X35840824Y-76400000D01*
X18740755Y-76400000D01*
X18673716Y-76380315D01*
X18631397Y-76334454D01*
X18619392Y-76311995D01*
X18557685Y-76196550D01*
X18505702Y-76133209D01*
X18426410Y-76036589D01*
X18266451Y-75905315D01*
X18246045Y-75894408D01*
X18196202Y-75845445D01*
X18180500Y-75785051D01*
X18180500Y-70075321D01*
X32074500Y-70075321D01*
X32074500Y-71724678D01*
X32089032Y-71797735D01*
X32089033Y-71797739D01*
X32089034Y-71797740D01*
X32144399Y-71880601D01*
X32224479Y-71934108D01*
X32227260Y-71935966D01*
X32227264Y-71935967D01*
X32300321Y-71950499D01*
X32300324Y-71950500D01*
X32300326Y-71950500D01*
X33949676Y-71950500D01*
X33949677Y-71950499D01*
X34022740Y-71935966D01*
X34105601Y-71880601D01*
X34160966Y-71797740D01*
X34175500Y-71724674D01*
X34175500Y-70900000D01*
X34609417Y-70900000D01*
X34629699Y-71105932D01*
X34629700Y-71105934D01*
X34689768Y-71303954D01*
X34787315Y-71486450D01*
X34787317Y-71486452D01*
X34918589Y-71646410D01*
X34978080Y-71695232D01*
X35078550Y-71777685D01*
X35261046Y-71875232D01*
X35459066Y-71935300D01*
X35459065Y-71935300D01*
X35477529Y-71937118D01*
X35665000Y-71955583D01*
X35870934Y-71935300D01*
X36068954Y-71875232D01*
X36251450Y-71777685D01*
X36411410Y-71646410D01*
X36542685Y-71486450D01*
X36640232Y-71303954D01*
X36700300Y-71105934D01*
X36720583Y-70900000D01*
X36700300Y-70694066D01*
X36640232Y-70496046D01*
X36542685Y-70313550D01*
X36490702Y-70250209D01*
X36411410Y-70153589D01*
X36251452Y-70022317D01*
X36251453Y-70022317D01*
X36251450Y-70022315D01*
X36068954Y-69924768D01*
X35870934Y-69864700D01*
X35870932Y-69864699D01*
X35870934Y-69864699D01*
X35665000Y-69844417D01*
X35459067Y-69864699D01*
X35261043Y-69924769D01*
X35169709Y-69973589D01*
X35078550Y-70022315D01*
X35078548Y-70022316D01*
X35078547Y-70022317D01*
X34918589Y-70153589D01*
X34787317Y-70313547D01*
X34787315Y-70313550D01*
X34785981Y-70316046D01*
X34689769Y-70496043D01*
X34629699Y-70694067D01*
X34609417Y-70900000D01*
X34175500Y-70900000D01*
X34175500Y-70075326D01*
X34175500Y-70075323D01*
X34175499Y-70075321D01*
X34160967Y-70002264D01*
X34160966Y-70002260D01*
X34105601Y-69919399D01*
X34050235Y-69882405D01*
X34022739Y-69864033D01*
X34022735Y-69864032D01*
X33949677Y-69849500D01*
X33949674Y-69849500D01*
X32300326Y-69849500D01*
X32300323Y-69849500D01*
X32227264Y-69864032D01*
X32227260Y-69864033D01*
X32144399Y-69919399D01*
X32089033Y-70002260D01*
X32089032Y-70002264D01*
X32074500Y-70075321D01*
X18180500Y-70075321D01*
X18180500Y-67070453D01*
X18200185Y-67003414D01*
X18252989Y-66957659D01*
X18304623Y-66946454D01*
X38276481Y-66967260D01*
G37*
%TD.AperFunction*%
%TA.AperFunction,Conductor*%
G36*
X54656103Y-66984325D02*
G01*
X54723119Y-67004078D01*
X54768819Y-67056930D01*
X54779499Y-67119131D01*
X54774526Y-67175974D01*
X55453553Y-67855000D01*
X55447339Y-67855000D01*
X55345606Y-67882259D01*
X55254394Y-67934920D01*
X55179920Y-68009394D01*
X55127259Y-68100606D01*
X55100000Y-68202339D01*
X55100000Y-68208552D01*
X54420974Y-67529526D01*
X54420973Y-67529526D01*
X54369868Y-67602512D01*
X54369866Y-67602516D01*
X54273734Y-67808673D01*
X54273730Y-67808682D01*
X54214860Y-68028389D01*
X54214858Y-68028400D01*
X54195034Y-68254997D01*
X54195034Y-68255002D01*
X54214858Y-68481599D01*
X54214860Y-68481610D01*
X54273730Y-68701317D01*
X54273735Y-68701331D01*
X54369863Y-68907478D01*
X54420974Y-68980472D01*
X55100000Y-68301446D01*
X55100000Y-68307661D01*
X55127259Y-68409394D01*
X55179920Y-68500606D01*
X55254394Y-68575080D01*
X55345606Y-68627741D01*
X55447339Y-68655000D01*
X55453553Y-68655000D01*
X54774526Y-69334025D01*
X54847513Y-69385132D01*
X54847521Y-69385136D01*
X55053668Y-69481264D01*
X55053682Y-69481269D01*
X55249256Y-69533673D01*
X55308917Y-69570038D01*
X55339446Y-69632885D01*
X55331151Y-69702261D01*
X55286666Y-69756138D01*
X55253158Y-69772109D01*
X55096043Y-69819769D01*
X55011985Y-69864700D01*
X54913550Y-69917315D01*
X54913548Y-69917316D01*
X54913547Y-69917317D01*
X54753589Y-70048589D01*
X54622317Y-70208547D01*
X54524769Y-70391043D01*
X54464699Y-70589067D01*
X54444417Y-70795000D01*
X54464699Y-71000932D01*
X54464700Y-71000934D01*
X54524768Y-71198954D01*
X54622315Y-71381450D01*
X54622317Y-71381452D01*
X54753589Y-71541410D01*
X54846593Y-71617735D01*
X54913550Y-71672685D01*
X55096046Y-71770232D01*
X55294066Y-71830300D01*
X55294065Y-71830300D01*
X55312529Y-71832118D01*
X55500000Y-71850583D01*
X55705934Y-71830300D01*
X55903954Y-71770232D01*
X56086450Y-71672685D01*
X56246410Y-71541410D01*
X56377685Y-71381450D01*
X56475232Y-71198954D01*
X56535300Y-71000934D01*
X56555583Y-70795000D01*
X56535300Y-70589066D01*
X56475232Y-70391046D01*
X56377685Y-70208550D01*
X56325702Y-70145209D01*
X56246410Y-70048589D01*
X56128677Y-69951969D01*
X56086450Y-69917315D01*
X55903954Y-69819768D01*
X55746840Y-69772108D01*
X55688402Y-69733811D01*
X55659946Y-69669999D01*
X55670506Y-69600932D01*
X55716730Y-69548538D01*
X55750743Y-69533673D01*
X55946317Y-69481269D01*
X55946331Y-69481264D01*
X56152478Y-69385136D01*
X56225471Y-69334024D01*
X55546447Y-68655000D01*
X55552661Y-68655000D01*
X55654394Y-68627741D01*
X55745606Y-68575080D01*
X55820080Y-68500606D01*
X55872741Y-68409394D01*
X55900000Y-68307661D01*
X55900000Y-68301447D01*
X56579024Y-68980471D01*
X56630136Y-68907478D01*
X56726264Y-68701331D01*
X56726269Y-68701317D01*
X56785139Y-68481610D01*
X56785141Y-68481599D01*
X56804966Y-68255002D01*
X56804966Y-68254997D01*
X56785141Y-68028400D01*
X56785139Y-68028389D01*
X56726269Y-67808682D01*
X56726264Y-67808668D01*
X56630136Y-67602521D01*
X56630132Y-67602513D01*
X56579025Y-67529526D01*
X55900000Y-68208551D01*
X55900000Y-68202339D01*
X55872741Y-68100606D01*
X55820080Y-68009394D01*
X55745606Y-67934920D01*
X55654394Y-67882259D01*
X55552661Y-67855000D01*
X55546448Y-67855000D01*
X56225472Y-67175974D01*
X56220653Y-67120891D01*
X56234420Y-67052391D01*
X56283035Y-67002208D01*
X56344306Y-66986083D01*
X58775635Y-66988616D01*
X58842648Y-67008369D01*
X58888348Y-67061221D01*
X58899500Y-67112615D01*
X58899500Y-67167891D01*
X58933608Y-67295187D01*
X58966554Y-67352250D01*
X58999500Y-67409314D01*
X58999502Y-67409316D01*
X60204165Y-68613979D01*
X60237650Y-68675302D01*
X60232666Y-68744994D01*
X60204203Y-68789304D01*
X52636325Y-76363644D01*
X52575016Y-76397155D01*
X52548606Y-76400000D01*
X43019954Y-76400000D01*
X42952915Y-76380315D01*
X42907160Y-76327511D01*
X42901296Y-76312004D01*
X42885232Y-76259046D01*
X42787685Y-76076550D01*
X42735702Y-76013209D01*
X42656410Y-75916589D01*
X42496452Y-75785317D01*
X42496453Y-75785317D01*
X42496450Y-75785315D01*
X42313954Y-75687768D01*
X42115934Y-75627700D01*
X42115932Y-75627699D01*
X42115934Y-75627699D01*
X41910000Y-75607417D01*
X41704067Y-75627699D01*
X41506043Y-75687769D01*
X41395898Y-75746643D01*
X41323550Y-75785315D01*
X41323548Y-75785316D01*
X41323547Y-75785317D01*
X41163589Y-75916589D01*
X41032317Y-76076547D01*
X40934769Y-76259042D01*
X40934768Y-76259046D01*
X40918705Y-76311997D01*
X40880409Y-76370434D01*
X40816597Y-76398890D01*
X40800046Y-76400000D01*
X37607176Y-76400000D01*
X37540137Y-76380315D01*
X37494382Y-76327511D01*
X37484438Y-76258353D01*
X37513463Y-76194797D01*
X37519495Y-76188319D01*
X38100397Y-75607417D01*
X41400500Y-72307314D01*
X41466392Y-72193186D01*
X41500500Y-72065893D01*
X41500500Y-71934108D01*
X41500500Y-69895321D01*
X48654500Y-69895321D01*
X48654500Y-71544678D01*
X48669032Y-71617735D01*
X48669033Y-71617739D01*
X48669034Y-71617740D01*
X48724399Y-71700601D01*
X48806263Y-71755300D01*
X48807260Y-71755966D01*
X48807264Y-71755967D01*
X48880321Y-71770499D01*
X48880324Y-71770500D01*
X48880326Y-71770500D01*
X50529676Y-71770500D01*
X50529677Y-71770499D01*
X50602740Y-71755966D01*
X50685601Y-71700601D01*
X50740966Y-71617740D01*
X50755500Y-71544674D01*
X50755500Y-70720000D01*
X51189417Y-70720000D01*
X51209699Y-70925932D01*
X51209700Y-70925934D01*
X51269768Y-71123954D01*
X51367315Y-71306450D01*
X51367317Y-71306452D01*
X51498589Y-71466410D01*
X51523011Y-71486452D01*
X51658550Y-71597685D01*
X51841046Y-71695232D01*
X52039066Y-71755300D01*
X52039065Y-71755300D01*
X52057529Y-71757118D01*
X52245000Y-71775583D01*
X52450934Y-71755300D01*
X52648954Y-71695232D01*
X52831450Y-71597685D01*
X52991410Y-71466410D01*
X53122685Y-71306450D01*
X53220232Y-71123954D01*
X53280300Y-70925934D01*
X53300583Y-70720000D01*
X53280300Y-70514066D01*
X53220232Y-70316046D01*
X53122685Y-70133550D01*
X53031399Y-70022317D01*
X52991410Y-69973589D01*
X52857915Y-69864034D01*
X52831450Y-69842315D01*
X52648954Y-69744768D01*
X52450934Y-69684700D01*
X52450932Y-69684699D01*
X52450934Y-69684699D01*
X52245000Y-69664417D01*
X52039067Y-69684699D01*
X51841043Y-69744769D01*
X51784488Y-69774999D01*
X51658550Y-69842315D01*
X51658548Y-69842316D01*
X51658547Y-69842317D01*
X51498589Y-69973589D01*
X51367317Y-70133547D01*
X51367315Y-70133550D01*
X51328643Y-70205898D01*
X51269769Y-70316043D01*
X51209699Y-70514067D01*
X51189417Y-70720000D01*
X50755500Y-70720000D01*
X50755500Y-69895326D01*
X50755500Y-69895323D01*
X50755499Y-69895321D01*
X50740967Y-69822264D01*
X50740966Y-69822260D01*
X50730944Y-69807261D01*
X50685601Y-69739399D01*
X50603737Y-69684700D01*
X50602739Y-69684033D01*
X50602735Y-69684032D01*
X50529677Y-69669500D01*
X50529674Y-69669500D01*
X48880326Y-69669500D01*
X48880323Y-69669500D01*
X48807264Y-69684032D01*
X48807260Y-69684033D01*
X48724399Y-69739399D01*
X48669033Y-69822260D01*
X48669032Y-69822264D01*
X48654500Y-69895321D01*
X41500500Y-69895321D01*
X41500500Y-67094748D01*
X41520185Y-67027709D01*
X41572989Y-66981954D01*
X41624624Y-66970748D01*
X54656103Y-66984325D01*
G37*
%TD.AperFunction*%
%TD*%
%TA.AperFunction,Conductor*%
%TO.N,VCC*%
G36*
X43943039Y-5919685D02*
G01*
X43988794Y-5972489D01*
X44000000Y-6024000D01*
X44000000Y-20292039D01*
X43980315Y-20359078D01*
X43927511Y-20404833D01*
X43919335Y-20408220D01*
X43782751Y-20459164D01*
X43782745Y-20459167D01*
X43782743Y-20459168D01*
X43765050Y-20468828D01*
X43721422Y-20492651D01*
X43606240Y-20578876D01*
X43606228Y-20578886D01*
X38324670Y-25860444D01*
X38263347Y-25893929D01*
X38238067Y-25896758D01*
X27125078Y-25993392D01*
X27057870Y-25974291D01*
X27011658Y-25921887D01*
X27000000Y-25869397D01*
X27000000Y-19399993D01*
X28992994Y-19399993D01*
X28992994Y-19400004D01*
X29012183Y-19631581D01*
X29069229Y-19856853D01*
X29162575Y-20069661D01*
X29289673Y-20264197D01*
X29289675Y-20264200D01*
X29447061Y-20435167D01*
X29447064Y-20435169D01*
X29447067Y-20435172D01*
X29630432Y-20577891D01*
X29630438Y-20577895D01*
X29630441Y-20577897D01*
X29834812Y-20688498D01*
X30054600Y-20763951D01*
X30283810Y-20802199D01*
X30516190Y-20802199D01*
X30745400Y-20763951D01*
X30965188Y-20688498D01*
X31169559Y-20577897D01*
X31352939Y-20435167D01*
X31510325Y-20264200D01*
X31637425Y-20069660D01*
X31730771Y-19856853D01*
X31787816Y-19631585D01*
X31807006Y-19399999D01*
X31807006Y-19399993D01*
X36492994Y-19399993D01*
X36492994Y-19400004D01*
X36512183Y-19631581D01*
X36569229Y-19856853D01*
X36662575Y-20069661D01*
X36789673Y-20264197D01*
X36789675Y-20264200D01*
X36947061Y-20435167D01*
X36947064Y-20435169D01*
X36947067Y-20435172D01*
X37130432Y-20577891D01*
X37130438Y-20577895D01*
X37130441Y-20577897D01*
X37334812Y-20688498D01*
X37554600Y-20763951D01*
X37783810Y-20802199D01*
X38016190Y-20802199D01*
X38245400Y-20763951D01*
X38465188Y-20688498D01*
X38669559Y-20577897D01*
X38852939Y-20435167D01*
X39010325Y-20264200D01*
X39137425Y-20069660D01*
X39230771Y-19856853D01*
X39287816Y-19631585D01*
X39307006Y-19399999D01*
X39287816Y-19168413D01*
X39230771Y-18943145D01*
X39137425Y-18730338D01*
X39010325Y-18535798D01*
X38852939Y-18364831D01*
X38852934Y-18364827D01*
X38852932Y-18364825D01*
X38669567Y-18222106D01*
X38669561Y-18222102D01*
X38465188Y-18111500D01*
X38465180Y-18111497D01*
X38245402Y-18036047D01*
X38016190Y-17997799D01*
X37783810Y-17997799D01*
X37554597Y-18036047D01*
X37334819Y-18111497D01*
X37334811Y-18111500D01*
X37130438Y-18222102D01*
X37130432Y-18222106D01*
X36947067Y-18364825D01*
X36947064Y-18364828D01*
X36789676Y-18535796D01*
X36789673Y-18535800D01*
X36662575Y-18730336D01*
X36569229Y-18943144D01*
X36512183Y-19168416D01*
X36492994Y-19399993D01*
X31807006Y-19399993D01*
X31787816Y-19168413D01*
X31730771Y-18943145D01*
X31637425Y-18730338D01*
X31510325Y-18535798D01*
X31352939Y-18364831D01*
X31352934Y-18364827D01*
X31352932Y-18364825D01*
X31169567Y-18222106D01*
X31169561Y-18222102D01*
X30965188Y-18111500D01*
X30965180Y-18111497D01*
X30745402Y-18036047D01*
X30516190Y-17997799D01*
X30283810Y-17997799D01*
X30054597Y-18036047D01*
X29834819Y-18111497D01*
X29834811Y-18111500D01*
X29630438Y-18222102D01*
X29630432Y-18222106D01*
X29447067Y-18364825D01*
X29447064Y-18364828D01*
X29289676Y-18535796D01*
X29289673Y-18535800D01*
X29162575Y-18730336D01*
X29069229Y-18943144D01*
X29012183Y-19168416D01*
X28992994Y-19399993D01*
X27000000Y-19399993D01*
X27000000Y-6024000D01*
X27019685Y-5956961D01*
X27072489Y-5911206D01*
X27124000Y-5900000D01*
X43876000Y-5900000D01*
X43943039Y-5919685D01*
G37*
%TD.AperFunction*%
%TD*%
%TA.AperFunction,Conductor*%
%TO.N,Relay_NomallyClosed*%
G36*
X89965677Y-7919685D02*
G01*
X89986319Y-7936319D01*
X90913681Y-8863681D01*
X90947166Y-8925004D01*
X90950000Y-8951362D01*
X90950000Y-14652780D01*
X90930315Y-14719819D01*
X90877511Y-14765574D01*
X90825891Y-14776780D01*
X90224550Y-14776251D01*
X90116867Y-14787759D01*
X90065250Y-14798964D01*
X90065248Y-14798964D01*
X89962499Y-14833137D01*
X89962489Y-14833142D01*
X89841462Y-14910922D01*
X89841451Y-14910931D01*
X89788659Y-14956675D01*
X89694433Y-15065416D01*
X89694430Y-15065420D01*
X89634664Y-15196286D01*
X89614976Y-15263334D01*
X89603266Y-15344784D01*
X89594500Y-15405752D01*
X89594500Y-21407643D01*
X89594501Y-21407652D01*
X89606052Y-21515093D01*
X89606054Y-21515105D01*
X89617260Y-21566615D01*
X89651383Y-21669140D01*
X89651386Y-21669146D01*
X89729171Y-21790180D01*
X89729179Y-21790191D01*
X89774923Y-21842983D01*
X89774926Y-21842986D01*
X89774930Y-21842990D01*
X89883664Y-21937210D01*
X90014541Y-21996981D01*
X90081580Y-22016666D01*
X90081584Y-22016667D01*
X90224000Y-22037143D01*
X90224003Y-22037143D01*
X90648037Y-22037143D01*
X90715076Y-22056828D01*
X90760831Y-22109632D01*
X90770836Y-22178353D01*
X89879831Y-28535801D01*
X89100000Y-34099999D01*
X89100000Y-34100001D01*
X90996497Y-41985436D01*
X90999934Y-42014976D01*
X90950189Y-53356808D01*
X90930210Y-53423760D01*
X90923018Y-53433726D01*
X89987230Y-54603462D01*
X89929980Y-54643514D01*
X89890402Y-54650000D01*
X85223231Y-54650000D01*
X85178345Y-54641591D01*
X83754907Y-54088846D01*
X83699539Y-54046229D01*
X83676002Y-53980444D01*
X83691767Y-53912376D01*
X83723627Y-53875405D01*
X83761744Y-53845738D01*
X83930164Y-53662785D01*
X84066173Y-53454607D01*
X84166063Y-53226881D01*
X84227108Y-52985821D01*
X84227109Y-52985812D01*
X84247643Y-52738005D01*
X84247643Y-52737994D01*
X84227109Y-52490187D01*
X84227107Y-52490175D01*
X84166063Y-52249118D01*
X84066173Y-52021393D01*
X83930166Y-51813217D01*
X83839412Y-51714632D01*
X83761744Y-51630262D01*
X83565509Y-51477526D01*
X83565507Y-51477525D01*
X83565506Y-51477524D01*
X83346811Y-51359172D01*
X83346802Y-51359169D01*
X83111616Y-51278429D01*
X82866335Y-51237500D01*
X82617665Y-51237500D01*
X82372383Y-51278429D01*
X82137197Y-51359169D01*
X82137188Y-51359172D01*
X81918493Y-51477524D01*
X81722257Y-51630261D01*
X81553833Y-51813217D01*
X81417826Y-52021393D01*
X81317936Y-52249118D01*
X81256892Y-52490175D01*
X81256890Y-52490187D01*
X81236357Y-52737994D01*
X81236357Y-52738005D01*
X81251905Y-52925643D01*
X81237824Y-52994079D01*
X81188979Y-53044038D01*
X81120878Y-53059659D01*
X81083443Y-53051474D01*
X60962004Y-45237994D01*
X66236357Y-45237994D01*
X66236357Y-45238005D01*
X66256890Y-45485812D01*
X66256892Y-45485824D01*
X66317936Y-45726881D01*
X66417826Y-45954606D01*
X66553833Y-46162782D01*
X66553836Y-46162785D01*
X66722256Y-46345738D01*
X66918491Y-46498474D01*
X66918493Y-46498475D01*
X67106094Y-46600000D01*
X67137190Y-46616828D01*
X67372386Y-46697571D01*
X67617665Y-46738500D01*
X67866335Y-46738500D01*
X68111614Y-46697571D01*
X68346810Y-46616828D01*
X68565509Y-46498474D01*
X68761744Y-46345738D01*
X68930164Y-46162785D01*
X69066173Y-45954607D01*
X69166063Y-45726881D01*
X69227108Y-45485821D01*
X69247643Y-45238000D01*
X69247643Y-45237994D01*
X81236357Y-45237994D01*
X81236357Y-45238005D01*
X81256890Y-45485812D01*
X81256892Y-45485824D01*
X81317936Y-45726881D01*
X81417826Y-45954606D01*
X81553833Y-46162782D01*
X81553836Y-46162785D01*
X81722256Y-46345738D01*
X81918491Y-46498474D01*
X81918493Y-46498475D01*
X82106094Y-46600000D01*
X82137190Y-46616828D01*
X82372386Y-46697571D01*
X82617665Y-46738500D01*
X82866335Y-46738500D01*
X83111614Y-46697571D01*
X83346810Y-46616828D01*
X83565509Y-46498474D01*
X83761744Y-46345738D01*
X83930164Y-46162785D01*
X84066173Y-45954607D01*
X84166063Y-45726881D01*
X84227108Y-45485821D01*
X84247643Y-45238000D01*
X84227108Y-44990179D01*
X84166063Y-44749119D01*
X84066173Y-44521393D01*
X83930166Y-44313217D01*
X83908557Y-44289744D01*
X83761744Y-44130262D01*
X83565509Y-43977526D01*
X83565507Y-43977525D01*
X83565506Y-43977524D01*
X83346811Y-43859172D01*
X83346802Y-43859169D01*
X83111616Y-43778429D01*
X82866335Y-43737500D01*
X82617665Y-43737500D01*
X82372383Y-43778429D01*
X82137197Y-43859169D01*
X82137188Y-43859172D01*
X81918493Y-43977524D01*
X81722257Y-44130261D01*
X81553833Y-44313217D01*
X81417826Y-44521393D01*
X81317936Y-44749118D01*
X81256892Y-44990175D01*
X81256890Y-44990187D01*
X81236357Y-45237994D01*
X69247643Y-45237994D01*
X69227108Y-44990179D01*
X69166063Y-44749119D01*
X69066173Y-44521393D01*
X68930166Y-44313217D01*
X68908557Y-44289744D01*
X68761744Y-44130262D01*
X68565509Y-43977526D01*
X68565507Y-43977525D01*
X68565506Y-43977524D01*
X68346811Y-43859172D01*
X68346802Y-43859169D01*
X68111616Y-43778429D01*
X67866335Y-43737500D01*
X67617665Y-43737500D01*
X67372383Y-43778429D01*
X67137197Y-43859169D01*
X67137188Y-43859172D01*
X66918493Y-43977524D01*
X66722257Y-44130261D01*
X66553833Y-44313217D01*
X66417826Y-44521393D01*
X66317936Y-44749118D01*
X66256892Y-44990175D01*
X66256890Y-44990187D01*
X66236357Y-45237994D01*
X60962004Y-45237994D01*
X56855265Y-43643281D01*
X56800659Y-43601250D01*
X50700002Y-41100000D01*
X50700000Y-41100000D01*
X50328983Y-41100000D01*
X50284097Y-41091591D01*
X27079114Y-32080721D01*
X27023746Y-32038104D01*
X27000209Y-31972319D01*
X27000000Y-31965130D01*
X27000000Y-29399994D01*
X45292994Y-29399994D01*
X45292994Y-29400005D01*
X45312183Y-29631582D01*
X45369229Y-29856854D01*
X45462575Y-30069662D01*
X45589673Y-30264198D01*
X45589675Y-30264201D01*
X45747061Y-30435168D01*
X45747064Y-30435170D01*
X45747067Y-30435173D01*
X45930432Y-30577892D01*
X45930438Y-30577896D01*
X45930441Y-30577898D01*
X46134812Y-30688499D01*
X46354600Y-30763952D01*
X46583810Y-30802200D01*
X46816190Y-30802200D01*
X47045400Y-30763952D01*
X47265188Y-30688499D01*
X47469559Y-30577898D01*
X47652939Y-30435168D01*
X47810325Y-30264201D01*
X47937425Y-30069661D01*
X48030771Y-29856854D01*
X48087816Y-29631586D01*
X48107006Y-29400000D01*
X48107006Y-29399994D01*
X52792994Y-29399994D01*
X52792994Y-29400005D01*
X52812183Y-29631582D01*
X52869229Y-29856854D01*
X52962575Y-30069662D01*
X53089673Y-30264198D01*
X53089675Y-30264201D01*
X53247061Y-30435168D01*
X53247064Y-30435170D01*
X53247067Y-30435173D01*
X53430432Y-30577892D01*
X53430438Y-30577896D01*
X53430441Y-30577898D01*
X53634812Y-30688499D01*
X53854600Y-30763952D01*
X54083810Y-30802200D01*
X54316190Y-30802200D01*
X54545400Y-30763952D01*
X54765188Y-30688499D01*
X54969559Y-30577898D01*
X55152939Y-30435168D01*
X55310325Y-30264201D01*
X55437425Y-30069661D01*
X55530771Y-29856854D01*
X55587816Y-29631586D01*
X55607006Y-29400000D01*
X55587816Y-29168414D01*
X55530771Y-28943146D01*
X55437425Y-28730339D01*
X55310325Y-28535799D01*
X55152939Y-28364832D01*
X55152934Y-28364828D01*
X55152932Y-28364826D01*
X54969567Y-28222107D01*
X54969561Y-28222103D01*
X54765188Y-28111501D01*
X54765180Y-28111498D01*
X54545402Y-28036048D01*
X54316190Y-27997800D01*
X54083810Y-27997800D01*
X53854597Y-28036048D01*
X53634819Y-28111498D01*
X53634811Y-28111501D01*
X53430438Y-28222103D01*
X53430432Y-28222107D01*
X53247067Y-28364826D01*
X53247064Y-28364829D01*
X53089676Y-28535797D01*
X53089673Y-28535801D01*
X52962575Y-28730337D01*
X52869229Y-28943145D01*
X52812183Y-29168417D01*
X52792994Y-29399994D01*
X48107006Y-29399994D01*
X48087816Y-29168414D01*
X48030771Y-28943146D01*
X47937425Y-28730339D01*
X47810325Y-28535799D01*
X47652939Y-28364832D01*
X47652934Y-28364828D01*
X47652932Y-28364826D01*
X47469567Y-28222107D01*
X47469561Y-28222103D01*
X47265188Y-28111501D01*
X47265180Y-28111498D01*
X47045402Y-28036048D01*
X46816190Y-27997800D01*
X46583810Y-27997800D01*
X46354597Y-28036048D01*
X46134819Y-28111498D01*
X46134811Y-28111501D01*
X45930438Y-28222103D01*
X45930432Y-28222107D01*
X45747067Y-28364826D01*
X45747064Y-28364829D01*
X45589676Y-28535797D01*
X45589673Y-28535801D01*
X45462575Y-28730337D01*
X45369229Y-28943145D01*
X45312183Y-29168417D01*
X45292994Y-29399994D01*
X27000000Y-29399994D01*
X27000000Y-26622926D01*
X27019685Y-26555887D01*
X27072489Y-26510132D01*
X27122921Y-26498931D01*
X38500000Y-26400000D01*
X43963681Y-20936319D01*
X44025004Y-20902834D01*
X44051362Y-20900000D01*
X83950000Y-20900000D01*
X84950000Y-19900000D01*
X84950000Y-8951362D01*
X84969685Y-8884323D01*
X84986319Y-8863681D01*
X85913681Y-7936319D01*
X85975004Y-7902834D01*
X86001362Y-7900000D01*
X89898638Y-7900000D01*
X89965677Y-7919685D01*
G37*
%TD.AperFunction*%
%TD*%
%TA.AperFunction,Conductor*%
%TO.N,Net-(J4-Pin_2)*%
G36*
X26437539Y-5919685D02*
G01*
X26483294Y-5972489D01*
X26494500Y-6024000D01*
X26494500Y-25869404D01*
X26506524Y-25978997D01*
X26518179Y-26031476D01*
X26518179Y-26031477D01*
X26553683Y-26135872D01*
X26553683Y-26135873D01*
X26579686Y-26175570D01*
X26599953Y-26242436D01*
X26588752Y-26295026D01*
X26534664Y-26413460D01*
X26514976Y-26480508D01*
X26494500Y-26622927D01*
X26494500Y-27276000D01*
X26474815Y-27343039D01*
X26422011Y-27388794D01*
X26370500Y-27400000D01*
X23401083Y-27400000D01*
X23334044Y-27380315D01*
X23288289Y-27327511D01*
X23284041Y-27316954D01*
X23225789Y-27150478D01*
X23129815Y-26997737D01*
X23002262Y-26870184D01*
X22849523Y-26774211D01*
X22679254Y-26714631D01*
X22679249Y-26714630D01*
X22500004Y-26694435D01*
X22499996Y-26694435D01*
X22320750Y-26714630D01*
X22320745Y-26714631D01*
X22150476Y-26774211D01*
X21997737Y-26870184D01*
X21870184Y-26997737D01*
X21774210Y-27150478D01*
X21715959Y-27316954D01*
X21675237Y-27373730D01*
X21610285Y-27399478D01*
X21598917Y-27400000D01*
X14324000Y-27400000D01*
X14256961Y-27380315D01*
X14211206Y-27327511D01*
X14200000Y-27276000D01*
X14200000Y-14400000D01*
X5624000Y-14400000D01*
X5556961Y-14380315D01*
X5511206Y-14327511D01*
X5500000Y-14276000D01*
X5500000Y-10851362D01*
X5519685Y-10784323D01*
X5536319Y-10763681D01*
X10363681Y-5936319D01*
X10425004Y-5902834D01*
X10451362Y-5900000D01*
X26370500Y-5900000D01*
X26437539Y-5919685D01*
G37*
%TD.AperFunction*%
%TD*%
M02*
