%TF.GenerationSoftware,KiCad,Pcbnew,8.0.3*%
%TF.CreationDate,2024-07-10T23:14:43+09:00*%
%TF.ProjectId,power_24V,706f7765-725f-4323-9456-2e6b69636164,rev?*%
%TF.SameCoordinates,PX5d967f0PY416e000*%
%TF.FileFunction,Soldermask,Bot*%
%TF.FilePolarity,Negative*%
%FSLAX46Y46*%
G04 Gerber Fmt 4.6, Leading zero omitted, Abs format (unit mm)*
G04 Created by KiCad (PCBNEW 8.0.3) date 2024-07-10 23:14:43*
%MOMM*%
%LPD*%
G01*
G04 APERTURE LIST*
G04 Aperture macros list*
%AMRoundRect*
0 Rectangle with rounded corners*
0 $1 Rounding radius*
0 $2 $3 $4 $5 $6 $7 $8 $9 X,Y pos of 4 corners*
0 Add a 4 corners polygon primitive as box body*
4,1,4,$2,$3,$4,$5,$6,$7,$8,$9,$2,$3,0*
0 Add four circle primitives for the rounded corners*
1,1,$1+$1,$2,$3*
1,1,$1+$1,$4,$5*
1,1,$1+$1,$6,$7*
1,1,$1+$1,$8,$9*
0 Add four rect primitives between the rounded corners*
20,1,$1+$1,$2,$3,$4,$5,0*
20,1,$1+$1,$4,$5,$6,$7,0*
20,1,$1+$1,$6,$7,$8,$9,0*
20,1,$1+$1,$8,$9,$2,$3,0*%
G04 Aperture macros list end*
%ADD10C,1.600000*%
%ADD11O,1.600000X1.600000*%
%ADD12R,2.000000X0.900000*%
%ADD13RoundRect,1.025000X-1.025000X1.025000X-1.025000X-1.025000X1.025000X-1.025000X1.025000X1.025000X0*%
%ADD14C,4.100000*%
%ADD15C,3.200000*%
%ADD16C,2.000000*%
%ADD17R,2.000000X2.000000*%
%ADD18R,2.240000X2.240000*%
%ADD19O,2.240000X2.240000*%
%ADD20O,3.200000X1.900000*%
%ADD21R,1.800000X1.800000*%
%ADD22C,1.800000*%
%ADD23C,2.300000*%
%ADD24R,1.050000X1.500000*%
%ADD25O,1.050000X1.500000*%
%ADD26C,1.803400*%
%ADD27R,1.600000X1.600000*%
%ADD28RoundRect,1.025000X1.025000X-1.025000X1.025000X1.025000X-1.025000X1.025000X-1.025000X-1.025000X0*%
G04 APERTURE END LIST*
D10*
%TO.C,R7*%
X17680000Y-79323000D03*
D11*
X17680000Y-76783000D03*
%TD*%
D12*
%TO.C,J1*%
X110050000Y-54300000D03*
X110050000Y-67800000D03*
D13*
X104050000Y-64650000D03*
D14*
X104050000Y-57450000D03*
%TD*%
D15*
%TO.C,REF\u002A\u002A*%
X115000000Y-85000000D03*
%TD*%
%TO.C,REF\u002A\u002A*%
X5000000Y-85000000D03*
%TD*%
D16*
%TO.C,K3*%
X87471000Y-18594000D03*
X82471000Y-18594000D03*
X92471000Y-18594000D03*
X87471000Y-11094000D03*
X82471000Y-11094000D03*
X92471000Y-11094000D03*
D17*
X67471000Y-18594000D03*
D16*
X67471000Y-11094000D03*
%TD*%
D18*
%TO.C,D2*%
X32594000Y-50230000D03*
D19*
X35134000Y-50230000D03*
%TD*%
D10*
%TO.C,R3*%
X30200000Y-57755000D03*
D11*
X30200000Y-60295000D03*
%TD*%
D20*
%TO.C,SW1*%
X23695000Y-80137000D03*
X36195000Y-80137000D03*
X23695000Y-85137000D03*
X36195000Y-85137000D03*
%TD*%
D10*
%TO.C,R1*%
X38925000Y-68360000D03*
D11*
X38925000Y-70900000D03*
%TD*%
D10*
%TO.C,R9*%
X103854000Y-72600000D03*
D11*
X101314000Y-72600000D03*
%TD*%
D16*
%TO.C,K1*%
X87742000Y-52738000D03*
X82742000Y-52738000D03*
X92742000Y-52738000D03*
X87742000Y-45238000D03*
X82742000Y-45238000D03*
X92742000Y-45238000D03*
D17*
X67742000Y-52738000D03*
D16*
X67742000Y-45238000D03*
%TD*%
D21*
%TO.C,D14*%
X109430000Y-18000000D03*
D22*
X109430000Y-15460000D03*
%TD*%
D18*
%TO.C,D3*%
X61279000Y-13774000D03*
D19*
X61279000Y-16314000D03*
%TD*%
D21*
%TO.C,D11*%
X109728000Y-71220000D03*
D22*
X109728000Y-73760000D03*
%TD*%
D10*
%TO.C,R6*%
X46800000Y-57660000D03*
D11*
X46800000Y-60200000D03*
%TD*%
D23*
%TO.C,F1*%
X38886000Y-8382000D03*
X32186000Y-8382000D03*
X23186000Y-8382000D03*
X16486000Y-8382000D03*
%TD*%
D10*
%TO.C,R2*%
X35900000Y-60300000D03*
D11*
X33360000Y-60300000D03*
%TD*%
D22*
%TO.C,J5*%
X19200000Y-60900000D03*
X19200000Y-63400000D03*
%TD*%
D24*
%TO.C,Q1*%
X35900000Y-55800000D03*
D25*
X34630000Y-55800000D03*
X33360000Y-55800000D03*
%TD*%
D21*
%TO.C,D12*%
X109816500Y-76818000D03*
D22*
X109816500Y-79358000D03*
%TD*%
D18*
%TO.C,D8*%
X48850000Y-50230000D03*
D19*
X51390000Y-50230000D03*
%TD*%
D21*
%TO.C,D13*%
X109407000Y-12243000D03*
D22*
X109407000Y-9703000D03*
%TD*%
D21*
%TO.C,D10*%
X41910000Y-84796000D03*
D22*
X41910000Y-82256000D03*
%TD*%
D15*
%TO.C,REF\u002A\u002A*%
X5000000Y-5000000D03*
%TD*%
D10*
%TO.C,R12*%
X104090000Y-16440000D03*
D11*
X101550000Y-16440000D03*
%TD*%
D24*
%TO.C,Q2*%
X52500000Y-55750000D03*
D25*
X51230000Y-55750000D03*
X49960000Y-55750000D03*
%TD*%
D23*
%TO.C,REF\u002A\u002A*%
X9652000Y-52024000D03*
X9652000Y-78024000D03*
%TD*%
D18*
%TO.C,D1*%
X61834000Y-47826000D03*
D19*
X61834000Y-50366000D03*
%TD*%
D22*
%TO.C,J3*%
X10922000Y-40680000D03*
X10922000Y-43180000D03*
X10922000Y-45680000D03*
%TD*%
D16*
%TO.C,J6*%
X8000000Y-11860000D03*
X8000000Y-16940000D03*
%TD*%
D26*
%TO.C,K4*%
X54200000Y-44400000D03*
X54200000Y-29400000D03*
X54200000Y-24399999D03*
X54200000Y-19399999D03*
X46700000Y-19399999D03*
X46700000Y-24399999D03*
X46700000Y-29400000D03*
X46700000Y-44400000D03*
%TD*%
D10*
%TO.C,R4*%
X55500000Y-68255000D03*
D11*
X55500000Y-70795000D03*
%TD*%
D27*
%TO.C,U2*%
X49705000Y-70720000D03*
D11*
X52245000Y-70720000D03*
X52245000Y-63100000D03*
X49705000Y-63100000D03*
%TD*%
D26*
%TO.C,K2*%
X37900000Y-44400000D03*
X37900000Y-29400000D03*
X37900000Y-24399999D03*
X37900000Y-19399999D03*
X30400000Y-19399999D03*
X30400000Y-24399999D03*
X30400000Y-29400000D03*
X30400000Y-44400000D03*
%TD*%
D16*
%TO.C,J7*%
X108000000Y-49480000D03*
X108000000Y-44440000D03*
X108000000Y-39320000D03*
%TD*%
D15*
%TO.C,REF\u002A\u002A*%
X115000000Y-5000000D03*
%TD*%
D20*
%TO.C,SW2*%
X47598000Y-80177000D03*
X60098000Y-80177000D03*
X47598000Y-85177000D03*
X60098000Y-85177000D03*
%TD*%
D10*
%TO.C,R10*%
X103942500Y-78088000D03*
D11*
X101402500Y-78088000D03*
%TD*%
D27*
%TO.C,U1*%
X33125000Y-70900000D03*
D11*
X35665000Y-70900000D03*
X35665000Y-63280000D03*
X33125000Y-63280000D03*
%TD*%
D12*
%TO.C,J4*%
X10900000Y-35100000D03*
X10900000Y-21600000D03*
D28*
X16900000Y-31950000D03*
D14*
X16900000Y-24750000D03*
%TD*%
D12*
%TO.C,J2*%
X110050000Y-21329643D03*
X110050000Y-34829643D03*
D13*
X104050000Y-31679643D03*
D14*
X104050000Y-24479643D03*
%TD*%
D10*
%TO.C,R8*%
X41910000Y-79203000D03*
D11*
X41910000Y-76663000D03*
%TD*%
D10*
%TO.C,R11*%
X104074000Y-11175000D03*
D11*
X101534000Y-11175000D03*
%TD*%
D21*
%TO.C,D9*%
X17680000Y-85424000D03*
D22*
X17680000Y-82884000D03*
%TD*%
D10*
%TO.C,R5*%
X52245000Y-60200000D03*
D11*
X49705000Y-60200000D03*
%TD*%
M02*
