M48
; DRILL file {KiCad 8.0.3} date 2024-07-10T23:14:38+0900
; FORMAT={-:-/ absolute / metric / decimal}
; #@! TF.CreationDate,2024-07-10T23:14:38+09:00
; #@! TF.GenerationSoftware,Kicad,Pcbnew,8.0.3
; #@! TF.FileFunction,Plated,1,2,PTH
FMAT,2
METRIC
; #@! TA.AperFunction,Plated,PTH,ViaDrill
T1C0.300
; #@! TA.AperFunction,Plated,PTH,ComponentDrill
T2C0.600
; #@! TA.AperFunction,Plated,PTH,ComponentDrill
T3C0.750
; #@! TA.AperFunction,Plated,PTH,ComponentDrill
T4C0.800
; #@! TA.AperFunction,Plated,PTH,ComponentDrill
T5C0.900
; #@! TA.AperFunction,Plated,PTH,ComponentDrill
T6C1.000
; #@! TA.AperFunction,Plated,PTH,ComponentDrill
T7C1.200
; #@! TA.AperFunction,Plated,PTH,ComponentDrill
T8C1.295
; #@! TA.AperFunction,Plated,PTH,ComponentDrill
T9C1.300
; #@! TA.AperFunction,Plated,PTH,ComponentDrill
T10C1.700
; #@! TA.AperFunction,Plated,PTH,ComponentDrill
T11C2.700
%
G90
G05
T1
X2.5Y-2.5
X2.5Y-7.5
X2.5Y-12.5
X2.5Y-17.5
X2.5Y-22.5
X2.5Y-27.5
X2.5Y-32.5
X2.5Y-42.5
X2.5Y-47.5
X2.5Y-52.5
X2.5Y-57.5
X2.5Y-62.5
X2.5Y-67.5
X2.5Y-72.5
X2.5Y-77.5
X2.5Y-82.5
X2.5Y-87.5
X2.742Y-37.358
X7.5Y-2.5
X7.5Y-7.5
X7.5Y-22.5
X7.5Y-27.5
X7.5Y-32.5
X7.5Y-37.33
X7.5Y-42.5
X7.5Y-77.5
X7.5Y-82.5
X7.5Y-87.5
X12.5Y-2.5
X12.5Y-7.5
X12.5Y-12.5
X12.5Y-27.5
X12.5Y-32.5
X12.5Y-42.5
X12.5Y-47.5
X12.5Y-52.5
X12.5Y-57.5
X12.5Y-62.5
X12.5Y-67.5
X12.5Y-72.5
X12.5Y-77.5
X12.5Y-82.5
X12.5Y-87.5
X12.52Y-37.24
X16.9Y-17.5
X17.5Y-2.5
X17.5Y-12.5
X17.5Y-37.32
X17.5Y-87.5
X22.5Y-2.5
X22.5Y-12.5
X22.5Y-17.5
X22.5Y-22.5
X22.5Y-27.5
X22.5Y-32.5
X22.5Y-42.5
X22.5Y-47.5
X22.5Y-52.5
X22.5Y-57.5
X22.5Y-67.5
X22.5Y-72.5
X22.5Y-77.5
X22.5Y-82.5
X22.5Y-87.5
X27.5Y-2.5
X27.5Y-7.5
X27.5Y-12.5
X27.5Y-17.5
X27.5Y-22.5
X27.5Y-27.5
X27.5Y-37.5
X27.5Y-42.5
X27.5Y-47.5
X27.5Y-52.5
X27.5Y-57.5
X27.5Y-62.5
X27.5Y-67.5
X27.5Y-72.5
X27.5Y-77.5
X27.5Y-82.5
X27.5Y-87.5
X32.5Y-2.5
X32.5Y-12.5
X32.5Y-17.5
X32.5Y-22.5
X32.5Y-27.5
X32.5Y-52.5
X32.5Y-67.5
X32.5Y-82.5
X32.5Y-87.5
X37.5Y-2.5
X37.5Y-12.5
X37.5Y-17.5
X37.5Y-22.5
X37.5Y-27.5
X37.5Y-32.5
X37.5Y-52.5
X37.5Y-57.5
X37.5Y-62.5
X37.5Y-67.5
X37.5Y-72.5
X37.5Y-77.5
X37.5Y-82.5
X37.5Y-87.5
X42.5Y-2.5
X42.5Y-7.5
X42.5Y-12.5
X42.5Y-17.5
X42.5Y-27.5
X42.5Y-32.5
X42.5Y-47.5
X42.5Y-52.5
X42.5Y-57.5
X42.5Y-62.5
X42.5Y-67.5
X42.5Y-72.5
X42.5Y-87.5
X47.5Y-2.5
X47.5Y-7.5
X47.5Y-12.5
X47.5Y-17.5
X47.5Y-22.5
X47.5Y-27.5
X47.5Y-32.5
X47.5Y-37.5
X47.5Y-52.5
X47.5Y-62.5
X47.5Y-67.5
X47.5Y-72.5
X47.5Y-77.5
X47.5Y-82.5
X47.5Y-87.5
X52.5Y-2.5
X52.5Y-7.5
X52.5Y-12.5
X52.5Y-17.5
X52.5Y-22.5
X52.5Y-27.5
X52.5Y-32.5
X52.5Y-37.5
X52.5Y-52.5
X52.5Y-57.5
X52.5Y-67.5
X52.5Y-72.5
X52.5Y-77.5
X52.5Y-82.5
X52.5Y-87.5
X57.5Y-2.5
X57.5Y-7.5
X57.5Y-12.5
X57.5Y-37.5
X57.5Y-42.5
X57.5Y-47.5
X57.5Y-52.5
X57.5Y-57.5
X57.5Y-62.5
X57.5Y-82.5
X57.5Y-87.5
X62.5Y-2.5
X62.5Y-7.5
X62.5Y-22.5
X62.5Y-27.5
X62.5Y-32.5
X62.5Y-37.5
X62.5Y-42.5
X62.5Y-52.5
X62.5Y-57.5
X62.5Y-62.5
X62.5Y-67.5
X62.5Y-72.5
X62.5Y-77.5
X62.5Y-82.5
X62.5Y-87.5
X67.5Y-2.5
X67.5Y-7.5
X67.5Y-22.5
X67.5Y-27.5
X67.5Y-32.5
X67.5Y-37.5
X67.5Y-42.5
X67.5Y-57.5
X67.5Y-62.5
X67.5Y-67.5
X67.5Y-72.5
X67.5Y-77.5
X67.5Y-82.5
X67.5Y-87.5
X72.5Y-2.5
X72.5Y-12.5
X72.5Y-17.5
X72.5Y-22.5
X72.5Y-27.5
X72.5Y-32.5
X72.5Y-37.5
X72.5Y-47.5
X72.5Y-52.5
X72.5Y-57.5
X72.5Y-62.5
X72.5Y-67.5
X72.5Y-72.5
X72.5Y-77.5
X72.5Y-82.5
X72.5Y-87.5
X77.5Y-2.5
X77.5Y-12.5
X77.5Y-17.5
X77.5Y-22.5
X77.5Y-27.5
X77.5Y-32.5
X77.5Y-37.5
X77.5Y-47.5
X77.5Y-57.5
X77.5Y-62.5
X77.5Y-67.5
X77.5Y-72.5
X77.5Y-77.5
X77.5Y-82.5
X77.5Y-87.5
X82.5Y-2.5
X82.5Y-22.5
X82.5Y-27.5
X82.5Y-32.5
X82.5Y-37.5
X82.5Y-47.5
X82.5Y-62.5
X82.5Y-67.5
X82.5Y-72.5
X82.5Y-77.5
X82.5Y-82.5
X82.5Y-87.5
X87.5Y-2.5
X87.5Y-22.5
X87.5Y-27.5
X87.5Y-32.5
X87.5Y-37.5
X87.5Y-47.5
X87.5Y-57.5
X87.5Y-62.5
X87.5Y-67.5
X87.5Y-72.5
X87.5Y-77.5
X87.5Y-82.5
X87.5Y-87.5
X92.5Y-2.5
X92.5Y-7.5
X92.5Y-22.5
X92.5Y-27.5
X92.5Y-32.5
X92.5Y-37.5
X92.5Y-42.5
X92.5Y-47.5
X92.5Y-72.5
X92.5Y-77.5
X92.5Y-82.5
X92.5Y-87.5
X97.5Y-2.5
X97.5Y-7.5
X97.5Y-12.5
X97.5Y-17.5
X97.5Y-32.5
X97.5Y-42.5
X97.5Y-47.5
X97.5Y-52.5
X97.5Y-62.5
X97.5Y-67.5
X97.5Y-77.5
X97.5Y-82.5
X97.5Y-87.5
X102.5Y-2.5
X102.5Y-7.5
X102.5Y-27.5
X102.5Y-37.5
X102.5Y-42.5
X102.5Y-47.5
X102.5Y-52.5
X102.5Y-67.5
X102.5Y-82.5
X102.5Y-87.5
X107.5Y-2.5
X107.5Y-7.5
X107.5Y-12.5
X107.5Y-17.5
X107.5Y-22.5
X107.5Y-27.5
X107.5Y-32.5
X107.5Y-37.5
X107.5Y-42.5
X107.5Y-52.5
X107.5Y-57.5
X107.5Y-62.5
X107.5Y-67.5
X107.5Y-72.5
X107.5Y-77.5
X107.5Y-82.5
X107.5Y-87.5
X112.5Y-2.5
X112.5Y-7.5
X112.5Y-12.5
X112.5Y-17.5
X112.5Y-22.5
X112.5Y-27.5
X112.5Y-32.5
X112.5Y-37.5
X112.5Y-42.5
X112.5Y-47.5
X112.5Y-52.5
X112.5Y-57.5
X112.5Y-62.5
X112.5Y-67.5
X112.5Y-72.5
X112.5Y-77.5
X112.5Y-82.5
X112.5Y-87.5
X117.5Y-2.5
X117.5Y-7.5
X117.5Y-12.5
X117.5Y-17.5
X117.5Y-22.5
X117.5Y-27.5
X117.5Y-32.5
X117.5Y-37.5
X117.5Y-42.5
X117.5Y-47.5
X117.5Y-52.5
X117.5Y-57.5
X117.5Y-62.5
X117.5Y-67.5
X117.5Y-72.5
X117.5Y-77.5
X117.5Y-82.5
X117.5Y-87.5
T3
X33.36Y-55.8
X34.63Y-55.8
X35.9Y-55.8
X49.96Y-55.75
X51.23Y-55.75
X52.5Y-55.75
T4
X17.68Y-76.783
X17.68Y-79.323
X30.2Y-57.755
X30.2Y-60.295
X33.125Y-63.28
X33.125Y-70.9
X33.36Y-60.3
X35.665Y-63.28
X35.665Y-70.9
X35.9Y-60.3
X38.925Y-68.36
X38.925Y-70.9
X41.91Y-76.663
X41.91Y-79.203
X46.8Y-57.66
X46.8Y-60.2
X49.705Y-60.2
X49.705Y-63.1
X49.705Y-70.72
X52.245Y-60.2
X52.245Y-63.1
X52.245Y-70.72
X55.5Y-68.255
X55.5Y-70.795
X101.314Y-72.6
X101.402Y-78.088
X101.534Y-11.175
X101.55Y-16.44
X103.854Y-72.6
X103.942Y-78.088
X104.074Y-11.175
X104.09Y-16.44
T5
X17.68Y-82.884
X17.68Y-85.424
X41.91Y-82.256
X41.91Y-84.796
X109.407Y-9.703
X109.407Y-12.243
X109.43Y-15.46
X109.43Y-18.0
X109.728Y-71.22
X109.728Y-73.76
X109.816Y-76.818
X109.816Y-79.358
T6
X10.922Y-40.68
X10.922Y-43.18
X10.922Y-45.68
X19.2Y-60.9
X19.2Y-63.4
T7
X32.594Y-50.23
X35.134Y-50.23
X48.85Y-50.23
X51.39Y-50.23
X61.279Y-13.774
X61.279Y-16.314
X61.834Y-47.826
X61.834Y-50.366
T8
X30.4Y-19.4
X30.4Y-24.4
X30.4Y-29.4
X30.4Y-44.4
X37.9Y-19.4
X37.9Y-24.4
X37.9Y-29.4
X37.9Y-44.4
X46.7Y-19.4
X46.7Y-24.4
X46.7Y-29.4
X46.7Y-44.4
X54.2Y-19.4
X54.2Y-24.4
X54.2Y-29.4
X54.2Y-44.4
T9
X8.0Y-11.86
X8.0Y-16.94
X23.695Y-80.137
X23.695Y-85.137
X36.195Y-80.137
X36.195Y-85.137
X47.598Y-80.177
X47.598Y-85.177
X60.098Y-80.177
X60.098Y-85.177
X67.471Y-11.094
X67.471Y-18.594
X67.742Y-45.238
X67.742Y-52.738
X82.471Y-11.094
X82.471Y-18.594
X82.742Y-45.238
X82.742Y-52.738
X87.471Y-11.094
X87.471Y-18.594
X87.742Y-45.238
X87.742Y-52.738
X92.471Y-11.094
X92.471Y-18.594
X92.742Y-45.238
X92.742Y-52.738
X108.0Y-39.32
X108.0Y-44.44
X108.0Y-49.48
T10
X16.486Y-8.382
X23.186Y-8.382
X32.186Y-8.382
X38.886Y-8.382
T11
X16.9Y-24.75
X16.9Y-31.95
X104.05Y-24.48
X104.05Y-31.68
X104.05Y-57.45
X104.05Y-64.65
T2
G00X10.35Y-21.6
M15
G01X11.45Y-21.6
M16
G05
G00X10.35Y-35.1
M15
G01X11.45Y-35.1
M16
G05
G00X110.6Y-21.33
M15
G01X109.5Y-21.33
M16
G05
G00X110.6Y-34.83
M15
G01X109.5Y-34.83
M16
G05
G00X110.6Y-54.3
M15
G01X109.5Y-54.3
M16
G05
G00X110.6Y-67.8
M15
G01X109.5Y-67.8
M16
G05
M30
