%TF.GenerationSoftware,KiCad,Pcbnew,8.0.3*%
%TF.CreationDate,2024-11-10T15:02:54+09:00*%
%TF.ProjectId,PWM_isolation,50574d5f-6973-46f6-9c61-74696f6e2e6b,rev?*%
%TF.SameCoordinates,Original*%
%TF.FileFunction,Copper,L1,Top*%
%TF.FilePolarity,Positive*%
%FSLAX46Y46*%
G04 Gerber Fmt 4.6, Leading zero omitted, Abs format (unit mm)*
G04 Created by KiCad (PCBNEW 8.0.3) date 2024-11-10 15:02:54*
%MOMM*%
%LPD*%
G01*
G04 APERTURE LIST*
G04 Aperture macros list*
%AMRoundRect*
0 Rectangle with rounded corners*
0 $1 Rounding radius*
0 $2 $3 $4 $5 $6 $7 $8 $9 X,Y pos of 4 corners*
0 Add a 4 corners polygon primitive as box body*
4,1,4,$2,$3,$4,$5,$6,$7,$8,$9,$2,$3,0*
0 Add four circle primitives for the rounded corners*
1,1,$1+$1,$2,$3*
1,1,$1+$1,$4,$5*
1,1,$1+$1,$6,$7*
1,1,$1+$1,$8,$9*
0 Add four rect primitives between the rounded corners*
20,1,$1+$1,$2,$3,$4,$5,0*
20,1,$1+$1,$4,$5,$6,$7,0*
20,1,$1+$1,$6,$7,$8,$9,0*
20,1,$1+$1,$8,$9,$2,$3,0*%
G04 Aperture macros list end*
%TA.AperFunction,ComponentPad*%
%ADD10C,1.500000*%
%TD*%
%TA.AperFunction,ComponentPad*%
%ADD11R,1.600000X1.600000*%
%TD*%
%TA.AperFunction,ComponentPad*%
%ADD12O,1.600000X1.600000*%
%TD*%
%TA.AperFunction,ComponentPad*%
%ADD13C,1.600000*%
%TD*%
%TA.AperFunction,ComponentPad*%
%ADD14C,1.800000*%
%TD*%
%TA.AperFunction,ComponentPad*%
%ADD15R,2.200000X2.200000*%
%TD*%
%TA.AperFunction,ComponentPad*%
%ADD16O,2.200000X2.200000*%
%TD*%
%TA.AperFunction,ComponentPad*%
%ADD17R,1.700000X1.700000*%
%TD*%
%TA.AperFunction,ComponentPad*%
%ADD18O,1.700000X1.700000*%
%TD*%
%TA.AperFunction,WasherPad*%
%ADD19C,2.100000*%
%TD*%
%TA.AperFunction,ComponentPad*%
%ADD20R,2.000000X0.900000*%
%TD*%
%TA.AperFunction,ComponentPad*%
%ADD21RoundRect,1.025000X1.025000X-1.025000X1.025000X1.025000X-1.025000X1.025000X-1.025000X-1.025000X0*%
%TD*%
%TA.AperFunction,ComponentPad*%
%ADD22C,4.100000*%
%TD*%
%TA.AperFunction,ComponentPad*%
%ADD23C,2.300000*%
%TD*%
%TA.AperFunction,ComponentPad*%
%ADD24R,1.200000X1.200000*%
%TD*%
%TA.AperFunction,ComponentPad*%
%ADD25C,1.200000*%
%TD*%
%TA.AperFunction,ComponentPad*%
%ADD26R,1.800000X1.800000*%
%TD*%
%TA.AperFunction,ComponentPad*%
%ADD27R,2.000000X1.905000*%
%TD*%
%TA.AperFunction,ComponentPad*%
%ADD28O,2.000000X1.905000*%
%TD*%
%TA.AperFunction,ViaPad*%
%ADD29C,0.600000*%
%TD*%
%TA.AperFunction,Conductor*%
%ADD30C,0.500000*%
%TD*%
%TA.AperFunction,Conductor*%
%ADD31C,2.000000*%
%TD*%
G04 APERTURE END LIST*
D10*
%TO.P,TP8,1,1*%
%TO.N,PWM3*%
X120150000Y-114647000D03*
%TD*%
D11*
%TO.P,U1,1,I1*%
%TO.N,ISO1*%
X138440000Y-90180000D03*
D12*
%TO.P,U1,2,I2*%
X138440000Y-92720000D03*
%TO.P,U1,3,I3*%
%TO.N,ISO2*%
X138440000Y-95260000D03*
%TO.P,U1,4,I4*%
X138440000Y-97800000D03*
%TO.P,U1,5,I5*%
%TO.N,ISO3*%
X138440000Y-100340000D03*
%TO.P,U1,6,I6*%
X138440000Y-102880000D03*
%TO.P,U1,7,I7*%
%TO.N,ISO4*%
X138440000Y-105420000D03*
%TO.P,U1,8,I8*%
X138440000Y-107960000D03*
%TO.P,U1,9,VCC*%
%TO.N,VSET*%
X138440000Y-110500000D03*
%TO.P,U1,10,GND*%
%TO.N,GND2*%
X146060000Y-110500000D03*
%TO.P,U1,11,O8*%
%TO.N,LED4*%
X146060000Y-107960000D03*
%TO.P,U1,12,O7*%
%TO.N,Net-(J9-Pin_2)*%
X146060000Y-105420000D03*
%TO.P,U1,13,O6*%
%TO.N,LED3*%
X146060000Y-102880000D03*
%TO.P,U1,14,O5*%
%TO.N,Net-(J8-Pin_2)*%
X146060000Y-100340000D03*
%TO.P,U1,15,O4*%
%TO.N,LED2*%
X146060000Y-97800000D03*
%TO.P,U1,16,O3*%
%TO.N,Net-(J7-Pin_2)*%
X146060000Y-95260000D03*
%TO.P,U1,17,O2*%
%TO.N,LED1*%
X146060000Y-92720000D03*
%TO.P,U1,18,O1*%
%TO.N,Net-(J6-Pin_2)*%
X146060000Y-90180000D03*
%TD*%
D11*
%TO.P,RN1,1,common*%
%TO.N,GND2*%
X151000000Y-105040000D03*
D12*
%TO.P,RN1,2,R1*%
%TO.N,Net-(J9-Pin_2)*%
X151000000Y-102500000D03*
%TO.P,RN1,3,R2*%
%TO.N,Net-(J8-Pin_2)*%
X151000000Y-99960000D03*
%TO.P,RN1,4,R3*%
%TO.N,Net-(J7-Pin_2)*%
X151000000Y-97420000D03*
%TO.P,RN1,5,R4*%
%TO.N,Net-(J6-Pin_2)*%
X151000000Y-94880000D03*
%TD*%
D13*
%TO.P,C3,1*%
%TO.N,VCC*%
X138166000Y-68115000D03*
%TO.P,C3,2*%
%TO.N,GND2*%
X140666000Y-68115000D03*
%TD*%
D14*
%TO.P,J4,1,Pin_1*%
%TO.N,PWM4*%
X110900000Y-105350000D03*
%TO.P,J4,2,Pin_2*%
%TO.N,GND1*%
X110900000Y-107850000D03*
%TD*%
D10*
%TO.P,TP1,1,1*%
%TO.N,Net-(J6-Pin_2)*%
X154402000Y-94610000D03*
%TD*%
D15*
%TO.P,D6,1,K*%
%TO.N,/\u53EF\u5909\u4E09\u7AEF\u5B50\u30EC\u30AE\u30E5\u30EC\u30FC\u30BF/VARIABLE*%
X142700000Y-75100000D03*
D16*
%TO.P,D6,2,A*%
%TO.N,Net-(D6-A)*%
X142700000Y-77640000D03*
%TD*%
D15*
%TO.P,D5,1,K*%
%TO.N,VCC*%
X149302000Y-72560000D03*
D16*
%TO.P,D5,2,A*%
%TO.N,/\u53EF\u5909\u4E09\u7AEF\u5B50\u30EC\u30AE\u30E5\u30EC\u30FC\u30BF/VARIABLE*%
X149302000Y-75100000D03*
%TD*%
D17*
%TO.P,J11,1,Pin_1*%
%TO.N,VCC*%
X164500000Y-68160000D03*
D18*
%TO.P,J11,2,Pin_2*%
%TO.N,VSET*%
X164500000Y-70700000D03*
%TO.P,J11,3,Pin_3*%
%TO.N,VAR*%
X164500000Y-73240000D03*
%TD*%
D14*
%TO.P,J1,1,Pin_1*%
%TO.N,PWM1*%
X110900000Y-82250000D03*
%TO.P,J1,2,Pin_2*%
%TO.N,GND1*%
X110900000Y-84750000D03*
%TD*%
%TO.P,J3,1,Pin_1*%
%TO.N,PWM3*%
X110900000Y-97650000D03*
%TO.P,J3,2,Pin_2*%
%TO.N,GND1*%
X110900000Y-100150000D03*
%TD*%
D10*
%TO.P,TP4,1,1*%
%TO.N,PWM1*%
X115000000Y-114647000D03*
%TD*%
D19*
%TO.P,REF\u002A\u002A,*%
%TO.N,*%
X132907000Y-83980000D03*
X132907000Y-66180000D03*
%TD*%
D14*
%TO.P,J9,1,Pin_1*%
%TO.N,VCC*%
X179100000Y-115600000D03*
%TO.P,J9,2,Pin_2*%
%TO.N,Net-(J9-Pin_2)*%
X179100000Y-113100000D03*
%TO.P,J9,3,Pin_3*%
%TO.N,GND2*%
X179100000Y-110600000D03*
%TD*%
D10*
%TO.P,TP7,1,1*%
%TO.N,PWM2*%
X117573000Y-114647000D03*
%TD*%
D20*
%TO.P,J10,*%
%TO.N,*%
X110600000Y-74700000D03*
X110600000Y-61200000D03*
D21*
%TO.P,J10,1,Pin_1*%
%TO.N,GND2*%
X116600000Y-71550000D03*
D22*
%TO.P,J10,2,Pin_2*%
%TO.N,Net-(J10-Pin_1)*%
X116600000Y-64350000D03*
%TD*%
D14*
%TO.P,J8,1,Pin_1*%
%TO.N,VCC*%
X179100000Y-105400000D03*
%TO.P,J8,2,Pin_2*%
%TO.N,Net-(J8-Pin_2)*%
X179100000Y-102900000D03*
%TO.P,J8,3,Pin_3*%
%TO.N,GND2*%
X179100000Y-100400000D03*
%TD*%
D10*
%TO.P,TP6,1,1*%
%TO.N,GND2*%
X154402000Y-105060000D03*
%TD*%
D14*
%TO.P,J12,1,Pin_1*%
%TO.N,VSET*%
X179100000Y-72750000D03*
%TO.P,J12,2,Pin_2*%
%TO.N,GND2*%
X179100000Y-70250000D03*
%TD*%
D23*
%TO.P,F1,1*%
%TO.N,VCC*%
X133900000Y-55100000D03*
X127200000Y-55100000D03*
%TO.P,F1,2*%
%TO.N,Net-(J10-Pin_1)*%
X118200000Y-55100000D03*
X111500000Y-55100000D03*
%TD*%
D10*
%TO.P,TP2,1,1*%
%TO.N,Net-(J7-Pin_2)*%
X154402000Y-97260000D03*
%TD*%
D14*
%TO.P,J7,1,Pin_1*%
%TO.N,VCC*%
X179100000Y-95200000D03*
%TO.P,J7,2,Pin_2*%
%TO.N,Net-(J7-Pin_2)*%
X179100000Y-92700000D03*
%TO.P,J7,3,Pin_3*%
%TO.N,GND2*%
X179100000Y-90200000D03*
%TD*%
D10*
%TO.P,TP9,1,1*%
%TO.N,PWM4*%
X122700000Y-114634000D03*
%TD*%
D24*
%TO.P,C4,1*%
%TO.N,Net-(D6-A)*%
X144476000Y-82255401D03*
D25*
%TO.P,C4,2*%
%TO.N,GND2*%
X144476000Y-84255401D03*
%TD*%
D26*
%TO.P,D2,1,K*%
%TO.N,Net-(D2-K)*%
X164775000Y-93180000D03*
D14*
%TO.P,D2,2,A*%
%TO.N,LED2*%
X162235000Y-93180000D03*
%TD*%
D24*
%TO.P,C6,1*%
%TO.N,/\u53EF\u5909\u4E09\u7AEF\u5B50\u30EC\u30AE\u30E5\u30EC\u30FC\u30BF/VARIABLE*%
X149302000Y-82244000D03*
D25*
%TO.P,C6,2*%
%TO.N,GND2*%
X149302000Y-84244000D03*
%TD*%
D14*
%TO.P,J5,1,Pin_1*%
%TO.N,PWM1*%
X115173000Y-119047000D03*
%TO.P,J5,2,Pin_2*%
%TO.N,PWM2*%
X117673000Y-119047000D03*
%TO.P,J5,3,Pin_3*%
%TO.N,PWM3*%
X120173000Y-119047000D03*
%TO.P,J5,4,Pin_4*%
%TO.N,PWM4*%
X122673000Y-119047000D03*
%TO.P,J5,5,Pin_5*%
%TO.N,GND1*%
X125173000Y-119047000D03*
%TD*%
%TO.P,J6,1,Pin_1*%
%TO.N,VCC*%
X179100000Y-85000000D03*
%TO.P,J6,2,Pin_2*%
%TO.N,Net-(J6-Pin_2)*%
X179100000Y-82500000D03*
%TO.P,J6,3,Pin_3*%
%TO.N,GND2*%
X179100000Y-80000000D03*
%TD*%
D26*
%TO.P,D4,1,K*%
%TO.N,Net-(D4-K)*%
X164775000Y-113500000D03*
D14*
%TO.P,D4,2,A*%
%TO.N,LED4*%
X162235000Y-113500000D03*
%TD*%
D10*
%TO.P,TP3,1,1*%
%TO.N,Net-(J8-Pin_2)*%
X154402000Y-99860000D03*
%TD*%
D11*
%TO.P,U2,1*%
%TO.N,PWM1*%
X125380000Y-90125000D03*
D12*
%TO.P,U2,2*%
%TO.N,Net-(RN2-R4)*%
X125380000Y-92665000D03*
%TO.P,U2,3*%
%TO.N,PWM2*%
X125380000Y-95205000D03*
%TO.P,U2,4*%
%TO.N,Net-(RN2-R3)*%
X125380000Y-97745000D03*
%TO.P,U2,5*%
%TO.N,PWM3*%
X125380000Y-100285000D03*
%TO.P,U2,6*%
%TO.N,Net-(RN2-R2)*%
X125380000Y-102825000D03*
%TO.P,U2,7*%
%TO.N,PWM4*%
X125380000Y-105365000D03*
%TO.P,U2,8*%
%TO.N,Net-(RN2-R1)*%
X125380000Y-107905000D03*
%TO.P,U2,9*%
%TO.N,ISO4*%
X133000000Y-107905000D03*
%TO.P,U2,10*%
%TO.N,VCC*%
X133000000Y-105365000D03*
%TO.P,U2,11*%
%TO.N,ISO3*%
X133000000Y-102825000D03*
%TO.P,U2,12*%
%TO.N,VCC*%
X133000000Y-100285000D03*
%TO.P,U2,13*%
%TO.N,ISO2*%
X133000000Y-97745000D03*
%TO.P,U2,14*%
%TO.N,VCC*%
X133000000Y-95205000D03*
%TO.P,U2,15*%
%TO.N,ISO1*%
X133000000Y-92665000D03*
%TO.P,U2,16*%
%TO.N,VCC*%
X133000000Y-90125000D03*
%TD*%
D26*
%TO.P,D3,1,K*%
%TO.N,Net-(D3-K)*%
X164775000Y-103340000D03*
D14*
%TO.P,D3,2,A*%
%TO.N,LED3*%
X162235000Y-103340000D03*
%TD*%
D11*
%TO.P,RN3,1,common*%
%TO.N,GND2*%
X164680000Y-120600000D03*
D12*
%TO.P,RN3,2,R1*%
%TO.N,Net-(D4-K)*%
X167220000Y-120600000D03*
%TO.P,RN3,3,R2*%
%TO.N,Net-(D3-K)*%
X169760000Y-120600000D03*
%TO.P,RN3,4,R3*%
%TO.N,Net-(D2-K)*%
X172300000Y-120600000D03*
%TO.P,RN3,5,R4*%
%TO.N,Net-(D1-K)*%
X174840000Y-120600000D03*
%TD*%
D27*
%TO.P,U3,1,ADJ/GND*%
%TO.N,Net-(D6-A)*%
X139396000Y-77640000D03*
D28*
%TO.P,U3,2,OUT*%
%TO.N,/\u53EF\u5909\u4E09\u7AEF\u5B50\u30EC\u30AE\u30E5\u30EC\u30FC\u30BF/VARIABLE*%
X139396000Y-75100000D03*
%TO.P,U3,3,IN*%
%TO.N,VCC*%
X139396000Y-72560000D03*
%TD*%
D14*
%TO.P,MES1,1,-*%
%TO.N,VSET*%
X186700000Y-65100000D03*
%TO.P,MES1,2,+*%
%TO.N,GND2*%
X186700000Y-62600000D03*
%TD*%
D13*
%TO.P,R1,1*%
%TO.N,/\u53EF\u5909\u4E09\u7AEF\u5B50\u30EC\u30AE\u30E5\u30EC\u30FC\u30BF/VARIABLE*%
X146000000Y-75100000D03*
D12*
%TO.P,R1,2*%
%TO.N,Net-(D6-A)*%
X146000000Y-77640000D03*
%TD*%
D14*
%TO.P,J2,1,Pin_1*%
%TO.N,PWM2*%
X110900000Y-89950000D03*
%TO.P,J2,2,Pin_2*%
%TO.N,GND1*%
X110900000Y-92450000D03*
%TD*%
D10*
%TO.P,GND1,1,1*%
%TO.N,GND1*%
X125250000Y-114600000D03*
%TD*%
D15*
%TO.P,D7,1,K*%
%TO.N,VAR*%
X155900000Y-72560000D03*
D16*
%TO.P,D7,2,A*%
%TO.N,/\u53EF\u5909\u4E09\u7AEF\u5B50\u30EC\u30AE\u30E5\u30EC\u30FC\u30BF/VARIABLE*%
X155900000Y-75100000D03*
%TD*%
D13*
%TO.P,C1,1*%
%TO.N,VSET*%
X141090000Y-113630000D03*
%TO.P,C1,2*%
%TO.N,GND2*%
X143590000Y-113630000D03*
%TD*%
D11*
%TO.P,C2,1*%
%TO.N,VCC*%
X149302000Y-68242000D03*
D13*
%TO.P,C2,2*%
%TO.N,GND2*%
X149302000Y-65742000D03*
%TD*%
D10*
%TO.P,TP5,1,1*%
%TO.N,Net-(J9-Pin_2)*%
X154402000Y-102460000D03*
%TD*%
D14*
%TO.P,RV1,1,1*%
%TO.N,Net-(D6-A)*%
X141107898Y-57100000D03*
%TO.P,RV1,2,2*%
%TO.N,GND2*%
X142903949Y-58896051D03*
%TO.P,RV1,3,3*%
X144700000Y-57100000D03*
%TD*%
D13*
%TO.P,C5,1*%
%TO.N,/\u53EF\u5909\u4E09\u7AEF\u5B50\u30EC\u30AE\u30E5\u30EC\u30FC\u30BF/VARIABLE*%
X152604000Y-75100000D03*
%TO.P,C5,2*%
%TO.N,GND2*%
X152604000Y-77600000D03*
%TD*%
D26*
%TO.P,D1,1,K*%
%TO.N,Net-(D1-K)*%
X164775000Y-82385000D03*
D14*
%TO.P,D1,2,A*%
%TO.N,LED1*%
X162235000Y-82385000D03*
%TD*%
D11*
%TO.P,RN2,1,common*%
%TO.N,GND1*%
X129180000Y-106955000D03*
D12*
%TO.P,RN2,2,R1*%
%TO.N,Net-(RN2-R1)*%
X129180000Y-104415000D03*
%TO.P,RN2,3,R2*%
%TO.N,Net-(RN2-R2)*%
X129180000Y-101875000D03*
%TO.P,RN2,4,R3*%
%TO.N,Net-(RN2-R3)*%
X129180000Y-99335000D03*
%TO.P,RN2,5,R4*%
%TO.N,Net-(RN2-R4)*%
X129180000Y-96795000D03*
%TD*%
D29*
%TO.N,GND2*%
X185000000Y-110000000D03*
X110000000Y-70000000D03*
X165000000Y-90000000D03*
X135000000Y-70000000D03*
X130000000Y-60000000D03*
X185000000Y-115000000D03*
X145000000Y-60000000D03*
X185000000Y-95000000D03*
X130000000Y-125000000D03*
X140000000Y-120000000D03*
X145000000Y-55000000D03*
X125000000Y-70000000D03*
X155000000Y-70000000D03*
X170000000Y-55000000D03*
X140000000Y-55000000D03*
X170000000Y-95000000D03*
X150000000Y-120000000D03*
X170000000Y-80000000D03*
X125000000Y-65000000D03*
X130000000Y-75000000D03*
X130000000Y-115000000D03*
X135000000Y-120000000D03*
X170000000Y-85000000D03*
X180000000Y-120000000D03*
X185000000Y-105000000D03*
X185000000Y-80000000D03*
X160000000Y-60000000D03*
X125000000Y-55000000D03*
X120000000Y-65000000D03*
X185000000Y-90000000D03*
X105000000Y-65000000D03*
X130000000Y-85000000D03*
X145000000Y-125000000D03*
X180000000Y-55000000D03*
X170000000Y-125000000D03*
X180000000Y-125000000D03*
X180000000Y-60000000D03*
X185000000Y-120000000D03*
X175000000Y-60000000D03*
X160000000Y-90000000D03*
X110000000Y-65000000D03*
X170000000Y-65000000D03*
X160000000Y-115000000D03*
X140000000Y-125000000D03*
X155000000Y-125000000D03*
X135000000Y-125000000D03*
X165000000Y-85000000D03*
X155000000Y-110000000D03*
X140000000Y-80000000D03*
X165000000Y-125000000D03*
X130000000Y-65000000D03*
X160000000Y-85000000D03*
X155000000Y-55000000D03*
X155000000Y-120000000D03*
X155000000Y-115000000D03*
X165000000Y-55000000D03*
X155000000Y-60000000D03*
X170000000Y-75000000D03*
X125000000Y-75000000D03*
X175000000Y-85000000D03*
X150000000Y-60000000D03*
X140000000Y-85000000D03*
X185000000Y-75000000D03*
X115000000Y-75000000D03*
X125000000Y-60000000D03*
X160000000Y-120000000D03*
X160000000Y-70000000D03*
X125000000Y-80000000D03*
X160000000Y-80000000D03*
X130000000Y-70000000D03*
X140000000Y-60000000D03*
X135000000Y-115000000D03*
X185000000Y-100000000D03*
X150000000Y-115000000D03*
X160000000Y-110000000D03*
X130000000Y-120000000D03*
X105000000Y-70000000D03*
X130000000Y-80000000D03*
X150000000Y-125000000D03*
X170000000Y-90000000D03*
X175000000Y-55000000D03*
X170000000Y-60000000D03*
X180000000Y-75000000D03*
X155000000Y-65000000D03*
X150000000Y-110000000D03*
X145000000Y-115000000D03*
X165000000Y-60000000D03*
X160000000Y-55000000D03*
X160000000Y-125000000D03*
X120000000Y-75000000D03*
X165000000Y-65000000D03*
X160000000Y-65000000D03*
X185000000Y-60000000D03*
X145000000Y-120000000D03*
X165000000Y-75000000D03*
X140000000Y-115000000D03*
X165000000Y-80000000D03*
X105000000Y-60000000D03*
X175000000Y-80000000D03*
X120000000Y-60000000D03*
X105000000Y-75000000D03*
X185000000Y-85000000D03*
X135000000Y-110000000D03*
X150000000Y-55000000D03*
X120000000Y-70000000D03*
X175000000Y-75000000D03*
%TO.N,Net-(D6-A)*%
X144500000Y-77640000D03*
%TO.N,GND1*%
X110000000Y-115000000D03*
X125000000Y-85000000D03*
X105000000Y-90000000D03*
X125000000Y-125000000D03*
X115000000Y-80000000D03*
X110000000Y-110000000D03*
X120000000Y-80000000D03*
X120000000Y-95000000D03*
X130000000Y-90000000D03*
X105000000Y-95000000D03*
X105000000Y-85000000D03*
X120000000Y-125000000D03*
X110000000Y-125000000D03*
X105000000Y-115000000D03*
X105000000Y-100000000D03*
X105000000Y-110000000D03*
X105000000Y-80000000D03*
X110000000Y-120000000D03*
X110000000Y-80000000D03*
X110000000Y-95000000D03*
X105000000Y-105000000D03*
X130000000Y-95000000D03*
X105000000Y-120000000D03*
X115000000Y-125000000D03*
X125000000Y-110000000D03*
%TO.N,PWM1*%
X115000000Y-82250000D03*
%TO.N,PWM2*%
X117535000Y-91235000D03*
%TO.N,PWM3*%
X120150000Y-100330000D03*
%TO.N,PWM4*%
X122700000Y-105350000D03*
%TD*%
D30*
%TO.N,GND2*%
X154402000Y-105060000D02*
X151020000Y-105060000D01*
X151000000Y-105560000D02*
X146060000Y-110500000D01*
X151020000Y-105060000D02*
X151000000Y-105040000D01*
X151000000Y-105040000D02*
X151000000Y-105560000D01*
D31*
%TO.N,VCC*%
X149302000Y-68242000D02*
X149302000Y-72560000D01*
X134131370Y-95205000D02*
X133000000Y-95205000D01*
X135500000Y-87625000D02*
X135500000Y-93836370D01*
X135500000Y-73996000D02*
X135500000Y-87625000D01*
X135500000Y-93836370D02*
X134131370Y-95205000D01*
X164418000Y-68242000D02*
X164500000Y-68160000D01*
X135500000Y-103996370D02*
X134131370Y-105365000D01*
X138166000Y-68115000D02*
X138166000Y-71330000D01*
X135500000Y-98916370D02*
X135500000Y-103996370D01*
X138166000Y-68115000D02*
X138166000Y-66166000D01*
X135500000Y-87625000D02*
X133000000Y-90125000D01*
X127200000Y-55100000D02*
X133900000Y-55100000D01*
X138166000Y-71330000D02*
X135500000Y-73996000D01*
X134131370Y-105365000D02*
X133000000Y-105365000D01*
X138166000Y-71330000D02*
X139396000Y-72560000D01*
X134131370Y-100285000D02*
X133000000Y-100285000D01*
X133900000Y-61900000D02*
X133900000Y-55100000D01*
X133000000Y-90125000D02*
X133045000Y-90170000D01*
X138166000Y-66166000D02*
X133900000Y-61900000D01*
X135500000Y-98916370D02*
X134131370Y-100285000D01*
X135500000Y-93836370D02*
X135500000Y-98916370D01*
X149302000Y-68242000D02*
X164418000Y-68242000D01*
X139396000Y-72560000D02*
X149302000Y-72560000D01*
%TO.N,Net-(D6-A)*%
X144476000Y-82255401D02*
X144476000Y-77664000D01*
X139396000Y-77640000D02*
X144500000Y-77640000D01*
X144500000Y-77640000D02*
X146000000Y-77640000D01*
X144476000Y-77664000D02*
X144500000Y-77640000D01*
%TO.N,VAR*%
X163298730Y-72610000D02*
X155950000Y-72610000D01*
X163928730Y-73240000D02*
X163298730Y-72610000D01*
X164500000Y-73240000D02*
X163928730Y-73240000D01*
%TO.N,VSET*%
X164500000Y-70700000D02*
X171300000Y-70700000D01*
X176900000Y-65100000D02*
X186700000Y-65100000D01*
X186700000Y-70300000D02*
X186700000Y-65100000D01*
X184250000Y-72750000D02*
X186700000Y-70300000D01*
X171300000Y-70700000D02*
X176900000Y-65100000D01*
X179100000Y-72750000D02*
X184250000Y-72750000D01*
%TO.N,Net-(J10-Pin_1)*%
X114700000Y-55100000D02*
X116600000Y-57000000D01*
X116600000Y-57000000D02*
X116600000Y-64350000D01*
X111500000Y-55100000D02*
X114700000Y-55100000D01*
X118200000Y-55100000D02*
X116600000Y-56700000D01*
X111500000Y-55100000D02*
X118200000Y-55100000D01*
X116600000Y-56700000D02*
X116600000Y-57000000D01*
D30*
%TO.N,PWM1*%
X115000000Y-82250000D02*
X117505000Y-82250000D01*
X110900000Y-82250000D02*
X115000000Y-82250000D01*
X117505000Y-82250000D02*
X125380000Y-90125000D01*
%TO.N,PWM2*%
X110900000Y-89950000D02*
X110950000Y-90000000D01*
X117535000Y-91235000D02*
X121505000Y-95205000D01*
X110950000Y-90000000D02*
X116300000Y-90000000D01*
X116300000Y-90000000D02*
X117535000Y-91235000D01*
X121505000Y-95205000D02*
X125380000Y-95205000D01*
%TO.N,PWM3*%
X125090000Y-100330000D02*
X125380000Y-100620000D01*
X120150000Y-100330000D02*
X125090000Y-100330000D01*
X119530000Y-100330000D02*
X120150000Y-100330000D01*
X116850000Y-97650000D02*
X119530000Y-100330000D01*
X110900000Y-97650000D02*
X116850000Y-97650000D01*
%TO.N,PWM4*%
X125365000Y-105350000D02*
X125380000Y-105365000D01*
X110900000Y-105350000D02*
X122700000Y-105350000D01*
X122700000Y-105350000D02*
X125365000Y-105350000D01*
%TO.N,Net-(J6-Pin_2)*%
X154402000Y-90098000D02*
X157000000Y-87500000D01*
X169400000Y-82500000D02*
X179100000Y-82500000D01*
X150760000Y-94880000D02*
X151000000Y-94880000D01*
X154402000Y-94610000D02*
X154402000Y-90098000D01*
X157000000Y-87500000D02*
X164400000Y-87500000D01*
X146060000Y-90180000D02*
X150760000Y-94880000D01*
X164400000Y-87500000D02*
X169400000Y-82500000D01*
X151000000Y-94880000D02*
X154132000Y-94880000D01*
X154132000Y-94880000D02*
X154402000Y-94610000D01*
%TO.N,Net-(J7-Pin_2)*%
X154402000Y-97260000D02*
X165040000Y-97260000D01*
X146060000Y-95260000D02*
X148840000Y-95260000D01*
X154242000Y-97420000D02*
X154402000Y-97260000D01*
X169600000Y-92700000D02*
X179100000Y-92700000D01*
X165040000Y-97260000D02*
X169600000Y-92700000D01*
X148840000Y-95260000D02*
X151000000Y-97420000D01*
X151000000Y-97420000D02*
X154242000Y-97420000D01*
%TO.N,Net-(J9-Pin_2)*%
X146060000Y-105420000D02*
X147080000Y-105420000D01*
X154402000Y-102460000D02*
X161192000Y-109250000D01*
X168300000Y-113100000D02*
X179100000Y-113100000D01*
X151000000Y-102500000D02*
X154362000Y-102500000D01*
X147080000Y-105420000D02*
X150000000Y-102500000D01*
X150000000Y-102500000D02*
X151000000Y-102500000D01*
X161192000Y-109250000D02*
X164450000Y-109250000D01*
X154362000Y-102500000D02*
X154402000Y-102460000D01*
X164450000Y-109250000D02*
X168300000Y-113100000D01*
%TO.N,Net-(RN2-R4)*%
X125380000Y-92665000D02*
X126165000Y-92665000D01*
X126165000Y-92665000D02*
X129180000Y-95680000D01*
X129180000Y-96790000D02*
X129175000Y-96795000D01*
X129180000Y-95680000D02*
X129180000Y-96790000D01*
%TO.N,Net-(RN2-R3)*%
X127925000Y-98080000D02*
X129180000Y-99335000D01*
X125380000Y-98080000D02*
X127925000Y-98080000D01*
%TO.N,Net-(RN2-R2)*%
X125380000Y-103160000D02*
X127895000Y-103160000D01*
X127895000Y-103160000D02*
X129180000Y-101875000D01*
%TO.N,Net-(RN2-R1)*%
X125715000Y-107905000D02*
X129180000Y-104440000D01*
X125380000Y-107905000D02*
X125715000Y-107905000D01*
%TO.N,Net-(J8-Pin_2)*%
X146060000Y-100340000D02*
X150620000Y-100340000D01*
X166160000Y-99860000D02*
X169200000Y-102900000D01*
X150620000Y-100340000D02*
X151000000Y-99960000D01*
X169200000Y-102900000D02*
X179100000Y-102900000D01*
X151000000Y-99960000D02*
X154302000Y-99960000D01*
X154402000Y-99860000D02*
X166160000Y-99860000D01*
X154302000Y-99960000D02*
X154402000Y-99860000D01*
D31*
%TO.N,/\u53EF\u5909\u4E09\u7AEF\u5B50\u30EC\u30AE\u30E5\u30EC\u30FC\u30BF/VARIABLE*%
X149302000Y-75100000D02*
X149302000Y-82244000D01*
X155900000Y-75100000D02*
X155950000Y-75150000D01*
X139396000Y-75100000D02*
X155900000Y-75100000D01*
%TD*%
%TA.AperFunction,Conductor*%
%TO.N,GND1*%
G36*
X119025706Y-79019685D02*
G01*
X119033062Y-79024796D01*
X124945564Y-83459173D01*
X130950400Y-87962800D01*
X130992221Y-88018771D01*
X131000000Y-88062000D01*
X131000000Y-109376000D01*
X130980315Y-109443039D01*
X130927511Y-109488794D01*
X130876000Y-109500000D01*
X128500000Y-109500000D01*
X128500000Y-128876000D01*
X128480315Y-128943039D01*
X128427511Y-128988794D01*
X128376000Y-129000000D01*
X105034345Y-129000000D01*
X104970548Y-128982329D01*
X102526582Y-127515949D01*
X102484050Y-127473417D01*
X101017671Y-125029451D01*
X101000000Y-124965654D01*
X101000000Y-124878711D01*
X103149500Y-124878711D01*
X103149500Y-125121288D01*
X103181161Y-125361785D01*
X103243947Y-125596104D01*
X103322343Y-125785368D01*
X103336776Y-125820212D01*
X103458064Y-126030289D01*
X103458066Y-126030292D01*
X103458067Y-126030293D01*
X103605733Y-126222736D01*
X103605739Y-126222743D01*
X103777256Y-126394260D01*
X103777262Y-126394265D01*
X103969711Y-126541936D01*
X104179788Y-126663224D01*
X104403900Y-126756054D01*
X104638211Y-126818838D01*
X104818586Y-126842584D01*
X104878711Y-126850500D01*
X104878712Y-126850500D01*
X105121289Y-126850500D01*
X105169388Y-126844167D01*
X105361789Y-126818838D01*
X105596100Y-126756054D01*
X105820212Y-126663224D01*
X106030289Y-126541936D01*
X106222738Y-126394265D01*
X106394265Y-126222738D01*
X106541936Y-126030289D01*
X106663224Y-125820212D01*
X106756054Y-125596100D01*
X106818838Y-125361789D01*
X106850500Y-125121288D01*
X106850500Y-124878712D01*
X106818838Y-124638211D01*
X106756054Y-124403900D01*
X106663224Y-124179788D01*
X106541936Y-123969711D01*
X106394265Y-123777262D01*
X106394260Y-123777256D01*
X106222743Y-123605739D01*
X106222736Y-123605733D01*
X106030293Y-123458067D01*
X106030292Y-123458066D01*
X106030289Y-123458064D01*
X105820212Y-123336776D01*
X105820205Y-123336773D01*
X105596104Y-123243947D01*
X105361785Y-123181161D01*
X105121289Y-123149500D01*
X105121288Y-123149500D01*
X104878712Y-123149500D01*
X104878711Y-123149500D01*
X104638214Y-123181161D01*
X104403895Y-123243947D01*
X104179794Y-123336773D01*
X104179785Y-123336777D01*
X103969706Y-123458067D01*
X103777263Y-123605733D01*
X103777256Y-123605739D01*
X103605739Y-123777256D01*
X103605733Y-123777263D01*
X103458067Y-123969706D01*
X103336777Y-124179785D01*
X103336773Y-124179794D01*
X103243947Y-124403895D01*
X103181161Y-124638214D01*
X103149500Y-124878711D01*
X101000000Y-124878711D01*
X101000000Y-119046993D01*
X113767700Y-119046993D01*
X113767700Y-119047006D01*
X113786864Y-119278297D01*
X113786866Y-119278308D01*
X113843842Y-119503300D01*
X113937075Y-119715848D01*
X114064016Y-119910147D01*
X114064019Y-119910151D01*
X114064021Y-119910153D01*
X114221216Y-120080913D01*
X114221219Y-120080915D01*
X114221222Y-120080918D01*
X114404365Y-120223464D01*
X114404371Y-120223468D01*
X114404374Y-120223470D01*
X114571860Y-120314109D01*
X114607652Y-120333479D01*
X114608497Y-120333936D01*
X114722487Y-120373068D01*
X114828015Y-120409297D01*
X114828017Y-120409297D01*
X114828019Y-120409298D01*
X115056951Y-120447500D01*
X115056952Y-120447500D01*
X115289048Y-120447500D01*
X115289049Y-120447500D01*
X115517981Y-120409298D01*
X115737503Y-120333936D01*
X115941626Y-120223470D01*
X115942170Y-120223047D01*
X116003129Y-120175600D01*
X116124784Y-120080913D01*
X116281979Y-119910153D01*
X116319191Y-119853196D01*
X116372337Y-119807839D01*
X116441569Y-119798415D01*
X116504904Y-119827917D01*
X116526809Y-119853196D01*
X116564016Y-119910147D01*
X116564019Y-119910151D01*
X116564021Y-119910153D01*
X116721216Y-120080913D01*
X116721219Y-120080915D01*
X116721222Y-120080918D01*
X116904365Y-120223464D01*
X116904371Y-120223468D01*
X116904374Y-120223470D01*
X117071860Y-120314109D01*
X117107652Y-120333479D01*
X117108497Y-120333936D01*
X117222487Y-120373068D01*
X117328015Y-120409297D01*
X117328017Y-120409297D01*
X117328019Y-120409298D01*
X117556951Y-120447500D01*
X117556952Y-120447500D01*
X117789048Y-120447500D01*
X117789049Y-120447500D01*
X118017981Y-120409298D01*
X118237503Y-120333936D01*
X118441626Y-120223470D01*
X118442170Y-120223047D01*
X118503129Y-120175600D01*
X118624784Y-120080913D01*
X118781979Y-119910153D01*
X118819191Y-119853196D01*
X118872337Y-119807839D01*
X118941569Y-119798415D01*
X119004904Y-119827917D01*
X119026809Y-119853196D01*
X119064016Y-119910147D01*
X119064019Y-119910151D01*
X119064021Y-119910153D01*
X119221216Y-120080913D01*
X119221219Y-120080915D01*
X119221222Y-120080918D01*
X119404365Y-120223464D01*
X119404371Y-120223468D01*
X119404374Y-120223470D01*
X119571860Y-120314109D01*
X119607652Y-120333479D01*
X119608497Y-120333936D01*
X119722487Y-120373068D01*
X119828015Y-120409297D01*
X119828017Y-120409297D01*
X119828019Y-120409298D01*
X120056951Y-120447500D01*
X120056952Y-120447500D01*
X120289048Y-120447500D01*
X120289049Y-120447500D01*
X120517981Y-120409298D01*
X120737503Y-120333936D01*
X120941626Y-120223470D01*
X120942170Y-120223047D01*
X121003129Y-120175600D01*
X121124784Y-120080913D01*
X121281979Y-119910153D01*
X121319191Y-119853196D01*
X121372337Y-119807839D01*
X121441569Y-119798415D01*
X121504904Y-119827917D01*
X121526809Y-119853196D01*
X121564016Y-119910147D01*
X121564019Y-119910151D01*
X121564021Y-119910153D01*
X121721216Y-120080913D01*
X121721219Y-120080915D01*
X121721222Y-120080918D01*
X121904365Y-120223464D01*
X121904371Y-120223468D01*
X121904374Y-120223470D01*
X122071860Y-120314109D01*
X122107652Y-120333479D01*
X122108497Y-120333936D01*
X122222487Y-120373068D01*
X122328015Y-120409297D01*
X122328017Y-120409297D01*
X122328019Y-120409298D01*
X122556951Y-120447500D01*
X122556952Y-120447500D01*
X122789048Y-120447500D01*
X122789049Y-120447500D01*
X123017981Y-120409298D01*
X123237503Y-120333936D01*
X123441626Y-120223470D01*
X123442170Y-120223047D01*
X123503129Y-120175600D01*
X123624784Y-120080913D01*
X123781979Y-119910153D01*
X123819491Y-119852736D01*
X123872634Y-119807382D01*
X123941865Y-119797957D01*
X124005201Y-119827458D01*
X124019914Y-119844436D01*
X124021812Y-119844633D01*
X124690037Y-119176408D01*
X124707075Y-119239993D01*
X124772901Y-119354007D01*
X124865993Y-119447099D01*
X124980007Y-119512925D01*
X125043590Y-119529962D01*
X124374201Y-120199351D01*
X124404649Y-120223050D01*
X124608697Y-120333476D01*
X124608706Y-120333479D01*
X124828139Y-120408811D01*
X125056993Y-120447000D01*
X125289007Y-120447000D01*
X125517860Y-120408811D01*
X125737293Y-120333479D01*
X125737301Y-120333476D01*
X125941355Y-120223047D01*
X125971797Y-120199351D01*
X125971798Y-120199350D01*
X125302410Y-119529962D01*
X125365993Y-119512925D01*
X125480007Y-119447099D01*
X125573099Y-119354007D01*
X125638925Y-119239993D01*
X125655962Y-119176409D01*
X126324186Y-119844633D01*
X126408482Y-119715611D01*
X126501682Y-119503135D01*
X126558638Y-119278218D01*
X126577798Y-119047005D01*
X126577798Y-119046994D01*
X126558638Y-118815781D01*
X126501682Y-118590864D01*
X126408484Y-118378393D01*
X126324186Y-118249365D01*
X125655962Y-118917589D01*
X125638925Y-118854007D01*
X125573099Y-118739993D01*
X125480007Y-118646901D01*
X125365993Y-118581075D01*
X125302409Y-118564037D01*
X125971797Y-117894647D01*
X125971797Y-117894645D01*
X125941360Y-117870955D01*
X125941354Y-117870951D01*
X125737302Y-117760523D01*
X125737293Y-117760520D01*
X125517860Y-117685188D01*
X125289007Y-117647000D01*
X125056993Y-117647000D01*
X124828139Y-117685188D01*
X124608706Y-117760520D01*
X124608697Y-117760523D01*
X124404650Y-117870949D01*
X124374200Y-117894647D01*
X125043591Y-118564037D01*
X124980007Y-118581075D01*
X124865993Y-118646901D01*
X124772901Y-118739993D01*
X124707075Y-118854007D01*
X124690037Y-118917591D01*
X124021811Y-118249365D01*
X124017029Y-118249861D01*
X123973959Y-118286618D01*
X123904728Y-118296041D01*
X123841392Y-118266538D01*
X123819489Y-118241260D01*
X123781983Y-118183852D01*
X123781980Y-118183849D01*
X123781979Y-118183847D01*
X123624784Y-118013087D01*
X123624779Y-118013083D01*
X123624777Y-118013081D01*
X123441634Y-117870535D01*
X123441628Y-117870531D01*
X123237504Y-117760064D01*
X123237495Y-117760061D01*
X123017984Y-117684702D01*
X122846282Y-117656050D01*
X122789049Y-117646500D01*
X122556951Y-117646500D01*
X122511164Y-117654140D01*
X122328015Y-117684702D01*
X122108504Y-117760061D01*
X122108495Y-117760064D01*
X121904371Y-117870531D01*
X121904365Y-117870535D01*
X121721222Y-118013081D01*
X121721219Y-118013084D01*
X121564015Y-118183854D01*
X121526808Y-118240804D01*
X121473662Y-118286161D01*
X121404430Y-118295584D01*
X121341095Y-118266082D01*
X121319192Y-118240804D01*
X121281984Y-118183854D01*
X121281982Y-118183852D01*
X121281979Y-118183847D01*
X121124784Y-118013087D01*
X121124779Y-118013083D01*
X121124777Y-118013081D01*
X120941634Y-117870535D01*
X120941628Y-117870531D01*
X120737504Y-117760064D01*
X120737495Y-117760061D01*
X120517984Y-117684702D01*
X120346282Y-117656050D01*
X120289049Y-117646500D01*
X120056951Y-117646500D01*
X120011164Y-117654140D01*
X119828015Y-117684702D01*
X119608504Y-117760061D01*
X119608495Y-117760064D01*
X119404371Y-117870531D01*
X119404365Y-117870535D01*
X119221222Y-118013081D01*
X119221219Y-118013084D01*
X119064015Y-118183854D01*
X119026808Y-118240804D01*
X118973662Y-118286161D01*
X118904430Y-118295584D01*
X118841095Y-118266082D01*
X118819192Y-118240804D01*
X118781984Y-118183854D01*
X118781982Y-118183852D01*
X118781979Y-118183847D01*
X118624784Y-118013087D01*
X118624779Y-118013083D01*
X118624777Y-118013081D01*
X118441634Y-117870535D01*
X118441628Y-117870531D01*
X118237504Y-117760064D01*
X118237495Y-117760061D01*
X118017984Y-117684702D01*
X117846282Y-117656050D01*
X117789049Y-117646500D01*
X117556951Y-117646500D01*
X117511164Y-117654140D01*
X117328015Y-117684702D01*
X117108504Y-117760061D01*
X117108495Y-117760064D01*
X116904371Y-117870531D01*
X116904365Y-117870535D01*
X116721222Y-118013081D01*
X116721219Y-118013084D01*
X116564015Y-118183854D01*
X116526808Y-118240804D01*
X116473662Y-118286161D01*
X116404430Y-118295584D01*
X116341095Y-118266082D01*
X116319192Y-118240804D01*
X116281984Y-118183854D01*
X116281982Y-118183852D01*
X116281979Y-118183847D01*
X116124784Y-118013087D01*
X116124779Y-118013083D01*
X116124777Y-118013081D01*
X115941634Y-117870535D01*
X115941628Y-117870531D01*
X115737504Y-117760064D01*
X115737495Y-117760061D01*
X115517984Y-117684702D01*
X115346282Y-117656050D01*
X115289049Y-117646500D01*
X115056951Y-117646500D01*
X115011164Y-117654140D01*
X114828015Y-117684702D01*
X114608504Y-117760061D01*
X114608495Y-117760064D01*
X114404371Y-117870531D01*
X114404365Y-117870535D01*
X114221222Y-118013081D01*
X114221219Y-118013084D01*
X114064016Y-118183852D01*
X113937075Y-118378151D01*
X113843842Y-118590699D01*
X113786866Y-118815691D01*
X113786864Y-118815702D01*
X113767700Y-119046993D01*
X101000000Y-119046993D01*
X101000000Y-114646997D01*
X113744723Y-114646997D01*
X113744723Y-114647002D01*
X113763793Y-114864975D01*
X113763793Y-114864979D01*
X113820422Y-115076322D01*
X113820424Y-115076326D01*
X113820425Y-115076330D01*
X113823117Y-115082102D01*
X113912897Y-115274638D01*
X113937998Y-115310486D01*
X114038402Y-115453877D01*
X114193123Y-115608598D01*
X114372361Y-115734102D01*
X114570670Y-115826575D01*
X114782023Y-115883207D01*
X114964926Y-115899208D01*
X114999998Y-115902277D01*
X115000000Y-115902277D01*
X115000002Y-115902277D01*
X115028254Y-115899805D01*
X115217977Y-115883207D01*
X115429330Y-115826575D01*
X115627639Y-115734102D01*
X115806877Y-115608598D01*
X115961598Y-115453877D01*
X116087102Y-115274639D01*
X116174118Y-115088031D01*
X116220290Y-115035593D01*
X116287484Y-115016441D01*
X116354365Y-115036657D01*
X116398882Y-115088032D01*
X116485897Y-115274638D01*
X116510998Y-115310486D01*
X116611402Y-115453877D01*
X116766123Y-115608598D01*
X116945361Y-115734102D01*
X117143670Y-115826575D01*
X117355023Y-115883207D01*
X117537926Y-115899208D01*
X117572998Y-115902277D01*
X117573000Y-115902277D01*
X117573002Y-115902277D01*
X117601254Y-115899805D01*
X117790977Y-115883207D01*
X118002330Y-115826575D01*
X118200639Y-115734102D01*
X118379877Y-115608598D01*
X118534598Y-115453877D01*
X118660102Y-115274639D01*
X118749118Y-115083742D01*
X118795290Y-115031304D01*
X118862484Y-115012152D01*
X118929365Y-115032368D01*
X118973882Y-115083743D01*
X119062897Y-115274638D01*
X119087998Y-115310486D01*
X119188402Y-115453877D01*
X119343123Y-115608598D01*
X119522361Y-115734102D01*
X119720670Y-115826575D01*
X119932023Y-115883207D01*
X120114926Y-115899208D01*
X120149998Y-115902277D01*
X120150000Y-115902277D01*
X120150002Y-115902277D01*
X120178254Y-115899805D01*
X120367977Y-115883207D01*
X120579330Y-115826575D01*
X120777639Y-115734102D01*
X120956877Y-115608598D01*
X121111598Y-115453877D01*
X121237102Y-115274639D01*
X121315649Y-115106193D01*
X121361821Y-115053754D01*
X121429015Y-115034602D01*
X121495896Y-115054818D01*
X121540412Y-115106193D01*
X121612898Y-115261639D01*
X121738402Y-115440877D01*
X121893123Y-115595598D01*
X122072361Y-115721102D01*
X122270670Y-115813575D01*
X122482023Y-115870207D01*
X122664926Y-115886208D01*
X122699998Y-115889277D01*
X122700000Y-115889277D01*
X122700002Y-115889277D01*
X122728254Y-115886805D01*
X122917977Y-115870207D01*
X123129330Y-115813575D01*
X123327639Y-115721102D01*
X123439003Y-115643124D01*
X124560427Y-115643124D01*
X124622612Y-115686666D01*
X124820840Y-115779101D01*
X124820849Y-115779105D01*
X125032105Y-115835710D01*
X125032115Y-115835712D01*
X125249999Y-115854775D01*
X125250001Y-115854775D01*
X125467884Y-115835712D01*
X125467894Y-115835710D01*
X125679150Y-115779105D01*
X125679164Y-115779100D01*
X125877383Y-115686669D01*
X125877385Y-115686668D01*
X125939571Y-115643124D01*
X125250001Y-114953553D01*
X125250000Y-114953553D01*
X124560427Y-115643124D01*
X123439003Y-115643124D01*
X123506877Y-115595598D01*
X123661598Y-115440877D01*
X123787102Y-115261639D01*
X123870822Y-115082100D01*
X123916993Y-115029662D01*
X123984186Y-115010510D01*
X124051068Y-115030725D01*
X124095585Y-115082101D01*
X124163333Y-115227387D01*
X124206874Y-115289571D01*
X124896446Y-114600000D01*
X124850368Y-114553922D01*
X124900000Y-114553922D01*
X124900000Y-114646078D01*
X124923852Y-114735095D01*
X124969930Y-114814905D01*
X125035095Y-114880070D01*
X125114905Y-114926148D01*
X125203922Y-114950000D01*
X125296078Y-114950000D01*
X125385095Y-114926148D01*
X125464905Y-114880070D01*
X125530070Y-114814905D01*
X125576148Y-114735095D01*
X125600000Y-114646078D01*
X125600000Y-114599999D01*
X125603553Y-114599999D01*
X125603553Y-114600000D01*
X126293124Y-115289570D01*
X126336668Y-115227385D01*
X126336669Y-115227383D01*
X126429100Y-115029164D01*
X126429105Y-115029150D01*
X126485710Y-114817894D01*
X126485712Y-114817884D01*
X126504775Y-114600000D01*
X126504775Y-114599999D01*
X126485712Y-114382115D01*
X126485710Y-114382105D01*
X126429105Y-114170849D01*
X126429101Y-114170840D01*
X126336667Y-113972614D01*
X126336666Y-113972612D01*
X126293124Y-113910428D01*
X126293124Y-113910427D01*
X125603553Y-114599999D01*
X125600000Y-114599999D01*
X125600000Y-114553922D01*
X125576148Y-114464905D01*
X125530070Y-114385095D01*
X125464905Y-114319930D01*
X125385095Y-114273852D01*
X125296078Y-114250000D01*
X125203922Y-114250000D01*
X125114905Y-114273852D01*
X125035095Y-114319930D01*
X124969930Y-114385095D01*
X124923852Y-114464905D01*
X124900000Y-114553922D01*
X124850368Y-114553922D01*
X124206874Y-113910428D01*
X124163333Y-113972613D01*
X124079730Y-114151898D01*
X124033557Y-114204337D01*
X123966364Y-114223489D01*
X123899482Y-114203273D01*
X123854967Y-114151900D01*
X123787102Y-114006362D01*
X123787100Y-114006359D01*
X123787099Y-114006357D01*
X123661599Y-113827124D01*
X123661596Y-113827121D01*
X123506877Y-113672402D01*
X123346205Y-113559898D01*
X123341886Y-113556874D01*
X124560428Y-113556874D01*
X125250000Y-114246446D01*
X125250001Y-114246446D01*
X125939571Y-113556874D01*
X125877387Y-113513333D01*
X125679159Y-113420898D01*
X125679150Y-113420894D01*
X125467894Y-113364289D01*
X125467884Y-113364287D01*
X125250001Y-113345225D01*
X125249999Y-113345225D01*
X125032115Y-113364287D01*
X125032105Y-113364289D01*
X124820849Y-113420894D01*
X124820840Y-113420898D01*
X124622613Y-113513333D01*
X124560428Y-113556874D01*
X123341886Y-113556874D01*
X123327638Y-113546897D01*
X123228484Y-113500661D01*
X123129330Y-113454425D01*
X123129326Y-113454424D01*
X123129322Y-113454422D01*
X122917977Y-113397793D01*
X122700002Y-113378723D01*
X122699998Y-113378723D01*
X122554682Y-113391436D01*
X122482023Y-113397793D01*
X122482020Y-113397793D01*
X122270677Y-113454422D01*
X122270668Y-113454426D01*
X122072361Y-113546898D01*
X122072357Y-113546900D01*
X121893121Y-113672402D01*
X121738402Y-113827121D01*
X121612900Y-114006357D01*
X121612898Y-114006362D01*
X121534350Y-114174806D01*
X121488177Y-114227245D01*
X121420983Y-114246397D01*
X121354102Y-114226181D01*
X121309587Y-114174806D01*
X121237102Y-114019362D01*
X121237100Y-114019359D01*
X121237099Y-114019357D01*
X121111599Y-113840124D01*
X121098596Y-113827121D01*
X120956877Y-113685402D01*
X120777639Y-113559898D01*
X120777640Y-113559898D01*
X120777638Y-113559897D01*
X120677780Y-113513333D01*
X120579330Y-113467425D01*
X120579326Y-113467424D01*
X120579322Y-113467422D01*
X120367977Y-113410793D01*
X120150002Y-113391723D01*
X120149998Y-113391723D01*
X120004682Y-113404436D01*
X119932023Y-113410793D01*
X119932020Y-113410793D01*
X119720677Y-113467422D01*
X119720668Y-113467426D01*
X119522361Y-113559898D01*
X119522357Y-113559900D01*
X119343121Y-113685402D01*
X119188402Y-113840121D01*
X119062900Y-114019357D01*
X119062898Y-114019361D01*
X118973882Y-114210256D01*
X118927709Y-114262695D01*
X118860516Y-114281847D01*
X118793635Y-114261631D01*
X118749118Y-114210256D01*
X118660103Y-114019365D01*
X118660102Y-114019362D01*
X118660100Y-114019359D01*
X118660099Y-114019357D01*
X118534599Y-113840124D01*
X118521596Y-113827121D01*
X118379877Y-113685402D01*
X118200639Y-113559898D01*
X118200640Y-113559898D01*
X118200638Y-113559897D01*
X118100780Y-113513333D01*
X118002330Y-113467425D01*
X118002326Y-113467424D01*
X118002322Y-113467422D01*
X117790977Y-113410793D01*
X117573002Y-113391723D01*
X117572998Y-113391723D01*
X117427682Y-113404436D01*
X117355023Y-113410793D01*
X117355020Y-113410793D01*
X117143677Y-113467422D01*
X117143668Y-113467426D01*
X116945361Y-113559898D01*
X116945357Y-113559900D01*
X116766121Y-113685402D01*
X116611402Y-113840121D01*
X116485900Y-114019357D01*
X116485898Y-114019361D01*
X116398882Y-114205967D01*
X116352709Y-114258406D01*
X116285516Y-114277558D01*
X116218635Y-114257342D01*
X116174118Y-114205967D01*
X116087103Y-114019365D01*
X116087102Y-114019362D01*
X116087100Y-114019359D01*
X116087099Y-114019357D01*
X115961599Y-113840124D01*
X115948596Y-113827121D01*
X115806877Y-113685402D01*
X115627639Y-113559898D01*
X115627640Y-113559898D01*
X115627638Y-113559897D01*
X115527780Y-113513333D01*
X115429330Y-113467425D01*
X115429326Y-113467424D01*
X115429322Y-113467422D01*
X115217977Y-113410793D01*
X115000002Y-113391723D01*
X114999998Y-113391723D01*
X114854682Y-113404436D01*
X114782023Y-113410793D01*
X114782020Y-113410793D01*
X114570677Y-113467422D01*
X114570668Y-113467426D01*
X114372361Y-113559898D01*
X114372357Y-113559900D01*
X114193121Y-113685402D01*
X114038402Y-113840121D01*
X113912900Y-114019357D01*
X113912898Y-114019361D01*
X113820426Y-114217668D01*
X113820422Y-114217677D01*
X113763793Y-114429020D01*
X113763793Y-114429024D01*
X113744723Y-114646997D01*
X101000000Y-114646997D01*
X101000000Y-82249993D01*
X109494700Y-82249993D01*
X109494700Y-82250006D01*
X109513864Y-82481297D01*
X109513866Y-82481308D01*
X109570842Y-82706300D01*
X109664075Y-82918848D01*
X109791016Y-83113147D01*
X109791019Y-83113151D01*
X109791021Y-83113153D01*
X109948216Y-83283913D01*
X109948219Y-83283915D01*
X109948222Y-83283918D01*
X110100528Y-83402463D01*
X110141341Y-83459173D01*
X110145016Y-83528946D01*
X110110384Y-83589629D01*
X110101205Y-83597582D01*
X110101200Y-83597647D01*
X110770591Y-84267037D01*
X110707007Y-84284075D01*
X110592993Y-84349901D01*
X110499901Y-84442993D01*
X110434075Y-84557007D01*
X110417037Y-84620591D01*
X109748811Y-83952365D01*
X109664516Y-84081390D01*
X109571317Y-84293864D01*
X109514361Y-84518781D01*
X109495202Y-84749994D01*
X109495202Y-84750005D01*
X109514361Y-84981218D01*
X109571317Y-85206135D01*
X109664515Y-85418606D01*
X109748812Y-85547633D01*
X110417037Y-84879408D01*
X110434075Y-84942993D01*
X110499901Y-85057007D01*
X110592993Y-85150099D01*
X110707007Y-85215925D01*
X110770590Y-85232962D01*
X110101201Y-85902351D01*
X110131649Y-85926050D01*
X110335697Y-86036476D01*
X110335706Y-86036479D01*
X110555139Y-86111811D01*
X110783993Y-86150000D01*
X111016007Y-86150000D01*
X111244860Y-86111811D01*
X111464293Y-86036479D01*
X111464301Y-86036476D01*
X111668355Y-85926047D01*
X111698797Y-85902351D01*
X111698798Y-85902350D01*
X111029410Y-85232962D01*
X111092993Y-85215925D01*
X111207007Y-85150099D01*
X111300099Y-85057007D01*
X111365925Y-84942993D01*
X111382962Y-84879409D01*
X112051186Y-85547633D01*
X112135482Y-85418611D01*
X112228682Y-85206135D01*
X112285638Y-84981218D01*
X112304798Y-84750005D01*
X112304798Y-84749994D01*
X112285638Y-84518781D01*
X112228682Y-84293864D01*
X112135484Y-84081393D01*
X112051186Y-83952365D01*
X111382962Y-84620589D01*
X111365925Y-84557007D01*
X111300099Y-84442993D01*
X111207007Y-84349901D01*
X111092993Y-84284075D01*
X111029409Y-84267037D01*
X111698797Y-83597647D01*
X111698769Y-83597197D01*
X111658656Y-83541459D01*
X111654982Y-83471686D01*
X111689614Y-83411003D01*
X111699455Y-83402474D01*
X111851784Y-83283913D01*
X112008979Y-83113153D01*
X112015914Y-83102537D01*
X112045877Y-83056678D01*
X112099023Y-83011322D01*
X112149685Y-83000500D01*
X114700028Y-83000500D01*
X114740982Y-83007457D01*
X114820745Y-83035368D01*
X114820750Y-83035369D01*
X114999996Y-83055565D01*
X115000000Y-83055565D01*
X115000004Y-83055565D01*
X115179249Y-83035369D01*
X115179252Y-83035368D01*
X115179255Y-83035368D01*
X115259017Y-83007457D01*
X115299972Y-83000500D01*
X117142770Y-83000500D01*
X117209809Y-83020185D01*
X117230451Y-83036819D01*
X124043181Y-89849549D01*
X124076666Y-89910872D01*
X124079500Y-89937230D01*
X124079500Y-90972870D01*
X124079501Y-90972876D01*
X124085908Y-91032483D01*
X124136202Y-91167328D01*
X124136206Y-91167335D01*
X124222452Y-91282544D01*
X124222455Y-91282547D01*
X124337664Y-91368793D01*
X124337671Y-91368797D01*
X124382618Y-91385561D01*
X124472517Y-91419091D01*
X124507596Y-91422862D01*
X124572144Y-91449599D01*
X124611993Y-91506991D01*
X124614488Y-91576816D01*
X124578836Y-91636905D01*
X124565464Y-91647725D01*
X124540858Y-91664954D01*
X124379954Y-91825858D01*
X124249432Y-92012265D01*
X124249431Y-92012267D01*
X124153261Y-92218502D01*
X124153258Y-92218511D01*
X124094366Y-92438302D01*
X124094364Y-92438313D01*
X124074532Y-92664998D01*
X124074532Y-92665001D01*
X124094364Y-92891686D01*
X124094366Y-92891697D01*
X124153258Y-93111488D01*
X124153261Y-93111497D01*
X124249431Y-93317732D01*
X124249432Y-93317734D01*
X124379954Y-93504141D01*
X124540858Y-93665045D01*
X124540861Y-93665047D01*
X124727266Y-93795568D01*
X124785275Y-93822618D01*
X124837714Y-93868791D01*
X124856866Y-93935984D01*
X124836650Y-94002865D01*
X124785275Y-94047382D01*
X124727267Y-94074431D01*
X124727265Y-94074432D01*
X124540858Y-94204954D01*
X124379954Y-94365858D01*
X124354912Y-94401623D01*
X124300335Y-94445248D01*
X124253337Y-94454500D01*
X121867230Y-94454500D01*
X121800191Y-94434815D01*
X121779549Y-94418181D01*
X118288307Y-90926939D01*
X118265653Y-90890869D01*
X118263813Y-90891756D01*
X118260792Y-90885484D01*
X118260789Y-90885480D01*
X118260789Y-90885478D01*
X118164816Y-90732738D01*
X118037262Y-90605184D01*
X117884522Y-90509211D01*
X117884516Y-90509207D01*
X117878247Y-90506188D01*
X117879129Y-90504356D01*
X117843060Y-90481692D01*
X116778421Y-89417052D01*
X116778420Y-89417051D01*
X116703584Y-89367048D01*
X116703583Y-89367047D01*
X116655501Y-89334919D01*
X116655488Y-89334912D01*
X116518917Y-89278343D01*
X116518907Y-89278340D01*
X116373920Y-89249500D01*
X116373918Y-89249500D01*
X112182351Y-89249500D01*
X112115312Y-89229815D01*
X112078542Y-89193321D01*
X112008983Y-89086852D01*
X112008980Y-89086849D01*
X112008979Y-89086847D01*
X111851784Y-88916087D01*
X111851779Y-88916083D01*
X111851777Y-88916081D01*
X111668634Y-88773535D01*
X111668628Y-88773531D01*
X111464504Y-88663064D01*
X111464495Y-88663061D01*
X111244984Y-88587702D01*
X111073282Y-88559050D01*
X111016049Y-88549500D01*
X110783951Y-88549500D01*
X110738164Y-88557140D01*
X110555015Y-88587702D01*
X110335504Y-88663061D01*
X110335495Y-88663064D01*
X110131371Y-88773531D01*
X110131365Y-88773535D01*
X109948222Y-88916081D01*
X109948219Y-88916084D01*
X109791016Y-89086852D01*
X109664075Y-89281151D01*
X109570842Y-89493699D01*
X109513866Y-89718691D01*
X109513864Y-89718702D01*
X109494700Y-89949993D01*
X109494700Y-89950006D01*
X109513864Y-90181297D01*
X109513866Y-90181308D01*
X109570842Y-90406300D01*
X109664075Y-90618848D01*
X109791016Y-90813147D01*
X109791019Y-90813150D01*
X109791021Y-90813153D01*
X109948216Y-90983913D01*
X109948219Y-90983915D01*
X109948222Y-90983918D01*
X110100528Y-91102463D01*
X110141341Y-91159173D01*
X110145016Y-91228946D01*
X110110384Y-91289629D01*
X110101205Y-91297582D01*
X110101200Y-91297647D01*
X110770591Y-91967037D01*
X110707007Y-91984075D01*
X110592993Y-92049901D01*
X110499901Y-92142993D01*
X110434075Y-92257007D01*
X110417037Y-92320591D01*
X109748811Y-91652365D01*
X109664516Y-91781390D01*
X109571317Y-91993864D01*
X109514361Y-92218781D01*
X109495202Y-92449994D01*
X109495202Y-92450005D01*
X109514361Y-92681218D01*
X109571317Y-92906135D01*
X109664515Y-93118606D01*
X109748812Y-93247633D01*
X110417037Y-92579408D01*
X110434075Y-92642993D01*
X110499901Y-92757007D01*
X110592993Y-92850099D01*
X110707007Y-92915925D01*
X110770590Y-92932962D01*
X110101201Y-93602351D01*
X110131649Y-93626050D01*
X110335697Y-93736476D01*
X110335706Y-93736479D01*
X110555139Y-93811811D01*
X110783993Y-93850000D01*
X111016007Y-93850000D01*
X111244860Y-93811811D01*
X111464293Y-93736479D01*
X111464301Y-93736476D01*
X111668355Y-93626047D01*
X111698797Y-93602351D01*
X111698798Y-93602350D01*
X111029410Y-92932962D01*
X111092993Y-92915925D01*
X111207007Y-92850099D01*
X111300099Y-92757007D01*
X111365925Y-92642993D01*
X111382962Y-92579409D01*
X112051186Y-93247633D01*
X112135482Y-93118611D01*
X112228682Y-92906135D01*
X112285638Y-92681218D01*
X112304798Y-92450005D01*
X112304798Y-92449994D01*
X112285638Y-92218781D01*
X112228682Y-91993864D01*
X112135484Y-91781393D01*
X112051186Y-91652365D01*
X111382962Y-92320589D01*
X111365925Y-92257007D01*
X111300099Y-92142993D01*
X111207007Y-92049901D01*
X111092993Y-91984075D01*
X111029409Y-91967037D01*
X111698797Y-91297647D01*
X111698769Y-91297197D01*
X111658656Y-91241459D01*
X111654982Y-91171686D01*
X111689614Y-91111003D01*
X111699455Y-91102474D01*
X111851784Y-90983913D01*
X112008979Y-90813153D01*
X112013209Y-90806679D01*
X112066355Y-90761322D01*
X112117018Y-90750500D01*
X115937770Y-90750500D01*
X116004809Y-90770185D01*
X116025451Y-90786819D01*
X116781692Y-91543060D01*
X116804356Y-91579129D01*
X116806188Y-91578247D01*
X116809207Y-91584516D01*
X116859749Y-91664953D01*
X116905184Y-91737262D01*
X117032738Y-91864816D01*
X117185478Y-91960789D01*
X117185480Y-91960789D01*
X117185484Y-91960792D01*
X117191756Y-91963813D01*
X117190869Y-91965653D01*
X117226939Y-91988307D01*
X121026586Y-95787954D01*
X121056058Y-95807645D01*
X121100270Y-95837186D01*
X121149505Y-95870084D01*
X121149506Y-95870084D01*
X121149507Y-95870085D01*
X121149509Y-95870086D01*
X121286082Y-95926656D01*
X121286087Y-95926658D01*
X121286091Y-95926658D01*
X121286092Y-95926659D01*
X121431079Y-95955500D01*
X121431082Y-95955500D01*
X121431083Y-95955500D01*
X121578918Y-95955500D01*
X124253337Y-95955500D01*
X124320376Y-95975185D01*
X124354912Y-96008377D01*
X124379954Y-96044141D01*
X124540858Y-96205045D01*
X124540861Y-96205047D01*
X124727266Y-96335568D01*
X124785275Y-96362618D01*
X124837714Y-96408791D01*
X124856866Y-96475984D01*
X124836650Y-96542865D01*
X124785275Y-96587382D01*
X124727267Y-96614431D01*
X124727265Y-96614432D01*
X124540858Y-96744954D01*
X124379954Y-96905858D01*
X124249432Y-97092265D01*
X124249431Y-97092267D01*
X124153261Y-97298502D01*
X124153258Y-97298511D01*
X124094366Y-97518302D01*
X124094364Y-97518313D01*
X124074532Y-97744998D01*
X124074532Y-97745001D01*
X124094364Y-97971686D01*
X124094366Y-97971697D01*
X124153258Y-98191488D01*
X124153261Y-98191497D01*
X124249431Y-98397732D01*
X124249432Y-98397734D01*
X124379954Y-98584141D01*
X124540858Y-98745045D01*
X124540861Y-98745047D01*
X124727266Y-98875568D01*
X124785275Y-98902618D01*
X124837714Y-98948791D01*
X124856866Y-99015984D01*
X124836650Y-99082865D01*
X124785275Y-99127382D01*
X124727267Y-99154431D01*
X124727265Y-99154432D01*
X124540858Y-99284954D01*
X124379954Y-99445858D01*
X124323403Y-99526623D01*
X124268826Y-99570248D01*
X124221828Y-99579500D01*
X120449972Y-99579500D01*
X120409017Y-99572542D01*
X120329254Y-99544631D01*
X120329249Y-99544630D01*
X120150004Y-99524435D01*
X120149996Y-99524435D01*
X119970750Y-99544630D01*
X119970735Y-99544634D01*
X119922241Y-99561602D01*
X119852462Y-99565163D01*
X119793608Y-99532241D01*
X117328421Y-97067052D01*
X117328420Y-97067051D01*
X117260534Y-97021692D01*
X117241409Y-97008913D01*
X117241408Y-97008912D01*
X117205500Y-96984919D01*
X117205488Y-96984912D01*
X117068917Y-96928343D01*
X117068907Y-96928340D01*
X116923920Y-96899500D01*
X116923918Y-96899500D01*
X112149685Y-96899500D01*
X112082646Y-96879815D01*
X112045877Y-96843322D01*
X112008984Y-96786854D01*
X112008982Y-96786852D01*
X112008979Y-96786847D01*
X111851784Y-96616087D01*
X111851779Y-96616083D01*
X111851777Y-96616081D01*
X111668634Y-96473535D01*
X111668628Y-96473531D01*
X111464504Y-96363064D01*
X111464495Y-96363061D01*
X111244984Y-96287702D01*
X111073282Y-96259050D01*
X111016049Y-96249500D01*
X110783951Y-96249500D01*
X110738164Y-96257140D01*
X110555015Y-96287702D01*
X110335504Y-96363061D01*
X110335495Y-96363064D01*
X110131371Y-96473531D01*
X110131365Y-96473535D01*
X109948222Y-96616081D01*
X109948219Y-96616084D01*
X109791016Y-96786852D01*
X109664075Y-96981151D01*
X109570842Y-97193699D01*
X109513866Y-97418691D01*
X109513864Y-97418702D01*
X109494700Y-97649993D01*
X109494700Y-97650006D01*
X109513864Y-97881297D01*
X109513866Y-97881308D01*
X109570842Y-98106300D01*
X109664075Y-98318848D01*
X109791016Y-98513147D01*
X109791019Y-98513151D01*
X109791021Y-98513153D01*
X109948216Y-98683913D01*
X109948219Y-98683915D01*
X109948222Y-98683918D01*
X110100528Y-98802463D01*
X110141341Y-98859173D01*
X110145016Y-98928946D01*
X110110384Y-98989629D01*
X110101205Y-98997582D01*
X110101200Y-98997647D01*
X110770591Y-99667037D01*
X110707007Y-99684075D01*
X110592993Y-99749901D01*
X110499901Y-99842993D01*
X110434075Y-99957007D01*
X110417037Y-100020591D01*
X109748811Y-99352365D01*
X109664516Y-99481390D01*
X109571317Y-99693864D01*
X109514361Y-99918781D01*
X109495202Y-100149994D01*
X109495202Y-100150005D01*
X109514361Y-100381218D01*
X109571317Y-100606135D01*
X109664515Y-100818606D01*
X109748812Y-100947633D01*
X110417037Y-100279408D01*
X110434075Y-100342993D01*
X110499901Y-100457007D01*
X110592993Y-100550099D01*
X110707007Y-100615925D01*
X110770590Y-100632962D01*
X110101201Y-101302351D01*
X110131649Y-101326050D01*
X110335697Y-101436476D01*
X110335706Y-101436479D01*
X110555139Y-101511811D01*
X110783993Y-101550000D01*
X111016007Y-101550000D01*
X111244860Y-101511811D01*
X111464293Y-101436479D01*
X111464301Y-101436476D01*
X111668355Y-101326047D01*
X111698797Y-101302351D01*
X111698798Y-101302350D01*
X111029410Y-100632962D01*
X111092993Y-100615925D01*
X111207007Y-100550099D01*
X111300099Y-100457007D01*
X111365925Y-100342993D01*
X111382962Y-100279409D01*
X112051186Y-100947633D01*
X112135482Y-100818611D01*
X112228682Y-100606135D01*
X112285638Y-100381218D01*
X112304798Y-100150005D01*
X112304798Y-100149994D01*
X112285638Y-99918781D01*
X112228682Y-99693864D01*
X112135484Y-99481393D01*
X112051186Y-99352365D01*
X111382962Y-100020589D01*
X111365925Y-99957007D01*
X111300099Y-99842993D01*
X111207007Y-99749901D01*
X111092993Y-99684075D01*
X111029409Y-99667037D01*
X111698797Y-98997647D01*
X111698769Y-98997197D01*
X111658656Y-98941459D01*
X111654982Y-98871686D01*
X111689614Y-98811003D01*
X111699455Y-98802474D01*
X111851784Y-98683913D01*
X112008979Y-98513153D01*
X112015914Y-98502537D01*
X112045877Y-98456678D01*
X112099023Y-98411322D01*
X112149685Y-98400500D01*
X116487770Y-98400500D01*
X116554809Y-98420185D01*
X116575451Y-98436819D01*
X119051580Y-100912948D01*
X119051584Y-100912951D01*
X119174498Y-100995080D01*
X119174511Y-100995087D01*
X119311082Y-101051656D01*
X119311087Y-101051658D01*
X119311091Y-101051658D01*
X119311092Y-101051659D01*
X119456079Y-101080500D01*
X119456082Y-101080500D01*
X119603917Y-101080500D01*
X119850028Y-101080500D01*
X119890982Y-101087457D01*
X119970745Y-101115368D01*
X119970750Y-101115369D01*
X120149996Y-101135565D01*
X120150000Y-101135565D01*
X120150004Y-101135565D01*
X120329249Y-101115369D01*
X120329252Y-101115368D01*
X120329255Y-101115368D01*
X120409017Y-101087457D01*
X120449972Y-101080500D01*
X124285513Y-101080500D01*
X124352552Y-101100185D01*
X124375789Y-101120645D01*
X124376124Y-101120311D01*
X124540858Y-101285045D01*
X124540861Y-101285047D01*
X124727266Y-101415568D01*
X124785275Y-101442618D01*
X124837714Y-101488791D01*
X124856866Y-101555984D01*
X124836650Y-101622865D01*
X124785275Y-101667382D01*
X124727267Y-101694431D01*
X124727265Y-101694432D01*
X124540858Y-101824954D01*
X124379954Y-101985858D01*
X124249432Y-102172265D01*
X124249431Y-102172267D01*
X124153261Y-102378502D01*
X124153258Y-102378511D01*
X124094366Y-102598302D01*
X124094364Y-102598313D01*
X124074532Y-102824998D01*
X124074532Y-102825001D01*
X124094364Y-103051686D01*
X124094366Y-103051697D01*
X124153258Y-103271488D01*
X124153261Y-103271497D01*
X124249431Y-103477732D01*
X124249432Y-103477734D01*
X124379954Y-103664141D01*
X124540858Y-103825045D01*
X124540861Y-103825047D01*
X124727266Y-103955568D01*
X124785275Y-103982618D01*
X124837714Y-104028791D01*
X124856866Y-104095984D01*
X124836650Y-104162865D01*
X124785275Y-104207382D01*
X124727267Y-104234431D01*
X124727265Y-104234432D01*
X124540858Y-104364954D01*
X124379954Y-104525858D01*
X124365415Y-104546623D01*
X124310838Y-104590248D01*
X124263840Y-104599500D01*
X122999972Y-104599500D01*
X122959017Y-104592542D01*
X122879254Y-104564631D01*
X122879249Y-104564630D01*
X122700004Y-104544435D01*
X122699996Y-104544435D01*
X122520750Y-104564630D01*
X122520745Y-104564631D01*
X122440983Y-104592542D01*
X122400028Y-104599500D01*
X112149685Y-104599500D01*
X112082646Y-104579815D01*
X112045877Y-104543322D01*
X112008984Y-104486854D01*
X112008982Y-104486852D01*
X112008979Y-104486847D01*
X111851784Y-104316087D01*
X111851779Y-104316083D01*
X111851777Y-104316081D01*
X111668634Y-104173535D01*
X111668628Y-104173531D01*
X111464504Y-104063064D01*
X111464495Y-104063061D01*
X111244984Y-103987702D01*
X111073282Y-103959050D01*
X111016049Y-103949500D01*
X110783951Y-103949500D01*
X110738164Y-103957140D01*
X110555015Y-103987702D01*
X110335504Y-104063061D01*
X110335495Y-104063064D01*
X110131371Y-104173531D01*
X110131365Y-104173535D01*
X109948222Y-104316081D01*
X109948219Y-104316084D01*
X109791016Y-104486852D01*
X109664075Y-104681151D01*
X109570842Y-104893699D01*
X109513866Y-105118691D01*
X109513864Y-105118702D01*
X109494700Y-105349993D01*
X109494700Y-105350006D01*
X109513864Y-105581297D01*
X109513866Y-105581308D01*
X109570842Y-105806300D01*
X109664075Y-106018848D01*
X109791016Y-106213147D01*
X109791019Y-106213151D01*
X109791021Y-106213153D01*
X109948216Y-106383913D01*
X109948219Y-106383915D01*
X109948222Y-106383918D01*
X110100528Y-106502463D01*
X110141341Y-106559173D01*
X110145016Y-106628946D01*
X110110384Y-106689629D01*
X110101205Y-106697582D01*
X110101200Y-106697647D01*
X110770591Y-107367037D01*
X110707007Y-107384075D01*
X110592993Y-107449901D01*
X110499901Y-107542993D01*
X110434075Y-107657007D01*
X110417037Y-107720591D01*
X109748811Y-107052365D01*
X109664516Y-107181390D01*
X109571317Y-107393864D01*
X109514361Y-107618781D01*
X109495202Y-107849994D01*
X109495202Y-107850005D01*
X109514361Y-108081218D01*
X109571317Y-108306135D01*
X109664515Y-108518606D01*
X109748812Y-108647633D01*
X110417037Y-107979408D01*
X110434075Y-108042993D01*
X110499901Y-108157007D01*
X110592993Y-108250099D01*
X110707007Y-108315925D01*
X110770590Y-108332962D01*
X110101201Y-109002351D01*
X110131649Y-109026050D01*
X110335697Y-109136476D01*
X110335706Y-109136479D01*
X110555139Y-109211811D01*
X110783993Y-109250000D01*
X111016007Y-109250000D01*
X111244860Y-109211811D01*
X111464293Y-109136479D01*
X111464301Y-109136476D01*
X111668355Y-109026047D01*
X111698797Y-109002351D01*
X111698798Y-109002350D01*
X111029410Y-108332962D01*
X111092993Y-108315925D01*
X111207007Y-108250099D01*
X111300099Y-108157007D01*
X111365925Y-108042993D01*
X111382962Y-107979409D01*
X112051186Y-108647633D01*
X112135482Y-108518611D01*
X112228682Y-108306135D01*
X112285638Y-108081218D01*
X112304798Y-107850005D01*
X112304798Y-107849994D01*
X112285638Y-107618781D01*
X112228682Y-107393864D01*
X112135484Y-107181393D01*
X112051186Y-107052365D01*
X111382962Y-107720589D01*
X111365925Y-107657007D01*
X111300099Y-107542993D01*
X111207007Y-107449901D01*
X111092993Y-107384075D01*
X111029409Y-107367037D01*
X111698797Y-106697647D01*
X111698769Y-106697197D01*
X111658656Y-106641459D01*
X111654982Y-106571686D01*
X111689614Y-106511003D01*
X111699455Y-106502474D01*
X111851784Y-106383913D01*
X112008979Y-106213153D01*
X112015914Y-106202537D01*
X112045877Y-106156678D01*
X112099023Y-106111322D01*
X112149685Y-106100500D01*
X122400028Y-106100500D01*
X122440982Y-106107457D01*
X122520745Y-106135368D01*
X122520750Y-106135369D01*
X122699996Y-106155565D01*
X122700000Y-106155565D01*
X122700004Y-106155565D01*
X122879249Y-106135369D01*
X122879252Y-106135368D01*
X122879255Y-106135368D01*
X122959017Y-106107457D01*
X122999972Y-106100500D01*
X124242834Y-106100500D01*
X124309873Y-106120185D01*
X124344409Y-106153377D01*
X124379954Y-106204141D01*
X124540858Y-106365045D01*
X124567812Y-106383918D01*
X124727266Y-106495568D01*
X124785275Y-106522618D01*
X124837714Y-106568791D01*
X124856866Y-106635984D01*
X124836650Y-106702865D01*
X124785275Y-106747382D01*
X124727267Y-106774431D01*
X124727265Y-106774432D01*
X124540858Y-106904954D01*
X124379954Y-107065858D01*
X124249432Y-107252265D01*
X124249431Y-107252267D01*
X124153261Y-107458502D01*
X124153258Y-107458511D01*
X124094366Y-107678302D01*
X124094364Y-107678313D01*
X124074532Y-107904998D01*
X124074532Y-107905001D01*
X124094364Y-108131686D01*
X124094366Y-108131697D01*
X124153258Y-108351488D01*
X124153261Y-108351497D01*
X124249431Y-108557732D01*
X124249432Y-108557734D01*
X124379954Y-108744141D01*
X124540858Y-108905045D01*
X124540861Y-108905047D01*
X124727266Y-109035568D01*
X124933504Y-109131739D01*
X125153308Y-109190635D01*
X125315230Y-109204801D01*
X125379998Y-109210468D01*
X125380000Y-109210468D01*
X125380002Y-109210468D01*
X125436673Y-109205509D01*
X125606692Y-109190635D01*
X125826496Y-109131739D01*
X126032734Y-109035568D01*
X126219139Y-108905047D01*
X126380047Y-108744139D01*
X126510568Y-108557734D01*
X126606739Y-108351496D01*
X126665635Y-108131692D01*
X126672818Y-108049573D01*
X126698269Y-107984507D01*
X126708657Y-107972709D01*
X127668319Y-107013048D01*
X127729642Y-106979563D01*
X127799334Y-106984547D01*
X127855267Y-107026419D01*
X127879684Y-107091883D01*
X127880000Y-107100729D01*
X127880000Y-107802844D01*
X127886401Y-107862372D01*
X127886403Y-107862379D01*
X127936645Y-107997086D01*
X127936649Y-107997093D01*
X128022809Y-108112187D01*
X128022812Y-108112190D01*
X128137906Y-108198350D01*
X128137913Y-108198354D01*
X128272620Y-108248596D01*
X128272627Y-108248598D01*
X128332155Y-108254999D01*
X128332172Y-108255000D01*
X128930000Y-108255000D01*
X128930000Y-107270686D01*
X128934394Y-107275080D01*
X129025606Y-107327741D01*
X129127339Y-107355000D01*
X129232661Y-107355000D01*
X129334394Y-107327741D01*
X129425606Y-107275080D01*
X129430000Y-107270686D01*
X129430000Y-108255000D01*
X130027828Y-108255000D01*
X130027844Y-108254999D01*
X130087372Y-108248598D01*
X130087379Y-108248596D01*
X130222086Y-108198354D01*
X130222093Y-108198350D01*
X130337187Y-108112190D01*
X130337190Y-108112187D01*
X130423350Y-107997093D01*
X130423354Y-107997086D01*
X130473596Y-107862379D01*
X130473598Y-107862372D01*
X130479999Y-107802844D01*
X130480000Y-107802827D01*
X130480000Y-107205000D01*
X129495686Y-107205000D01*
X129500080Y-107200606D01*
X129552741Y-107109394D01*
X129580000Y-107007661D01*
X129580000Y-106902339D01*
X129552741Y-106800606D01*
X129500080Y-106709394D01*
X129495686Y-106705000D01*
X130480000Y-106705000D01*
X130480000Y-106107172D01*
X130479999Y-106107155D01*
X130473598Y-106047627D01*
X130473596Y-106047620D01*
X130423354Y-105912913D01*
X130423350Y-105912906D01*
X130337190Y-105797812D01*
X130337187Y-105797809D01*
X130222093Y-105711649D01*
X130222086Y-105711645D01*
X130087379Y-105661403D01*
X130087373Y-105661401D01*
X130051778Y-105657574D01*
X129987228Y-105630835D01*
X129947381Y-105573441D01*
X129944888Y-105503616D01*
X129980542Y-105443528D01*
X129993908Y-105432713D01*
X130019139Y-105415047D01*
X130180047Y-105254139D01*
X130310568Y-105067734D01*
X130406739Y-104861496D01*
X130465635Y-104641692D01*
X130485468Y-104415000D01*
X130465635Y-104188308D01*
X130406739Y-103968504D01*
X130310568Y-103762266D01*
X130180047Y-103575861D01*
X130180045Y-103575858D01*
X130019141Y-103414954D01*
X129832734Y-103284432D01*
X129832728Y-103284429D01*
X129774725Y-103257382D01*
X129722285Y-103211210D01*
X129703133Y-103144017D01*
X129723348Y-103077135D01*
X129774725Y-103032618D01*
X129832734Y-103005568D01*
X130019139Y-102875047D01*
X130180047Y-102714139D01*
X130310568Y-102527734D01*
X130406739Y-102321496D01*
X130465635Y-102101692D01*
X130485468Y-101875000D01*
X130465635Y-101648308D01*
X130406739Y-101428504D01*
X130310568Y-101222266D01*
X130180047Y-101035861D01*
X130180045Y-101035858D01*
X130019141Y-100874954D01*
X129832734Y-100744432D01*
X129832728Y-100744429D01*
X129774725Y-100717382D01*
X129722285Y-100671210D01*
X129703133Y-100604017D01*
X129723348Y-100537135D01*
X129774725Y-100492618D01*
X129832734Y-100465568D01*
X130019139Y-100335047D01*
X130180047Y-100174139D01*
X130310568Y-99987734D01*
X130406739Y-99781496D01*
X130465635Y-99561692D01*
X130485468Y-99335000D01*
X130465635Y-99108308D01*
X130406739Y-98888504D01*
X130310568Y-98682266D01*
X130180047Y-98495861D01*
X130180045Y-98495858D01*
X130019141Y-98334954D01*
X129832734Y-98204432D01*
X129832728Y-98204429D01*
X129774725Y-98177382D01*
X129722285Y-98131210D01*
X129703133Y-98064017D01*
X129723348Y-97997135D01*
X129774725Y-97952618D01*
X129832734Y-97925568D01*
X130019139Y-97795047D01*
X130180047Y-97634139D01*
X130310568Y-97447734D01*
X130406739Y-97241496D01*
X130465635Y-97021692D01*
X130485468Y-96795000D01*
X130465635Y-96568308D01*
X130406739Y-96348504D01*
X130310568Y-96142266D01*
X130180047Y-95955861D01*
X130019139Y-95794953D01*
X130014373Y-95791615D01*
X129983375Y-95769910D01*
X129939751Y-95715332D01*
X129930500Y-95668336D01*
X129930500Y-95606079D01*
X129901659Y-95461092D01*
X129901658Y-95461091D01*
X129901658Y-95461087D01*
X129845084Y-95324505D01*
X129812186Y-95275270D01*
X129812185Y-95275268D01*
X129762956Y-95201589D01*
X129762952Y-95201584D01*
X126643421Y-92082052D01*
X126643414Y-92082046D01*
X126569729Y-92032812D01*
X126569729Y-92032813D01*
X126520495Y-91999916D01*
X126520494Y-91999915D01*
X126520489Y-91999912D01*
X126516934Y-91998012D01*
X126473816Y-91959779D01*
X126380045Y-91825858D01*
X126219143Y-91664956D01*
X126194536Y-91647726D01*
X126150912Y-91593149D01*
X126143719Y-91523650D01*
X126175241Y-91461296D01*
X126235471Y-91425882D01*
X126252404Y-91422861D01*
X126287483Y-91419091D01*
X126422331Y-91368796D01*
X126537546Y-91282546D01*
X126623796Y-91167331D01*
X126674091Y-91032483D01*
X126680500Y-90972873D01*
X126680499Y-89277128D01*
X126674091Y-89217517D01*
X126665066Y-89193321D01*
X126623797Y-89082671D01*
X126623793Y-89082664D01*
X126537547Y-88967455D01*
X126537544Y-88967452D01*
X126422335Y-88881206D01*
X126422328Y-88881202D01*
X126287482Y-88830908D01*
X126287483Y-88830908D01*
X126227883Y-88824501D01*
X126227881Y-88824500D01*
X126227873Y-88824500D01*
X126227865Y-88824500D01*
X125192230Y-88824500D01*
X125125191Y-88804815D01*
X125104549Y-88788181D01*
X117983413Y-81667045D01*
X117934179Y-81634150D01*
X117901355Y-81612218D01*
X117860495Y-81584916D01*
X117860494Y-81584915D01*
X117860492Y-81584914D01*
X117860490Y-81584913D01*
X117723917Y-81528343D01*
X117723907Y-81528340D01*
X117578920Y-81499500D01*
X117578918Y-81499500D01*
X115299972Y-81499500D01*
X115259017Y-81492542D01*
X115179254Y-81464631D01*
X115179249Y-81464630D01*
X115000004Y-81444435D01*
X114999996Y-81444435D01*
X114820750Y-81464630D01*
X114820745Y-81464631D01*
X114740983Y-81492542D01*
X114700028Y-81499500D01*
X112149685Y-81499500D01*
X112082646Y-81479815D01*
X112045877Y-81443322D01*
X112008984Y-81386854D01*
X112008982Y-81386852D01*
X112008979Y-81386847D01*
X111851784Y-81216087D01*
X111851779Y-81216083D01*
X111851777Y-81216081D01*
X111668634Y-81073535D01*
X111668628Y-81073531D01*
X111464504Y-80963064D01*
X111464495Y-80963061D01*
X111244984Y-80887702D01*
X111073282Y-80859050D01*
X111016049Y-80849500D01*
X110783951Y-80849500D01*
X110738164Y-80857140D01*
X110555015Y-80887702D01*
X110335504Y-80963061D01*
X110335495Y-80963064D01*
X110131371Y-81073531D01*
X110131365Y-81073535D01*
X109948222Y-81216081D01*
X109948219Y-81216084D01*
X109791016Y-81386852D01*
X109664075Y-81581151D01*
X109570842Y-81793699D01*
X109513866Y-82018691D01*
X109513864Y-82018702D01*
X109494700Y-82249993D01*
X101000000Y-82249993D01*
X101000000Y-79124000D01*
X101019685Y-79056961D01*
X101072489Y-79011206D01*
X101124000Y-79000000D01*
X118958667Y-79000000D01*
X119025706Y-79019685D01*
G37*
%TD.AperFunction*%
%TD*%
%TA.AperFunction,Conductor*%
%TO.N,GND2*%
G36*
X144234075Y-57292993D02*
G01*
X144299901Y-57407007D01*
X144392993Y-57500099D01*
X144507007Y-57565925D01*
X144570590Y-57582962D01*
X144064765Y-58088786D01*
X144064761Y-58088792D01*
X143386911Y-58766641D01*
X143369874Y-58703058D01*
X143304048Y-58589044D01*
X143210956Y-58495952D01*
X143096942Y-58430126D01*
X143033358Y-58413088D01*
X143747527Y-57698919D01*
X144217037Y-57229408D01*
X144234075Y-57292993D01*
G37*
%TD.AperFunction*%
%TA.AperFunction,Conductor*%
G36*
X185029451Y-51017670D02*
G01*
X186637484Y-51982490D01*
X187473417Y-52484050D01*
X187515949Y-52526582D01*
X188904605Y-54841009D01*
X188982329Y-54970548D01*
X189000000Y-55034345D01*
X189000000Y-124965654D01*
X188982329Y-125029451D01*
X187515949Y-127473417D01*
X187473417Y-127515949D01*
X185029450Y-128982329D01*
X184965655Y-129000000D01*
X129124000Y-129000000D01*
X129056961Y-128980315D01*
X129011206Y-128927511D01*
X129000000Y-128876000D01*
X129000000Y-124878711D01*
X183149500Y-124878711D01*
X183149500Y-125121288D01*
X183181161Y-125361785D01*
X183243947Y-125596104D01*
X183322343Y-125785368D01*
X183336776Y-125820212D01*
X183458064Y-126030289D01*
X183458066Y-126030292D01*
X183458067Y-126030293D01*
X183605733Y-126222736D01*
X183605739Y-126222743D01*
X183777256Y-126394260D01*
X183777262Y-126394265D01*
X183969711Y-126541936D01*
X184179788Y-126663224D01*
X184403900Y-126756054D01*
X184638211Y-126818838D01*
X184818586Y-126842584D01*
X184878711Y-126850500D01*
X184878712Y-126850500D01*
X185121289Y-126850500D01*
X185169388Y-126844167D01*
X185361789Y-126818838D01*
X185596100Y-126756054D01*
X185820212Y-126663224D01*
X186030289Y-126541936D01*
X186222738Y-126394265D01*
X186394265Y-126222738D01*
X186541936Y-126030289D01*
X186663224Y-125820212D01*
X186756054Y-125596100D01*
X186818838Y-125361789D01*
X186850500Y-125121288D01*
X186850500Y-124878712D01*
X186818838Y-124638211D01*
X186756054Y-124403900D01*
X186663224Y-124179788D01*
X186541936Y-123969711D01*
X186394265Y-123777262D01*
X186394260Y-123777256D01*
X186222743Y-123605739D01*
X186222736Y-123605733D01*
X186030293Y-123458067D01*
X186030292Y-123458066D01*
X186030289Y-123458064D01*
X185820212Y-123336776D01*
X185820205Y-123336773D01*
X185596104Y-123243947D01*
X185361785Y-123181161D01*
X185121289Y-123149500D01*
X185121288Y-123149500D01*
X184878712Y-123149500D01*
X184878711Y-123149500D01*
X184638214Y-123181161D01*
X184403895Y-123243947D01*
X184179794Y-123336773D01*
X184179785Y-123336777D01*
X183969706Y-123458067D01*
X183777263Y-123605733D01*
X183777256Y-123605739D01*
X183605739Y-123777256D01*
X183605733Y-123777263D01*
X183458067Y-123969706D01*
X183336777Y-124179785D01*
X183336773Y-124179794D01*
X183243947Y-124403895D01*
X183181161Y-124638214D01*
X183149500Y-124878711D01*
X129000000Y-124878711D01*
X129000000Y-119752155D01*
X163380000Y-119752155D01*
X163380000Y-120350000D01*
X164364314Y-120350000D01*
X164359920Y-120354394D01*
X164307259Y-120445606D01*
X164280000Y-120547339D01*
X164280000Y-120652661D01*
X164307259Y-120754394D01*
X164359920Y-120845606D01*
X164364314Y-120850000D01*
X163380000Y-120850000D01*
X163380000Y-121447844D01*
X163386401Y-121507372D01*
X163386403Y-121507379D01*
X163436645Y-121642086D01*
X163436649Y-121642093D01*
X163522809Y-121757187D01*
X163522812Y-121757190D01*
X163637906Y-121843350D01*
X163637913Y-121843354D01*
X163772620Y-121893596D01*
X163772627Y-121893598D01*
X163832155Y-121899999D01*
X163832172Y-121900000D01*
X164430000Y-121900000D01*
X164430000Y-120915686D01*
X164434394Y-120920080D01*
X164525606Y-120972741D01*
X164627339Y-121000000D01*
X164732661Y-121000000D01*
X164834394Y-120972741D01*
X164925606Y-120920080D01*
X164930000Y-120915686D01*
X164930000Y-121900000D01*
X165527828Y-121900000D01*
X165527844Y-121899999D01*
X165587372Y-121893598D01*
X165587379Y-121893596D01*
X165722086Y-121843354D01*
X165722093Y-121843350D01*
X165837187Y-121757190D01*
X165837190Y-121757187D01*
X165923350Y-121642093D01*
X165923354Y-121642086D01*
X165973596Y-121507380D01*
X165977424Y-121471781D01*
X166004162Y-121407230D01*
X166061555Y-121367382D01*
X166131380Y-121364888D01*
X166191469Y-121400540D01*
X166202289Y-121413912D01*
X166219956Y-121439143D01*
X166380858Y-121600045D01*
X166380861Y-121600047D01*
X166567266Y-121730568D01*
X166773504Y-121826739D01*
X166993308Y-121885635D01*
X167155230Y-121899801D01*
X167219998Y-121905468D01*
X167220000Y-121905468D01*
X167220002Y-121905468D01*
X167282511Y-121899999D01*
X167446692Y-121885635D01*
X167666496Y-121826739D01*
X167872734Y-121730568D01*
X168059139Y-121600047D01*
X168220047Y-121439139D01*
X168350568Y-121252734D01*
X168377618Y-121194724D01*
X168423790Y-121142285D01*
X168490983Y-121123133D01*
X168557865Y-121143348D01*
X168602382Y-121194725D01*
X168629429Y-121252728D01*
X168629432Y-121252734D01*
X168759954Y-121439141D01*
X168920858Y-121600045D01*
X168920861Y-121600047D01*
X169107266Y-121730568D01*
X169313504Y-121826739D01*
X169533308Y-121885635D01*
X169695230Y-121899801D01*
X169759998Y-121905468D01*
X169760000Y-121905468D01*
X169760002Y-121905468D01*
X169822511Y-121899999D01*
X169986692Y-121885635D01*
X170206496Y-121826739D01*
X170412734Y-121730568D01*
X170599139Y-121600047D01*
X170760047Y-121439139D01*
X170890568Y-121252734D01*
X170917618Y-121194724D01*
X170963790Y-121142285D01*
X171030983Y-121123133D01*
X171097865Y-121143348D01*
X171142382Y-121194725D01*
X171169429Y-121252728D01*
X171169432Y-121252734D01*
X171299954Y-121439141D01*
X171460858Y-121600045D01*
X171460861Y-121600047D01*
X171647266Y-121730568D01*
X171853504Y-121826739D01*
X172073308Y-121885635D01*
X172235230Y-121899801D01*
X172299998Y-121905468D01*
X172300000Y-121905468D01*
X172300002Y-121905468D01*
X172362511Y-121899999D01*
X172526692Y-121885635D01*
X172746496Y-121826739D01*
X172952734Y-121730568D01*
X173139139Y-121600047D01*
X173300047Y-121439139D01*
X173430568Y-121252734D01*
X173457618Y-121194724D01*
X173503790Y-121142285D01*
X173570983Y-121123133D01*
X173637865Y-121143348D01*
X173682382Y-121194725D01*
X173709429Y-121252728D01*
X173709432Y-121252734D01*
X173839954Y-121439141D01*
X174000858Y-121600045D01*
X174000861Y-121600047D01*
X174187266Y-121730568D01*
X174393504Y-121826739D01*
X174613308Y-121885635D01*
X174775230Y-121899801D01*
X174839998Y-121905468D01*
X174840000Y-121905468D01*
X174840002Y-121905468D01*
X174902511Y-121899999D01*
X175066692Y-121885635D01*
X175286496Y-121826739D01*
X175492734Y-121730568D01*
X175679139Y-121600047D01*
X175840047Y-121439139D01*
X175970568Y-121252734D01*
X176066739Y-121046496D01*
X176125635Y-120826692D01*
X176145468Y-120600000D01*
X176125635Y-120373308D01*
X176066739Y-120153504D01*
X175970568Y-119947266D01*
X175840047Y-119760861D01*
X175840045Y-119760858D01*
X175679141Y-119599954D01*
X175492734Y-119469432D01*
X175492732Y-119469431D01*
X175286497Y-119373261D01*
X175286488Y-119373258D01*
X175066697Y-119314366D01*
X175066693Y-119314365D01*
X175066692Y-119314365D01*
X175066691Y-119314364D01*
X175066686Y-119314364D01*
X174840002Y-119294532D01*
X174839998Y-119294532D01*
X174613313Y-119314364D01*
X174613302Y-119314366D01*
X174393511Y-119373258D01*
X174393502Y-119373261D01*
X174187267Y-119469431D01*
X174187265Y-119469432D01*
X174000858Y-119599954D01*
X173839954Y-119760858D01*
X173709432Y-119947265D01*
X173709431Y-119947267D01*
X173682382Y-120005275D01*
X173636209Y-120057714D01*
X173569016Y-120076866D01*
X173502135Y-120056650D01*
X173457618Y-120005275D01*
X173430568Y-119947267D01*
X173430567Y-119947265D01*
X173300045Y-119760858D01*
X173139141Y-119599954D01*
X172952734Y-119469432D01*
X172952732Y-119469431D01*
X172746497Y-119373261D01*
X172746488Y-119373258D01*
X172526697Y-119314366D01*
X172526693Y-119314365D01*
X172526692Y-119314365D01*
X172526691Y-119314364D01*
X172526686Y-119314364D01*
X172300002Y-119294532D01*
X172299998Y-119294532D01*
X172073313Y-119314364D01*
X172073302Y-119314366D01*
X171853511Y-119373258D01*
X171853502Y-119373261D01*
X171647267Y-119469431D01*
X171647265Y-119469432D01*
X171460858Y-119599954D01*
X171299954Y-119760858D01*
X171169432Y-119947265D01*
X171169431Y-119947267D01*
X171142382Y-120005275D01*
X171096209Y-120057714D01*
X171029016Y-120076866D01*
X170962135Y-120056650D01*
X170917618Y-120005275D01*
X170890568Y-119947267D01*
X170890567Y-119947265D01*
X170760045Y-119760858D01*
X170599141Y-119599954D01*
X170412734Y-119469432D01*
X170412732Y-119469431D01*
X170206497Y-119373261D01*
X170206488Y-119373258D01*
X169986697Y-119314366D01*
X169986693Y-119314365D01*
X169986692Y-119314365D01*
X169986691Y-119314364D01*
X169986686Y-119314364D01*
X169760002Y-119294532D01*
X169759998Y-119294532D01*
X169533313Y-119314364D01*
X169533302Y-119314366D01*
X169313511Y-119373258D01*
X169313502Y-119373261D01*
X169107267Y-119469431D01*
X169107265Y-119469432D01*
X168920858Y-119599954D01*
X168759954Y-119760858D01*
X168629432Y-119947265D01*
X168629431Y-119947267D01*
X168602382Y-120005275D01*
X168556209Y-120057714D01*
X168489016Y-120076866D01*
X168422135Y-120056650D01*
X168377618Y-120005275D01*
X168350568Y-119947267D01*
X168350567Y-119947265D01*
X168220045Y-119760858D01*
X168059141Y-119599954D01*
X167872734Y-119469432D01*
X167872732Y-119469431D01*
X167666497Y-119373261D01*
X167666488Y-119373258D01*
X167446697Y-119314366D01*
X167446693Y-119314365D01*
X167446692Y-119314365D01*
X167446691Y-119314364D01*
X167446686Y-119314364D01*
X167220002Y-119294532D01*
X167219998Y-119294532D01*
X166993313Y-119314364D01*
X166993302Y-119314366D01*
X166773511Y-119373258D01*
X166773502Y-119373261D01*
X166567267Y-119469431D01*
X166567265Y-119469432D01*
X166380858Y-119599954D01*
X166219951Y-119760861D01*
X166202287Y-119786088D01*
X166147710Y-119829712D01*
X166078211Y-119836904D01*
X166015857Y-119805380D01*
X165980445Y-119745150D01*
X165977425Y-119728218D01*
X165973598Y-119692627D01*
X165973596Y-119692620D01*
X165923354Y-119557913D01*
X165923350Y-119557906D01*
X165837190Y-119442812D01*
X165837187Y-119442809D01*
X165722093Y-119356649D01*
X165722086Y-119356645D01*
X165587379Y-119306403D01*
X165587372Y-119306401D01*
X165527844Y-119300000D01*
X164930000Y-119300000D01*
X164930000Y-120284314D01*
X164925606Y-120279920D01*
X164834394Y-120227259D01*
X164732661Y-120200000D01*
X164627339Y-120200000D01*
X164525606Y-120227259D01*
X164434394Y-120279920D01*
X164430000Y-120284314D01*
X164430000Y-119300000D01*
X163832155Y-119300000D01*
X163772627Y-119306401D01*
X163772620Y-119306403D01*
X163637913Y-119356645D01*
X163637906Y-119356649D01*
X163522812Y-119442809D01*
X163522809Y-119442812D01*
X163436649Y-119557906D01*
X163436645Y-119557913D01*
X163386403Y-119692620D01*
X163386401Y-119692627D01*
X163380000Y-119752155D01*
X129000000Y-119752155D01*
X129000000Y-113629998D01*
X139784532Y-113629998D01*
X139784532Y-113630001D01*
X139804364Y-113856686D01*
X139804366Y-113856697D01*
X139863258Y-114076488D01*
X139863261Y-114076497D01*
X139959431Y-114282732D01*
X139959432Y-114282734D01*
X140089954Y-114469141D01*
X140250858Y-114630045D01*
X140268410Y-114642335D01*
X140437266Y-114760568D01*
X140643504Y-114856739D01*
X140643509Y-114856740D01*
X140643511Y-114856741D01*
X140674249Y-114864977D01*
X140863308Y-114915635D01*
X141025230Y-114929801D01*
X141089998Y-114935468D01*
X141090000Y-114935468D01*
X141090002Y-114935468D01*
X141146673Y-114930509D01*
X141316692Y-114915635D01*
X141536496Y-114856739D01*
X141742734Y-114760568D01*
X141929139Y-114630047D01*
X142090047Y-114469139D01*
X142220568Y-114282734D01*
X142227893Y-114267024D01*
X142274064Y-114214586D01*
X142341257Y-114195433D01*
X142408138Y-114215648D01*
X142452657Y-114267024D01*
X142459864Y-114282480D01*
X142510974Y-114355472D01*
X143190000Y-113676446D01*
X143190000Y-113682661D01*
X143217259Y-113784394D01*
X143269920Y-113875606D01*
X143344394Y-113950080D01*
X143435606Y-114002741D01*
X143537339Y-114030000D01*
X143543553Y-114030000D01*
X142864526Y-114709025D01*
X142937513Y-114760132D01*
X142937521Y-114760136D01*
X143143668Y-114856264D01*
X143143682Y-114856269D01*
X143363389Y-114915139D01*
X143363400Y-114915141D01*
X143589998Y-114934966D01*
X143590002Y-114934966D01*
X143816599Y-114915141D01*
X143816610Y-114915139D01*
X144036317Y-114856269D01*
X144036331Y-114856264D01*
X144242478Y-114760136D01*
X144315471Y-114709024D01*
X143636447Y-114030000D01*
X143642661Y-114030000D01*
X143744394Y-114002741D01*
X143835606Y-113950080D01*
X143910080Y-113875606D01*
X143962741Y-113784394D01*
X143990000Y-113682661D01*
X143990000Y-113676447D01*
X144669024Y-114355471D01*
X144720136Y-114282478D01*
X144816264Y-114076331D01*
X144816269Y-114076317D01*
X144875139Y-113856610D01*
X144875141Y-113856599D01*
X144894966Y-113630002D01*
X144894966Y-113629997D01*
X144883592Y-113499993D01*
X160829700Y-113499993D01*
X160829700Y-113500006D01*
X160848864Y-113731297D01*
X160848866Y-113731308D01*
X160905842Y-113956300D01*
X160999075Y-114168848D01*
X161126016Y-114363147D01*
X161126019Y-114363151D01*
X161126021Y-114363153D01*
X161283216Y-114533913D01*
X161283219Y-114533915D01*
X161283222Y-114533918D01*
X161466365Y-114676464D01*
X161466371Y-114676468D01*
X161466374Y-114676470D01*
X161670497Y-114786936D01*
X161768979Y-114820745D01*
X161890015Y-114862297D01*
X161890017Y-114862297D01*
X161890019Y-114862298D01*
X162118951Y-114900500D01*
X162118952Y-114900500D01*
X162351048Y-114900500D01*
X162351049Y-114900500D01*
X162579981Y-114862298D01*
X162799503Y-114786936D01*
X163003626Y-114676470D01*
X163186784Y-114533913D01*
X163195130Y-114524846D01*
X163255010Y-114488854D01*
X163324849Y-114490949D01*
X163382468Y-114530469D01*
X163402544Y-114565491D01*
X163431203Y-114642330D01*
X163431206Y-114642335D01*
X163517452Y-114757544D01*
X163517455Y-114757547D01*
X163632664Y-114843793D01*
X163632671Y-114843797D01*
X163767517Y-114894091D01*
X163767516Y-114894091D01*
X163774444Y-114894835D01*
X163827127Y-114900500D01*
X165722872Y-114900499D01*
X165782483Y-114894091D01*
X165917331Y-114843796D01*
X166032546Y-114757546D01*
X166118796Y-114642331D01*
X166169091Y-114507483D01*
X166175500Y-114447873D01*
X166175499Y-112552128D01*
X166169091Y-112492517D01*
X166159233Y-112466087D01*
X166118797Y-112357671D01*
X166118793Y-112357664D01*
X166033735Y-112244042D01*
X166033248Y-112242736D01*
X166030957Y-112241264D01*
X165917335Y-112156206D01*
X165917328Y-112156202D01*
X165782482Y-112105908D01*
X165782483Y-112105908D01*
X165722883Y-112099501D01*
X165722881Y-112099500D01*
X165722873Y-112099500D01*
X165722864Y-112099500D01*
X163827129Y-112099500D01*
X163827123Y-112099501D01*
X163767516Y-112105908D01*
X163632671Y-112156202D01*
X163632664Y-112156206D01*
X163517455Y-112242452D01*
X163517452Y-112242455D01*
X163431206Y-112357664D01*
X163431203Y-112357670D01*
X163402544Y-112434508D01*
X163360672Y-112490441D01*
X163295208Y-112514858D01*
X163226935Y-112500006D01*
X163195135Y-112475158D01*
X163186784Y-112466087D01*
X163186778Y-112466082D01*
X163186777Y-112466081D01*
X163003634Y-112323535D01*
X163003628Y-112323531D01*
X162799504Y-112213064D01*
X162799495Y-112213061D01*
X162579984Y-112137702D01*
X162389450Y-112105908D01*
X162351049Y-112099500D01*
X162118951Y-112099500D01*
X162080550Y-112105908D01*
X161890015Y-112137702D01*
X161670504Y-112213061D01*
X161670495Y-112213064D01*
X161466371Y-112323531D01*
X161466365Y-112323535D01*
X161283222Y-112466081D01*
X161283219Y-112466084D01*
X161283216Y-112466086D01*
X161283216Y-112466087D01*
X161238319Y-112514858D01*
X161126016Y-112636852D01*
X160999075Y-112831151D01*
X160905842Y-113043699D01*
X160848866Y-113268691D01*
X160848864Y-113268702D01*
X160829700Y-113499993D01*
X144883592Y-113499993D01*
X144875141Y-113403400D01*
X144875139Y-113403389D01*
X144816269Y-113183682D01*
X144816264Y-113183668D01*
X144720136Y-112977521D01*
X144720132Y-112977513D01*
X144669025Y-112904526D01*
X143990000Y-113583551D01*
X143990000Y-113577339D01*
X143962741Y-113475606D01*
X143910080Y-113384394D01*
X143835606Y-113309920D01*
X143744394Y-113257259D01*
X143642661Y-113230000D01*
X143636448Y-113230000D01*
X144315472Y-112550974D01*
X144242478Y-112499863D01*
X144036331Y-112403735D01*
X144036317Y-112403730D01*
X143816610Y-112344860D01*
X143816599Y-112344858D01*
X143590002Y-112325034D01*
X143589998Y-112325034D01*
X143363400Y-112344858D01*
X143363389Y-112344860D01*
X143143682Y-112403730D01*
X143143673Y-112403734D01*
X142937516Y-112499866D01*
X142937512Y-112499868D01*
X142864526Y-112550973D01*
X142864526Y-112550974D01*
X143543553Y-113230000D01*
X143537339Y-113230000D01*
X143435606Y-113257259D01*
X143344394Y-113309920D01*
X143269920Y-113384394D01*
X143217259Y-113475606D01*
X143190000Y-113577339D01*
X143190000Y-113583552D01*
X142510974Y-112904526D01*
X142510973Y-112904526D01*
X142459868Y-112977512D01*
X142459867Y-112977514D01*
X142452656Y-112992979D01*
X142406482Y-113045417D01*
X142339288Y-113064567D01*
X142272407Y-113044350D01*
X142227893Y-112992976D01*
X142220568Y-112977266D01*
X142090047Y-112790861D01*
X142090045Y-112790858D01*
X141929141Y-112629954D01*
X141742734Y-112499432D01*
X141742732Y-112499431D01*
X141536497Y-112403261D01*
X141536488Y-112403258D01*
X141316697Y-112344366D01*
X141316693Y-112344365D01*
X141316692Y-112344365D01*
X141316691Y-112344364D01*
X141316686Y-112344364D01*
X141090002Y-112324532D01*
X141089998Y-112324532D01*
X140863313Y-112344364D01*
X140863302Y-112344366D01*
X140643511Y-112403258D01*
X140643502Y-112403261D01*
X140437267Y-112499431D01*
X140437265Y-112499432D01*
X140250858Y-112629954D01*
X140089954Y-112790858D01*
X139959432Y-112977265D01*
X139959431Y-112977267D01*
X139863261Y-113183502D01*
X139863258Y-113183511D01*
X139804366Y-113403302D01*
X139804364Y-113403313D01*
X139784532Y-113629998D01*
X129000000Y-113629998D01*
X129000000Y-110124000D01*
X129019685Y-110056961D01*
X129072489Y-110011206D01*
X129124000Y-110000000D01*
X132000000Y-110000000D01*
X132000000Y-109030612D01*
X132019685Y-108963573D01*
X132072489Y-108917818D01*
X132141647Y-108907874D01*
X132195122Y-108929036D01*
X132347266Y-109035568D01*
X132553504Y-109131739D01*
X132553509Y-109131740D01*
X132553511Y-109131741D01*
X132606415Y-109145916D01*
X132773308Y-109190635D01*
X132935230Y-109204801D01*
X132999998Y-109210468D01*
X133000000Y-109210468D01*
X133000002Y-109210468D01*
X133056673Y-109205509D01*
X133226692Y-109190635D01*
X133446496Y-109131739D01*
X133652734Y-109035568D01*
X133839139Y-108905047D01*
X134000047Y-108744139D01*
X134130568Y-108557734D01*
X134226739Y-108351496D01*
X134285635Y-108131692D01*
X134305468Y-107905000D01*
X134285635Y-107678308D01*
X134226739Y-107458504D01*
X134130568Y-107252266D01*
X134000047Y-107065861D01*
X133996942Y-107061426D01*
X133998863Y-107060080D01*
X133974843Y-107005216D01*
X133985872Y-106936222D01*
X134032451Y-106884144D01*
X134097843Y-106865500D01*
X134249467Y-106865500D01*
X134482738Y-106828553D01*
X134521104Y-106816087D01*
X134707362Y-106755568D01*
X134917804Y-106648343D01*
X135108880Y-106509517D01*
X136644517Y-104973880D01*
X136783343Y-104782804D01*
X136890568Y-104572362D01*
X136963553Y-104347739D01*
X136988192Y-104192172D01*
X137000500Y-104114467D01*
X137000500Y-103429555D01*
X137020185Y-103362516D01*
X137072989Y-103316761D01*
X137142147Y-103306817D01*
X137205703Y-103335842D01*
X137236880Y-103377148D01*
X137257607Y-103421596D01*
X137309431Y-103532732D01*
X137309432Y-103532734D01*
X137439954Y-103719141D01*
X137600858Y-103880045D01*
X137604810Y-103882812D01*
X137787266Y-104010568D01*
X137843038Y-104036575D01*
X137845275Y-104037618D01*
X137897714Y-104083791D01*
X137916866Y-104150984D01*
X137896650Y-104217865D01*
X137845275Y-104262382D01*
X137787267Y-104289431D01*
X137787265Y-104289432D01*
X137600858Y-104419954D01*
X137439954Y-104580858D01*
X137309432Y-104767265D01*
X137309431Y-104767267D01*
X137213261Y-104973502D01*
X137213258Y-104973511D01*
X137154366Y-105193302D01*
X137154364Y-105193313D01*
X137134532Y-105419998D01*
X137134532Y-105420001D01*
X137154364Y-105646686D01*
X137154366Y-105646697D01*
X137213258Y-105866488D01*
X137213261Y-105866497D01*
X137309431Y-106072732D01*
X137309432Y-106072734D01*
X137439954Y-106259141D01*
X137600858Y-106420045D01*
X137600861Y-106420047D01*
X137787266Y-106550568D01*
X137842813Y-106576470D01*
X137845275Y-106577618D01*
X137897714Y-106623791D01*
X137916866Y-106690984D01*
X137896650Y-106757865D01*
X137845275Y-106802382D01*
X137787267Y-106829431D01*
X137787265Y-106829432D01*
X137600858Y-106959954D01*
X137439954Y-107120858D01*
X137309432Y-107307265D01*
X137309431Y-107307267D01*
X137213261Y-107513502D01*
X137213258Y-107513511D01*
X137154366Y-107733302D01*
X137154364Y-107733313D01*
X137134532Y-107959998D01*
X137134532Y-107960001D01*
X137154364Y-108186686D01*
X137154366Y-108186697D01*
X137213258Y-108406488D01*
X137213261Y-108406497D01*
X137283784Y-108557732D01*
X137309432Y-108612734D01*
X137347466Y-108667052D01*
X137439954Y-108799141D01*
X137600858Y-108960045D01*
X137600861Y-108960047D01*
X137787266Y-109090568D01*
X137845275Y-109117618D01*
X137897714Y-109163791D01*
X137916866Y-109230984D01*
X137896650Y-109297865D01*
X137845275Y-109342382D01*
X137787267Y-109369431D01*
X137787265Y-109369432D01*
X137600858Y-109499954D01*
X137439954Y-109660858D01*
X137309432Y-109847265D01*
X137309431Y-109847267D01*
X137213261Y-110053502D01*
X137213258Y-110053511D01*
X137154366Y-110273302D01*
X137154364Y-110273313D01*
X137134532Y-110499998D01*
X137134532Y-110500001D01*
X137154364Y-110726686D01*
X137154366Y-110726697D01*
X137213258Y-110946488D01*
X137213261Y-110946497D01*
X137309431Y-111152732D01*
X137309432Y-111152734D01*
X137439954Y-111339141D01*
X137600858Y-111500045D01*
X137600861Y-111500047D01*
X137787266Y-111630568D01*
X137993504Y-111726739D01*
X138213308Y-111785635D01*
X138375230Y-111799801D01*
X138439998Y-111805468D01*
X138440000Y-111805468D01*
X138440002Y-111805468D01*
X138496673Y-111800509D01*
X138666692Y-111785635D01*
X138886496Y-111726739D01*
X139092734Y-111630568D01*
X139279139Y-111500047D01*
X139440047Y-111339139D01*
X139570568Y-111152734D01*
X139666739Y-110946496D01*
X139725635Y-110726692D01*
X139745468Y-110500000D01*
X139725635Y-110273308D01*
X139666739Y-110053504D01*
X139570568Y-109847266D01*
X139440047Y-109660861D01*
X139440045Y-109660858D01*
X139279141Y-109499954D01*
X139092734Y-109369432D01*
X139092728Y-109369429D01*
X139034725Y-109342382D01*
X138982285Y-109296210D01*
X138963133Y-109229017D01*
X138983348Y-109162135D01*
X139034725Y-109117618D01*
X139092734Y-109090568D01*
X139279139Y-108960047D01*
X139440047Y-108799139D01*
X139570568Y-108612734D01*
X139666739Y-108406496D01*
X139725635Y-108186692D01*
X139745468Y-107960000D01*
X139725635Y-107733308D01*
X139666739Y-107513504D01*
X139570568Y-107307266D01*
X139440047Y-107120861D01*
X139440045Y-107120858D01*
X139279141Y-106959954D01*
X139092734Y-106829432D01*
X139092728Y-106829429D01*
X139034725Y-106802382D01*
X138982285Y-106756210D01*
X138963133Y-106689017D01*
X138983348Y-106622135D01*
X139034725Y-106577618D01*
X139037187Y-106576470D01*
X139092734Y-106550568D01*
X139279139Y-106420047D01*
X139440047Y-106259139D01*
X139570568Y-106072734D01*
X139666739Y-105866496D01*
X139725635Y-105646692D01*
X139745468Y-105420000D01*
X139725635Y-105193308D01*
X139670446Y-104987339D01*
X139666741Y-104973511D01*
X139666738Y-104973502D01*
X139652841Y-104943700D01*
X139570568Y-104767266D01*
X139451730Y-104597546D01*
X139440045Y-104580858D01*
X139279141Y-104419954D01*
X139092734Y-104289432D01*
X139092728Y-104289429D01*
X139034725Y-104262382D01*
X138982285Y-104216210D01*
X138963133Y-104149017D01*
X138983348Y-104082135D01*
X139034725Y-104037618D01*
X139036962Y-104036575D01*
X139092734Y-104010568D01*
X139279139Y-103880047D01*
X139440047Y-103719139D01*
X139570568Y-103532734D01*
X139666739Y-103326496D01*
X139725635Y-103106692D01*
X139745468Y-102880000D01*
X139725635Y-102653308D01*
X139666739Y-102433504D01*
X139570568Y-102227266D01*
X139448592Y-102053064D01*
X139440045Y-102040858D01*
X139279141Y-101879954D01*
X139092734Y-101749432D01*
X139092728Y-101749429D01*
X139034725Y-101722382D01*
X138982285Y-101676210D01*
X138963133Y-101609017D01*
X138983348Y-101542135D01*
X139034725Y-101497618D01*
X139092734Y-101470568D01*
X139279139Y-101340047D01*
X139440047Y-101179139D01*
X139570568Y-100992734D01*
X139666739Y-100786496D01*
X139725635Y-100566692D01*
X139745468Y-100340000D01*
X139725635Y-100113308D01*
X139666739Y-99893504D01*
X139570568Y-99687266D01*
X139440047Y-99500861D01*
X139440045Y-99500858D01*
X139279141Y-99339954D01*
X139092734Y-99209432D01*
X139092728Y-99209429D01*
X139065038Y-99196517D01*
X139034724Y-99182381D01*
X138982285Y-99136210D01*
X138963133Y-99069017D01*
X138983348Y-99002135D01*
X139034725Y-98957618D01*
X139092734Y-98930568D01*
X139279139Y-98800047D01*
X139440047Y-98639139D01*
X139570568Y-98452734D01*
X139666739Y-98246496D01*
X139725635Y-98026692D01*
X139745468Y-97800000D01*
X139725635Y-97573308D01*
X139666739Y-97353504D01*
X139570568Y-97147266D01*
X139440047Y-96960861D01*
X139440045Y-96960858D01*
X139279141Y-96799954D01*
X139092734Y-96669432D01*
X139092728Y-96669429D01*
X139034725Y-96642382D01*
X138982285Y-96596210D01*
X138963133Y-96529017D01*
X138983348Y-96462135D01*
X139034725Y-96417618D01*
X139092734Y-96390568D01*
X139279139Y-96260047D01*
X139440047Y-96099139D01*
X139570568Y-95912734D01*
X139666739Y-95706496D01*
X139725635Y-95486692D01*
X139745468Y-95260000D01*
X139725635Y-95033308D01*
X139670617Y-94827977D01*
X139666741Y-94813511D01*
X139666738Y-94813502D01*
X139641092Y-94758504D01*
X139570568Y-94607266D01*
X139451730Y-94437546D01*
X139440045Y-94420858D01*
X139279141Y-94259954D01*
X139092734Y-94129432D01*
X139092728Y-94129429D01*
X139034725Y-94102382D01*
X138982285Y-94056210D01*
X138963133Y-93989017D01*
X138983348Y-93922135D01*
X139034725Y-93877618D01*
X139037187Y-93876470D01*
X139092734Y-93850568D01*
X139279139Y-93720047D01*
X139440047Y-93559139D01*
X139570568Y-93372734D01*
X139666739Y-93166496D01*
X139725635Y-92946692D01*
X139745468Y-92720000D01*
X139725635Y-92493308D01*
X139666739Y-92273504D01*
X139570568Y-92067266D01*
X139448592Y-91893064D01*
X139440045Y-91880858D01*
X139279143Y-91719956D01*
X139254536Y-91702726D01*
X139210912Y-91648149D01*
X139203719Y-91578650D01*
X139235241Y-91516296D01*
X139295471Y-91480882D01*
X139312404Y-91477861D01*
X139347483Y-91474091D01*
X139482331Y-91423796D01*
X139597546Y-91337546D01*
X139683796Y-91222331D01*
X139734091Y-91087483D01*
X139740500Y-91027873D01*
X139740499Y-90179998D01*
X144754532Y-90179998D01*
X144754532Y-90180001D01*
X144774364Y-90406686D01*
X144774366Y-90406697D01*
X144833258Y-90626488D01*
X144833261Y-90626497D01*
X144929431Y-90832732D01*
X144929432Y-90832734D01*
X145059954Y-91019141D01*
X145220858Y-91180045D01*
X145220861Y-91180047D01*
X145407266Y-91310568D01*
X145465275Y-91337618D01*
X145517714Y-91383791D01*
X145536866Y-91450984D01*
X145516650Y-91517865D01*
X145465275Y-91562382D01*
X145407267Y-91589431D01*
X145407265Y-91589432D01*
X145220858Y-91719954D01*
X145059954Y-91880858D01*
X144929432Y-92067265D01*
X144929431Y-92067267D01*
X144833261Y-92273502D01*
X144833258Y-92273511D01*
X144774366Y-92493302D01*
X144774364Y-92493313D01*
X144754532Y-92719998D01*
X144754532Y-92720001D01*
X144774364Y-92946686D01*
X144774366Y-92946697D01*
X144833258Y-93166488D01*
X144833261Y-93166497D01*
X144929431Y-93372732D01*
X144929432Y-93372734D01*
X145059954Y-93559141D01*
X145220858Y-93720045D01*
X145267693Y-93752839D01*
X145407266Y-93850568D01*
X145462813Y-93876470D01*
X145465275Y-93877618D01*
X145517714Y-93923791D01*
X145536866Y-93990984D01*
X145516650Y-94057865D01*
X145465275Y-94102382D01*
X145407267Y-94129431D01*
X145407265Y-94129432D01*
X145220858Y-94259954D01*
X145059954Y-94420858D01*
X144929432Y-94607265D01*
X144929431Y-94607267D01*
X144833261Y-94813502D01*
X144833258Y-94813511D01*
X144774366Y-95033302D01*
X144774364Y-95033313D01*
X144754532Y-95259998D01*
X144754532Y-95260001D01*
X144774364Y-95486686D01*
X144774366Y-95486697D01*
X144833258Y-95706488D01*
X144833261Y-95706497D01*
X144929431Y-95912732D01*
X144929432Y-95912734D01*
X145059954Y-96099141D01*
X145220858Y-96260045D01*
X145267693Y-96292839D01*
X145407266Y-96390568D01*
X145465275Y-96417618D01*
X145517714Y-96463791D01*
X145536866Y-96530984D01*
X145516650Y-96597865D01*
X145465275Y-96642382D01*
X145407267Y-96669431D01*
X145407265Y-96669432D01*
X145220858Y-96799954D01*
X145059954Y-96960858D01*
X144929432Y-97147265D01*
X144929431Y-97147267D01*
X144833261Y-97353502D01*
X144833258Y-97353511D01*
X144774366Y-97573302D01*
X144774364Y-97573313D01*
X144754532Y-97799998D01*
X144754532Y-97800001D01*
X144774364Y-98026686D01*
X144774366Y-98026697D01*
X144833258Y-98246488D01*
X144833261Y-98246497D01*
X144929431Y-98452732D01*
X144929432Y-98452734D01*
X145059954Y-98639141D01*
X145220858Y-98800045D01*
X145264353Y-98830500D01*
X145407266Y-98930568D01*
X145465275Y-98957618D01*
X145517714Y-99003791D01*
X145536866Y-99070984D01*
X145516650Y-99137865D01*
X145465275Y-99182382D01*
X145407267Y-99209431D01*
X145407265Y-99209432D01*
X145220858Y-99339954D01*
X145059954Y-99500858D01*
X144929432Y-99687265D01*
X144929431Y-99687267D01*
X144833261Y-99893502D01*
X144833258Y-99893511D01*
X144774366Y-100113302D01*
X144774364Y-100113313D01*
X144754532Y-100339998D01*
X144754532Y-100340001D01*
X144774364Y-100566686D01*
X144774366Y-100566697D01*
X144833258Y-100786488D01*
X144833261Y-100786497D01*
X144929431Y-100992732D01*
X144929432Y-100992734D01*
X145059954Y-101179141D01*
X145220858Y-101340045D01*
X145262829Y-101369433D01*
X145407266Y-101470568D01*
X145465275Y-101497618D01*
X145517714Y-101543791D01*
X145536866Y-101610984D01*
X145516650Y-101677865D01*
X145465275Y-101722382D01*
X145407267Y-101749431D01*
X145407265Y-101749432D01*
X145220858Y-101879954D01*
X145059954Y-102040858D01*
X144929432Y-102227265D01*
X144929431Y-102227267D01*
X144833261Y-102433502D01*
X144833258Y-102433511D01*
X144774366Y-102653302D01*
X144774364Y-102653313D01*
X144754532Y-102879998D01*
X144754532Y-102880001D01*
X144774364Y-103106686D01*
X144774366Y-103106697D01*
X144833258Y-103326488D01*
X144833261Y-103326497D01*
X144929431Y-103532732D01*
X144929432Y-103532734D01*
X145059954Y-103719141D01*
X145220858Y-103880045D01*
X145224810Y-103882812D01*
X145407266Y-104010568D01*
X145463038Y-104036575D01*
X145465275Y-104037618D01*
X145517714Y-104083791D01*
X145536866Y-104150984D01*
X145516650Y-104217865D01*
X145465275Y-104262382D01*
X145407267Y-104289431D01*
X145407265Y-104289432D01*
X145220858Y-104419954D01*
X145059954Y-104580858D01*
X144929432Y-104767265D01*
X144929431Y-104767267D01*
X144833261Y-104973502D01*
X144833258Y-104973511D01*
X144774366Y-105193302D01*
X144774364Y-105193313D01*
X144754532Y-105419998D01*
X144754532Y-105420001D01*
X144774364Y-105646686D01*
X144774366Y-105646697D01*
X144833258Y-105866488D01*
X144833261Y-105866497D01*
X144929431Y-106072732D01*
X144929432Y-106072734D01*
X145059954Y-106259141D01*
X145220858Y-106420045D01*
X145220861Y-106420047D01*
X145407266Y-106550568D01*
X145462813Y-106576470D01*
X145465275Y-106577618D01*
X145517714Y-106623791D01*
X145536866Y-106690984D01*
X145516650Y-106757865D01*
X145465275Y-106802382D01*
X145407267Y-106829431D01*
X145407265Y-106829432D01*
X145220858Y-106959954D01*
X145059954Y-107120858D01*
X144929432Y-107307265D01*
X144929431Y-107307267D01*
X144833261Y-107513502D01*
X144833258Y-107513511D01*
X144774366Y-107733302D01*
X144774364Y-107733313D01*
X144754532Y-107959998D01*
X144754532Y-107960001D01*
X144774364Y-108186686D01*
X144774366Y-108186697D01*
X144833258Y-108406488D01*
X144833261Y-108406497D01*
X144903784Y-108557732D01*
X144929432Y-108612734D01*
X144967466Y-108667052D01*
X145059954Y-108799141D01*
X145220858Y-108960045D01*
X145220861Y-108960047D01*
X145407266Y-109090568D01*
X145465865Y-109117893D01*
X145518305Y-109164065D01*
X145537457Y-109231258D01*
X145517242Y-109298139D01*
X145465867Y-109342657D01*
X145407515Y-109369867D01*
X145221179Y-109500342D01*
X145060342Y-109661179D01*
X144929865Y-109847517D01*
X144833734Y-110053673D01*
X144833730Y-110053682D01*
X144781127Y-110249999D01*
X144781128Y-110250000D01*
X145744314Y-110250000D01*
X145739920Y-110254394D01*
X145687259Y-110345606D01*
X145660000Y-110447339D01*
X145660000Y-110552661D01*
X145687259Y-110654394D01*
X145739920Y-110745606D01*
X145744314Y-110750000D01*
X144781128Y-110750000D01*
X144833730Y-110946317D01*
X144833734Y-110946326D01*
X144929865Y-111152482D01*
X145060342Y-111338820D01*
X145221179Y-111499657D01*
X145407517Y-111630134D01*
X145613673Y-111726265D01*
X145613682Y-111726269D01*
X145809999Y-111778872D01*
X145810000Y-111778871D01*
X145810000Y-110815686D01*
X145814394Y-110820080D01*
X145905606Y-110872741D01*
X146007339Y-110900000D01*
X146112661Y-110900000D01*
X146214394Y-110872741D01*
X146305606Y-110820080D01*
X146310000Y-110815686D01*
X146310000Y-111778872D01*
X146506317Y-111726269D01*
X146506326Y-111726265D01*
X146712482Y-111630134D01*
X146898820Y-111499657D01*
X147059657Y-111338820D01*
X147190134Y-111152482D01*
X147286265Y-110946326D01*
X147286269Y-110946317D01*
X147338872Y-110750000D01*
X146375686Y-110750000D01*
X146380080Y-110745606D01*
X146432741Y-110654394D01*
X146460000Y-110552661D01*
X146460000Y-110447339D01*
X146432741Y-110345606D01*
X146380080Y-110254394D01*
X146375686Y-110250000D01*
X147338872Y-110250000D01*
X147338872Y-110249999D01*
X147286269Y-110053682D01*
X147286265Y-110053673D01*
X147190134Y-109847517D01*
X147059657Y-109661179D01*
X146898820Y-109500342D01*
X146712482Y-109369865D01*
X146654133Y-109342657D01*
X146601694Y-109296484D01*
X146582542Y-109229291D01*
X146602758Y-109162410D01*
X146654129Y-109117895D01*
X146712734Y-109090568D01*
X146899139Y-108960047D01*
X147060047Y-108799139D01*
X147190568Y-108612734D01*
X147286739Y-108406496D01*
X147345635Y-108186692D01*
X147365468Y-107960000D01*
X147345635Y-107733308D01*
X147286739Y-107513504D01*
X147190568Y-107307266D01*
X147060047Y-107120861D01*
X147060045Y-107120858D01*
X146899141Y-106959954D01*
X146712734Y-106829432D01*
X146712728Y-106829429D01*
X146654725Y-106802382D01*
X146602285Y-106756210D01*
X146583133Y-106689017D01*
X146603348Y-106622135D01*
X146654725Y-106577618D01*
X146657187Y-106576470D01*
X146712734Y-106550568D01*
X146899139Y-106420047D01*
X147060047Y-106259139D01*
X147088410Y-106218631D01*
X147142983Y-106175008D01*
X147165793Y-106168138D01*
X147191538Y-106163016D01*
X147298913Y-106141658D01*
X147435495Y-106085084D01*
X147517809Y-106030084D01*
X147558416Y-106002952D01*
X149491308Y-104070058D01*
X149552628Y-104036575D01*
X149622319Y-104041559D01*
X149678253Y-104083430D01*
X149702670Y-104148895D01*
X149702276Y-104170993D01*
X149700000Y-104192164D01*
X149700000Y-104790000D01*
X150684314Y-104790000D01*
X150679920Y-104794394D01*
X150627259Y-104885606D01*
X150600000Y-104987339D01*
X150600000Y-105092661D01*
X150627259Y-105194394D01*
X150679920Y-105285606D01*
X150684314Y-105290000D01*
X149700000Y-105290000D01*
X149700000Y-105887844D01*
X149706401Y-105947372D01*
X149706403Y-105947379D01*
X149756645Y-106082086D01*
X149756649Y-106082093D01*
X149842809Y-106197187D01*
X149842812Y-106197190D01*
X149957906Y-106283350D01*
X149957913Y-106283354D01*
X150092620Y-106333596D01*
X150092627Y-106333598D01*
X150152155Y-106339999D01*
X150152172Y-106340000D01*
X150750000Y-106340000D01*
X150750000Y-105355686D01*
X150754394Y-105360080D01*
X150845606Y-105412741D01*
X150947339Y-105440000D01*
X151052661Y-105440000D01*
X151154394Y-105412741D01*
X151245606Y-105360080D01*
X151250000Y-105355686D01*
X151250000Y-106340000D01*
X151847828Y-106340000D01*
X151847844Y-106339999D01*
X151907372Y-106333598D01*
X151907379Y-106333596D01*
X152042086Y-106283354D01*
X152042093Y-106283350D01*
X152157187Y-106197190D01*
X152157190Y-106197187D01*
X152227606Y-106103124D01*
X153712427Y-106103124D01*
X153774612Y-106146666D01*
X153972840Y-106239101D01*
X153972849Y-106239105D01*
X154184105Y-106295710D01*
X154184115Y-106295712D01*
X154401999Y-106314775D01*
X154402001Y-106314775D01*
X154619884Y-106295712D01*
X154619894Y-106295710D01*
X154831150Y-106239105D01*
X154831164Y-106239100D01*
X155029383Y-106146669D01*
X155029385Y-106146668D01*
X155091571Y-106103124D01*
X154402001Y-105413553D01*
X154402000Y-105413553D01*
X153712427Y-106103124D01*
X152227606Y-106103124D01*
X152243350Y-106082093D01*
X152243354Y-106082086D01*
X152293596Y-105947379D01*
X152293598Y-105947372D01*
X152299999Y-105887844D01*
X152300000Y-105887827D01*
X152300000Y-105290000D01*
X151315686Y-105290000D01*
X151320080Y-105285606D01*
X151372741Y-105194394D01*
X151400000Y-105092661D01*
X151400000Y-105059999D01*
X153147225Y-105059999D01*
X153147225Y-105060000D01*
X153166287Y-105277884D01*
X153166289Y-105277894D01*
X153222894Y-105489150D01*
X153222898Y-105489159D01*
X153315333Y-105687387D01*
X153358874Y-105749571D01*
X154048446Y-105060000D01*
X153358874Y-104370428D01*
X153315333Y-104432613D01*
X153222898Y-104630840D01*
X153222894Y-104630849D01*
X153166289Y-104842105D01*
X153166287Y-104842115D01*
X153147225Y-105059999D01*
X151400000Y-105059999D01*
X151400000Y-104987339D01*
X151372741Y-104885606D01*
X151320080Y-104794394D01*
X151315686Y-104790000D01*
X152300000Y-104790000D01*
X152300000Y-104192172D01*
X152299999Y-104192155D01*
X152293598Y-104132627D01*
X152293596Y-104132620D01*
X152243354Y-103997913D01*
X152243350Y-103997906D01*
X152157190Y-103882812D01*
X152157187Y-103882809D01*
X152042093Y-103796649D01*
X152042086Y-103796645D01*
X151907379Y-103746403D01*
X151907373Y-103746401D01*
X151871778Y-103742574D01*
X151807228Y-103715835D01*
X151767381Y-103658441D01*
X151764888Y-103588616D01*
X151800542Y-103528528D01*
X151813908Y-103517713D01*
X151839139Y-103500047D01*
X152000047Y-103339139D01*
X152025088Y-103303377D01*
X152079665Y-103259752D01*
X152126663Y-103250500D01*
X153372662Y-103250500D01*
X153439701Y-103270185D01*
X153460343Y-103286818D01*
X153595123Y-103421598D01*
X153774361Y-103547102D01*
X153972670Y-103639575D01*
X153972674Y-103639576D01*
X153976062Y-103640484D01*
X153977387Y-103641291D01*
X153977764Y-103641429D01*
X153977736Y-103641504D01*
X154035722Y-103676849D01*
X154066251Y-103739696D01*
X154057956Y-103809072D01*
X154013471Y-103862950D01*
X153976063Y-103880033D01*
X153972855Y-103880892D01*
X153972840Y-103880898D01*
X153774613Y-103973333D01*
X153712427Y-104016874D01*
X154402000Y-104706447D01*
X154405553Y-104710000D01*
X154355922Y-104710000D01*
X154266905Y-104733852D01*
X154187095Y-104779930D01*
X154121930Y-104845095D01*
X154075852Y-104924905D01*
X154052000Y-105013922D01*
X154052000Y-105106078D01*
X154075852Y-105195095D01*
X154121930Y-105274905D01*
X154187095Y-105340070D01*
X154266905Y-105386148D01*
X154355922Y-105410000D01*
X154448078Y-105410000D01*
X154537095Y-105386148D01*
X154616905Y-105340070D01*
X154682070Y-105274905D01*
X154728148Y-105195095D01*
X154752000Y-105106078D01*
X154752000Y-105056446D01*
X155445124Y-105749570D01*
X155488668Y-105687385D01*
X155488669Y-105687383D01*
X155581100Y-105489164D01*
X155581105Y-105489150D01*
X155637710Y-105277894D01*
X155637712Y-105277883D01*
X155656435Y-105063886D01*
X155681887Y-104998817D01*
X155738478Y-104957838D01*
X155808240Y-104953960D01*
X155867644Y-104987012D01*
X158274333Y-107393700D01*
X160609049Y-109728416D01*
X160682998Y-109802365D01*
X160713585Y-109832952D01*
X160836498Y-109915080D01*
X160836511Y-109915087D01*
X160875878Y-109931393D01*
X160973087Y-109971658D01*
X160973091Y-109971658D01*
X160973092Y-109971659D01*
X161118079Y-110000500D01*
X161118082Y-110000500D01*
X161118083Y-110000500D01*
X161265917Y-110000500D01*
X164087770Y-110000500D01*
X164154809Y-110020185D01*
X164175451Y-110036819D01*
X166192949Y-112054317D01*
X166200347Y-112067866D01*
X166207310Y-112070463D01*
X166220682Y-112082050D01*
X167821580Y-113682948D01*
X167821584Y-113682951D01*
X167944498Y-113765080D01*
X167944511Y-113765087D01*
X168012197Y-113793123D01*
X168081087Y-113821658D01*
X168081091Y-113821658D01*
X168081092Y-113821659D01*
X168226079Y-113850500D01*
X168226082Y-113850500D01*
X168373917Y-113850500D01*
X177850315Y-113850500D01*
X177917354Y-113870185D01*
X177954123Y-113906678D01*
X177991015Y-113963145D01*
X177991017Y-113963147D01*
X177991021Y-113963153D01*
X178148216Y-114133913D01*
X178148219Y-114133915D01*
X178148222Y-114133918D01*
X178300122Y-114252147D01*
X178340935Y-114308857D01*
X178344610Y-114378630D01*
X178309978Y-114439313D01*
X178300122Y-114447853D01*
X178148222Y-114566081D01*
X178148219Y-114566084D01*
X177991016Y-114736852D01*
X177864075Y-114931151D01*
X177770842Y-115143699D01*
X177713866Y-115368691D01*
X177713864Y-115368702D01*
X177694700Y-115599993D01*
X177694700Y-115600006D01*
X177713864Y-115831297D01*
X177713866Y-115831308D01*
X177770842Y-116056300D01*
X177864075Y-116268848D01*
X177991016Y-116463147D01*
X177991019Y-116463151D01*
X177991021Y-116463153D01*
X178148216Y-116633913D01*
X178148219Y-116633915D01*
X178148222Y-116633918D01*
X178331365Y-116776464D01*
X178331371Y-116776468D01*
X178331374Y-116776470D01*
X178535497Y-116886936D01*
X178649487Y-116926068D01*
X178755015Y-116962297D01*
X178755017Y-116962297D01*
X178755019Y-116962298D01*
X178983951Y-117000500D01*
X178983952Y-117000500D01*
X179216048Y-117000500D01*
X179216049Y-117000500D01*
X179444981Y-116962298D01*
X179664503Y-116886936D01*
X179868626Y-116776470D01*
X180051784Y-116633913D01*
X180208979Y-116463153D01*
X180335924Y-116268849D01*
X180429157Y-116056300D01*
X180486134Y-115831305D01*
X180488267Y-115805565D01*
X180505300Y-115600006D01*
X180505300Y-115599993D01*
X180486135Y-115368702D01*
X180486133Y-115368691D01*
X180429157Y-115143699D01*
X180335924Y-114931151D01*
X180208983Y-114736852D01*
X180208980Y-114736849D01*
X180208979Y-114736847D01*
X180051784Y-114566087D01*
X179899876Y-114447852D01*
X179859064Y-114391143D01*
X179855389Y-114321370D01*
X179890020Y-114260687D01*
X179899876Y-114252147D01*
X180051784Y-114133913D01*
X180208979Y-113963153D01*
X180335924Y-113768849D01*
X180429157Y-113556300D01*
X180486134Y-113331305D01*
X180490680Y-113276447D01*
X180505300Y-113100006D01*
X180505300Y-113099993D01*
X180486135Y-112868702D01*
X180486133Y-112868691D01*
X180429157Y-112643699D01*
X180335924Y-112431151D01*
X180208983Y-112236852D01*
X180208980Y-112236849D01*
X180208979Y-112236847D01*
X180051784Y-112066087D01*
X180012699Y-112035666D01*
X179899469Y-111947535D01*
X179858656Y-111890825D01*
X179854982Y-111821052D01*
X179889614Y-111760369D01*
X179898794Y-111752413D01*
X179898798Y-111752350D01*
X179229410Y-111082962D01*
X179292993Y-111065925D01*
X179407007Y-111000099D01*
X179500099Y-110907007D01*
X179565925Y-110792993D01*
X179582962Y-110729409D01*
X180251186Y-111397633D01*
X180335482Y-111268611D01*
X180428682Y-111056135D01*
X180485638Y-110831218D01*
X180504798Y-110600005D01*
X180504798Y-110599994D01*
X180485638Y-110368781D01*
X180428682Y-110143864D01*
X180335484Y-109931393D01*
X180251186Y-109802365D01*
X179582962Y-110470589D01*
X179565925Y-110407007D01*
X179500099Y-110292993D01*
X179407007Y-110199901D01*
X179292993Y-110134075D01*
X179229409Y-110117037D01*
X179898797Y-109447647D01*
X179898797Y-109447645D01*
X179868360Y-109423955D01*
X179868354Y-109423951D01*
X179664302Y-109313523D01*
X179664293Y-109313520D01*
X179444860Y-109238188D01*
X179216007Y-109200000D01*
X178983993Y-109200000D01*
X178755139Y-109238188D01*
X178535706Y-109313520D01*
X178535697Y-109313523D01*
X178331650Y-109423949D01*
X178301200Y-109447647D01*
X178970591Y-110117037D01*
X178907007Y-110134075D01*
X178792993Y-110199901D01*
X178699901Y-110292993D01*
X178634075Y-110407007D01*
X178617037Y-110470591D01*
X177948811Y-109802365D01*
X177864516Y-109931390D01*
X177771317Y-110143864D01*
X177714361Y-110368781D01*
X177695202Y-110599994D01*
X177695202Y-110600005D01*
X177714361Y-110831218D01*
X177771317Y-111056135D01*
X177864515Y-111268606D01*
X177948812Y-111397633D01*
X178617037Y-110729408D01*
X178634075Y-110792993D01*
X178699901Y-110907007D01*
X178792993Y-111000099D01*
X178907007Y-111065925D01*
X178970590Y-111082962D01*
X178301201Y-111752351D01*
X178301229Y-111752800D01*
X178341343Y-111808539D01*
X178345017Y-111878312D01*
X178310385Y-111938995D01*
X178300530Y-111947535D01*
X178148218Y-112066085D01*
X178148216Y-112066086D01*
X178148216Y-112066087D01*
X178012918Y-112213061D01*
X177991015Y-112236854D01*
X177954123Y-112293322D01*
X177900977Y-112338678D01*
X177850315Y-112349500D01*
X168662229Y-112349500D01*
X168595190Y-112329815D01*
X168574548Y-112313181D01*
X164928421Y-108667052D01*
X164928418Y-108667049D01*
X164847128Y-108612734D01*
X164847125Y-108612732D01*
X164805495Y-108584916D01*
X164805492Y-108584914D01*
X164805491Y-108584914D01*
X164668917Y-108528343D01*
X164668907Y-108528340D01*
X164523920Y-108499500D01*
X164523918Y-108499500D01*
X161554229Y-108499500D01*
X161487190Y-108479815D01*
X161466548Y-108463181D01*
X156343361Y-103339993D01*
X160829700Y-103339993D01*
X160829700Y-103340006D01*
X160848864Y-103571297D01*
X160848866Y-103571308D01*
X160905842Y-103796300D01*
X160999075Y-104008848D01*
X161126016Y-104203147D01*
X161126019Y-104203151D01*
X161126021Y-104203153D01*
X161283216Y-104373913D01*
X161283219Y-104373915D01*
X161283222Y-104373918D01*
X161466365Y-104516464D01*
X161466371Y-104516468D01*
X161466374Y-104516470D01*
X161670497Y-104626936D01*
X161713480Y-104641692D01*
X161890015Y-104702297D01*
X161890017Y-104702297D01*
X161890019Y-104702298D01*
X162118951Y-104740500D01*
X162118952Y-104740500D01*
X162351048Y-104740500D01*
X162351049Y-104740500D01*
X162579981Y-104702298D01*
X162799503Y-104626936D01*
X163003626Y-104516470D01*
X163186784Y-104373913D01*
X163195130Y-104364846D01*
X163255010Y-104328854D01*
X163324849Y-104330949D01*
X163382468Y-104370469D01*
X163402544Y-104405491D01*
X163431203Y-104482330D01*
X163431206Y-104482335D01*
X163517452Y-104597544D01*
X163517455Y-104597547D01*
X163632664Y-104683793D01*
X163632671Y-104683797D01*
X163767517Y-104734091D01*
X163767516Y-104734091D01*
X163774444Y-104734835D01*
X163827127Y-104740500D01*
X165722872Y-104740499D01*
X165782483Y-104734091D01*
X165917331Y-104683796D01*
X166032546Y-104597546D01*
X166118796Y-104482331D01*
X166169091Y-104347483D01*
X166175500Y-104287873D01*
X166175499Y-102392128D01*
X166169091Y-102332517D01*
X166164980Y-102321496D01*
X166118797Y-102197671D01*
X166118793Y-102197664D01*
X166032547Y-102082455D01*
X166032544Y-102082452D01*
X165917335Y-101996206D01*
X165917328Y-101996202D01*
X165782482Y-101945908D01*
X165782483Y-101945908D01*
X165722883Y-101939501D01*
X165722881Y-101939500D01*
X165722873Y-101939500D01*
X165722864Y-101939500D01*
X163827129Y-101939500D01*
X163827123Y-101939501D01*
X163767516Y-101945908D01*
X163632671Y-101996202D01*
X163632664Y-101996206D01*
X163517455Y-102082452D01*
X163517452Y-102082455D01*
X163431206Y-102197664D01*
X163431203Y-102197670D01*
X163402544Y-102274508D01*
X163360672Y-102330441D01*
X163295208Y-102354858D01*
X163226935Y-102340006D01*
X163195135Y-102315158D01*
X163186784Y-102306087D01*
X163186778Y-102306082D01*
X163186777Y-102306081D01*
X163003634Y-102163535D01*
X163003628Y-102163531D01*
X162799504Y-102053064D01*
X162799495Y-102053061D01*
X162579984Y-101977702D01*
X162389450Y-101945908D01*
X162351049Y-101939500D01*
X162118951Y-101939500D01*
X162080550Y-101945908D01*
X161890015Y-101977702D01*
X161670504Y-102053061D01*
X161670495Y-102053064D01*
X161466371Y-102163531D01*
X161466365Y-102163535D01*
X161283222Y-102306081D01*
X161283219Y-102306084D01*
X161283216Y-102306086D01*
X161283216Y-102306087D01*
X161238319Y-102354858D01*
X161126016Y-102476852D01*
X160999075Y-102671151D01*
X160905842Y-102883699D01*
X160848866Y-103108691D01*
X160848864Y-103108702D01*
X160829700Y-103339993D01*
X156343361Y-103339993D01*
X155682563Y-102679195D01*
X155649078Y-102617872D01*
X155646716Y-102580710D01*
X155657277Y-102460000D01*
X155638207Y-102242023D01*
X155595450Y-102082452D01*
X155581577Y-102030677D01*
X155581576Y-102030676D01*
X155581575Y-102030670D01*
X155489102Y-101832362D01*
X155489100Y-101832359D01*
X155489099Y-101832357D01*
X155363599Y-101653124D01*
X155308736Y-101598261D01*
X155208877Y-101498402D01*
X155029639Y-101372898D01*
X155029640Y-101372898D01*
X155029638Y-101372897D01*
X154868732Y-101297866D01*
X154831330Y-101280425D01*
X154831326Y-101280424D01*
X154831317Y-101280420D01*
X154828907Y-101279775D01*
X154827963Y-101279199D01*
X154826236Y-101278571D01*
X154826362Y-101278224D01*
X154769246Y-101243412D01*
X154738715Y-101180565D01*
X154747009Y-101111189D01*
X154791493Y-101057311D01*
X154826240Y-101041442D01*
X154826236Y-101041429D01*
X154826406Y-101041367D01*
X154828907Y-101040225D01*
X154831317Y-101039579D01*
X154831320Y-101039577D01*
X154831330Y-101039575D01*
X155029639Y-100947102D01*
X155208877Y-100821598D01*
X155363598Y-100666877D01*
X155366050Y-100663374D01*
X155420628Y-100619751D01*
X155467624Y-100610500D01*
X165797770Y-100610500D01*
X165864809Y-100630185D01*
X165885451Y-100646819D01*
X167269301Y-102030668D01*
X168617049Y-103378416D01*
X168688909Y-103450276D01*
X168721585Y-103482952D01*
X168844498Y-103565080D01*
X168844511Y-103565087D01*
X168901316Y-103588616D01*
X168981087Y-103621658D01*
X168981091Y-103621658D01*
X168981092Y-103621659D01*
X169126079Y-103650500D01*
X169126082Y-103650500D01*
X177850315Y-103650500D01*
X177917354Y-103670185D01*
X177954123Y-103706678D01*
X177991015Y-103763145D01*
X177991017Y-103763147D01*
X177991021Y-103763153D01*
X178148216Y-103933913D01*
X178148219Y-103933915D01*
X178148222Y-103933918D01*
X178300122Y-104052147D01*
X178340935Y-104108857D01*
X178344610Y-104178630D01*
X178309978Y-104239313D01*
X178300122Y-104247853D01*
X178148222Y-104366081D01*
X178148219Y-104366084D01*
X178148216Y-104366086D01*
X178148216Y-104366087D01*
X178144220Y-104370428D01*
X177991016Y-104536852D01*
X177864075Y-104731151D01*
X177770842Y-104943699D01*
X177713866Y-105168691D01*
X177713864Y-105168702D01*
X177694700Y-105399993D01*
X177694700Y-105400006D01*
X177713864Y-105631297D01*
X177713866Y-105631308D01*
X177770842Y-105856300D01*
X177864075Y-106068848D01*
X177991016Y-106263147D01*
X177991019Y-106263151D01*
X177991021Y-106263153D01*
X178148216Y-106433913D01*
X178148219Y-106433915D01*
X178148222Y-106433918D01*
X178331365Y-106576464D01*
X178331371Y-106576468D01*
X178331374Y-106576470D01*
X178535497Y-106686936D01*
X178649487Y-106726068D01*
X178755015Y-106762297D01*
X178755017Y-106762297D01*
X178755019Y-106762298D01*
X178983951Y-106800500D01*
X178983952Y-106800500D01*
X179216048Y-106800500D01*
X179216049Y-106800500D01*
X179444981Y-106762298D01*
X179664503Y-106686936D01*
X179868626Y-106576470D01*
X179901903Y-106550570D01*
X179932866Y-106526470D01*
X180051784Y-106433913D01*
X180208979Y-106263153D01*
X180211602Y-106259139D01*
X180238065Y-106218634D01*
X180335924Y-106068849D01*
X180429157Y-105856300D01*
X180486134Y-105631305D01*
X180486135Y-105631297D01*
X180505300Y-105400006D01*
X180505300Y-105399993D01*
X180486135Y-105168702D01*
X180486133Y-105168691D01*
X180429157Y-104943699D01*
X180335924Y-104731151D01*
X180208983Y-104536852D01*
X180208980Y-104536849D01*
X180208979Y-104536847D01*
X180051784Y-104366087D01*
X179899876Y-104247852D01*
X179859064Y-104191143D01*
X179855389Y-104121370D01*
X179890020Y-104060687D01*
X179899876Y-104052147D01*
X180051784Y-103933913D01*
X180208979Y-103763153D01*
X180335924Y-103568849D01*
X180429157Y-103356300D01*
X180486134Y-103131305D01*
X180488007Y-103108702D01*
X180505300Y-102900006D01*
X180505300Y-102899993D01*
X180486135Y-102668702D01*
X180486133Y-102668691D01*
X180429157Y-102443699D01*
X180335924Y-102231151D01*
X180208983Y-102036852D01*
X180208980Y-102036849D01*
X180208979Y-102036847D01*
X180051784Y-101866087D01*
X179968267Y-101801083D01*
X179899469Y-101747535D01*
X179858656Y-101690825D01*
X179854982Y-101621052D01*
X179889614Y-101560369D01*
X179898794Y-101552413D01*
X179898798Y-101552350D01*
X179229410Y-100882962D01*
X179292993Y-100865925D01*
X179407007Y-100800099D01*
X179500099Y-100707007D01*
X179565925Y-100592993D01*
X179582962Y-100529409D01*
X180251186Y-101197633D01*
X180335482Y-101068611D01*
X180428682Y-100856135D01*
X180485638Y-100631218D01*
X180504798Y-100400005D01*
X180504798Y-100399994D01*
X180485638Y-100168781D01*
X180428682Y-99943864D01*
X180335484Y-99731393D01*
X180251186Y-99602365D01*
X179582962Y-100270589D01*
X179565925Y-100207007D01*
X179500099Y-100092993D01*
X179407007Y-99999901D01*
X179292993Y-99934075D01*
X179229409Y-99917037D01*
X179898797Y-99247647D01*
X179898797Y-99247645D01*
X179868360Y-99223955D01*
X179868354Y-99223951D01*
X179664302Y-99113523D01*
X179664293Y-99113520D01*
X179444860Y-99038188D01*
X179216007Y-99000000D01*
X178983993Y-99000000D01*
X178755139Y-99038188D01*
X178535706Y-99113520D01*
X178535697Y-99113523D01*
X178331650Y-99223949D01*
X178301200Y-99247647D01*
X178970591Y-99917037D01*
X178907007Y-99934075D01*
X178792993Y-99999901D01*
X178699901Y-100092993D01*
X178634075Y-100207007D01*
X178617037Y-100270591D01*
X177948811Y-99602365D01*
X177864516Y-99731390D01*
X177771317Y-99943864D01*
X177714361Y-100168781D01*
X177695202Y-100399994D01*
X177695202Y-100400005D01*
X177714361Y-100631218D01*
X177771317Y-100856135D01*
X177864515Y-101068606D01*
X177948812Y-101197633D01*
X178617037Y-100529408D01*
X178634075Y-100592993D01*
X178699901Y-100707007D01*
X178792993Y-100800099D01*
X178907007Y-100865925D01*
X178970590Y-100882962D01*
X178301201Y-101552351D01*
X178301229Y-101552800D01*
X178341343Y-101608539D01*
X178345017Y-101678312D01*
X178310385Y-101738995D01*
X178300530Y-101747535D01*
X178148218Y-101866085D01*
X178148216Y-101866086D01*
X178148216Y-101866087D01*
X177996708Y-102030670D01*
X177991015Y-102036854D01*
X177954123Y-102093322D01*
X177900977Y-102138678D01*
X177850315Y-102149500D01*
X169562229Y-102149500D01*
X169495190Y-102129815D01*
X169474548Y-102113181D01*
X166638421Y-99277052D01*
X166638420Y-99277051D01*
X166545002Y-99214632D01*
X166515495Y-99194916D01*
X166515488Y-99194912D01*
X166378917Y-99138343D01*
X166378907Y-99138340D01*
X166233920Y-99109500D01*
X166233918Y-99109500D01*
X155467624Y-99109500D01*
X155400585Y-99089815D01*
X155366048Y-99056622D01*
X155363598Y-99053123D01*
X155310475Y-99000000D01*
X155208877Y-98898402D01*
X155029639Y-98772898D01*
X155029640Y-98772898D01*
X155029638Y-98772897D01*
X154930484Y-98726661D01*
X154831330Y-98680425D01*
X154831326Y-98680424D01*
X154831317Y-98680420D01*
X154828907Y-98679775D01*
X154827963Y-98679199D01*
X154826236Y-98678571D01*
X154826362Y-98678224D01*
X154769246Y-98643412D01*
X154738715Y-98580565D01*
X154747009Y-98511189D01*
X154791493Y-98457311D01*
X154826240Y-98441442D01*
X154826236Y-98441429D01*
X154826406Y-98441367D01*
X154828907Y-98440225D01*
X154831317Y-98439579D01*
X154831320Y-98439577D01*
X154831330Y-98439575D01*
X155029639Y-98347102D01*
X155208877Y-98221598D01*
X155363598Y-98066877D01*
X155366050Y-98063374D01*
X155420628Y-98019751D01*
X155467624Y-98010500D01*
X165113920Y-98010500D01*
X165211462Y-97991096D01*
X165258913Y-97981658D01*
X165395495Y-97925084D01*
X165461015Y-97881305D01*
X165518416Y-97842952D01*
X169874549Y-93486819D01*
X169935872Y-93453334D01*
X169962230Y-93450500D01*
X177850315Y-93450500D01*
X177917354Y-93470185D01*
X177954123Y-93506678D01*
X177991015Y-93563145D01*
X177991017Y-93563147D01*
X177991021Y-93563153D01*
X178148216Y-93733913D01*
X178148219Y-93733915D01*
X178148222Y-93733918D01*
X178300122Y-93852147D01*
X178340935Y-93908857D01*
X178344610Y-93978630D01*
X178309978Y-94039313D01*
X178300122Y-94047853D01*
X178148222Y-94166081D01*
X178148219Y-94166084D01*
X178148216Y-94166086D01*
X178148216Y-94166087D01*
X178107360Y-94210469D01*
X177991016Y-94336852D01*
X177864075Y-94531151D01*
X177770842Y-94743699D01*
X177713866Y-94968691D01*
X177713864Y-94968702D01*
X177694700Y-95199993D01*
X177694700Y-95200006D01*
X177713864Y-95431297D01*
X177713866Y-95431308D01*
X177770842Y-95656300D01*
X177864075Y-95868848D01*
X177991016Y-96063147D01*
X177991019Y-96063151D01*
X177991021Y-96063153D01*
X178148216Y-96233913D01*
X178148219Y-96233915D01*
X178148222Y-96233918D01*
X178331365Y-96376464D01*
X178331371Y-96376468D01*
X178331374Y-96376470D01*
X178535497Y-96486936D01*
X178592969Y-96506666D01*
X178755015Y-96562297D01*
X178755017Y-96562297D01*
X178755019Y-96562298D01*
X178983951Y-96600500D01*
X178983952Y-96600500D01*
X179216048Y-96600500D01*
X179216049Y-96600500D01*
X179444981Y-96562298D01*
X179664503Y-96486936D01*
X179868626Y-96376470D01*
X180051784Y-96233913D01*
X180208979Y-96063153D01*
X180335924Y-95868849D01*
X180429157Y-95656300D01*
X180486134Y-95431305D01*
X180486135Y-95431297D01*
X180505300Y-95200006D01*
X180505300Y-95199993D01*
X180486135Y-94968702D01*
X180486133Y-94968691D01*
X180429157Y-94743699D01*
X180335924Y-94531151D01*
X180208983Y-94336852D01*
X180208980Y-94336849D01*
X180208979Y-94336847D01*
X180051784Y-94166087D01*
X179899876Y-94047852D01*
X179859064Y-93991143D01*
X179855389Y-93921370D01*
X179890020Y-93860687D01*
X179899876Y-93852147D01*
X180051784Y-93733913D01*
X180208979Y-93563153D01*
X180211602Y-93559139D01*
X180280727Y-93453334D01*
X180335924Y-93368849D01*
X180429157Y-93156300D01*
X180486134Y-92931305D01*
X180488206Y-92906300D01*
X180505300Y-92700006D01*
X180505300Y-92699993D01*
X180486135Y-92468702D01*
X180486133Y-92468691D01*
X180429157Y-92243699D01*
X180335924Y-92031151D01*
X180208983Y-91836852D01*
X180208980Y-91836849D01*
X180208979Y-91836847D01*
X180051784Y-91666087D01*
X180007752Y-91631816D01*
X179899469Y-91547535D01*
X179858656Y-91490825D01*
X179854982Y-91421052D01*
X179889614Y-91360369D01*
X179898794Y-91352413D01*
X179898798Y-91352350D01*
X179229410Y-90682962D01*
X179292993Y-90665925D01*
X179407007Y-90600099D01*
X179500099Y-90507007D01*
X179565925Y-90392993D01*
X179582962Y-90329409D01*
X180251186Y-90997633D01*
X180335482Y-90868611D01*
X180428682Y-90656135D01*
X180485638Y-90431218D01*
X180504798Y-90200005D01*
X180504798Y-90199994D01*
X180485638Y-89968781D01*
X180428682Y-89743864D01*
X180335484Y-89531393D01*
X180251186Y-89402365D01*
X179582962Y-90070589D01*
X179565925Y-90007007D01*
X179500099Y-89892993D01*
X179407007Y-89799901D01*
X179292993Y-89734075D01*
X179229409Y-89717037D01*
X179898797Y-89047647D01*
X179898797Y-89047645D01*
X179868360Y-89023955D01*
X179868354Y-89023951D01*
X179664302Y-88913523D01*
X179664293Y-88913520D01*
X179444860Y-88838188D01*
X179216007Y-88800000D01*
X178983993Y-88800000D01*
X178755139Y-88838188D01*
X178535706Y-88913520D01*
X178535697Y-88913523D01*
X178331650Y-89023949D01*
X178301200Y-89047647D01*
X178970591Y-89717037D01*
X178907007Y-89734075D01*
X178792993Y-89799901D01*
X178699901Y-89892993D01*
X178634075Y-90007007D01*
X178617037Y-90070591D01*
X177948811Y-89402365D01*
X177864516Y-89531390D01*
X177771317Y-89743864D01*
X177714361Y-89968781D01*
X177695202Y-90199994D01*
X177695202Y-90200005D01*
X177714361Y-90431218D01*
X177771317Y-90656135D01*
X177864515Y-90868606D01*
X177948812Y-90997633D01*
X178617037Y-90329408D01*
X178634075Y-90392993D01*
X178699901Y-90507007D01*
X178792993Y-90600099D01*
X178907007Y-90665925D01*
X178970590Y-90682962D01*
X178301201Y-91352351D01*
X178301229Y-91352800D01*
X178341343Y-91408539D01*
X178345017Y-91478312D01*
X178310385Y-91538995D01*
X178300530Y-91547535D01*
X178148218Y-91666085D01*
X178148216Y-91666086D01*
X178148216Y-91666087D01*
X177991612Y-91836206D01*
X177991015Y-91836854D01*
X177954123Y-91893322D01*
X177900977Y-91938678D01*
X177850315Y-91949500D01*
X169526080Y-91949500D01*
X169381092Y-91978340D01*
X169381082Y-91978343D01*
X169244509Y-92034913D01*
X169244500Y-92034918D01*
X169236053Y-92040563D01*
X169236051Y-92040565D01*
X169121579Y-92117051D01*
X169121578Y-92117052D01*
X164765451Y-96473181D01*
X164704128Y-96506666D01*
X164677770Y-96509500D01*
X155467624Y-96509500D01*
X155400585Y-96489815D01*
X155366048Y-96456622D01*
X155363598Y-96453123D01*
X155286939Y-96376464D01*
X155208877Y-96298402D01*
X155058720Y-96193261D01*
X155029638Y-96172897D01*
X154930484Y-96126661D01*
X154831330Y-96080425D01*
X154831326Y-96080424D01*
X154831322Y-96080422D01*
X154735603Y-96054775D01*
X154675942Y-96018410D01*
X154645413Y-95955563D01*
X154653708Y-95886188D01*
X154698193Y-95832310D01*
X154735603Y-95815225D01*
X154756764Y-95809555D01*
X154831330Y-95789575D01*
X155029639Y-95697102D01*
X155208877Y-95571598D01*
X155363598Y-95416877D01*
X155489102Y-95237639D01*
X155581575Y-95039330D01*
X155638207Y-94827977D01*
X155655614Y-94629008D01*
X155657277Y-94610002D01*
X155657277Y-94609997D01*
X155651008Y-94538342D01*
X155638207Y-94392023D01*
X155590483Y-94213915D01*
X155581577Y-94180677D01*
X155581576Y-94180676D01*
X155581575Y-94180670D01*
X155489102Y-93982362D01*
X155489100Y-93982359D01*
X155489099Y-93982357D01*
X155363599Y-93803124D01*
X155294388Y-93733913D01*
X155208877Y-93648402D01*
X155205374Y-93645949D01*
X155161751Y-93591372D01*
X155152500Y-93544376D01*
X155152500Y-93179993D01*
X160829700Y-93179993D01*
X160829700Y-93180006D01*
X160848864Y-93411297D01*
X160848866Y-93411308D01*
X160905842Y-93636300D01*
X160999075Y-93848848D01*
X161126016Y-94043147D01*
X161126019Y-94043151D01*
X161126021Y-94043153D01*
X161283216Y-94213913D01*
X161283219Y-94213915D01*
X161283222Y-94213918D01*
X161466365Y-94356464D01*
X161466371Y-94356468D01*
X161466374Y-94356470D01*
X161670497Y-94466936D01*
X161760220Y-94497738D01*
X161890015Y-94542297D01*
X161890017Y-94542297D01*
X161890019Y-94542298D01*
X162118951Y-94580500D01*
X162118952Y-94580500D01*
X162351048Y-94580500D01*
X162351049Y-94580500D01*
X162579981Y-94542298D01*
X162799503Y-94466936D01*
X163003626Y-94356470D01*
X163186784Y-94213913D01*
X163195130Y-94204846D01*
X163255010Y-94168854D01*
X163324849Y-94170949D01*
X163382468Y-94210469D01*
X163402544Y-94245491D01*
X163431203Y-94322330D01*
X163431206Y-94322335D01*
X163517452Y-94437544D01*
X163517455Y-94437547D01*
X163632664Y-94523793D01*
X163632671Y-94523797D01*
X163767517Y-94574091D01*
X163767516Y-94574091D01*
X163774444Y-94574835D01*
X163827127Y-94580500D01*
X165722872Y-94580499D01*
X165782483Y-94574091D01*
X165917331Y-94523796D01*
X166032546Y-94437546D01*
X166118796Y-94322331D01*
X166169091Y-94187483D01*
X166175500Y-94127873D01*
X166175499Y-92232128D01*
X166169091Y-92172517D01*
X166159233Y-92146087D01*
X166118797Y-92037671D01*
X166118793Y-92037664D01*
X166032547Y-91922455D01*
X166032544Y-91922452D01*
X165917335Y-91836206D01*
X165917328Y-91836202D01*
X165782482Y-91785908D01*
X165782483Y-91785908D01*
X165722883Y-91779501D01*
X165722881Y-91779500D01*
X165722873Y-91779500D01*
X165722864Y-91779500D01*
X163827129Y-91779500D01*
X163827123Y-91779501D01*
X163767516Y-91785908D01*
X163632671Y-91836202D01*
X163632664Y-91836206D01*
X163517455Y-91922452D01*
X163517452Y-91922455D01*
X163431206Y-92037664D01*
X163431203Y-92037670D01*
X163402544Y-92114508D01*
X163360672Y-92170441D01*
X163295208Y-92194858D01*
X163226935Y-92180006D01*
X163195135Y-92155158D01*
X163186784Y-92146087D01*
X163186778Y-92146082D01*
X163186777Y-92146081D01*
X163003634Y-92003535D01*
X163003628Y-92003531D01*
X162799504Y-91893064D01*
X162799495Y-91893061D01*
X162579984Y-91817702D01*
X162389450Y-91785908D01*
X162351049Y-91779500D01*
X162118951Y-91779500D01*
X162080550Y-91785908D01*
X161890015Y-91817702D01*
X161670504Y-91893061D01*
X161670495Y-91893064D01*
X161466371Y-92003531D01*
X161466365Y-92003535D01*
X161283222Y-92146081D01*
X161283219Y-92146084D01*
X161283216Y-92146086D01*
X161283216Y-92146087D01*
X161238319Y-92194858D01*
X161126016Y-92316852D01*
X160999075Y-92511151D01*
X160905842Y-92723699D01*
X160848866Y-92948691D01*
X160848864Y-92948702D01*
X160829700Y-93179993D01*
X155152500Y-93179993D01*
X155152500Y-90460230D01*
X155172185Y-90393191D01*
X155188819Y-90372549D01*
X157274549Y-88286819D01*
X157335872Y-88253334D01*
X157362230Y-88250500D01*
X164473920Y-88250500D01*
X164571462Y-88231096D01*
X164618913Y-88221658D01*
X164755495Y-88165084D01*
X164804729Y-88132186D01*
X164878416Y-88082952D01*
X169674549Y-83286819D01*
X169735872Y-83253334D01*
X169762230Y-83250500D01*
X177850315Y-83250500D01*
X177917354Y-83270185D01*
X177954123Y-83306678D01*
X177991015Y-83363145D01*
X177991017Y-83363147D01*
X177991021Y-83363153D01*
X178148216Y-83533913D01*
X178148219Y-83533915D01*
X178148222Y-83533918D01*
X178300122Y-83652147D01*
X178340935Y-83708857D01*
X178344610Y-83778630D01*
X178309978Y-83839313D01*
X178300122Y-83847853D01*
X178148222Y-83966081D01*
X178148219Y-83966084D01*
X178148216Y-83966086D01*
X178148216Y-83966087D01*
X178135408Y-83980000D01*
X177991016Y-84136852D01*
X177864075Y-84331151D01*
X177770842Y-84543699D01*
X177713866Y-84768691D01*
X177713864Y-84768702D01*
X177694700Y-84999993D01*
X177694700Y-85000006D01*
X177713864Y-85231297D01*
X177713866Y-85231308D01*
X177770842Y-85456300D01*
X177864075Y-85668848D01*
X177991016Y-85863147D01*
X177991019Y-85863151D01*
X177991021Y-85863153D01*
X178148216Y-86033913D01*
X178148219Y-86033915D01*
X178148222Y-86033918D01*
X178331365Y-86176464D01*
X178331371Y-86176468D01*
X178331374Y-86176470D01*
X178535497Y-86286936D01*
X178649487Y-86326068D01*
X178755015Y-86362297D01*
X178755017Y-86362297D01*
X178755019Y-86362298D01*
X178983951Y-86400500D01*
X178983952Y-86400500D01*
X179216048Y-86400500D01*
X179216049Y-86400500D01*
X179444981Y-86362298D01*
X179664503Y-86286936D01*
X179868626Y-86176470D01*
X179901993Y-86150500D01*
X179930129Y-86128600D01*
X180051784Y-86033913D01*
X180208979Y-85863153D01*
X180335924Y-85668849D01*
X180429157Y-85456300D01*
X180486134Y-85231305D01*
X180488206Y-85206300D01*
X180505300Y-85000006D01*
X180505300Y-84999993D01*
X180486135Y-84768702D01*
X180486133Y-84768691D01*
X180429157Y-84543699D01*
X180335924Y-84331151D01*
X180208983Y-84136852D01*
X180208980Y-84136849D01*
X180208979Y-84136847D01*
X180051784Y-83966087D01*
X179899876Y-83847852D01*
X179859064Y-83791143D01*
X179855389Y-83721370D01*
X179890020Y-83660687D01*
X179899876Y-83652147D01*
X180051784Y-83533913D01*
X180208979Y-83363153D01*
X180335924Y-83168849D01*
X180429157Y-82956300D01*
X180486134Y-82731305D01*
X180486873Y-82722392D01*
X180505300Y-82500006D01*
X180505300Y-82499993D01*
X180486135Y-82268702D01*
X180486133Y-82268691D01*
X180429157Y-82043699D01*
X180335924Y-81831151D01*
X180208983Y-81636852D01*
X180208980Y-81636849D01*
X180208979Y-81636847D01*
X180051784Y-81466087D01*
X179966693Y-81399858D01*
X179899469Y-81347535D01*
X179858656Y-81290825D01*
X179854982Y-81221052D01*
X179889614Y-81160369D01*
X179898794Y-81152413D01*
X179898798Y-81152350D01*
X179229410Y-80482962D01*
X179292993Y-80465925D01*
X179407007Y-80400099D01*
X179500099Y-80307007D01*
X179565925Y-80192993D01*
X179582962Y-80129409D01*
X180251186Y-80797633D01*
X180335482Y-80668611D01*
X180428682Y-80456135D01*
X180485638Y-80231218D01*
X180504798Y-80000005D01*
X180504798Y-79999994D01*
X180485638Y-79768781D01*
X180428682Y-79543864D01*
X180335484Y-79331393D01*
X180251186Y-79202365D01*
X179582962Y-79870589D01*
X179565925Y-79807007D01*
X179500099Y-79692993D01*
X179407007Y-79599901D01*
X179292993Y-79534075D01*
X179229409Y-79517037D01*
X179898797Y-78847647D01*
X179898797Y-78847645D01*
X179868360Y-78823955D01*
X179868354Y-78823951D01*
X179664302Y-78713523D01*
X179664293Y-78713520D01*
X179444860Y-78638188D01*
X179216007Y-78600000D01*
X178983993Y-78600000D01*
X178755139Y-78638188D01*
X178535706Y-78713520D01*
X178535697Y-78713523D01*
X178331650Y-78823949D01*
X178301200Y-78847647D01*
X178970591Y-79517037D01*
X178907007Y-79534075D01*
X178792993Y-79599901D01*
X178699901Y-79692993D01*
X178634075Y-79807007D01*
X178617037Y-79870591D01*
X177948811Y-79202365D01*
X177864516Y-79331390D01*
X177771317Y-79543864D01*
X177714361Y-79768781D01*
X177695202Y-79999994D01*
X177695202Y-80000005D01*
X177714361Y-80231218D01*
X177771317Y-80456135D01*
X177864515Y-80668606D01*
X177948812Y-80797633D01*
X178617037Y-80129408D01*
X178634075Y-80192993D01*
X178699901Y-80307007D01*
X178792993Y-80400099D01*
X178907007Y-80465925D01*
X178970590Y-80482962D01*
X178301201Y-81152351D01*
X178301229Y-81152800D01*
X178341343Y-81208539D01*
X178345017Y-81278312D01*
X178310385Y-81338995D01*
X178300530Y-81347535D01*
X178148218Y-81466085D01*
X178148216Y-81466086D01*
X178148216Y-81466087D01*
X178090907Y-81528342D01*
X177991015Y-81636854D01*
X177954123Y-81693322D01*
X177900977Y-81738678D01*
X177850315Y-81749500D01*
X169326080Y-81749500D01*
X169181092Y-81778340D01*
X169181082Y-81778343D01*
X169044509Y-81834913D01*
X169044507Y-81834914D01*
X169003645Y-81862218D01*
X169003643Y-81862219D01*
X168921589Y-81917043D01*
X168921584Y-81917047D01*
X164125451Y-86713181D01*
X164064128Y-86746666D01*
X164037770Y-86749500D01*
X156926080Y-86749500D01*
X156781092Y-86778340D01*
X156781086Y-86778342D01*
X156644508Y-86834914D01*
X156644496Y-86834921D01*
X156595269Y-86867813D01*
X156521588Y-86917044D01*
X156521580Y-86917050D01*
X153819049Y-89619582D01*
X153819043Y-89619589D01*
X153801006Y-89646584D01*
X153801007Y-89646585D01*
X153736914Y-89742508D01*
X153680343Y-89879082D01*
X153680340Y-89879092D01*
X153651500Y-90024079D01*
X153651500Y-93544376D01*
X153631815Y-93611415D01*
X153598625Y-93645950D01*
X153595125Y-93648400D01*
X153440400Y-93803124D01*
X153314898Y-93982360D01*
X153314897Y-93982362D01*
X153279671Y-94057905D01*
X153233498Y-94110344D01*
X153167289Y-94129500D01*
X152126663Y-94129500D01*
X152059624Y-94109815D01*
X152025088Y-94076623D01*
X152000045Y-94040858D01*
X151839141Y-93879954D01*
X151652734Y-93749432D01*
X151652732Y-93749431D01*
X151446497Y-93653261D01*
X151446488Y-93653258D01*
X151226697Y-93594366D01*
X151226693Y-93594365D01*
X151226692Y-93594365D01*
X151226691Y-93594364D01*
X151226686Y-93594364D01*
X151000002Y-93574532D01*
X150999998Y-93574532D01*
X150773313Y-93594364D01*
X150773302Y-93594366D01*
X150655089Y-93626041D01*
X150585239Y-93624378D01*
X150535315Y-93593947D01*
X147386716Y-90445348D01*
X147353231Y-90384025D01*
X147350869Y-90346863D01*
X147365468Y-90180000D01*
X147345635Y-89953308D01*
X147286739Y-89733504D01*
X147190568Y-89527266D01*
X147060047Y-89340861D01*
X147060045Y-89340858D01*
X146899141Y-89179954D01*
X146712734Y-89049432D01*
X146712732Y-89049431D01*
X146506497Y-88953261D01*
X146506488Y-88953258D01*
X146286697Y-88894366D01*
X146286693Y-88894365D01*
X146286692Y-88894365D01*
X146286691Y-88894364D01*
X146286686Y-88894364D01*
X146060002Y-88874532D01*
X146059998Y-88874532D01*
X145833313Y-88894364D01*
X145833302Y-88894366D01*
X145613511Y-88953258D01*
X145613502Y-88953261D01*
X145407267Y-89049431D01*
X145407265Y-89049432D01*
X145220858Y-89179954D01*
X145059954Y-89340858D01*
X144929432Y-89527265D01*
X144929431Y-89527267D01*
X144833261Y-89733502D01*
X144833258Y-89733511D01*
X144774366Y-89953302D01*
X144774364Y-89953313D01*
X144754532Y-90179998D01*
X139740499Y-90179998D01*
X139740499Y-89332128D01*
X139734091Y-89272517D01*
X139725506Y-89249500D01*
X139683797Y-89137671D01*
X139683793Y-89137664D01*
X139597547Y-89022455D01*
X139597544Y-89022452D01*
X139482335Y-88936206D01*
X139482328Y-88936202D01*
X139347482Y-88885908D01*
X139347483Y-88885908D01*
X139287883Y-88879501D01*
X139287881Y-88879500D01*
X139287873Y-88879500D01*
X139287864Y-88879500D01*
X137592129Y-88879500D01*
X137592123Y-88879501D01*
X137532516Y-88885908D01*
X137397671Y-88936202D01*
X137397664Y-88936206D01*
X137282455Y-89022452D01*
X137223766Y-89100850D01*
X137167832Y-89142720D01*
X137098140Y-89147704D01*
X137036817Y-89114218D01*
X137003333Y-89052894D01*
X137000500Y-89026538D01*
X137000500Y-85189641D01*
X143895311Y-85189641D01*
X143983585Y-85244298D01*
X144173678Y-85317940D01*
X144374072Y-85355401D01*
X144577928Y-85355401D01*
X144778322Y-85317940D01*
X144968412Y-85244300D01*
X144968416Y-85244298D01*
X145056686Y-85189642D01*
X145056686Y-85189641D01*
X145045285Y-85178240D01*
X148721311Y-85178240D01*
X148809585Y-85232897D01*
X148999678Y-85306539D01*
X149200072Y-85344000D01*
X149403928Y-85344000D01*
X149604322Y-85306539D01*
X149794412Y-85232899D01*
X149794416Y-85232897D01*
X149882686Y-85178241D01*
X149882686Y-85178240D01*
X149302001Y-84597553D01*
X149302000Y-84597553D01*
X148721311Y-85178240D01*
X145045285Y-85178240D01*
X144476001Y-84608954D01*
X144476000Y-84608954D01*
X143895311Y-85189641D01*
X137000500Y-85189641D01*
X137000500Y-74668888D01*
X137020185Y-74601849D01*
X137036814Y-74581211D01*
X138078318Y-73539707D01*
X138139641Y-73506223D01*
X138209333Y-73511207D01*
X138253680Y-73539708D01*
X138418493Y-73704521D01*
X138453124Y-73729681D01*
X138495791Y-73785010D01*
X138501771Y-73854624D01*
X138469166Y-73916419D01*
X138453127Y-73930317D01*
X138418490Y-73955482D01*
X138251485Y-74122487D01*
X138251485Y-74122488D01*
X138251483Y-74122490D01*
X138233807Y-74146819D01*
X138112657Y-74313566D01*
X138005433Y-74524003D01*
X137932446Y-74748631D01*
X137895500Y-74981902D01*
X137895500Y-75218097D01*
X137932446Y-75451368D01*
X138005433Y-75675996D01*
X138112657Y-75886433D01*
X138229702Y-76047532D01*
X138253182Y-76113336D01*
X138237357Y-76181390D01*
X138187251Y-76230085D01*
X138172721Y-76236596D01*
X138153676Y-76243699D01*
X138153664Y-76243706D01*
X138038455Y-76329952D01*
X138038452Y-76329955D01*
X137952206Y-76445164D01*
X137952202Y-76445171D01*
X137901908Y-76580017D01*
X137895501Y-76639616D01*
X137895500Y-76639635D01*
X137895500Y-78640370D01*
X137895501Y-78640376D01*
X137901908Y-78699983D01*
X137952202Y-78834828D01*
X137952206Y-78834835D01*
X138038452Y-78950044D01*
X138038455Y-78950047D01*
X138153664Y-79036293D01*
X138153671Y-79036297D01*
X138198618Y-79053061D01*
X138288517Y-79086591D01*
X138348127Y-79093000D01*
X138992512Y-79092999D01*
X139030831Y-79099068D01*
X139044632Y-79103553D01*
X139161270Y-79122026D01*
X139277903Y-79140500D01*
X139277908Y-79140500D01*
X142115554Y-79140500D01*
X142163006Y-79149939D01*
X142175653Y-79155177D01*
X142203889Y-79166873D01*
X142448852Y-79225683D01*
X142700000Y-79245449D01*
X142841774Y-79234290D01*
X142910147Y-79248654D01*
X142959905Y-79297705D01*
X142975500Y-79357908D01*
X142975500Y-82373498D01*
X143012446Y-82606769D01*
X143085433Y-82831397D01*
X143149075Y-82956300D01*
X143192657Y-83041834D01*
X143331483Y-83232911D01*
X143498490Y-83399918D01*
X143554582Y-83440671D01*
X143597247Y-83496001D01*
X143603226Y-83565615D01*
X143580651Y-83615715D01*
X143536754Y-83673845D01*
X143445886Y-83856331D01*
X143445883Y-83856337D01*
X143390097Y-84052408D01*
X143390096Y-84052411D01*
X143371287Y-84255400D01*
X143371287Y-84255401D01*
X143390096Y-84458390D01*
X143390097Y-84458393D01*
X143445883Y-84654464D01*
X143445886Y-84654470D01*
X143536751Y-84836952D01*
X143538533Y-84839312D01*
X144181145Y-84196699D01*
X144176000Y-84215905D01*
X144176000Y-84294897D01*
X144196444Y-84371197D01*
X144235940Y-84439606D01*
X144291795Y-84495461D01*
X144360204Y-84534957D01*
X144436504Y-84555401D01*
X144515496Y-84555401D01*
X144591796Y-84534957D01*
X144660205Y-84495461D01*
X144716060Y-84439606D01*
X144755556Y-84371197D01*
X144776000Y-84294897D01*
X144776000Y-84215905D01*
X144770854Y-84196702D01*
X145413465Y-84839313D01*
X145415247Y-84836954D01*
X145415248Y-84836952D01*
X145506113Y-84654470D01*
X145506116Y-84654464D01*
X145561902Y-84458393D01*
X145561903Y-84458390D01*
X145580713Y-84255401D01*
X145580713Y-84255400D01*
X145561903Y-84052411D01*
X145561902Y-84052408D01*
X145506116Y-83856337D01*
X145506113Y-83856331D01*
X145415245Y-83673844D01*
X145371349Y-83615716D01*
X145346657Y-83550355D01*
X145361222Y-83482020D01*
X145397417Y-83440671D01*
X145453510Y-83399918D01*
X145620517Y-83232911D01*
X145759343Y-83041834D01*
X145866568Y-82831393D01*
X145939553Y-82606769D01*
X145956332Y-82500830D01*
X145976500Y-82373498D01*
X145976500Y-79264500D01*
X145996185Y-79197461D01*
X146048989Y-79151706D01*
X146100500Y-79140500D01*
X146118097Y-79140500D01*
X146351368Y-79103553D01*
X146365168Y-79099069D01*
X146575992Y-79030568D01*
X146786433Y-78923343D01*
X146977510Y-78784517D01*
X147144517Y-78617510D01*
X147283343Y-78426433D01*
X147390568Y-78215992D01*
X147463553Y-77991368D01*
X147474844Y-77920080D01*
X147500500Y-77758095D01*
X147500500Y-77521902D01*
X147463553Y-77288631D01*
X147390566Y-77064003D01*
X147331213Y-76947517D01*
X147283343Y-76853567D01*
X147278746Y-76847239D01*
X147242525Y-76797385D01*
X147219045Y-76731579D01*
X147234870Y-76663525D01*
X147284976Y-76614830D01*
X147342843Y-76600500D01*
X147677500Y-76600500D01*
X147744539Y-76620185D01*
X147790294Y-76672989D01*
X147801500Y-76724500D01*
X147801500Y-82362097D01*
X147838446Y-82595368D01*
X147911433Y-82819996D01*
X147938971Y-82874041D01*
X148018657Y-83030433D01*
X148157483Y-83221510D01*
X148324490Y-83388517D01*
X148380582Y-83429270D01*
X148423247Y-83484600D01*
X148429226Y-83554214D01*
X148406651Y-83604314D01*
X148362754Y-83662444D01*
X148271886Y-83844930D01*
X148271883Y-83844936D01*
X148216097Y-84041007D01*
X148216096Y-84041010D01*
X148197287Y-84243999D01*
X148197287Y-84244000D01*
X148216096Y-84446989D01*
X148216097Y-84446992D01*
X148271883Y-84643063D01*
X148271886Y-84643069D01*
X148362751Y-84825551D01*
X148364533Y-84827911D01*
X149007145Y-84185298D01*
X149002000Y-84204504D01*
X149002000Y-84283496D01*
X149022444Y-84359796D01*
X149061940Y-84428205D01*
X149117795Y-84484060D01*
X149186204Y-84523556D01*
X149262504Y-84544000D01*
X149341496Y-84544000D01*
X149417796Y-84523556D01*
X149486205Y-84484060D01*
X149542060Y-84428205D01*
X149581556Y-84359796D01*
X149602000Y-84283496D01*
X149602000Y-84204504D01*
X149596854Y-84185301D01*
X150239465Y-84827912D01*
X150241247Y-84825553D01*
X150241248Y-84825551D01*
X150332113Y-84643069D01*
X150332116Y-84643063D01*
X150387902Y-84446992D01*
X150387903Y-84446989D01*
X150406713Y-84244000D01*
X150406713Y-84243999D01*
X150387903Y-84041010D01*
X150387902Y-84041007D01*
X150332116Y-83844936D01*
X150332113Y-83844930D01*
X150241245Y-83662443D01*
X150197349Y-83604315D01*
X150172657Y-83538954D01*
X150187222Y-83470619D01*
X150223417Y-83429270D01*
X150279510Y-83388517D01*
X150446517Y-83221510D01*
X150585343Y-83030433D01*
X150692568Y-82819992D01*
X150765553Y-82595368D01*
X150765735Y-82594222D01*
X150798874Y-82384993D01*
X160829700Y-82384993D01*
X160829700Y-82385006D01*
X160848864Y-82616297D01*
X160848866Y-82616308D01*
X160905842Y-82841300D01*
X160999075Y-83053848D01*
X161126016Y-83248147D01*
X161126019Y-83248151D01*
X161126021Y-83248153D01*
X161283216Y-83418913D01*
X161283219Y-83418915D01*
X161283222Y-83418918D01*
X161466365Y-83561464D01*
X161466371Y-83561468D01*
X161466374Y-83561470D01*
X161670497Y-83671936D01*
X161774246Y-83707553D01*
X161890015Y-83747297D01*
X161890017Y-83747297D01*
X161890019Y-83747298D01*
X162118951Y-83785500D01*
X162118952Y-83785500D01*
X162351048Y-83785500D01*
X162351049Y-83785500D01*
X162579981Y-83747298D01*
X162799503Y-83671936D01*
X163003626Y-83561470D01*
X163032825Y-83538744D01*
X163083389Y-83499388D01*
X163186784Y-83418913D01*
X163195130Y-83409846D01*
X163255010Y-83373854D01*
X163324849Y-83375949D01*
X163382468Y-83415469D01*
X163402544Y-83450491D01*
X163431203Y-83527330D01*
X163431206Y-83527335D01*
X163517452Y-83642544D01*
X163517455Y-83642547D01*
X163632664Y-83728793D01*
X163632671Y-83728797D01*
X163767517Y-83779091D01*
X163767516Y-83779091D01*
X163774444Y-83779835D01*
X163827127Y-83785500D01*
X165722872Y-83785499D01*
X165782483Y-83779091D01*
X165917331Y-83728796D01*
X166032546Y-83642546D01*
X166118796Y-83527331D01*
X166169091Y-83392483D01*
X166175500Y-83332873D01*
X166175499Y-81437128D01*
X166169091Y-81377517D01*
X166159233Y-81351087D01*
X166118797Y-81242671D01*
X166118793Y-81242664D01*
X166032547Y-81127455D01*
X166032544Y-81127452D01*
X165917335Y-81041206D01*
X165917328Y-81041202D01*
X165782482Y-80990908D01*
X165782483Y-80990908D01*
X165722883Y-80984501D01*
X165722881Y-80984500D01*
X165722873Y-80984500D01*
X165722864Y-80984500D01*
X163827129Y-80984500D01*
X163827123Y-80984501D01*
X163767516Y-80990908D01*
X163632671Y-81041202D01*
X163632664Y-81041206D01*
X163517455Y-81127452D01*
X163517452Y-81127455D01*
X163431206Y-81242664D01*
X163431203Y-81242670D01*
X163402544Y-81319508D01*
X163360672Y-81375441D01*
X163295208Y-81399858D01*
X163226935Y-81385006D01*
X163195135Y-81360158D01*
X163186784Y-81351087D01*
X163186778Y-81351082D01*
X163186777Y-81351081D01*
X163003634Y-81208535D01*
X163003628Y-81208531D01*
X162799504Y-81098064D01*
X162799495Y-81098061D01*
X162579984Y-81022702D01*
X162389450Y-80990908D01*
X162351049Y-80984500D01*
X162118951Y-80984500D01*
X162080550Y-80990908D01*
X161890015Y-81022702D01*
X161670504Y-81098061D01*
X161670495Y-81098064D01*
X161466371Y-81208531D01*
X161466365Y-81208535D01*
X161283222Y-81351081D01*
X161283219Y-81351084D01*
X161283216Y-81351086D01*
X161283216Y-81351087D01*
X161250297Y-81386847D01*
X161126016Y-81521852D01*
X160999075Y-81716151D01*
X160905842Y-81928699D01*
X160848866Y-82153691D01*
X160848864Y-82153702D01*
X160829700Y-82384993D01*
X150798874Y-82384993D01*
X150802500Y-82362097D01*
X150802500Y-76724500D01*
X150822185Y-76657461D01*
X150874989Y-76611706D01*
X150926500Y-76600500D01*
X151478649Y-76600500D01*
X151545688Y-76620185D01*
X151591443Y-76672989D01*
X151601387Y-76742147D01*
X151580224Y-76795624D01*
X151473865Y-76947517D01*
X151377734Y-77153673D01*
X151377730Y-77153682D01*
X151318860Y-77373389D01*
X151318858Y-77373400D01*
X151299034Y-77599997D01*
X151299034Y-77600002D01*
X151318858Y-77826599D01*
X151318860Y-77826610D01*
X151377730Y-78046317D01*
X151377735Y-78046331D01*
X151473863Y-78252478D01*
X151524974Y-78325472D01*
X152204000Y-77646446D01*
X152204000Y-77652661D01*
X152231259Y-77754394D01*
X152283920Y-77845606D01*
X152358394Y-77920080D01*
X152449606Y-77972741D01*
X152551339Y-78000000D01*
X152557553Y-78000000D01*
X151878526Y-78679025D01*
X151951513Y-78730132D01*
X151951521Y-78730136D01*
X152157668Y-78826264D01*
X152157682Y-78826269D01*
X152377389Y-78885139D01*
X152377400Y-78885141D01*
X152603998Y-78904966D01*
X152604002Y-78904966D01*
X152830599Y-78885141D01*
X152830610Y-78885139D01*
X153050317Y-78826269D01*
X153050331Y-78826264D01*
X153256478Y-78730136D01*
X153329471Y-78679024D01*
X152650447Y-78000000D01*
X152656661Y-78000000D01*
X152758394Y-77972741D01*
X152849606Y-77920080D01*
X152924080Y-77845606D01*
X152976741Y-77754394D01*
X153004000Y-77652661D01*
X153004000Y-77646447D01*
X153683024Y-78325471D01*
X153734136Y-78252478D01*
X153830264Y-78046331D01*
X153830269Y-78046317D01*
X153889139Y-77826610D01*
X153889141Y-77826599D01*
X153908966Y-77600002D01*
X153908966Y-77599997D01*
X153889141Y-77373400D01*
X153889139Y-77373389D01*
X153830269Y-77153682D01*
X153830265Y-77153673D01*
X153734134Y-76947517D01*
X153627776Y-76795624D01*
X153605449Y-76729418D01*
X153622459Y-76661650D01*
X153673407Y-76613837D01*
X153729351Y-76600500D01*
X155315554Y-76600500D01*
X155363006Y-76609939D01*
X155372417Y-76613837D01*
X155403889Y-76626873D01*
X155648852Y-76685683D01*
X155900000Y-76705449D01*
X156151148Y-76685683D01*
X156396111Y-76626873D01*
X156628859Y-76530466D01*
X156843659Y-76398836D01*
X157035224Y-76235224D01*
X157198836Y-76043659D01*
X157330466Y-75828859D01*
X157426873Y-75596111D01*
X157485683Y-75351148D01*
X157505449Y-75100000D01*
X157485683Y-74848852D01*
X157426873Y-74603889D01*
X157393510Y-74523343D01*
X157330466Y-74371140D01*
X157286436Y-74299290D01*
X157268191Y-74231844D01*
X157289307Y-74165242D01*
X157343079Y-74120628D01*
X157392163Y-74110500D01*
X162625840Y-74110500D01*
X162692879Y-74130185D01*
X162713521Y-74146819D01*
X162951220Y-74384518D01*
X163129305Y-74513903D01*
X163129306Y-74513905D01*
X163140391Y-74521958D01*
X163142297Y-74523343D01*
X163255862Y-74581207D01*
X163352733Y-74630566D01*
X163352735Y-74630566D01*
X163352738Y-74630568D01*
X163470674Y-74668888D01*
X163577361Y-74703553D01*
X163810633Y-74740500D01*
X163810638Y-74740500D01*
X164618097Y-74740500D01*
X164851368Y-74703553D01*
X165075992Y-74630568D01*
X165286433Y-74523343D01*
X165477510Y-74384517D01*
X165644517Y-74217510D01*
X165783343Y-74026433D01*
X165890568Y-73815992D01*
X165963553Y-73591368D01*
X165982887Y-73469299D01*
X166000500Y-73358097D01*
X166000500Y-73121902D01*
X165963553Y-72888631D01*
X165929689Y-72784412D01*
X165890568Y-72664008D01*
X165890566Y-72664005D01*
X165890566Y-72664003D01*
X165847622Y-72579722D01*
X165783343Y-72453567D01*
X165765833Y-72429466D01*
X165742525Y-72397385D01*
X165719045Y-72331579D01*
X165734870Y-72263525D01*
X165784976Y-72214830D01*
X165842843Y-72200500D01*
X171418097Y-72200500D01*
X171651368Y-72163553D01*
X171875992Y-72090568D01*
X172086434Y-71983343D01*
X172277510Y-71844517D01*
X177485208Y-66636819D01*
X177546531Y-66603334D01*
X177572889Y-66600500D01*
X185075500Y-66600500D01*
X185142539Y-66620185D01*
X185188294Y-66672989D01*
X185199500Y-66724500D01*
X185199500Y-69627111D01*
X185179815Y-69694150D01*
X185163181Y-69714792D01*
X183664792Y-71213181D01*
X183603469Y-71246666D01*
X183577111Y-71249500D01*
X180348434Y-71249500D01*
X180281395Y-71229815D01*
X180235640Y-71177011D01*
X180225696Y-71107853D01*
X180244625Y-71057678D01*
X180335484Y-70918606D01*
X180428682Y-70706135D01*
X180485638Y-70481218D01*
X180504798Y-70250005D01*
X180504798Y-70249994D01*
X180485638Y-70018781D01*
X180428682Y-69793864D01*
X180335484Y-69581393D01*
X180251186Y-69452365D01*
X179582962Y-70120589D01*
X179565925Y-70057007D01*
X179500099Y-69942993D01*
X179407007Y-69849901D01*
X179292993Y-69784075D01*
X179229409Y-69767037D01*
X179898797Y-69097647D01*
X179898797Y-69097645D01*
X179868360Y-69073955D01*
X179868354Y-69073951D01*
X179664302Y-68963523D01*
X179664293Y-68963520D01*
X179444860Y-68888188D01*
X179216007Y-68850000D01*
X178983993Y-68850000D01*
X178755139Y-68888188D01*
X178535706Y-68963520D01*
X178535697Y-68963523D01*
X178331650Y-69073949D01*
X178301200Y-69097647D01*
X178970591Y-69767037D01*
X178907007Y-69784075D01*
X178792993Y-69849901D01*
X178699901Y-69942993D01*
X178634075Y-70057007D01*
X178617037Y-70120591D01*
X177948811Y-69452365D01*
X177864516Y-69581390D01*
X177771317Y-69793864D01*
X177714361Y-70018781D01*
X177695202Y-70249994D01*
X177695202Y-70250005D01*
X177714361Y-70481218D01*
X177771317Y-70706135D01*
X177864515Y-70918606D01*
X177948812Y-71047633D01*
X178617037Y-70379408D01*
X178634075Y-70442993D01*
X178699901Y-70557007D01*
X178792993Y-70650099D01*
X178907007Y-70715925D01*
X178970590Y-70732962D01*
X178301201Y-71402351D01*
X178301335Y-71404507D01*
X178285842Y-71472637D01*
X178250459Y-71512507D01*
X178122490Y-71605483D01*
X178122488Y-71605485D01*
X178122487Y-71605485D01*
X177955485Y-71772487D01*
X177955485Y-71772488D01*
X177955483Y-71772490D01*
X177935496Y-71800000D01*
X177816657Y-71963566D01*
X177709433Y-72174003D01*
X177636446Y-72398631D01*
X177599500Y-72631902D01*
X177599500Y-72868097D01*
X177636446Y-73101368D01*
X177709433Y-73325996D01*
X177785610Y-73475500D01*
X177816657Y-73536433D01*
X177955483Y-73727510D01*
X178122490Y-73894517D01*
X178313567Y-74033343D01*
X178412991Y-74084002D01*
X178524003Y-74140566D01*
X178524005Y-74140566D01*
X178524008Y-74140568D01*
X178599947Y-74165242D01*
X178748631Y-74213553D01*
X178981903Y-74250500D01*
X178981908Y-74250500D01*
X184368097Y-74250500D01*
X184601368Y-74213553D01*
X184636533Y-74202127D01*
X184825992Y-74140568D01*
X185036434Y-74033343D01*
X185227510Y-73894517D01*
X187844517Y-71277510D01*
X187983343Y-71086434D01*
X188090568Y-70875992D01*
X188131505Y-70750000D01*
X188147751Y-70700001D01*
X188157325Y-70670534D01*
X188163553Y-70651368D01*
X188179973Y-70547689D01*
X188200500Y-70418097D01*
X188200500Y-64981902D01*
X188163553Y-64748631D01*
X188123287Y-64624706D01*
X188090568Y-64524008D01*
X188090566Y-64524005D01*
X188090566Y-64524003D01*
X188001909Y-64350005D01*
X187983343Y-64313567D01*
X187844517Y-64122490D01*
X187677510Y-63955483D01*
X187549540Y-63862507D01*
X187506875Y-63807177D01*
X187498664Y-63754506D01*
X187498797Y-63752350D01*
X186829409Y-63082962D01*
X186892993Y-63065925D01*
X187007007Y-63000099D01*
X187100099Y-62907007D01*
X187165925Y-62792993D01*
X187182962Y-62729409D01*
X187851186Y-63397633D01*
X187935482Y-63268611D01*
X188028682Y-63056135D01*
X188085638Y-62831218D01*
X188104798Y-62600005D01*
X188104798Y-62599994D01*
X188085638Y-62368781D01*
X188028682Y-62143864D01*
X187935484Y-61931393D01*
X187851186Y-61802365D01*
X187182962Y-62470589D01*
X187165925Y-62407007D01*
X187100099Y-62292993D01*
X187007007Y-62199901D01*
X186892993Y-62134075D01*
X186829409Y-62117037D01*
X187498797Y-61447647D01*
X187498797Y-61447645D01*
X187468360Y-61423955D01*
X187468354Y-61423951D01*
X187264302Y-61313523D01*
X187264293Y-61313520D01*
X187044860Y-61238188D01*
X186816007Y-61200000D01*
X186583993Y-61200000D01*
X186355139Y-61238188D01*
X186135706Y-61313520D01*
X186135697Y-61313523D01*
X185931650Y-61423949D01*
X185901200Y-61447647D01*
X186570591Y-62117037D01*
X186507007Y-62134075D01*
X186392993Y-62199901D01*
X186299901Y-62292993D01*
X186234075Y-62407007D01*
X186217037Y-62470590D01*
X185548811Y-61802365D01*
X185464516Y-61931390D01*
X185371317Y-62143864D01*
X185314361Y-62368781D01*
X185295202Y-62599994D01*
X185295202Y-62600005D01*
X185314361Y-62831218D01*
X185371317Y-63056135D01*
X185464515Y-63268606D01*
X185555375Y-63407678D01*
X185575562Y-63474568D01*
X185556382Y-63541754D01*
X185503924Y-63587904D01*
X185451566Y-63599500D01*
X176781903Y-63599500D01*
X176548631Y-63636446D01*
X176324003Y-63709433D01*
X176113565Y-63816657D01*
X175922488Y-63955484D01*
X175922487Y-63955485D01*
X170714792Y-69163181D01*
X170653469Y-69196666D01*
X170627111Y-69199500D01*
X165973319Y-69199500D01*
X165906280Y-69179815D01*
X165860525Y-69127011D01*
X165850029Y-69062249D01*
X165850500Y-69057873D01*
X165850499Y-68844399D01*
X165864014Y-68788105D01*
X165890568Y-68735992D01*
X165963553Y-68511368D01*
X165975636Y-68435080D01*
X166000500Y-68278096D01*
X166000500Y-68041902D01*
X165963553Y-67808630D01*
X165890565Y-67583999D01*
X165864014Y-67531890D01*
X165850499Y-67475596D01*
X165850499Y-67262129D01*
X165850498Y-67262123D01*
X165844091Y-67202516D01*
X165793797Y-67067671D01*
X165793793Y-67067664D01*
X165707547Y-66952455D01*
X165707544Y-66952452D01*
X165592335Y-66866206D01*
X165592328Y-66866202D01*
X165457482Y-66815908D01*
X165457483Y-66815908D01*
X165397883Y-66809501D01*
X165397881Y-66809500D01*
X165397873Y-66809500D01*
X165397865Y-66809500D01*
X165184401Y-66809500D01*
X165128106Y-66795985D01*
X165075997Y-66769433D01*
X164851369Y-66696446D01*
X164618097Y-66659500D01*
X164618092Y-66659500D01*
X164381909Y-66659500D01*
X164381904Y-66659500D01*
X164148631Y-66696446D01*
X164062294Y-66724500D01*
X164028651Y-66735431D01*
X163990334Y-66741500D01*
X150427351Y-66741500D01*
X150360312Y-66721815D01*
X150314557Y-66669011D01*
X150304613Y-66599853D01*
X150325776Y-66546376D01*
X150432134Y-66394482D01*
X150528265Y-66188326D01*
X150528269Y-66188317D01*
X150587139Y-65968610D01*
X150587141Y-65968599D01*
X150606966Y-65742002D01*
X150606966Y-65741997D01*
X150587141Y-65515400D01*
X150587139Y-65515389D01*
X150528269Y-65295682D01*
X150528264Y-65295668D01*
X150432136Y-65089521D01*
X150432132Y-65089513D01*
X150381025Y-65016526D01*
X149702000Y-65695552D01*
X149702000Y-65689339D01*
X149674741Y-65587606D01*
X149622080Y-65496394D01*
X149547606Y-65421920D01*
X149456394Y-65369259D01*
X149354661Y-65342000D01*
X149348448Y-65342000D01*
X150027472Y-64662974D01*
X149954478Y-64611863D01*
X149748331Y-64515735D01*
X149748317Y-64515730D01*
X149528610Y-64456860D01*
X149528599Y-64456858D01*
X149302002Y-64437034D01*
X149301998Y-64437034D01*
X149075400Y-64456858D01*
X149075389Y-64456860D01*
X148855682Y-64515730D01*
X148855673Y-64515734D01*
X148649516Y-64611866D01*
X148649512Y-64611868D01*
X148576526Y-64662973D01*
X148576526Y-64662974D01*
X149255553Y-65342000D01*
X149249339Y-65342000D01*
X149147606Y-65369259D01*
X149056394Y-65421920D01*
X148981920Y-65496394D01*
X148929259Y-65587606D01*
X148902000Y-65689339D01*
X148902000Y-65695552D01*
X148222974Y-65016526D01*
X148222973Y-65016526D01*
X148171868Y-65089512D01*
X148171866Y-65089516D01*
X148075734Y-65295673D01*
X148075730Y-65295682D01*
X148016860Y-65515389D01*
X148016858Y-65515400D01*
X147997034Y-65741997D01*
X147997034Y-65742002D01*
X148016858Y-65968599D01*
X148016860Y-65968610D01*
X148075730Y-66188317D01*
X148075735Y-66188331D01*
X148171863Y-66394478D01*
X148222974Y-66467472D01*
X148902000Y-65788446D01*
X148902000Y-65794661D01*
X148929259Y-65896394D01*
X148981920Y-65987606D01*
X149056394Y-66062080D01*
X149147606Y-66114741D01*
X149249339Y-66142000D01*
X149255553Y-66142000D01*
X148571352Y-66826199D01*
X148561506Y-66875194D01*
X148512890Y-66925377D01*
X148457367Y-66940049D01*
X148457423Y-66941099D01*
X148457429Y-66941146D01*
X148457426Y-66941146D01*
X148457436Y-66941324D01*
X148454123Y-66941501D01*
X148394516Y-66947908D01*
X148259671Y-66998202D01*
X148259664Y-66998206D01*
X148144455Y-67084452D01*
X148144452Y-67084455D01*
X148058206Y-67199664D01*
X148058202Y-67199671D01*
X148007908Y-67334517D01*
X148001501Y-67394116D01*
X148001500Y-67394135D01*
X148001500Y-67459468D01*
X147987985Y-67515763D01*
X147911434Y-67666003D01*
X147911433Y-67666005D01*
X147911432Y-67666008D01*
X147895513Y-67715000D01*
X147838446Y-67890631D01*
X147801500Y-68123902D01*
X147801500Y-70935500D01*
X147781815Y-71002539D01*
X147729011Y-71048294D01*
X147677500Y-71059500D01*
X140068890Y-71059500D01*
X140001851Y-71039815D01*
X139981209Y-71023181D01*
X139702819Y-70744791D01*
X139669334Y-70683468D01*
X139666500Y-70657110D01*
X139666500Y-69240351D01*
X139686185Y-69173312D01*
X139738989Y-69127557D01*
X139808147Y-69117613D01*
X139861624Y-69138776D01*
X140013517Y-69245134D01*
X140219673Y-69341265D01*
X140219682Y-69341269D01*
X140439389Y-69400139D01*
X140439400Y-69400141D01*
X140665998Y-69419966D01*
X140666002Y-69419966D01*
X140892599Y-69400141D01*
X140892610Y-69400139D01*
X141112317Y-69341269D01*
X141112331Y-69341264D01*
X141318478Y-69245136D01*
X141391471Y-69194024D01*
X140712447Y-68515000D01*
X140718661Y-68515000D01*
X140820394Y-68487741D01*
X140911606Y-68435080D01*
X140986080Y-68360606D01*
X141038741Y-68269394D01*
X141066000Y-68167661D01*
X141066000Y-68161447D01*
X141745024Y-68840471D01*
X141796136Y-68767478D01*
X141892264Y-68561331D01*
X141892269Y-68561317D01*
X141951139Y-68341610D01*
X141951141Y-68341599D01*
X141970966Y-68115002D01*
X141970966Y-68114997D01*
X141951141Y-67888400D01*
X141951139Y-67888389D01*
X141892269Y-67668682D01*
X141892264Y-67668668D01*
X141796136Y-67462521D01*
X141796132Y-67462513D01*
X141745025Y-67389526D01*
X141066000Y-68068551D01*
X141066000Y-68062339D01*
X141038741Y-67960606D01*
X140986080Y-67869394D01*
X140911606Y-67794920D01*
X140820394Y-67742259D01*
X140718661Y-67715000D01*
X140712447Y-67715000D01*
X141391472Y-67035974D01*
X141318478Y-66984863D01*
X141112331Y-66888735D01*
X141112317Y-66888730D01*
X140892610Y-66829860D01*
X140892599Y-66829858D01*
X140666002Y-66810034D01*
X140665998Y-66810034D01*
X140439400Y-66829858D01*
X140439389Y-66829860D01*
X140219682Y-66888730D01*
X140219673Y-66888734D01*
X140013516Y-66984866D01*
X140013512Y-66984868D01*
X139861623Y-67091223D01*
X139795417Y-67113550D01*
X139727650Y-67096540D01*
X139679837Y-67045592D01*
X139666500Y-66989648D01*
X139666500Y-66047902D01*
X139635489Y-65852111D01*
X139629553Y-65814632D01*
X139629552Y-65814628D01*
X139629552Y-65814627D01*
X139556568Y-65590009D01*
X139556568Y-65590008D01*
X139548368Y-65573914D01*
X139449343Y-65379566D01*
X139310517Y-65188490D01*
X135436819Y-61314792D01*
X135403334Y-61253469D01*
X135400500Y-61227111D01*
X135400500Y-57099993D01*
X139702598Y-57099993D01*
X139702598Y-57100006D01*
X139721762Y-57331297D01*
X139721764Y-57331308D01*
X139778740Y-57556300D01*
X139871973Y-57768848D01*
X139998914Y-57963147D01*
X139998917Y-57963151D01*
X139998919Y-57963153D01*
X140156114Y-58133913D01*
X140156117Y-58133915D01*
X140156120Y-58133918D01*
X140339263Y-58276464D01*
X140339269Y-58276468D01*
X140339272Y-58276470D01*
X140506758Y-58367109D01*
X140542550Y-58386479D01*
X140543395Y-58386936D01*
X140657385Y-58426068D01*
X140762913Y-58462297D01*
X140762915Y-58462297D01*
X140762917Y-58462298D01*
X140991849Y-58500500D01*
X140991850Y-58500500D01*
X141223946Y-58500500D01*
X141223947Y-58500500D01*
X141387540Y-58473201D01*
X141456905Y-58481583D01*
X141510728Y-58526136D01*
X141531918Y-58592714D01*
X141528156Y-58625949D01*
X141518310Y-58664830D01*
X141499151Y-58896045D01*
X141499151Y-58896056D01*
X141518310Y-59127269D01*
X141575266Y-59352186D01*
X141668464Y-59564657D01*
X141752761Y-59693683D01*
X142420986Y-59025459D01*
X142438024Y-59089044D01*
X142503850Y-59203058D01*
X142596942Y-59296150D01*
X142710956Y-59361976D01*
X142774539Y-59379013D01*
X142105150Y-60048402D01*
X142135598Y-60072101D01*
X142339646Y-60182527D01*
X142339655Y-60182530D01*
X142559088Y-60257862D01*
X142787942Y-60296051D01*
X143019956Y-60296051D01*
X143248809Y-60257862D01*
X143468242Y-60182530D01*
X143468250Y-60182527D01*
X143672304Y-60072098D01*
X143702746Y-60048402D01*
X143702747Y-60048401D01*
X143033359Y-59379013D01*
X143096942Y-59361976D01*
X143210956Y-59296150D01*
X143304048Y-59203058D01*
X143369874Y-59089044D01*
X143386911Y-59025460D01*
X144055135Y-59693684D01*
X144139431Y-59564662D01*
X144232631Y-59352186D01*
X144289587Y-59127269D01*
X144308747Y-58896056D01*
X144308747Y-58896045D01*
X144289587Y-58664830D01*
X144289587Y-58664826D01*
X144279608Y-58625422D01*
X144282232Y-58555602D01*
X144322187Y-58498284D01*
X144386788Y-58471667D01*
X144420222Y-58472672D01*
X144583993Y-58500000D01*
X144816007Y-58500000D01*
X145044860Y-58461811D01*
X145264293Y-58386479D01*
X145264301Y-58386476D01*
X145468355Y-58276047D01*
X145498797Y-58252351D01*
X145498798Y-58252350D01*
X144829410Y-57582962D01*
X144892993Y-57565925D01*
X145007007Y-57500099D01*
X145100099Y-57407007D01*
X145165925Y-57292993D01*
X145182962Y-57229409D01*
X145851186Y-57897633D01*
X145935482Y-57768611D01*
X146028682Y-57556135D01*
X146070809Y-57389778D01*
X150599500Y-57389778D01*
X150599500Y-57610221D01*
X150633985Y-57827952D01*
X150702103Y-58037603D01*
X150702104Y-58037606D01*
X150802187Y-58234025D01*
X150931752Y-58412358D01*
X150931756Y-58412363D01*
X151087636Y-58568243D01*
X151087641Y-58568247D01*
X151166337Y-58625422D01*
X151265978Y-58697815D01*
X151394375Y-58763237D01*
X151462393Y-58797895D01*
X151462396Y-58797896D01*
X151561897Y-58830225D01*
X151672049Y-58866015D01*
X151889778Y-58900500D01*
X151889779Y-58900500D01*
X152110221Y-58900500D01*
X152110222Y-58900500D01*
X152327951Y-58866015D01*
X152537606Y-58797895D01*
X152734022Y-58697815D01*
X152912365Y-58568242D01*
X153068242Y-58412365D01*
X153197815Y-58234022D01*
X153297895Y-58037606D01*
X153366015Y-57827951D01*
X153400500Y-57610222D01*
X153400500Y-57389778D01*
X176599500Y-57389778D01*
X176599500Y-57610221D01*
X176633985Y-57827952D01*
X176702103Y-58037603D01*
X176702104Y-58037606D01*
X176802187Y-58234025D01*
X176931752Y-58412358D01*
X176931756Y-58412363D01*
X177087636Y-58568243D01*
X177087641Y-58568247D01*
X177166337Y-58625422D01*
X177265978Y-58697815D01*
X177394375Y-58763237D01*
X177462393Y-58797895D01*
X177462396Y-58797896D01*
X177561897Y-58830225D01*
X177672049Y-58866015D01*
X177889778Y-58900500D01*
X177889779Y-58900500D01*
X178110221Y-58900500D01*
X178110222Y-58900500D01*
X178327951Y-58866015D01*
X178537606Y-58797895D01*
X178734022Y-58697815D01*
X178912365Y-58568242D01*
X179068242Y-58412365D01*
X179197815Y-58234022D01*
X179297895Y-58037606D01*
X179366015Y-57827951D01*
X179400500Y-57610222D01*
X179400500Y-57389778D01*
X179366015Y-57172049D01*
X179297895Y-56962394D01*
X179297895Y-56962393D01*
X179250150Y-56868691D01*
X179197815Y-56765978D01*
X179123162Y-56663226D01*
X179068247Y-56587641D01*
X179068243Y-56587636D01*
X178912363Y-56431756D01*
X178912358Y-56431752D01*
X178734025Y-56302187D01*
X178734024Y-56302186D01*
X178734022Y-56302185D01*
X178671096Y-56270122D01*
X178537606Y-56202104D01*
X178537603Y-56202103D01*
X178327952Y-56133985D01*
X178219086Y-56116742D01*
X178110222Y-56099500D01*
X177889778Y-56099500D01*
X177817201Y-56110995D01*
X177672047Y-56133985D01*
X177462396Y-56202103D01*
X177462393Y-56202104D01*
X177265974Y-56302187D01*
X177087641Y-56431752D01*
X177087636Y-56431756D01*
X176931756Y-56587636D01*
X176931752Y-56587641D01*
X176802187Y-56765974D01*
X176702104Y-56962393D01*
X176702103Y-56962396D01*
X176633985Y-57172047D01*
X176599500Y-57389778D01*
X153400500Y-57389778D01*
X153366015Y-57172049D01*
X153297895Y-56962394D01*
X153297895Y-56962393D01*
X153250150Y-56868691D01*
X153197815Y-56765978D01*
X153123162Y-56663226D01*
X153068247Y-56587641D01*
X153068243Y-56587636D01*
X152912363Y-56431756D01*
X152912358Y-56431752D01*
X152734025Y-56302187D01*
X152734024Y-56302186D01*
X152734022Y-56302185D01*
X152671096Y-56270122D01*
X152537606Y-56202104D01*
X152537603Y-56202103D01*
X152327952Y-56133985D01*
X152219086Y-56116742D01*
X152110222Y-56099500D01*
X151889778Y-56099500D01*
X151817201Y-56110995D01*
X151672047Y-56133985D01*
X151462396Y-56202103D01*
X151462393Y-56202104D01*
X151265974Y-56302187D01*
X151087641Y-56431752D01*
X151087636Y-56431756D01*
X150931756Y-56587636D01*
X150931752Y-56587641D01*
X150802187Y-56765974D01*
X150702104Y-56962393D01*
X150702103Y-56962396D01*
X150633985Y-57172047D01*
X150599500Y-57389778D01*
X146070809Y-57389778D01*
X146085638Y-57331218D01*
X146104798Y-57100005D01*
X146104798Y-57099994D01*
X146085638Y-56868781D01*
X146028682Y-56643864D01*
X145935484Y-56431393D01*
X145851186Y-56302365D01*
X145182962Y-56970589D01*
X145165925Y-56907007D01*
X145100099Y-56792993D01*
X145007007Y-56699901D01*
X144892993Y-56634075D01*
X144829409Y-56617037D01*
X145498797Y-55947647D01*
X145498797Y-55947645D01*
X145468360Y-55923955D01*
X145468354Y-55923951D01*
X145264302Y-55813523D01*
X145264293Y-55813520D01*
X145044860Y-55738188D01*
X144816007Y-55700000D01*
X144583993Y-55700000D01*
X144355139Y-55738188D01*
X144135706Y-55813520D01*
X144135697Y-55813523D01*
X143931650Y-55923949D01*
X143901200Y-55947647D01*
X144570591Y-56617037D01*
X144507007Y-56634075D01*
X144392993Y-56699901D01*
X144299901Y-56792993D01*
X144234075Y-56907007D01*
X144217037Y-56970591D01*
X143548811Y-56302365D01*
X143464516Y-56431390D01*
X143371317Y-56643864D01*
X143314361Y-56868781D01*
X143295202Y-57099994D01*
X143295202Y-57100005D01*
X143314361Y-57331220D01*
X143324341Y-57370630D01*
X143321715Y-57440450D01*
X143281759Y-57497767D01*
X143217158Y-57524383D01*
X143183726Y-57523378D01*
X143019956Y-57496051D01*
X142787942Y-57496051D01*
X142624711Y-57523288D01*
X142555346Y-57514906D01*
X142501524Y-57470352D01*
X142480333Y-57403774D01*
X142484097Y-57370537D01*
X142494030Y-57331313D01*
X142494033Y-57331297D01*
X142513198Y-57100006D01*
X142513198Y-57099993D01*
X142494033Y-56868702D01*
X142494031Y-56868691D01*
X142437055Y-56643699D01*
X142343822Y-56431151D01*
X142216881Y-56236852D01*
X142216878Y-56236849D01*
X142216877Y-56236847D01*
X142059682Y-56066087D01*
X142059677Y-56066083D01*
X142059675Y-56066081D01*
X141876532Y-55923535D01*
X141876526Y-55923531D01*
X141672402Y-55813064D01*
X141672393Y-55813061D01*
X141452882Y-55737702D01*
X141281180Y-55709050D01*
X141223947Y-55699500D01*
X140991849Y-55699500D01*
X140946062Y-55707140D01*
X140762913Y-55737702D01*
X140543402Y-55813061D01*
X140543393Y-55813064D01*
X140339269Y-55923531D01*
X140339263Y-55923535D01*
X140156120Y-56066081D01*
X140156117Y-56066084D01*
X139998914Y-56236852D01*
X139871973Y-56431151D01*
X139778740Y-56643699D01*
X139721764Y-56868691D01*
X139721762Y-56868702D01*
X139702598Y-57099993D01*
X135400500Y-57099993D01*
X135400500Y-55815102D01*
X135409939Y-55767649D01*
X135422142Y-55738188D01*
X135474573Y-55611610D01*
X135535221Y-55358994D01*
X135555604Y-55100000D01*
X135538188Y-54878711D01*
X183149500Y-54878711D01*
X183149500Y-55121288D01*
X183181161Y-55361785D01*
X183243947Y-55596104D01*
X183315004Y-55767649D01*
X183336776Y-55820212D01*
X183458064Y-56030289D01*
X183458066Y-56030292D01*
X183458067Y-56030293D01*
X183605733Y-56222736D01*
X183605739Y-56222743D01*
X183777256Y-56394260D01*
X183777263Y-56394266D01*
X183836099Y-56439412D01*
X183969711Y-56541936D01*
X184179788Y-56663224D01*
X184327722Y-56724500D01*
X184402813Y-56755604D01*
X184403900Y-56756054D01*
X184638211Y-56818838D01*
X184818586Y-56842584D01*
X184878711Y-56850500D01*
X184878712Y-56850500D01*
X185121289Y-56850500D01*
X185169388Y-56844167D01*
X185361789Y-56818838D01*
X185596100Y-56756054D01*
X185820212Y-56663224D01*
X186030289Y-56541936D01*
X186222738Y-56394265D01*
X186394265Y-56222738D01*
X186541936Y-56030289D01*
X186663224Y-55820212D01*
X186756054Y-55596100D01*
X186818838Y-55361789D01*
X186850500Y-55121288D01*
X186850500Y-54878712D01*
X186818838Y-54638211D01*
X186756054Y-54403900D01*
X186663224Y-54179788D01*
X186541936Y-53969711D01*
X186394265Y-53777262D01*
X186394260Y-53777256D01*
X186222743Y-53605739D01*
X186222736Y-53605733D01*
X186030293Y-53458067D01*
X186030292Y-53458066D01*
X186030289Y-53458064D01*
X185820212Y-53336776D01*
X185820205Y-53336773D01*
X185596104Y-53243947D01*
X185361785Y-53181161D01*
X185121289Y-53149500D01*
X185121288Y-53149500D01*
X184878712Y-53149500D01*
X184878711Y-53149500D01*
X184638214Y-53181161D01*
X184403895Y-53243947D01*
X184179794Y-53336773D01*
X184179785Y-53336777D01*
X183969706Y-53458067D01*
X183777263Y-53605733D01*
X183777256Y-53605739D01*
X183605739Y-53777256D01*
X183605733Y-53777263D01*
X183458067Y-53969706D01*
X183336777Y-54179785D01*
X183336773Y-54179794D01*
X183243947Y-54403895D01*
X183181161Y-54638214D01*
X183149500Y-54878711D01*
X135538188Y-54878711D01*
X135535221Y-54841006D01*
X135474573Y-54588390D01*
X135398155Y-54403900D01*
X135375156Y-54348376D01*
X135357183Y-54319047D01*
X135239412Y-54126860D01*
X135070689Y-53929311D01*
X134873140Y-53760588D01*
X134651628Y-53624846D01*
X134651627Y-53624845D01*
X134651623Y-53624843D01*
X134485627Y-53556086D01*
X134411610Y-53525427D01*
X134411611Y-53525427D01*
X134273921Y-53492370D01*
X134158994Y-53464779D01*
X134158992Y-53464778D01*
X134158991Y-53464778D01*
X133900000Y-53444396D01*
X133641009Y-53464778D01*
X133388394Y-53525425D01*
X133232350Y-53590061D01*
X133184897Y-53599500D01*
X127915103Y-53599500D01*
X127867650Y-53590061D01*
X127711605Y-53525425D01*
X127458990Y-53464778D01*
X127458991Y-53464778D01*
X127200000Y-53444396D01*
X126941009Y-53464778D01*
X126688389Y-53525427D01*
X126448376Y-53624843D01*
X126226859Y-53760588D01*
X126029311Y-53929311D01*
X125860588Y-54126859D01*
X125724843Y-54348376D01*
X125625427Y-54588389D01*
X125564778Y-54841009D01*
X125544396Y-55100000D01*
X125564778Y-55358990D01*
X125625427Y-55611610D01*
X125724843Y-55851623D01*
X125724845Y-55851627D01*
X125724846Y-55851628D01*
X125860588Y-56073140D01*
X126029311Y-56270689D01*
X126226860Y-56439412D01*
X126448372Y-56575154D01*
X126448374Y-56575154D01*
X126448376Y-56575156D01*
X126478506Y-56587636D01*
X126688390Y-56674573D01*
X126941006Y-56735221D01*
X127200000Y-56755604D01*
X127458994Y-56735221D01*
X127711610Y-56674573D01*
X127867650Y-56609938D01*
X127915103Y-56600500D01*
X132275500Y-56600500D01*
X132342539Y-56620185D01*
X132388294Y-56672989D01*
X132399500Y-56724500D01*
X132399500Y-62018097D01*
X132436446Y-62251368D01*
X132509433Y-62475996D01*
X132572928Y-62600611D01*
X132616657Y-62686434D01*
X132733963Y-62847891D01*
X132755484Y-62877511D01*
X136629181Y-66751208D01*
X136662666Y-66812531D01*
X136665500Y-66838889D01*
X136665500Y-70657111D01*
X136645815Y-70724150D01*
X136629181Y-70744792D01*
X134355485Y-73018487D01*
X134355484Y-73018488D01*
X134216655Y-73209567D01*
X134110041Y-73418813D01*
X134110020Y-73418854D01*
X134109434Y-73420001D01*
X134036446Y-73644631D01*
X133999500Y-73877902D01*
X133999500Y-82609598D01*
X133979815Y-82676637D01*
X133927011Y-82722392D01*
X133857853Y-82732336D01*
X133810710Y-82715325D01*
X133613089Y-82594222D01*
X133387618Y-82500830D01*
X133387621Y-82500830D01*
X133281992Y-82475470D01*
X133150302Y-82443854D01*
X133150300Y-82443853D01*
X133150297Y-82443853D01*
X132907000Y-82424706D01*
X132663702Y-82443853D01*
X132426380Y-82500830D01*
X132200910Y-82594222D01*
X131992826Y-82721737D01*
X131992823Y-82721738D01*
X131807241Y-82880241D01*
X131648738Y-83065823D01*
X131648737Y-83065826D01*
X131521222Y-83273910D01*
X131427830Y-83499380D01*
X131427828Y-83499387D01*
X131427828Y-83499388D01*
X131419539Y-83533913D01*
X131370853Y-83736702D01*
X131351706Y-83980000D01*
X131370853Y-84223297D01*
X131370853Y-84223300D01*
X131370854Y-84223302D01*
X131427295Y-84458393D01*
X131427830Y-84460619D01*
X131521222Y-84686089D01*
X131648737Y-84894173D01*
X131648738Y-84894176D01*
X131648741Y-84894179D01*
X131807241Y-85079759D01*
X131922548Y-85178240D01*
X131992823Y-85238261D01*
X131992826Y-85238262D01*
X132200910Y-85365777D01*
X132329039Y-85418849D01*
X132419454Y-85456300D01*
X132426381Y-85459169D01*
X132426378Y-85459169D01*
X132426384Y-85459170D01*
X132426388Y-85459172D01*
X132663698Y-85516146D01*
X132907000Y-85535294D01*
X133150302Y-85516146D01*
X133387612Y-85459172D01*
X133613089Y-85365777D01*
X133810711Y-85244673D01*
X133878155Y-85226429D01*
X133944758Y-85247545D01*
X133989372Y-85301317D01*
X133999500Y-85350401D01*
X133999500Y-86952111D01*
X133979815Y-87019150D01*
X133963181Y-87039792D01*
X132211681Y-88791292D01*
X132150358Y-88824777D01*
X132080666Y-88819793D01*
X132024733Y-88777921D01*
X132000316Y-88712457D01*
X132000000Y-88703611D01*
X132000000Y-87999999D01*
X119000001Y-78000000D01*
X119000000Y-78000000D01*
X101124000Y-78000000D01*
X101056961Y-77980315D01*
X101011206Y-77927511D01*
X101000000Y-77876000D01*
X101000000Y-74202135D01*
X109099500Y-74202135D01*
X109099500Y-75197870D01*
X109099501Y-75197876D01*
X109105908Y-75257483D01*
X109156202Y-75392328D01*
X109156206Y-75392335D01*
X109242452Y-75507544D01*
X109242455Y-75507547D01*
X109357664Y-75593793D01*
X109357671Y-75593797D01*
X109492517Y-75644091D01*
X109492516Y-75644091D01*
X109499444Y-75644835D01*
X109552127Y-75650500D01*
X111647872Y-75650499D01*
X111707483Y-75644091D01*
X111842331Y-75593796D01*
X111957546Y-75507546D01*
X112043796Y-75392331D01*
X112094091Y-75257483D01*
X112100500Y-75197873D01*
X112100499Y-74202128D01*
X112095299Y-74153757D01*
X112094091Y-74142516D01*
X112043797Y-74007671D01*
X112043793Y-74007664D01*
X111957547Y-73892455D01*
X111957544Y-73892452D01*
X111842335Y-73806206D01*
X111842328Y-73806202D01*
X111707482Y-73755908D01*
X111707483Y-73755908D01*
X111647883Y-73749501D01*
X111647881Y-73749500D01*
X111647873Y-73749500D01*
X111647864Y-73749500D01*
X109552129Y-73749500D01*
X109552123Y-73749501D01*
X109492516Y-73755908D01*
X109357671Y-73806202D01*
X109357664Y-73806206D01*
X109242455Y-73892452D01*
X109242452Y-73892455D01*
X109156206Y-74007664D01*
X109156202Y-74007671D01*
X109105908Y-74142517D01*
X109099501Y-74202116D01*
X109099501Y-74202123D01*
X109099500Y-74202135D01*
X101000000Y-74202135D01*
X101000000Y-70454731D01*
X114050000Y-70454731D01*
X114050000Y-71300000D01*
X115272769Y-71300000D01*
X115250000Y-71443753D01*
X115250000Y-71656247D01*
X115272769Y-71800000D01*
X114050000Y-71800000D01*
X114050000Y-72645268D01*
X114060215Y-72789958D01*
X114060217Y-72789968D01*
X114114313Y-73030165D01*
X114114315Y-73030172D01*
X114206244Y-73258585D01*
X114333620Y-73469289D01*
X114333627Y-73469299D01*
X114493153Y-73656846D01*
X114680700Y-73816372D01*
X114680710Y-73816379D01*
X114891414Y-73943755D01*
X115119827Y-74035684D01*
X115119834Y-74035686D01*
X115360031Y-74089782D01*
X115360041Y-74089784D01*
X115504731Y-74099999D01*
X115504734Y-74100000D01*
X116350000Y-74100000D01*
X116350000Y-72877231D01*
X116493753Y-72900000D01*
X116706247Y-72900000D01*
X116850000Y-72877231D01*
X116850000Y-74100000D01*
X117695266Y-74100000D01*
X117695268Y-74099999D01*
X117839958Y-74089784D01*
X117839968Y-74089782D01*
X118080165Y-74035686D01*
X118080172Y-74035684D01*
X118308585Y-73943755D01*
X118519289Y-73816379D01*
X118519299Y-73816372D01*
X118706846Y-73656846D01*
X118866372Y-73469299D01*
X118866379Y-73469289D01*
X118993755Y-73258585D01*
X119085684Y-73030172D01*
X119085686Y-73030165D01*
X119139782Y-72789968D01*
X119139784Y-72789958D01*
X119149999Y-72645268D01*
X119150000Y-72645266D01*
X119150000Y-71800000D01*
X117927231Y-71800000D01*
X117950000Y-71656247D01*
X117950000Y-71443753D01*
X117927231Y-71300000D01*
X119150000Y-71300000D01*
X119150000Y-70454734D01*
X119149999Y-70454731D01*
X119139784Y-70310041D01*
X119139782Y-70310031D01*
X119085686Y-70069834D01*
X119085684Y-70069827D01*
X118993755Y-69841414D01*
X118866379Y-69630710D01*
X118866372Y-69630700D01*
X118706846Y-69443153D01*
X118519299Y-69283627D01*
X118519289Y-69283620D01*
X118308585Y-69156244D01*
X118080172Y-69064315D01*
X118080165Y-69064313D01*
X117839968Y-69010217D01*
X117839958Y-69010215D01*
X117695268Y-69000000D01*
X116850000Y-69000000D01*
X116850000Y-70222768D01*
X116706247Y-70200000D01*
X116493753Y-70200000D01*
X116350000Y-70222768D01*
X116350000Y-69000000D01*
X115504731Y-69000000D01*
X115360041Y-69010215D01*
X115360031Y-69010217D01*
X115119834Y-69064313D01*
X115119827Y-69064315D01*
X114891414Y-69156244D01*
X114680710Y-69283620D01*
X114680700Y-69283627D01*
X114493153Y-69443153D01*
X114333627Y-69630700D01*
X114333620Y-69630710D01*
X114206244Y-69841414D01*
X114114315Y-70069827D01*
X114114313Y-70069834D01*
X114060217Y-70310031D01*
X114060215Y-70310041D01*
X114050000Y-70454731D01*
X101000000Y-70454731D01*
X101000000Y-60702135D01*
X109099500Y-60702135D01*
X109099500Y-61697870D01*
X109099501Y-61697876D01*
X109105908Y-61757483D01*
X109156202Y-61892328D01*
X109156206Y-61892335D01*
X109242452Y-62007544D01*
X109242455Y-62007547D01*
X109357664Y-62093793D01*
X109357671Y-62093797D01*
X109492517Y-62144091D01*
X109492516Y-62144091D01*
X109499444Y-62144835D01*
X109552127Y-62150500D01*
X111647872Y-62150499D01*
X111707483Y-62144091D01*
X111842331Y-62093796D01*
X111957546Y-62007546D01*
X112043796Y-61892331D01*
X112094091Y-61757483D01*
X112100500Y-61697873D01*
X112100499Y-60702128D01*
X112094091Y-60642517D01*
X112043796Y-60507669D01*
X112043795Y-60507668D01*
X112043793Y-60507664D01*
X111957547Y-60392455D01*
X111957544Y-60392452D01*
X111842335Y-60306206D01*
X111842328Y-60306202D01*
X111707482Y-60255908D01*
X111707483Y-60255908D01*
X111647883Y-60249501D01*
X111647881Y-60249500D01*
X111647873Y-60249500D01*
X111647864Y-60249500D01*
X109552129Y-60249500D01*
X109552123Y-60249501D01*
X109492516Y-60255908D01*
X109357671Y-60306202D01*
X109357664Y-60306206D01*
X109242455Y-60392452D01*
X109242452Y-60392455D01*
X109156206Y-60507664D01*
X109156202Y-60507671D01*
X109105908Y-60642517D01*
X109099501Y-60702116D01*
X109099501Y-60702123D01*
X109099500Y-60702135D01*
X101000000Y-60702135D01*
X101000000Y-55029272D01*
X101013091Y-54973818D01*
X101060644Y-54878711D01*
X103149500Y-54878711D01*
X103149500Y-55121288D01*
X103181161Y-55361785D01*
X103243947Y-55596104D01*
X103315004Y-55767649D01*
X103336776Y-55820212D01*
X103458064Y-56030289D01*
X103458066Y-56030292D01*
X103458067Y-56030293D01*
X103605733Y-56222736D01*
X103605739Y-56222743D01*
X103777256Y-56394260D01*
X103777263Y-56394266D01*
X103836099Y-56439412D01*
X103969711Y-56541936D01*
X104179788Y-56663224D01*
X104327722Y-56724500D01*
X104402813Y-56755604D01*
X104403900Y-56756054D01*
X104638211Y-56818838D01*
X104818586Y-56842584D01*
X104878711Y-56850500D01*
X104878712Y-56850500D01*
X105121289Y-56850500D01*
X105169388Y-56844167D01*
X105361789Y-56818838D01*
X105596100Y-56756054D01*
X105820212Y-56663224D01*
X106030289Y-56541936D01*
X106222738Y-56394265D01*
X106394265Y-56222738D01*
X106541936Y-56030289D01*
X106663224Y-55820212D01*
X106756054Y-55596100D01*
X106818838Y-55361789D01*
X106850500Y-55121288D01*
X106850500Y-55100000D01*
X109844396Y-55100000D01*
X109864778Y-55358990D01*
X109925427Y-55611610D01*
X110024843Y-55851623D01*
X110024845Y-55851627D01*
X110024846Y-55851628D01*
X110160588Y-56073140D01*
X110329311Y-56270689D01*
X110526860Y-56439412D01*
X110748372Y-56575154D01*
X110748374Y-56575154D01*
X110748376Y-56575156D01*
X110778506Y-56587636D01*
X110988390Y-56674573D01*
X111241006Y-56735221D01*
X111500000Y-56755604D01*
X111758994Y-56735221D01*
X112011610Y-56674573D01*
X112167650Y-56609938D01*
X112215103Y-56600500D01*
X114027111Y-56600500D01*
X114094150Y-56620185D01*
X114114792Y-56636819D01*
X115063181Y-57585208D01*
X115096666Y-57646531D01*
X115099500Y-57672889D01*
X115099500Y-62224404D01*
X115079815Y-62291443D01*
X115048386Y-62324720D01*
X114971036Y-62380920D01*
X114971034Y-62380921D01*
X114971031Y-62380924D01*
X114737087Y-62600611D01*
X114532522Y-62847888D01*
X114532520Y-62847891D01*
X114360562Y-63118855D01*
X114360558Y-63118861D01*
X114223918Y-63409235D01*
X114223916Y-63409240D01*
X114124745Y-63714457D01*
X114064607Y-64029709D01*
X114064606Y-64029716D01*
X114044457Y-64349994D01*
X114044457Y-64350005D01*
X114064606Y-64670283D01*
X114064607Y-64670290D01*
X114088249Y-64794223D01*
X114124050Y-64981902D01*
X114124745Y-64985542D01*
X114223916Y-65290759D01*
X114223918Y-65290764D01*
X114360558Y-65581138D01*
X114360562Y-65581144D01*
X114532520Y-65852108D01*
X114532522Y-65852111D01*
X114737087Y-66099388D01*
X114971034Y-66319078D01*
X114971044Y-66319086D01*
X115230660Y-66507708D01*
X115230666Y-66507711D01*
X115230672Y-66507716D01*
X115511903Y-66662324D01*
X115810294Y-66780466D01*
X115810293Y-66780466D01*
X116086690Y-66851432D01*
X116121139Y-66860277D01*
X116168040Y-66866202D01*
X116439524Y-66900499D01*
X116439533Y-66900499D01*
X116439536Y-66900500D01*
X116439538Y-66900500D01*
X116760462Y-66900500D01*
X116760464Y-66900500D01*
X116760467Y-66900499D01*
X116760475Y-66900499D01*
X116960781Y-66875194D01*
X117078861Y-66860277D01*
X117389706Y-66780466D01*
X117688097Y-66662324D01*
X117969328Y-66507716D01*
X118228964Y-66319080D01*
X118377070Y-66180000D01*
X131351706Y-66180000D01*
X131370853Y-66423297D01*
X131370853Y-66423300D01*
X131370854Y-66423302D01*
X131391120Y-66507716D01*
X131427830Y-66660619D01*
X131521222Y-66886089D01*
X131648737Y-67094173D01*
X131648738Y-67094176D01*
X131648741Y-67094179D01*
X131807241Y-67279759D01*
X131935762Y-67389526D01*
X131992823Y-67438261D01*
X131992826Y-67438262D01*
X132200910Y-67565777D01*
X132426381Y-67659169D01*
X132426378Y-67659169D01*
X132426384Y-67659170D01*
X132426388Y-67659172D01*
X132663698Y-67716146D01*
X132907000Y-67735294D01*
X133150302Y-67716146D01*
X133387612Y-67659172D01*
X133613089Y-67565777D01*
X133821179Y-67438259D01*
X134006759Y-67279759D01*
X134165259Y-67094179D01*
X134292777Y-66886089D01*
X134386172Y-66660612D01*
X134443146Y-66423302D01*
X134462294Y-66180000D01*
X134443146Y-65936698D01*
X134386172Y-65699388D01*
X134337194Y-65581144D01*
X134292777Y-65473910D01*
X134165262Y-65265826D01*
X134165261Y-65265823D01*
X134099212Y-65188490D01*
X134006759Y-65080241D01*
X133884063Y-64975449D01*
X133821176Y-64921738D01*
X133821173Y-64921737D01*
X133613089Y-64794222D01*
X133387618Y-64700830D01*
X133387621Y-64700830D01*
X133229937Y-64662973D01*
X133150302Y-64643854D01*
X133150300Y-64643853D01*
X133150297Y-64643853D01*
X132907000Y-64624706D01*
X132663702Y-64643853D01*
X132426380Y-64700830D01*
X132200910Y-64794222D01*
X131992826Y-64921737D01*
X131992823Y-64921738D01*
X131807241Y-65080241D01*
X131648738Y-65265823D01*
X131648737Y-65265826D01*
X131521222Y-65473910D01*
X131427830Y-65699380D01*
X131370853Y-65936702D01*
X131351706Y-66180000D01*
X118377070Y-66180000D01*
X118462911Y-66099390D01*
X118667478Y-65852110D01*
X118839439Y-65581142D01*
X118976084Y-65290758D01*
X119075256Y-64985538D01*
X119135392Y-64670294D01*
X119135853Y-64662973D01*
X119155543Y-64350005D01*
X119155543Y-64349994D01*
X119135393Y-64029716D01*
X119135392Y-64029709D01*
X119135392Y-64029706D01*
X119075256Y-63714462D01*
X118976084Y-63409242D01*
X118909908Y-63268611D01*
X118839441Y-63118861D01*
X118839437Y-63118855D01*
X118667479Y-62847891D01*
X118667477Y-62847888D01*
X118462912Y-62600611D01*
X118462255Y-62599994D01*
X118228964Y-62380920D01*
X118151613Y-62324721D01*
X118108949Y-62269391D01*
X118100500Y-62224404D01*
X118100500Y-57372888D01*
X118120185Y-57305849D01*
X118136815Y-57285211D01*
X118755361Y-56666664D01*
X118795585Y-56639788D01*
X118951628Y-56575154D01*
X119173140Y-56439412D01*
X119370689Y-56270689D01*
X119539412Y-56073140D01*
X119675154Y-55851628D01*
X119774573Y-55611610D01*
X119835221Y-55358994D01*
X119855604Y-55100000D01*
X119835221Y-54841006D01*
X119774573Y-54588390D01*
X119698155Y-54403900D01*
X119675156Y-54348376D01*
X119657183Y-54319047D01*
X119539412Y-54126860D01*
X119370689Y-53929311D01*
X119173140Y-53760588D01*
X118951628Y-53624846D01*
X118951627Y-53624845D01*
X118951623Y-53624843D01*
X118785627Y-53556086D01*
X118711610Y-53525427D01*
X118711611Y-53525427D01*
X118573921Y-53492370D01*
X118458994Y-53464779D01*
X118458992Y-53464778D01*
X118458991Y-53464778D01*
X118200000Y-53444396D01*
X117941009Y-53464778D01*
X117688394Y-53525425D01*
X117532350Y-53590061D01*
X117484897Y-53599500D01*
X112215103Y-53599500D01*
X112167650Y-53590061D01*
X112011605Y-53525425D01*
X111758990Y-53464778D01*
X111758991Y-53464778D01*
X111500000Y-53444396D01*
X111241009Y-53464778D01*
X110988389Y-53525427D01*
X110748376Y-53624843D01*
X110526859Y-53760588D01*
X110329311Y-53929311D01*
X110160588Y-54126859D01*
X110024843Y-54348376D01*
X109925427Y-54588389D01*
X109864778Y-54841009D01*
X109844396Y-55100000D01*
X106850500Y-55100000D01*
X106850500Y-54878712D01*
X106818838Y-54638211D01*
X106756054Y-54403900D01*
X106663224Y-54179788D01*
X106541936Y-53969711D01*
X106394265Y-53777262D01*
X106394260Y-53777256D01*
X106222743Y-53605739D01*
X106222736Y-53605733D01*
X106030293Y-53458067D01*
X106030292Y-53458066D01*
X106030289Y-53458064D01*
X105820212Y-53336776D01*
X105820205Y-53336773D01*
X105596104Y-53243947D01*
X105361785Y-53181161D01*
X105121289Y-53149500D01*
X105121288Y-53149500D01*
X104878712Y-53149500D01*
X104878711Y-53149500D01*
X104638214Y-53181161D01*
X104403895Y-53243947D01*
X104179794Y-53336773D01*
X104179785Y-53336777D01*
X103969706Y-53458067D01*
X103777263Y-53605733D01*
X103777256Y-53605739D01*
X103605739Y-53777256D01*
X103605733Y-53777263D01*
X103458067Y-53969706D01*
X103336777Y-54179785D01*
X103336773Y-54179794D01*
X103243947Y-54403895D01*
X103181161Y-54638214D01*
X103149500Y-54878711D01*
X101060644Y-54878711D01*
X102478917Y-52042165D01*
X102526503Y-51991008D01*
X102543764Y-51982494D01*
X104491017Y-51203593D01*
X104977828Y-51008869D01*
X105023880Y-51000000D01*
X184965655Y-51000000D01*
X185029451Y-51017670D01*
G37*
%TD.AperFunction*%
%TA.AperFunction,Conductor*%
G36*
X163168509Y-69762185D02*
G01*
X163214264Y-69814989D01*
X163224208Y-69884147D01*
X163211955Y-69922795D01*
X163109433Y-70124003D01*
X163036446Y-70348631D01*
X162999500Y-70581902D01*
X162999500Y-70818097D01*
X163022942Y-70966102D01*
X163013988Y-71035395D01*
X162968991Y-71088847D01*
X162902240Y-71109487D01*
X162900469Y-71109500D01*
X157408231Y-71109500D01*
X157341192Y-71089815D01*
X157333920Y-71084767D01*
X157242331Y-71016204D01*
X157242328Y-71016202D01*
X157107482Y-70965908D01*
X157107483Y-70965908D01*
X157047883Y-70959501D01*
X157047881Y-70959500D01*
X157047873Y-70959500D01*
X157047864Y-70959500D01*
X154752129Y-70959500D01*
X154752123Y-70959501D01*
X154692516Y-70965908D01*
X154557671Y-71016202D01*
X154557664Y-71016206D01*
X154442455Y-71102452D01*
X154442452Y-71102455D01*
X154356206Y-71217664D01*
X154356202Y-71217671D01*
X154305908Y-71352517D01*
X154300551Y-71402351D01*
X154299500Y-71412127D01*
X154299500Y-72453567D01*
X154299501Y-73475500D01*
X154279816Y-73542539D01*
X154227013Y-73588294D01*
X154175501Y-73599500D01*
X151026500Y-73599500D01*
X150959461Y-73579815D01*
X150913706Y-73527011D01*
X150902500Y-73475500D01*
X150902499Y-71412129D01*
X150902498Y-71412123D01*
X150902497Y-71412116D01*
X150896091Y-71352517D01*
X150876503Y-71300000D01*
X150845797Y-71217671D01*
X150845795Y-71217668D01*
X150827233Y-71192872D01*
X150802816Y-71127408D01*
X150802500Y-71118561D01*
X150802500Y-69866500D01*
X150822185Y-69799461D01*
X150874989Y-69753706D01*
X150926500Y-69742500D01*
X163101470Y-69742500D01*
X163168509Y-69762185D01*
G37*
%TD.AperFunction*%
%TD*%
M02*
