%TF.GenerationSoftware,KiCad,Pcbnew,8.0.3*%
%TF.CreationDate,2024-11-10T15:02:50+09:00*%
%TF.ProjectId,PWM_isolation,50574d5f-6973-46f6-9c61-74696f6e2e6b,rev?*%
%TF.SameCoordinates,Original*%
%TF.FileFunction,Drillmap*%
%TF.FilePolarity,Positive*%
%FSLAX45Y45*%
G04 Gerber Fmt 4.5, Leading zero omitted, Abs format (unit mm)*
G04 Created by KiCad (PCBNEW 8.0.3) date 2024-11-10 15:02:50*
%MOMM*%
%LPD*%
G01*
G04 APERTURE LIST*
%ADD10C,0.050000*%
%ADD11C,0.200000*%
%ADD12C,0.160000*%
%ADD13C,0.230000*%
%ADD14C,0.320000*%
G04 APERTURE END LIST*
D10*
X18500000Y-5000000D02*
G75*
G02*
X19000000Y-5500000I0J-500000D01*
G01*
X10000000Y-5500000D02*
G75*
G02*
X10500000Y-5000000I500000J0D01*
G01*
X18500000Y-5000000D02*
X10500000Y-5000000D01*
X19000000Y-12500000D02*
G75*
G02*
X18500000Y-13000000I-500000J0D01*
G01*
X10000000Y-5500000D02*
X10000000Y-12500000D01*
X10500000Y-13000000D02*
G75*
G02*
X10000000Y-12500000I0J500000D01*
G01*
X19000000Y-12500000D02*
X19000000Y-5500000D01*
X10500000Y-13000000D02*
X18500000Y-13000000D01*
D11*
D12*
X13210700Y-6538000D02*
X13370700Y-6698000D01*
X13370700Y-6538000D02*
X13210700Y-6698000D01*
X13210700Y-8318000D02*
X13370700Y-8478000D01*
X13370700Y-8318000D02*
X13210700Y-8478000D01*
D13*
X15315000Y-5750000D02*
G75*
G02*
X15085000Y-5750000I-115000J0D01*
G01*
X15085000Y-5750000D02*
G75*
G02*
X15315000Y-5750000I115000J0D01*
G01*
X17915000Y-5750000D02*
G75*
G02*
X17685000Y-5750000I-115000J0D01*
G01*
X17685000Y-5750000D02*
G75*
G02*
X17915000Y-5750000I115000J0D01*
G01*
D14*
X10500000Y-5340000D02*
X10500000Y-5660000D01*
X10340000Y-5500000D02*
X10660000Y-5500000D01*
X10500000Y-12340000D02*
X10500000Y-12660000D01*
X10340000Y-12500000D02*
X10660000Y-12500000D01*
X18500000Y-5340000D02*
X18500000Y-5660000D01*
X18340000Y-5500000D02*
X18660000Y-5500000D01*
X18500000Y-12340000D02*
X18500000Y-12660000D01*
X18340000Y-12500000D02*
X18660000Y-12500000D01*
D11*
X10258277Y-13313984D02*
X10258277Y-13113984D01*
X10258277Y-13113984D02*
X10305896Y-13113984D01*
X10305896Y-13113984D02*
X10334467Y-13123508D01*
X10334467Y-13123508D02*
X10353515Y-13142555D01*
X10353515Y-13142555D02*
X10363039Y-13161603D01*
X10363039Y-13161603D02*
X10372563Y-13199698D01*
X10372563Y-13199698D02*
X10372563Y-13228269D01*
X10372563Y-13228269D02*
X10363039Y-13266365D01*
X10363039Y-13266365D02*
X10353515Y-13285412D01*
X10353515Y-13285412D02*
X10334467Y-13304460D01*
X10334467Y-13304460D02*
X10305896Y-13313984D01*
X10305896Y-13313984D02*
X10258277Y-13313984D01*
X10458277Y-13313984D02*
X10458277Y-13180650D01*
X10458277Y-13218746D02*
X10467801Y-13199698D01*
X10467801Y-13199698D02*
X10477324Y-13190174D01*
X10477324Y-13190174D02*
X10496372Y-13180650D01*
X10496372Y-13180650D02*
X10515420Y-13180650D01*
X10582086Y-13313984D02*
X10582086Y-13180650D01*
X10582086Y-13113984D02*
X10572563Y-13123508D01*
X10572563Y-13123508D02*
X10582086Y-13133031D01*
X10582086Y-13133031D02*
X10591610Y-13123508D01*
X10591610Y-13123508D02*
X10582086Y-13113984D01*
X10582086Y-13113984D02*
X10582086Y-13133031D01*
X10705896Y-13313984D02*
X10686848Y-13304460D01*
X10686848Y-13304460D02*
X10677324Y-13285412D01*
X10677324Y-13285412D02*
X10677324Y-13113984D01*
X10810658Y-13313984D02*
X10791610Y-13304460D01*
X10791610Y-13304460D02*
X10782086Y-13285412D01*
X10782086Y-13285412D02*
X10782086Y-13113984D01*
X11039229Y-13313984D02*
X11039229Y-13113984D01*
X11039229Y-13113984D02*
X11105896Y-13256841D01*
X11105896Y-13256841D02*
X11172563Y-13113984D01*
X11172563Y-13113984D02*
X11172563Y-13313984D01*
X11353515Y-13313984D02*
X11353515Y-13209222D01*
X11353515Y-13209222D02*
X11343991Y-13190174D01*
X11343991Y-13190174D02*
X11324943Y-13180650D01*
X11324943Y-13180650D02*
X11286848Y-13180650D01*
X11286848Y-13180650D02*
X11267801Y-13190174D01*
X11353515Y-13304460D02*
X11334467Y-13313984D01*
X11334467Y-13313984D02*
X11286848Y-13313984D01*
X11286848Y-13313984D02*
X11267801Y-13304460D01*
X11267801Y-13304460D02*
X11258277Y-13285412D01*
X11258277Y-13285412D02*
X11258277Y-13266365D01*
X11258277Y-13266365D02*
X11267801Y-13247317D01*
X11267801Y-13247317D02*
X11286848Y-13237793D01*
X11286848Y-13237793D02*
X11334467Y-13237793D01*
X11334467Y-13237793D02*
X11353515Y-13228269D01*
X11448753Y-13180650D02*
X11448753Y-13380650D01*
X11448753Y-13190174D02*
X11467801Y-13180650D01*
X11467801Y-13180650D02*
X11505896Y-13180650D01*
X11505896Y-13180650D02*
X11524943Y-13190174D01*
X11524943Y-13190174D02*
X11534467Y-13199698D01*
X11534467Y-13199698D02*
X11543991Y-13218746D01*
X11543991Y-13218746D02*
X11543991Y-13275888D01*
X11543991Y-13275888D02*
X11534467Y-13294936D01*
X11534467Y-13294936D02*
X11524943Y-13304460D01*
X11524943Y-13304460D02*
X11505896Y-13313984D01*
X11505896Y-13313984D02*
X11467801Y-13313984D01*
X11467801Y-13313984D02*
X11448753Y-13304460D01*
X11629705Y-13294936D02*
X11639229Y-13304460D01*
X11639229Y-13304460D02*
X11629705Y-13313984D01*
X11629705Y-13313984D02*
X11620182Y-13304460D01*
X11620182Y-13304460D02*
X11629705Y-13294936D01*
X11629705Y-13294936D02*
X11629705Y-13313984D01*
X11629705Y-13190174D02*
X11639229Y-13199698D01*
X11639229Y-13199698D02*
X11629705Y-13209222D01*
X11629705Y-13209222D02*
X11620182Y-13199698D01*
X11620182Y-13199698D02*
X11629705Y-13190174D01*
X11629705Y-13190174D02*
X11629705Y-13209222D01*
D12*
X9837500Y-13562500D02*
X9997500Y-13722500D01*
X9997500Y-13562500D02*
X9837500Y-13722500D01*
D11*
X10363039Y-13733984D02*
X10248753Y-13733984D01*
X10305896Y-13733984D02*
X10305896Y-13533984D01*
X10305896Y-13533984D02*
X10286848Y-13562555D01*
X10286848Y-13562555D02*
X10267801Y-13581603D01*
X10267801Y-13581603D02*
X10248753Y-13591127D01*
X10448753Y-13714936D02*
X10458277Y-13724460D01*
X10458277Y-13724460D02*
X10448753Y-13733984D01*
X10448753Y-13733984D02*
X10439229Y-13724460D01*
X10439229Y-13724460D02*
X10448753Y-13714936D01*
X10448753Y-13714936D02*
X10448753Y-13733984D01*
X10629705Y-13533984D02*
X10591610Y-13533984D01*
X10591610Y-13533984D02*
X10572563Y-13543508D01*
X10572563Y-13543508D02*
X10563039Y-13553031D01*
X10563039Y-13553031D02*
X10543991Y-13581603D01*
X10543991Y-13581603D02*
X10534467Y-13619698D01*
X10534467Y-13619698D02*
X10534467Y-13695888D01*
X10534467Y-13695888D02*
X10543991Y-13714936D01*
X10543991Y-13714936D02*
X10553515Y-13724460D01*
X10553515Y-13724460D02*
X10572563Y-13733984D01*
X10572563Y-13733984D02*
X10610658Y-13733984D01*
X10610658Y-13733984D02*
X10629705Y-13724460D01*
X10629705Y-13724460D02*
X10639229Y-13714936D01*
X10639229Y-13714936D02*
X10648753Y-13695888D01*
X10648753Y-13695888D02*
X10648753Y-13648269D01*
X10648753Y-13648269D02*
X10639229Y-13629222D01*
X10639229Y-13629222D02*
X10629705Y-13619698D01*
X10629705Y-13619698D02*
X10610658Y-13610174D01*
X10610658Y-13610174D02*
X10572563Y-13610174D01*
X10572563Y-13610174D02*
X10553515Y-13619698D01*
X10553515Y-13619698D02*
X10543991Y-13629222D01*
X10543991Y-13629222D02*
X10534467Y-13648269D01*
X10772563Y-13533984D02*
X10791610Y-13533984D01*
X10791610Y-13533984D02*
X10810658Y-13543508D01*
X10810658Y-13543508D02*
X10820182Y-13553031D01*
X10820182Y-13553031D02*
X10829705Y-13572079D01*
X10829705Y-13572079D02*
X10839229Y-13610174D01*
X10839229Y-13610174D02*
X10839229Y-13657793D01*
X10839229Y-13657793D02*
X10829705Y-13695888D01*
X10829705Y-13695888D02*
X10820182Y-13714936D01*
X10820182Y-13714936D02*
X10810658Y-13724460D01*
X10810658Y-13724460D02*
X10791610Y-13733984D01*
X10791610Y-13733984D02*
X10772563Y-13733984D01*
X10772563Y-13733984D02*
X10753515Y-13724460D01*
X10753515Y-13724460D02*
X10743991Y-13714936D01*
X10743991Y-13714936D02*
X10734467Y-13695888D01*
X10734467Y-13695888D02*
X10724944Y-13657793D01*
X10724944Y-13657793D02*
X10724944Y-13610174D01*
X10724944Y-13610174D02*
X10734467Y-13572079D01*
X10734467Y-13572079D02*
X10743991Y-13553031D01*
X10743991Y-13553031D02*
X10753515Y-13543508D01*
X10753515Y-13543508D02*
X10772563Y-13533984D01*
X10963039Y-13533984D02*
X10982086Y-13533984D01*
X10982086Y-13533984D02*
X11001134Y-13543508D01*
X11001134Y-13543508D02*
X11010658Y-13553031D01*
X11010658Y-13553031D02*
X11020182Y-13572079D01*
X11020182Y-13572079D02*
X11029705Y-13610174D01*
X11029705Y-13610174D02*
X11029705Y-13657793D01*
X11029705Y-13657793D02*
X11020182Y-13695888D01*
X11020182Y-13695888D02*
X11010658Y-13714936D01*
X11010658Y-13714936D02*
X11001134Y-13724460D01*
X11001134Y-13724460D02*
X10982086Y-13733984D01*
X10982086Y-13733984D02*
X10963039Y-13733984D01*
X10963039Y-13733984D02*
X10943991Y-13724460D01*
X10943991Y-13724460D02*
X10934467Y-13714936D01*
X10934467Y-13714936D02*
X10924944Y-13695888D01*
X10924944Y-13695888D02*
X10915420Y-13657793D01*
X10915420Y-13657793D02*
X10915420Y-13610174D01*
X10915420Y-13610174D02*
X10924944Y-13572079D01*
X10924944Y-13572079D02*
X10934467Y-13553031D01*
X10934467Y-13553031D02*
X10943991Y-13543508D01*
X10943991Y-13543508D02*
X10963039Y-13533984D01*
X11115420Y-13733984D02*
X11115420Y-13600650D01*
X11115420Y-13619698D02*
X11124944Y-13610174D01*
X11124944Y-13610174D02*
X11143991Y-13600650D01*
X11143991Y-13600650D02*
X11172563Y-13600650D01*
X11172563Y-13600650D02*
X11191610Y-13610174D01*
X11191610Y-13610174D02*
X11201134Y-13629222D01*
X11201134Y-13629222D02*
X11201134Y-13733984D01*
X11201134Y-13629222D02*
X11210658Y-13610174D01*
X11210658Y-13610174D02*
X11229705Y-13600650D01*
X11229705Y-13600650D02*
X11258277Y-13600650D01*
X11258277Y-13600650D02*
X11277324Y-13610174D01*
X11277324Y-13610174D02*
X11286848Y-13629222D01*
X11286848Y-13629222D02*
X11286848Y-13733984D01*
X11382086Y-13733984D02*
X11382086Y-13600650D01*
X11382086Y-13619698D02*
X11391610Y-13610174D01*
X11391610Y-13610174D02*
X11410658Y-13600650D01*
X11410658Y-13600650D02*
X11439229Y-13600650D01*
X11439229Y-13600650D02*
X11458277Y-13610174D01*
X11458277Y-13610174D02*
X11467801Y-13629222D01*
X11467801Y-13629222D02*
X11467801Y-13733984D01*
X11467801Y-13629222D02*
X11477324Y-13610174D01*
X11477324Y-13610174D02*
X11496372Y-13600650D01*
X11496372Y-13600650D02*
X11524943Y-13600650D01*
X11524943Y-13600650D02*
X11543991Y-13610174D01*
X11543991Y-13610174D02*
X11553515Y-13629222D01*
X11553515Y-13629222D02*
X11553515Y-13733984D01*
X11943991Y-13524460D02*
X11772563Y-13781603D01*
X12201134Y-13533984D02*
X12220182Y-13533984D01*
X12220182Y-13533984D02*
X12239229Y-13543508D01*
X12239229Y-13543508D02*
X12248753Y-13553031D01*
X12248753Y-13553031D02*
X12258277Y-13572079D01*
X12258277Y-13572079D02*
X12267801Y-13610174D01*
X12267801Y-13610174D02*
X12267801Y-13657793D01*
X12267801Y-13657793D02*
X12258277Y-13695888D01*
X12258277Y-13695888D02*
X12248753Y-13714936D01*
X12248753Y-13714936D02*
X12239229Y-13724460D01*
X12239229Y-13724460D02*
X12220182Y-13733984D01*
X12220182Y-13733984D02*
X12201134Y-13733984D01*
X12201134Y-13733984D02*
X12182086Y-13724460D01*
X12182086Y-13724460D02*
X12172563Y-13714936D01*
X12172563Y-13714936D02*
X12163039Y-13695888D01*
X12163039Y-13695888D02*
X12153515Y-13657793D01*
X12153515Y-13657793D02*
X12153515Y-13610174D01*
X12153515Y-13610174D02*
X12163039Y-13572079D01*
X12163039Y-13572079D02*
X12172563Y-13553031D01*
X12172563Y-13553031D02*
X12182086Y-13543508D01*
X12182086Y-13543508D02*
X12201134Y-13533984D01*
X12353515Y-13714936D02*
X12363039Y-13724460D01*
X12363039Y-13724460D02*
X12353515Y-13733984D01*
X12353515Y-13733984D02*
X12343991Y-13724460D01*
X12343991Y-13724460D02*
X12353515Y-13714936D01*
X12353515Y-13714936D02*
X12353515Y-13733984D01*
X12486848Y-13533984D02*
X12505896Y-13533984D01*
X12505896Y-13533984D02*
X12524944Y-13543508D01*
X12524944Y-13543508D02*
X12534467Y-13553031D01*
X12534467Y-13553031D02*
X12543991Y-13572079D01*
X12543991Y-13572079D02*
X12553515Y-13610174D01*
X12553515Y-13610174D02*
X12553515Y-13657793D01*
X12553515Y-13657793D02*
X12543991Y-13695888D01*
X12543991Y-13695888D02*
X12534467Y-13714936D01*
X12534467Y-13714936D02*
X12524944Y-13724460D01*
X12524944Y-13724460D02*
X12505896Y-13733984D01*
X12505896Y-13733984D02*
X12486848Y-13733984D01*
X12486848Y-13733984D02*
X12467801Y-13724460D01*
X12467801Y-13724460D02*
X12458277Y-13714936D01*
X12458277Y-13714936D02*
X12448753Y-13695888D01*
X12448753Y-13695888D02*
X12439229Y-13657793D01*
X12439229Y-13657793D02*
X12439229Y-13610174D01*
X12439229Y-13610174D02*
X12448753Y-13572079D01*
X12448753Y-13572079D02*
X12458277Y-13553031D01*
X12458277Y-13553031D02*
X12467801Y-13543508D01*
X12467801Y-13543508D02*
X12486848Y-13533984D01*
X12724944Y-13533984D02*
X12686848Y-13533984D01*
X12686848Y-13533984D02*
X12667801Y-13543508D01*
X12667801Y-13543508D02*
X12658277Y-13553031D01*
X12658277Y-13553031D02*
X12639229Y-13581603D01*
X12639229Y-13581603D02*
X12629706Y-13619698D01*
X12629706Y-13619698D02*
X12629706Y-13695888D01*
X12629706Y-13695888D02*
X12639229Y-13714936D01*
X12639229Y-13714936D02*
X12648753Y-13724460D01*
X12648753Y-13724460D02*
X12667801Y-13733984D01*
X12667801Y-13733984D02*
X12705896Y-13733984D01*
X12705896Y-13733984D02*
X12724944Y-13724460D01*
X12724944Y-13724460D02*
X12734467Y-13714936D01*
X12734467Y-13714936D02*
X12743991Y-13695888D01*
X12743991Y-13695888D02*
X12743991Y-13648269D01*
X12743991Y-13648269D02*
X12734467Y-13629222D01*
X12734467Y-13629222D02*
X12724944Y-13619698D01*
X12724944Y-13619698D02*
X12705896Y-13610174D01*
X12705896Y-13610174D02*
X12667801Y-13610174D01*
X12667801Y-13610174D02*
X12648753Y-13619698D01*
X12648753Y-13619698D02*
X12639229Y-13629222D01*
X12639229Y-13629222D02*
X12629706Y-13648269D01*
X12810658Y-13533984D02*
X12934467Y-13533984D01*
X12934467Y-13533984D02*
X12867801Y-13610174D01*
X12867801Y-13610174D02*
X12896372Y-13610174D01*
X12896372Y-13610174D02*
X12915420Y-13619698D01*
X12915420Y-13619698D02*
X12924944Y-13629222D01*
X12924944Y-13629222D02*
X12934467Y-13648269D01*
X12934467Y-13648269D02*
X12934467Y-13695888D01*
X12934467Y-13695888D02*
X12924944Y-13714936D01*
X12924944Y-13714936D02*
X12915420Y-13724460D01*
X12915420Y-13724460D02*
X12896372Y-13733984D01*
X12896372Y-13733984D02*
X12839229Y-13733984D01*
X12839229Y-13733984D02*
X12820182Y-13724460D01*
X12820182Y-13724460D02*
X12810658Y-13714936D01*
X13058277Y-13533984D02*
X13077325Y-13533984D01*
X13077325Y-13533984D02*
X13096372Y-13543508D01*
X13096372Y-13543508D02*
X13105896Y-13553031D01*
X13105896Y-13553031D02*
X13115420Y-13572079D01*
X13115420Y-13572079D02*
X13124944Y-13610174D01*
X13124944Y-13610174D02*
X13124944Y-13657793D01*
X13124944Y-13657793D02*
X13115420Y-13695888D01*
X13115420Y-13695888D02*
X13105896Y-13714936D01*
X13105896Y-13714936D02*
X13096372Y-13724460D01*
X13096372Y-13724460D02*
X13077325Y-13733984D01*
X13077325Y-13733984D02*
X13058277Y-13733984D01*
X13058277Y-13733984D02*
X13039229Y-13724460D01*
X13039229Y-13724460D02*
X13029706Y-13714936D01*
X13029706Y-13714936D02*
X13020182Y-13695888D01*
X13020182Y-13695888D02*
X13010658Y-13657793D01*
X13010658Y-13657793D02*
X13010658Y-13610174D01*
X13010658Y-13610174D02*
X13020182Y-13572079D01*
X13020182Y-13572079D02*
X13029706Y-13553031D01*
X13029706Y-13553031D02*
X13039229Y-13543508D01*
X13039229Y-13543508D02*
X13058277Y-13533984D01*
X13201134Y-13533984D02*
X13201134Y-13572079D01*
X13277325Y-13533984D02*
X13277325Y-13572079D01*
X13572563Y-13810174D02*
X13563039Y-13800650D01*
X13563039Y-13800650D02*
X13543991Y-13772079D01*
X13543991Y-13772079D02*
X13534468Y-13753031D01*
X13534468Y-13753031D02*
X13524944Y-13724460D01*
X13524944Y-13724460D02*
X13515420Y-13676841D01*
X13515420Y-13676841D02*
X13515420Y-13638746D01*
X13515420Y-13638746D02*
X13524944Y-13591127D01*
X13524944Y-13591127D02*
X13534468Y-13562555D01*
X13534468Y-13562555D02*
X13543991Y-13543508D01*
X13543991Y-13543508D02*
X13563039Y-13514936D01*
X13563039Y-13514936D02*
X13572563Y-13505412D01*
X13639229Y-13553031D02*
X13648753Y-13543508D01*
X13648753Y-13543508D02*
X13667801Y-13533984D01*
X13667801Y-13533984D02*
X13715420Y-13533984D01*
X13715420Y-13533984D02*
X13734468Y-13543508D01*
X13734468Y-13543508D02*
X13743991Y-13553031D01*
X13743991Y-13553031D02*
X13753515Y-13572079D01*
X13753515Y-13572079D02*
X13753515Y-13591127D01*
X13753515Y-13591127D02*
X13743991Y-13619698D01*
X13743991Y-13619698D02*
X13629706Y-13733984D01*
X13629706Y-13733984D02*
X13753515Y-13733984D01*
X13991610Y-13733984D02*
X13991610Y-13533984D01*
X14077325Y-13733984D02*
X14077325Y-13629222D01*
X14077325Y-13629222D02*
X14067801Y-13610174D01*
X14067801Y-13610174D02*
X14048753Y-13600650D01*
X14048753Y-13600650D02*
X14020182Y-13600650D01*
X14020182Y-13600650D02*
X14001134Y-13610174D01*
X14001134Y-13610174D02*
X13991610Y-13619698D01*
X14201134Y-13733984D02*
X14182087Y-13724460D01*
X14182087Y-13724460D02*
X14172563Y-13714936D01*
X14172563Y-13714936D02*
X14163039Y-13695888D01*
X14163039Y-13695888D02*
X14163039Y-13638746D01*
X14163039Y-13638746D02*
X14172563Y-13619698D01*
X14172563Y-13619698D02*
X14182087Y-13610174D01*
X14182087Y-13610174D02*
X14201134Y-13600650D01*
X14201134Y-13600650D02*
X14229706Y-13600650D01*
X14229706Y-13600650D02*
X14248753Y-13610174D01*
X14248753Y-13610174D02*
X14258277Y-13619698D01*
X14258277Y-13619698D02*
X14267801Y-13638746D01*
X14267801Y-13638746D02*
X14267801Y-13695888D01*
X14267801Y-13695888D02*
X14258277Y-13714936D01*
X14258277Y-13714936D02*
X14248753Y-13724460D01*
X14248753Y-13724460D02*
X14229706Y-13733984D01*
X14229706Y-13733984D02*
X14201134Y-13733984D01*
X14382087Y-13733984D02*
X14363039Y-13724460D01*
X14363039Y-13724460D02*
X14353515Y-13705412D01*
X14353515Y-13705412D02*
X14353515Y-13533984D01*
X14534468Y-13724460D02*
X14515420Y-13733984D01*
X14515420Y-13733984D02*
X14477325Y-13733984D01*
X14477325Y-13733984D02*
X14458277Y-13724460D01*
X14458277Y-13724460D02*
X14448753Y-13705412D01*
X14448753Y-13705412D02*
X14448753Y-13629222D01*
X14448753Y-13629222D02*
X14458277Y-13610174D01*
X14458277Y-13610174D02*
X14477325Y-13600650D01*
X14477325Y-13600650D02*
X14515420Y-13600650D01*
X14515420Y-13600650D02*
X14534468Y-13610174D01*
X14534468Y-13610174D02*
X14543991Y-13629222D01*
X14543991Y-13629222D02*
X14543991Y-13648269D01*
X14543991Y-13648269D02*
X14448753Y-13667317D01*
X14620182Y-13724460D02*
X14639230Y-13733984D01*
X14639230Y-13733984D02*
X14677325Y-13733984D01*
X14677325Y-13733984D02*
X14696372Y-13724460D01*
X14696372Y-13724460D02*
X14705896Y-13705412D01*
X14705896Y-13705412D02*
X14705896Y-13695888D01*
X14705896Y-13695888D02*
X14696372Y-13676841D01*
X14696372Y-13676841D02*
X14677325Y-13667317D01*
X14677325Y-13667317D02*
X14648753Y-13667317D01*
X14648753Y-13667317D02*
X14629706Y-13657793D01*
X14629706Y-13657793D02*
X14620182Y-13638746D01*
X14620182Y-13638746D02*
X14620182Y-13629222D01*
X14620182Y-13629222D02*
X14629706Y-13610174D01*
X14629706Y-13610174D02*
X14648753Y-13600650D01*
X14648753Y-13600650D02*
X14677325Y-13600650D01*
X14677325Y-13600650D02*
X14696372Y-13610174D01*
X14772563Y-13810174D02*
X14782087Y-13800650D01*
X14782087Y-13800650D02*
X14801134Y-13772079D01*
X14801134Y-13772079D02*
X14810658Y-13753031D01*
X14810658Y-13753031D02*
X14820182Y-13724460D01*
X14820182Y-13724460D02*
X14829706Y-13676841D01*
X14829706Y-13676841D02*
X14829706Y-13638746D01*
X14829706Y-13638746D02*
X14820182Y-13591127D01*
X14820182Y-13591127D02*
X14810658Y-13562555D01*
X14810658Y-13562555D02*
X14801134Y-13543508D01*
X14801134Y-13543508D02*
X14782087Y-13514936D01*
X14782087Y-13514936D02*
X14772563Y-13505412D01*
X15134468Y-13810174D02*
X15124944Y-13800650D01*
X15124944Y-13800650D02*
X15105896Y-13772079D01*
X15105896Y-13772079D02*
X15096372Y-13753031D01*
X15096372Y-13753031D02*
X15086849Y-13724460D01*
X15086849Y-13724460D02*
X15077325Y-13676841D01*
X15077325Y-13676841D02*
X15077325Y-13638746D01*
X15077325Y-13638746D02*
X15086849Y-13591127D01*
X15086849Y-13591127D02*
X15096372Y-13562555D01*
X15096372Y-13562555D02*
X15105896Y-13543508D01*
X15105896Y-13543508D02*
X15124944Y-13514936D01*
X15124944Y-13514936D02*
X15134468Y-13505412D01*
X15210658Y-13600650D02*
X15210658Y-13733984D01*
X15210658Y-13619698D02*
X15220182Y-13610174D01*
X15220182Y-13610174D02*
X15239230Y-13600650D01*
X15239230Y-13600650D02*
X15267801Y-13600650D01*
X15267801Y-13600650D02*
X15286849Y-13610174D01*
X15286849Y-13610174D02*
X15296372Y-13629222D01*
X15296372Y-13629222D02*
X15296372Y-13733984D01*
X15420182Y-13733984D02*
X15401134Y-13724460D01*
X15401134Y-13724460D02*
X15391611Y-13714936D01*
X15391611Y-13714936D02*
X15382087Y-13695888D01*
X15382087Y-13695888D02*
X15382087Y-13638746D01*
X15382087Y-13638746D02*
X15391611Y-13619698D01*
X15391611Y-13619698D02*
X15401134Y-13610174D01*
X15401134Y-13610174D02*
X15420182Y-13600650D01*
X15420182Y-13600650D02*
X15448753Y-13600650D01*
X15448753Y-13600650D02*
X15467801Y-13610174D01*
X15467801Y-13610174D02*
X15477325Y-13619698D01*
X15477325Y-13619698D02*
X15486849Y-13638746D01*
X15486849Y-13638746D02*
X15486849Y-13695888D01*
X15486849Y-13695888D02*
X15477325Y-13714936D01*
X15477325Y-13714936D02*
X15467801Y-13724460D01*
X15467801Y-13724460D02*
X15448753Y-13733984D01*
X15448753Y-13733984D02*
X15420182Y-13733984D01*
X15543992Y-13600650D02*
X15620182Y-13600650D01*
X15572563Y-13533984D02*
X15572563Y-13705412D01*
X15572563Y-13705412D02*
X15582087Y-13724460D01*
X15582087Y-13724460D02*
X15601134Y-13733984D01*
X15601134Y-13733984D02*
X15620182Y-13733984D01*
X15839230Y-13600650D02*
X15839230Y-13800650D01*
X15839230Y-13610174D02*
X15858277Y-13600650D01*
X15858277Y-13600650D02*
X15896373Y-13600650D01*
X15896373Y-13600650D02*
X15915420Y-13610174D01*
X15915420Y-13610174D02*
X15924944Y-13619698D01*
X15924944Y-13619698D02*
X15934468Y-13638746D01*
X15934468Y-13638746D02*
X15934468Y-13695888D01*
X15934468Y-13695888D02*
X15924944Y-13714936D01*
X15924944Y-13714936D02*
X15915420Y-13724460D01*
X15915420Y-13724460D02*
X15896373Y-13733984D01*
X15896373Y-13733984D02*
X15858277Y-13733984D01*
X15858277Y-13733984D02*
X15839230Y-13724460D01*
X16048753Y-13733984D02*
X16029706Y-13724460D01*
X16029706Y-13724460D02*
X16020182Y-13705412D01*
X16020182Y-13705412D02*
X16020182Y-13533984D01*
X16210658Y-13733984D02*
X16210658Y-13629222D01*
X16210658Y-13629222D02*
X16201134Y-13610174D01*
X16201134Y-13610174D02*
X16182087Y-13600650D01*
X16182087Y-13600650D02*
X16143992Y-13600650D01*
X16143992Y-13600650D02*
X16124944Y-13610174D01*
X16210658Y-13724460D02*
X16191611Y-13733984D01*
X16191611Y-13733984D02*
X16143992Y-13733984D01*
X16143992Y-13733984D02*
X16124944Y-13724460D01*
X16124944Y-13724460D02*
X16115420Y-13705412D01*
X16115420Y-13705412D02*
X16115420Y-13686365D01*
X16115420Y-13686365D02*
X16124944Y-13667317D01*
X16124944Y-13667317D02*
X16143992Y-13657793D01*
X16143992Y-13657793D02*
X16191611Y-13657793D01*
X16191611Y-13657793D02*
X16210658Y-13648269D01*
X16277325Y-13600650D02*
X16353515Y-13600650D01*
X16305896Y-13533984D02*
X16305896Y-13705412D01*
X16305896Y-13705412D02*
X16315420Y-13724460D01*
X16315420Y-13724460D02*
X16334468Y-13733984D01*
X16334468Y-13733984D02*
X16353515Y-13733984D01*
X16496373Y-13724460D02*
X16477325Y-13733984D01*
X16477325Y-13733984D02*
X16439230Y-13733984D01*
X16439230Y-13733984D02*
X16420182Y-13724460D01*
X16420182Y-13724460D02*
X16410658Y-13705412D01*
X16410658Y-13705412D02*
X16410658Y-13629222D01*
X16410658Y-13629222D02*
X16420182Y-13610174D01*
X16420182Y-13610174D02*
X16439230Y-13600650D01*
X16439230Y-13600650D02*
X16477325Y-13600650D01*
X16477325Y-13600650D02*
X16496373Y-13610174D01*
X16496373Y-13610174D02*
X16505896Y-13629222D01*
X16505896Y-13629222D02*
X16505896Y-13648269D01*
X16505896Y-13648269D02*
X16410658Y-13667317D01*
X16677325Y-13733984D02*
X16677325Y-13533984D01*
X16677325Y-13724460D02*
X16658277Y-13733984D01*
X16658277Y-13733984D02*
X16620182Y-13733984D01*
X16620182Y-13733984D02*
X16601134Y-13724460D01*
X16601134Y-13724460D02*
X16591611Y-13714936D01*
X16591611Y-13714936D02*
X16582087Y-13695888D01*
X16582087Y-13695888D02*
X16582087Y-13638746D01*
X16582087Y-13638746D02*
X16591611Y-13619698D01*
X16591611Y-13619698D02*
X16601134Y-13610174D01*
X16601134Y-13610174D02*
X16620182Y-13600650D01*
X16620182Y-13600650D02*
X16658277Y-13600650D01*
X16658277Y-13600650D02*
X16677325Y-13610174D01*
X16753515Y-13810174D02*
X16763039Y-13800650D01*
X16763039Y-13800650D02*
X16782087Y-13772079D01*
X16782087Y-13772079D02*
X16791611Y-13753031D01*
X16791611Y-13753031D02*
X16801135Y-13724460D01*
X16801135Y-13724460D02*
X16810658Y-13676841D01*
X16810658Y-13676841D02*
X16810658Y-13638746D01*
X16810658Y-13638746D02*
X16801135Y-13591127D01*
X16801135Y-13591127D02*
X16791611Y-13562555D01*
X16791611Y-13562555D02*
X16782087Y-13543508D01*
X16782087Y-13543508D02*
X16763039Y-13514936D01*
X16763039Y-13514936D02*
X16753515Y-13505412D01*
X9997500Y-13922500D02*
G75*
G02*
X9797500Y-13922500I-100000J0D01*
G01*
X9797500Y-13922500D02*
G75*
G02*
X9997500Y-13922500I100000J0D01*
G01*
X10248753Y-13833031D02*
X10258277Y-13823508D01*
X10258277Y-13823508D02*
X10277324Y-13813984D01*
X10277324Y-13813984D02*
X10324944Y-13813984D01*
X10324944Y-13813984D02*
X10343991Y-13823508D01*
X10343991Y-13823508D02*
X10353515Y-13833031D01*
X10353515Y-13833031D02*
X10363039Y-13852079D01*
X10363039Y-13852079D02*
X10363039Y-13871127D01*
X10363039Y-13871127D02*
X10353515Y-13899698D01*
X10353515Y-13899698D02*
X10239229Y-14013984D01*
X10239229Y-14013984D02*
X10363039Y-14013984D01*
X10448753Y-13994936D02*
X10458277Y-14004460D01*
X10458277Y-14004460D02*
X10448753Y-14013984D01*
X10448753Y-14013984D02*
X10439229Y-14004460D01*
X10439229Y-14004460D02*
X10448753Y-13994936D01*
X10448753Y-13994936D02*
X10448753Y-14013984D01*
X10524944Y-13813984D02*
X10648753Y-13813984D01*
X10648753Y-13813984D02*
X10582086Y-13890174D01*
X10582086Y-13890174D02*
X10610658Y-13890174D01*
X10610658Y-13890174D02*
X10629705Y-13899698D01*
X10629705Y-13899698D02*
X10639229Y-13909222D01*
X10639229Y-13909222D02*
X10648753Y-13928269D01*
X10648753Y-13928269D02*
X10648753Y-13975888D01*
X10648753Y-13975888D02*
X10639229Y-13994936D01*
X10639229Y-13994936D02*
X10629705Y-14004460D01*
X10629705Y-14004460D02*
X10610658Y-14013984D01*
X10610658Y-14013984D02*
X10553515Y-14013984D01*
X10553515Y-14013984D02*
X10534467Y-14004460D01*
X10534467Y-14004460D02*
X10524944Y-13994936D01*
X10772563Y-13813984D02*
X10791610Y-13813984D01*
X10791610Y-13813984D02*
X10810658Y-13823508D01*
X10810658Y-13823508D02*
X10820182Y-13833031D01*
X10820182Y-13833031D02*
X10829705Y-13852079D01*
X10829705Y-13852079D02*
X10839229Y-13890174D01*
X10839229Y-13890174D02*
X10839229Y-13937793D01*
X10839229Y-13937793D02*
X10829705Y-13975888D01*
X10829705Y-13975888D02*
X10820182Y-13994936D01*
X10820182Y-13994936D02*
X10810658Y-14004460D01*
X10810658Y-14004460D02*
X10791610Y-14013984D01*
X10791610Y-14013984D02*
X10772563Y-14013984D01*
X10772563Y-14013984D02*
X10753515Y-14004460D01*
X10753515Y-14004460D02*
X10743991Y-13994936D01*
X10743991Y-13994936D02*
X10734467Y-13975888D01*
X10734467Y-13975888D02*
X10724944Y-13937793D01*
X10724944Y-13937793D02*
X10724944Y-13890174D01*
X10724944Y-13890174D02*
X10734467Y-13852079D01*
X10734467Y-13852079D02*
X10743991Y-13833031D01*
X10743991Y-13833031D02*
X10753515Y-13823508D01*
X10753515Y-13823508D02*
X10772563Y-13813984D01*
X10963039Y-13813984D02*
X10982086Y-13813984D01*
X10982086Y-13813984D02*
X11001134Y-13823508D01*
X11001134Y-13823508D02*
X11010658Y-13833031D01*
X11010658Y-13833031D02*
X11020182Y-13852079D01*
X11020182Y-13852079D02*
X11029705Y-13890174D01*
X11029705Y-13890174D02*
X11029705Y-13937793D01*
X11029705Y-13937793D02*
X11020182Y-13975888D01*
X11020182Y-13975888D02*
X11010658Y-13994936D01*
X11010658Y-13994936D02*
X11001134Y-14004460D01*
X11001134Y-14004460D02*
X10982086Y-14013984D01*
X10982086Y-14013984D02*
X10963039Y-14013984D01*
X10963039Y-14013984D02*
X10943991Y-14004460D01*
X10943991Y-14004460D02*
X10934467Y-13994936D01*
X10934467Y-13994936D02*
X10924944Y-13975888D01*
X10924944Y-13975888D02*
X10915420Y-13937793D01*
X10915420Y-13937793D02*
X10915420Y-13890174D01*
X10915420Y-13890174D02*
X10924944Y-13852079D01*
X10924944Y-13852079D02*
X10934467Y-13833031D01*
X10934467Y-13833031D02*
X10943991Y-13823508D01*
X10943991Y-13823508D02*
X10963039Y-13813984D01*
X11115420Y-14013984D02*
X11115420Y-13880650D01*
X11115420Y-13899698D02*
X11124944Y-13890174D01*
X11124944Y-13890174D02*
X11143991Y-13880650D01*
X11143991Y-13880650D02*
X11172563Y-13880650D01*
X11172563Y-13880650D02*
X11191610Y-13890174D01*
X11191610Y-13890174D02*
X11201134Y-13909222D01*
X11201134Y-13909222D02*
X11201134Y-14013984D01*
X11201134Y-13909222D02*
X11210658Y-13890174D01*
X11210658Y-13890174D02*
X11229705Y-13880650D01*
X11229705Y-13880650D02*
X11258277Y-13880650D01*
X11258277Y-13880650D02*
X11277324Y-13890174D01*
X11277324Y-13890174D02*
X11286848Y-13909222D01*
X11286848Y-13909222D02*
X11286848Y-14013984D01*
X11382086Y-14013984D02*
X11382086Y-13880650D01*
X11382086Y-13899698D02*
X11391610Y-13890174D01*
X11391610Y-13890174D02*
X11410658Y-13880650D01*
X11410658Y-13880650D02*
X11439229Y-13880650D01*
X11439229Y-13880650D02*
X11458277Y-13890174D01*
X11458277Y-13890174D02*
X11467801Y-13909222D01*
X11467801Y-13909222D02*
X11467801Y-14013984D01*
X11467801Y-13909222D02*
X11477324Y-13890174D01*
X11477324Y-13890174D02*
X11496372Y-13880650D01*
X11496372Y-13880650D02*
X11524943Y-13880650D01*
X11524943Y-13880650D02*
X11543991Y-13890174D01*
X11543991Y-13890174D02*
X11553515Y-13909222D01*
X11553515Y-13909222D02*
X11553515Y-14013984D01*
X11943991Y-13804460D02*
X11772563Y-14061603D01*
X12201134Y-13813984D02*
X12220182Y-13813984D01*
X12220182Y-13813984D02*
X12239229Y-13823508D01*
X12239229Y-13823508D02*
X12248753Y-13833031D01*
X12248753Y-13833031D02*
X12258277Y-13852079D01*
X12258277Y-13852079D02*
X12267801Y-13890174D01*
X12267801Y-13890174D02*
X12267801Y-13937793D01*
X12267801Y-13937793D02*
X12258277Y-13975888D01*
X12258277Y-13975888D02*
X12248753Y-13994936D01*
X12248753Y-13994936D02*
X12239229Y-14004460D01*
X12239229Y-14004460D02*
X12220182Y-14013984D01*
X12220182Y-14013984D02*
X12201134Y-14013984D01*
X12201134Y-14013984D02*
X12182086Y-14004460D01*
X12182086Y-14004460D02*
X12172563Y-13994936D01*
X12172563Y-13994936D02*
X12163039Y-13975888D01*
X12163039Y-13975888D02*
X12153515Y-13937793D01*
X12153515Y-13937793D02*
X12153515Y-13890174D01*
X12153515Y-13890174D02*
X12163039Y-13852079D01*
X12163039Y-13852079D02*
X12172563Y-13833031D01*
X12172563Y-13833031D02*
X12182086Y-13823508D01*
X12182086Y-13823508D02*
X12201134Y-13813984D01*
X12353515Y-13994936D02*
X12363039Y-14004460D01*
X12363039Y-14004460D02*
X12353515Y-14013984D01*
X12353515Y-14013984D02*
X12343991Y-14004460D01*
X12343991Y-14004460D02*
X12353515Y-13994936D01*
X12353515Y-13994936D02*
X12353515Y-14013984D01*
X12486848Y-13813984D02*
X12505896Y-13813984D01*
X12505896Y-13813984D02*
X12524944Y-13823508D01*
X12524944Y-13823508D02*
X12534467Y-13833031D01*
X12534467Y-13833031D02*
X12543991Y-13852079D01*
X12543991Y-13852079D02*
X12553515Y-13890174D01*
X12553515Y-13890174D02*
X12553515Y-13937793D01*
X12553515Y-13937793D02*
X12543991Y-13975888D01*
X12543991Y-13975888D02*
X12534467Y-13994936D01*
X12534467Y-13994936D02*
X12524944Y-14004460D01*
X12524944Y-14004460D02*
X12505896Y-14013984D01*
X12505896Y-14013984D02*
X12486848Y-14013984D01*
X12486848Y-14013984D02*
X12467801Y-14004460D01*
X12467801Y-14004460D02*
X12458277Y-13994936D01*
X12458277Y-13994936D02*
X12448753Y-13975888D01*
X12448753Y-13975888D02*
X12439229Y-13937793D01*
X12439229Y-13937793D02*
X12439229Y-13890174D01*
X12439229Y-13890174D02*
X12448753Y-13852079D01*
X12448753Y-13852079D02*
X12458277Y-13833031D01*
X12458277Y-13833031D02*
X12467801Y-13823508D01*
X12467801Y-13823508D02*
X12486848Y-13813984D01*
X12648753Y-14013984D02*
X12686848Y-14013984D01*
X12686848Y-14013984D02*
X12705896Y-14004460D01*
X12705896Y-14004460D02*
X12715420Y-13994936D01*
X12715420Y-13994936D02*
X12734467Y-13966365D01*
X12734467Y-13966365D02*
X12743991Y-13928269D01*
X12743991Y-13928269D02*
X12743991Y-13852079D01*
X12743991Y-13852079D02*
X12734467Y-13833031D01*
X12734467Y-13833031D02*
X12724944Y-13823508D01*
X12724944Y-13823508D02*
X12705896Y-13813984D01*
X12705896Y-13813984D02*
X12667801Y-13813984D01*
X12667801Y-13813984D02*
X12648753Y-13823508D01*
X12648753Y-13823508D02*
X12639229Y-13833031D01*
X12639229Y-13833031D02*
X12629706Y-13852079D01*
X12629706Y-13852079D02*
X12629706Y-13899698D01*
X12629706Y-13899698D02*
X12639229Y-13918746D01*
X12639229Y-13918746D02*
X12648753Y-13928269D01*
X12648753Y-13928269D02*
X12667801Y-13937793D01*
X12667801Y-13937793D02*
X12705896Y-13937793D01*
X12705896Y-13937793D02*
X12724944Y-13928269D01*
X12724944Y-13928269D02*
X12734467Y-13918746D01*
X12734467Y-13918746D02*
X12743991Y-13899698D01*
X12867801Y-13813984D02*
X12886848Y-13813984D01*
X12886848Y-13813984D02*
X12905896Y-13823508D01*
X12905896Y-13823508D02*
X12915420Y-13833031D01*
X12915420Y-13833031D02*
X12924944Y-13852079D01*
X12924944Y-13852079D02*
X12934467Y-13890174D01*
X12934467Y-13890174D02*
X12934467Y-13937793D01*
X12934467Y-13937793D02*
X12924944Y-13975888D01*
X12924944Y-13975888D02*
X12915420Y-13994936D01*
X12915420Y-13994936D02*
X12905896Y-14004460D01*
X12905896Y-14004460D02*
X12886848Y-14013984D01*
X12886848Y-14013984D02*
X12867801Y-14013984D01*
X12867801Y-14013984D02*
X12848753Y-14004460D01*
X12848753Y-14004460D02*
X12839229Y-13994936D01*
X12839229Y-13994936D02*
X12829706Y-13975888D01*
X12829706Y-13975888D02*
X12820182Y-13937793D01*
X12820182Y-13937793D02*
X12820182Y-13890174D01*
X12820182Y-13890174D02*
X12829706Y-13852079D01*
X12829706Y-13852079D02*
X12839229Y-13833031D01*
X12839229Y-13833031D02*
X12848753Y-13823508D01*
X12848753Y-13823508D02*
X12867801Y-13813984D01*
X13105896Y-13813984D02*
X13067801Y-13813984D01*
X13067801Y-13813984D02*
X13048753Y-13823508D01*
X13048753Y-13823508D02*
X13039229Y-13833031D01*
X13039229Y-13833031D02*
X13020182Y-13861603D01*
X13020182Y-13861603D02*
X13010658Y-13899698D01*
X13010658Y-13899698D02*
X13010658Y-13975888D01*
X13010658Y-13975888D02*
X13020182Y-13994936D01*
X13020182Y-13994936D02*
X13029706Y-14004460D01*
X13029706Y-14004460D02*
X13048753Y-14013984D01*
X13048753Y-14013984D02*
X13086848Y-14013984D01*
X13086848Y-14013984D02*
X13105896Y-14004460D01*
X13105896Y-14004460D02*
X13115420Y-13994936D01*
X13115420Y-13994936D02*
X13124944Y-13975888D01*
X13124944Y-13975888D02*
X13124944Y-13928269D01*
X13124944Y-13928269D02*
X13115420Y-13909222D01*
X13115420Y-13909222D02*
X13105896Y-13899698D01*
X13105896Y-13899698D02*
X13086848Y-13890174D01*
X13086848Y-13890174D02*
X13048753Y-13890174D01*
X13048753Y-13890174D02*
X13029706Y-13899698D01*
X13029706Y-13899698D02*
X13020182Y-13909222D01*
X13020182Y-13909222D02*
X13010658Y-13928269D01*
X13201134Y-13813984D02*
X13201134Y-13852079D01*
X13277325Y-13813984D02*
X13277325Y-13852079D01*
X13572563Y-14090174D02*
X13563039Y-14080650D01*
X13563039Y-14080650D02*
X13543991Y-14052079D01*
X13543991Y-14052079D02*
X13534468Y-14033031D01*
X13534468Y-14033031D02*
X13524944Y-14004460D01*
X13524944Y-14004460D02*
X13515420Y-13956841D01*
X13515420Y-13956841D02*
X13515420Y-13918746D01*
X13515420Y-13918746D02*
X13524944Y-13871127D01*
X13524944Y-13871127D02*
X13534468Y-13842555D01*
X13534468Y-13842555D02*
X13543991Y-13823508D01*
X13543991Y-13823508D02*
X13563039Y-13794936D01*
X13563039Y-13794936D02*
X13572563Y-13785412D01*
X13639229Y-13833031D02*
X13648753Y-13823508D01*
X13648753Y-13823508D02*
X13667801Y-13813984D01*
X13667801Y-13813984D02*
X13715420Y-13813984D01*
X13715420Y-13813984D02*
X13734468Y-13823508D01*
X13734468Y-13823508D02*
X13743991Y-13833031D01*
X13743991Y-13833031D02*
X13753515Y-13852079D01*
X13753515Y-13852079D02*
X13753515Y-13871127D01*
X13753515Y-13871127D02*
X13743991Y-13899698D01*
X13743991Y-13899698D02*
X13629706Y-14013984D01*
X13629706Y-14013984D02*
X13753515Y-14013984D01*
X13991610Y-14013984D02*
X13991610Y-13813984D01*
X14077325Y-14013984D02*
X14077325Y-13909222D01*
X14077325Y-13909222D02*
X14067801Y-13890174D01*
X14067801Y-13890174D02*
X14048753Y-13880650D01*
X14048753Y-13880650D02*
X14020182Y-13880650D01*
X14020182Y-13880650D02*
X14001134Y-13890174D01*
X14001134Y-13890174D02*
X13991610Y-13899698D01*
X14201134Y-14013984D02*
X14182087Y-14004460D01*
X14182087Y-14004460D02*
X14172563Y-13994936D01*
X14172563Y-13994936D02*
X14163039Y-13975888D01*
X14163039Y-13975888D02*
X14163039Y-13918746D01*
X14163039Y-13918746D02*
X14172563Y-13899698D01*
X14172563Y-13899698D02*
X14182087Y-13890174D01*
X14182087Y-13890174D02*
X14201134Y-13880650D01*
X14201134Y-13880650D02*
X14229706Y-13880650D01*
X14229706Y-13880650D02*
X14248753Y-13890174D01*
X14248753Y-13890174D02*
X14258277Y-13899698D01*
X14258277Y-13899698D02*
X14267801Y-13918746D01*
X14267801Y-13918746D02*
X14267801Y-13975888D01*
X14267801Y-13975888D02*
X14258277Y-13994936D01*
X14258277Y-13994936D02*
X14248753Y-14004460D01*
X14248753Y-14004460D02*
X14229706Y-14013984D01*
X14229706Y-14013984D02*
X14201134Y-14013984D01*
X14382087Y-14013984D02*
X14363039Y-14004460D01*
X14363039Y-14004460D02*
X14353515Y-13985412D01*
X14353515Y-13985412D02*
X14353515Y-13813984D01*
X14534468Y-14004460D02*
X14515420Y-14013984D01*
X14515420Y-14013984D02*
X14477325Y-14013984D01*
X14477325Y-14013984D02*
X14458277Y-14004460D01*
X14458277Y-14004460D02*
X14448753Y-13985412D01*
X14448753Y-13985412D02*
X14448753Y-13909222D01*
X14448753Y-13909222D02*
X14458277Y-13890174D01*
X14458277Y-13890174D02*
X14477325Y-13880650D01*
X14477325Y-13880650D02*
X14515420Y-13880650D01*
X14515420Y-13880650D02*
X14534468Y-13890174D01*
X14534468Y-13890174D02*
X14543991Y-13909222D01*
X14543991Y-13909222D02*
X14543991Y-13928269D01*
X14543991Y-13928269D02*
X14448753Y-13947317D01*
X14620182Y-14004460D02*
X14639230Y-14013984D01*
X14639230Y-14013984D02*
X14677325Y-14013984D01*
X14677325Y-14013984D02*
X14696372Y-14004460D01*
X14696372Y-14004460D02*
X14705896Y-13985412D01*
X14705896Y-13985412D02*
X14705896Y-13975888D01*
X14705896Y-13975888D02*
X14696372Y-13956841D01*
X14696372Y-13956841D02*
X14677325Y-13947317D01*
X14677325Y-13947317D02*
X14648753Y-13947317D01*
X14648753Y-13947317D02*
X14629706Y-13937793D01*
X14629706Y-13937793D02*
X14620182Y-13918746D01*
X14620182Y-13918746D02*
X14620182Y-13909222D01*
X14620182Y-13909222D02*
X14629706Y-13890174D01*
X14629706Y-13890174D02*
X14648753Y-13880650D01*
X14648753Y-13880650D02*
X14677325Y-13880650D01*
X14677325Y-13880650D02*
X14696372Y-13890174D01*
X14772563Y-14090174D02*
X14782087Y-14080650D01*
X14782087Y-14080650D02*
X14801134Y-14052079D01*
X14801134Y-14052079D02*
X14810658Y-14033031D01*
X14810658Y-14033031D02*
X14820182Y-14004460D01*
X14820182Y-14004460D02*
X14829706Y-13956841D01*
X14829706Y-13956841D02*
X14829706Y-13918746D01*
X14829706Y-13918746D02*
X14820182Y-13871127D01*
X14820182Y-13871127D02*
X14810658Y-13842555D01*
X14810658Y-13842555D02*
X14801134Y-13823508D01*
X14801134Y-13823508D02*
X14782087Y-13794936D01*
X14782087Y-13794936D02*
X14772563Y-13785412D01*
X15134468Y-14090174D02*
X15124944Y-14080650D01*
X15124944Y-14080650D02*
X15105896Y-14052079D01*
X15105896Y-14052079D02*
X15096372Y-14033031D01*
X15096372Y-14033031D02*
X15086849Y-14004460D01*
X15086849Y-14004460D02*
X15077325Y-13956841D01*
X15077325Y-13956841D02*
X15077325Y-13918746D01*
X15077325Y-13918746D02*
X15086849Y-13871127D01*
X15086849Y-13871127D02*
X15096372Y-13842555D01*
X15096372Y-13842555D02*
X15105896Y-13823508D01*
X15105896Y-13823508D02*
X15124944Y-13794936D01*
X15124944Y-13794936D02*
X15134468Y-13785412D01*
X15210658Y-13880650D02*
X15210658Y-14013984D01*
X15210658Y-13899698D02*
X15220182Y-13890174D01*
X15220182Y-13890174D02*
X15239230Y-13880650D01*
X15239230Y-13880650D02*
X15267801Y-13880650D01*
X15267801Y-13880650D02*
X15286849Y-13890174D01*
X15286849Y-13890174D02*
X15296372Y-13909222D01*
X15296372Y-13909222D02*
X15296372Y-14013984D01*
X15420182Y-14013984D02*
X15401134Y-14004460D01*
X15401134Y-14004460D02*
X15391611Y-13994936D01*
X15391611Y-13994936D02*
X15382087Y-13975888D01*
X15382087Y-13975888D02*
X15382087Y-13918746D01*
X15382087Y-13918746D02*
X15391611Y-13899698D01*
X15391611Y-13899698D02*
X15401134Y-13890174D01*
X15401134Y-13890174D02*
X15420182Y-13880650D01*
X15420182Y-13880650D02*
X15448753Y-13880650D01*
X15448753Y-13880650D02*
X15467801Y-13890174D01*
X15467801Y-13890174D02*
X15477325Y-13899698D01*
X15477325Y-13899698D02*
X15486849Y-13918746D01*
X15486849Y-13918746D02*
X15486849Y-13975888D01*
X15486849Y-13975888D02*
X15477325Y-13994936D01*
X15477325Y-13994936D02*
X15467801Y-14004460D01*
X15467801Y-14004460D02*
X15448753Y-14013984D01*
X15448753Y-14013984D02*
X15420182Y-14013984D01*
X15543992Y-13880650D02*
X15620182Y-13880650D01*
X15572563Y-13813984D02*
X15572563Y-13985412D01*
X15572563Y-13985412D02*
X15582087Y-14004460D01*
X15582087Y-14004460D02*
X15601134Y-14013984D01*
X15601134Y-14013984D02*
X15620182Y-14013984D01*
X15839230Y-13880650D02*
X15839230Y-14080650D01*
X15839230Y-13890174D02*
X15858277Y-13880650D01*
X15858277Y-13880650D02*
X15896373Y-13880650D01*
X15896373Y-13880650D02*
X15915420Y-13890174D01*
X15915420Y-13890174D02*
X15924944Y-13899698D01*
X15924944Y-13899698D02*
X15934468Y-13918746D01*
X15934468Y-13918746D02*
X15934468Y-13975888D01*
X15934468Y-13975888D02*
X15924944Y-13994936D01*
X15924944Y-13994936D02*
X15915420Y-14004460D01*
X15915420Y-14004460D02*
X15896373Y-14013984D01*
X15896373Y-14013984D02*
X15858277Y-14013984D01*
X15858277Y-14013984D02*
X15839230Y-14004460D01*
X16048753Y-14013984D02*
X16029706Y-14004460D01*
X16029706Y-14004460D02*
X16020182Y-13985412D01*
X16020182Y-13985412D02*
X16020182Y-13813984D01*
X16210658Y-14013984D02*
X16210658Y-13909222D01*
X16210658Y-13909222D02*
X16201134Y-13890174D01*
X16201134Y-13890174D02*
X16182087Y-13880650D01*
X16182087Y-13880650D02*
X16143992Y-13880650D01*
X16143992Y-13880650D02*
X16124944Y-13890174D01*
X16210658Y-14004460D02*
X16191611Y-14013984D01*
X16191611Y-14013984D02*
X16143992Y-14013984D01*
X16143992Y-14013984D02*
X16124944Y-14004460D01*
X16124944Y-14004460D02*
X16115420Y-13985412D01*
X16115420Y-13985412D02*
X16115420Y-13966365D01*
X16115420Y-13966365D02*
X16124944Y-13947317D01*
X16124944Y-13947317D02*
X16143992Y-13937793D01*
X16143992Y-13937793D02*
X16191611Y-13937793D01*
X16191611Y-13937793D02*
X16210658Y-13928269D01*
X16277325Y-13880650D02*
X16353515Y-13880650D01*
X16305896Y-13813984D02*
X16305896Y-13985412D01*
X16305896Y-13985412D02*
X16315420Y-14004460D01*
X16315420Y-14004460D02*
X16334468Y-14013984D01*
X16334468Y-14013984D02*
X16353515Y-14013984D01*
X16496373Y-14004460D02*
X16477325Y-14013984D01*
X16477325Y-14013984D02*
X16439230Y-14013984D01*
X16439230Y-14013984D02*
X16420182Y-14004460D01*
X16420182Y-14004460D02*
X16410658Y-13985412D01*
X16410658Y-13985412D02*
X16410658Y-13909222D01*
X16410658Y-13909222D02*
X16420182Y-13890174D01*
X16420182Y-13890174D02*
X16439230Y-13880650D01*
X16439230Y-13880650D02*
X16477325Y-13880650D01*
X16477325Y-13880650D02*
X16496373Y-13890174D01*
X16496373Y-13890174D02*
X16505896Y-13909222D01*
X16505896Y-13909222D02*
X16505896Y-13928269D01*
X16505896Y-13928269D02*
X16410658Y-13947317D01*
X16677325Y-14013984D02*
X16677325Y-13813984D01*
X16677325Y-14004460D02*
X16658277Y-14013984D01*
X16658277Y-14013984D02*
X16620182Y-14013984D01*
X16620182Y-14013984D02*
X16601134Y-14004460D01*
X16601134Y-14004460D02*
X16591611Y-13994936D01*
X16591611Y-13994936D02*
X16582087Y-13975888D01*
X16582087Y-13975888D02*
X16582087Y-13918746D01*
X16582087Y-13918746D02*
X16591611Y-13899698D01*
X16591611Y-13899698D02*
X16601134Y-13890174D01*
X16601134Y-13890174D02*
X16620182Y-13880650D01*
X16620182Y-13880650D02*
X16658277Y-13880650D01*
X16658277Y-13880650D02*
X16677325Y-13890174D01*
X16753515Y-14090174D02*
X16763039Y-14080650D01*
X16763039Y-14080650D02*
X16782087Y-14052079D01*
X16782087Y-14052079D02*
X16791611Y-14033031D01*
X16791611Y-14033031D02*
X16801135Y-14004460D01*
X16801135Y-14004460D02*
X16810658Y-13956841D01*
X16810658Y-13956841D02*
X16810658Y-13918746D01*
X16810658Y-13918746D02*
X16801135Y-13871127D01*
X16801135Y-13871127D02*
X16791611Y-13842555D01*
X16791611Y-13842555D02*
X16782087Y-13823508D01*
X16782087Y-13823508D02*
X16763039Y-13794936D01*
X16763039Y-13794936D02*
X16753515Y-13785412D01*
X9897500Y-14142500D02*
X9897500Y-14342500D01*
X9797500Y-14242500D02*
X9997500Y-14242500D01*
X10239229Y-14133984D02*
X10363039Y-14133984D01*
X10363039Y-14133984D02*
X10296372Y-14210174D01*
X10296372Y-14210174D02*
X10324944Y-14210174D01*
X10324944Y-14210174D02*
X10343991Y-14219698D01*
X10343991Y-14219698D02*
X10353515Y-14229222D01*
X10353515Y-14229222D02*
X10363039Y-14248269D01*
X10363039Y-14248269D02*
X10363039Y-14295888D01*
X10363039Y-14295888D02*
X10353515Y-14314936D01*
X10353515Y-14314936D02*
X10343991Y-14324460D01*
X10343991Y-14324460D02*
X10324944Y-14333984D01*
X10324944Y-14333984D02*
X10267801Y-14333984D01*
X10267801Y-14333984D02*
X10248753Y-14324460D01*
X10248753Y-14324460D02*
X10239229Y-14314936D01*
X10448753Y-14314936D02*
X10458277Y-14324460D01*
X10458277Y-14324460D02*
X10448753Y-14333984D01*
X10448753Y-14333984D02*
X10439229Y-14324460D01*
X10439229Y-14324460D02*
X10448753Y-14314936D01*
X10448753Y-14314936D02*
X10448753Y-14333984D01*
X10534467Y-14153031D02*
X10543991Y-14143508D01*
X10543991Y-14143508D02*
X10563039Y-14133984D01*
X10563039Y-14133984D02*
X10610658Y-14133984D01*
X10610658Y-14133984D02*
X10629705Y-14143508D01*
X10629705Y-14143508D02*
X10639229Y-14153031D01*
X10639229Y-14153031D02*
X10648753Y-14172079D01*
X10648753Y-14172079D02*
X10648753Y-14191127D01*
X10648753Y-14191127D02*
X10639229Y-14219698D01*
X10639229Y-14219698D02*
X10524944Y-14333984D01*
X10524944Y-14333984D02*
X10648753Y-14333984D01*
X10772563Y-14133984D02*
X10791610Y-14133984D01*
X10791610Y-14133984D02*
X10810658Y-14143508D01*
X10810658Y-14143508D02*
X10820182Y-14153031D01*
X10820182Y-14153031D02*
X10829705Y-14172079D01*
X10829705Y-14172079D02*
X10839229Y-14210174D01*
X10839229Y-14210174D02*
X10839229Y-14257793D01*
X10839229Y-14257793D02*
X10829705Y-14295888D01*
X10829705Y-14295888D02*
X10820182Y-14314936D01*
X10820182Y-14314936D02*
X10810658Y-14324460D01*
X10810658Y-14324460D02*
X10791610Y-14333984D01*
X10791610Y-14333984D02*
X10772563Y-14333984D01*
X10772563Y-14333984D02*
X10753515Y-14324460D01*
X10753515Y-14324460D02*
X10743991Y-14314936D01*
X10743991Y-14314936D02*
X10734467Y-14295888D01*
X10734467Y-14295888D02*
X10724944Y-14257793D01*
X10724944Y-14257793D02*
X10724944Y-14210174D01*
X10724944Y-14210174D02*
X10734467Y-14172079D01*
X10734467Y-14172079D02*
X10743991Y-14153031D01*
X10743991Y-14153031D02*
X10753515Y-14143508D01*
X10753515Y-14143508D02*
X10772563Y-14133984D01*
X10963039Y-14133984D02*
X10982086Y-14133984D01*
X10982086Y-14133984D02*
X11001134Y-14143508D01*
X11001134Y-14143508D02*
X11010658Y-14153031D01*
X11010658Y-14153031D02*
X11020182Y-14172079D01*
X11020182Y-14172079D02*
X11029705Y-14210174D01*
X11029705Y-14210174D02*
X11029705Y-14257793D01*
X11029705Y-14257793D02*
X11020182Y-14295888D01*
X11020182Y-14295888D02*
X11010658Y-14314936D01*
X11010658Y-14314936D02*
X11001134Y-14324460D01*
X11001134Y-14324460D02*
X10982086Y-14333984D01*
X10982086Y-14333984D02*
X10963039Y-14333984D01*
X10963039Y-14333984D02*
X10943991Y-14324460D01*
X10943991Y-14324460D02*
X10934467Y-14314936D01*
X10934467Y-14314936D02*
X10924944Y-14295888D01*
X10924944Y-14295888D02*
X10915420Y-14257793D01*
X10915420Y-14257793D02*
X10915420Y-14210174D01*
X10915420Y-14210174D02*
X10924944Y-14172079D01*
X10924944Y-14172079D02*
X10934467Y-14153031D01*
X10934467Y-14153031D02*
X10943991Y-14143508D01*
X10943991Y-14143508D02*
X10963039Y-14133984D01*
X11115420Y-14333984D02*
X11115420Y-14200650D01*
X11115420Y-14219698D02*
X11124944Y-14210174D01*
X11124944Y-14210174D02*
X11143991Y-14200650D01*
X11143991Y-14200650D02*
X11172563Y-14200650D01*
X11172563Y-14200650D02*
X11191610Y-14210174D01*
X11191610Y-14210174D02*
X11201134Y-14229222D01*
X11201134Y-14229222D02*
X11201134Y-14333984D01*
X11201134Y-14229222D02*
X11210658Y-14210174D01*
X11210658Y-14210174D02*
X11229705Y-14200650D01*
X11229705Y-14200650D02*
X11258277Y-14200650D01*
X11258277Y-14200650D02*
X11277324Y-14210174D01*
X11277324Y-14210174D02*
X11286848Y-14229222D01*
X11286848Y-14229222D02*
X11286848Y-14333984D01*
X11382086Y-14333984D02*
X11382086Y-14200650D01*
X11382086Y-14219698D02*
X11391610Y-14210174D01*
X11391610Y-14210174D02*
X11410658Y-14200650D01*
X11410658Y-14200650D02*
X11439229Y-14200650D01*
X11439229Y-14200650D02*
X11458277Y-14210174D01*
X11458277Y-14210174D02*
X11467801Y-14229222D01*
X11467801Y-14229222D02*
X11467801Y-14333984D01*
X11467801Y-14229222D02*
X11477324Y-14210174D01*
X11477324Y-14210174D02*
X11496372Y-14200650D01*
X11496372Y-14200650D02*
X11524943Y-14200650D01*
X11524943Y-14200650D02*
X11543991Y-14210174D01*
X11543991Y-14210174D02*
X11553515Y-14229222D01*
X11553515Y-14229222D02*
X11553515Y-14333984D01*
X11943991Y-14124460D02*
X11772563Y-14381603D01*
X12201134Y-14133984D02*
X12220182Y-14133984D01*
X12220182Y-14133984D02*
X12239229Y-14143508D01*
X12239229Y-14143508D02*
X12248753Y-14153031D01*
X12248753Y-14153031D02*
X12258277Y-14172079D01*
X12258277Y-14172079D02*
X12267801Y-14210174D01*
X12267801Y-14210174D02*
X12267801Y-14257793D01*
X12267801Y-14257793D02*
X12258277Y-14295888D01*
X12258277Y-14295888D02*
X12248753Y-14314936D01*
X12248753Y-14314936D02*
X12239229Y-14324460D01*
X12239229Y-14324460D02*
X12220182Y-14333984D01*
X12220182Y-14333984D02*
X12201134Y-14333984D01*
X12201134Y-14333984D02*
X12182086Y-14324460D01*
X12182086Y-14324460D02*
X12172563Y-14314936D01*
X12172563Y-14314936D02*
X12163039Y-14295888D01*
X12163039Y-14295888D02*
X12153515Y-14257793D01*
X12153515Y-14257793D02*
X12153515Y-14210174D01*
X12153515Y-14210174D02*
X12163039Y-14172079D01*
X12163039Y-14172079D02*
X12172563Y-14153031D01*
X12172563Y-14153031D02*
X12182086Y-14143508D01*
X12182086Y-14143508D02*
X12201134Y-14133984D01*
X12353515Y-14314936D02*
X12363039Y-14324460D01*
X12363039Y-14324460D02*
X12353515Y-14333984D01*
X12353515Y-14333984D02*
X12343991Y-14324460D01*
X12343991Y-14324460D02*
X12353515Y-14314936D01*
X12353515Y-14314936D02*
X12353515Y-14333984D01*
X12553515Y-14333984D02*
X12439229Y-14333984D01*
X12496372Y-14333984D02*
X12496372Y-14133984D01*
X12496372Y-14133984D02*
X12477325Y-14162555D01*
X12477325Y-14162555D02*
X12458277Y-14181603D01*
X12458277Y-14181603D02*
X12439229Y-14191127D01*
X12629706Y-14153031D02*
X12639229Y-14143508D01*
X12639229Y-14143508D02*
X12658277Y-14133984D01*
X12658277Y-14133984D02*
X12705896Y-14133984D01*
X12705896Y-14133984D02*
X12724944Y-14143508D01*
X12724944Y-14143508D02*
X12734467Y-14153031D01*
X12734467Y-14153031D02*
X12743991Y-14172079D01*
X12743991Y-14172079D02*
X12743991Y-14191127D01*
X12743991Y-14191127D02*
X12734467Y-14219698D01*
X12734467Y-14219698D02*
X12620182Y-14333984D01*
X12620182Y-14333984D02*
X12743991Y-14333984D01*
X12915420Y-14133984D02*
X12877325Y-14133984D01*
X12877325Y-14133984D02*
X12858277Y-14143508D01*
X12858277Y-14143508D02*
X12848753Y-14153031D01*
X12848753Y-14153031D02*
X12829706Y-14181603D01*
X12829706Y-14181603D02*
X12820182Y-14219698D01*
X12820182Y-14219698D02*
X12820182Y-14295888D01*
X12820182Y-14295888D02*
X12829706Y-14314936D01*
X12829706Y-14314936D02*
X12839229Y-14324460D01*
X12839229Y-14324460D02*
X12858277Y-14333984D01*
X12858277Y-14333984D02*
X12896372Y-14333984D01*
X12896372Y-14333984D02*
X12915420Y-14324460D01*
X12915420Y-14324460D02*
X12924944Y-14314936D01*
X12924944Y-14314936D02*
X12934467Y-14295888D01*
X12934467Y-14295888D02*
X12934467Y-14248269D01*
X12934467Y-14248269D02*
X12924944Y-14229222D01*
X12924944Y-14229222D02*
X12915420Y-14219698D01*
X12915420Y-14219698D02*
X12896372Y-14210174D01*
X12896372Y-14210174D02*
X12858277Y-14210174D01*
X12858277Y-14210174D02*
X12839229Y-14219698D01*
X12839229Y-14219698D02*
X12829706Y-14229222D01*
X12829706Y-14229222D02*
X12820182Y-14248269D01*
X13058277Y-14133984D02*
X13077325Y-14133984D01*
X13077325Y-14133984D02*
X13096372Y-14143508D01*
X13096372Y-14143508D02*
X13105896Y-14153031D01*
X13105896Y-14153031D02*
X13115420Y-14172079D01*
X13115420Y-14172079D02*
X13124944Y-14210174D01*
X13124944Y-14210174D02*
X13124944Y-14257793D01*
X13124944Y-14257793D02*
X13115420Y-14295888D01*
X13115420Y-14295888D02*
X13105896Y-14314936D01*
X13105896Y-14314936D02*
X13096372Y-14324460D01*
X13096372Y-14324460D02*
X13077325Y-14333984D01*
X13077325Y-14333984D02*
X13058277Y-14333984D01*
X13058277Y-14333984D02*
X13039229Y-14324460D01*
X13039229Y-14324460D02*
X13029706Y-14314936D01*
X13029706Y-14314936D02*
X13020182Y-14295888D01*
X13020182Y-14295888D02*
X13010658Y-14257793D01*
X13010658Y-14257793D02*
X13010658Y-14210174D01*
X13010658Y-14210174D02*
X13020182Y-14172079D01*
X13020182Y-14172079D02*
X13029706Y-14153031D01*
X13029706Y-14153031D02*
X13039229Y-14143508D01*
X13039229Y-14143508D02*
X13058277Y-14133984D01*
X13201134Y-14133984D02*
X13201134Y-14172079D01*
X13277325Y-14133984D02*
X13277325Y-14172079D01*
X13572563Y-14410174D02*
X13563039Y-14400650D01*
X13563039Y-14400650D02*
X13543991Y-14372079D01*
X13543991Y-14372079D02*
X13534468Y-14353031D01*
X13534468Y-14353031D02*
X13524944Y-14324460D01*
X13524944Y-14324460D02*
X13515420Y-14276841D01*
X13515420Y-14276841D02*
X13515420Y-14238746D01*
X13515420Y-14238746D02*
X13524944Y-14191127D01*
X13524944Y-14191127D02*
X13534468Y-14162555D01*
X13534468Y-14162555D02*
X13543991Y-14143508D01*
X13543991Y-14143508D02*
X13563039Y-14114936D01*
X13563039Y-14114936D02*
X13572563Y-14105412D01*
X13734468Y-14200650D02*
X13734468Y-14333984D01*
X13686848Y-14124460D02*
X13639229Y-14267317D01*
X13639229Y-14267317D02*
X13763039Y-14267317D01*
X13991610Y-14333984D02*
X13991610Y-14133984D01*
X14077325Y-14333984D02*
X14077325Y-14229222D01*
X14077325Y-14229222D02*
X14067801Y-14210174D01*
X14067801Y-14210174D02*
X14048753Y-14200650D01*
X14048753Y-14200650D02*
X14020182Y-14200650D01*
X14020182Y-14200650D02*
X14001134Y-14210174D01*
X14001134Y-14210174D02*
X13991610Y-14219698D01*
X14201134Y-14333984D02*
X14182087Y-14324460D01*
X14182087Y-14324460D02*
X14172563Y-14314936D01*
X14172563Y-14314936D02*
X14163039Y-14295888D01*
X14163039Y-14295888D02*
X14163039Y-14238746D01*
X14163039Y-14238746D02*
X14172563Y-14219698D01*
X14172563Y-14219698D02*
X14182087Y-14210174D01*
X14182087Y-14210174D02*
X14201134Y-14200650D01*
X14201134Y-14200650D02*
X14229706Y-14200650D01*
X14229706Y-14200650D02*
X14248753Y-14210174D01*
X14248753Y-14210174D02*
X14258277Y-14219698D01*
X14258277Y-14219698D02*
X14267801Y-14238746D01*
X14267801Y-14238746D02*
X14267801Y-14295888D01*
X14267801Y-14295888D02*
X14258277Y-14314936D01*
X14258277Y-14314936D02*
X14248753Y-14324460D01*
X14248753Y-14324460D02*
X14229706Y-14333984D01*
X14229706Y-14333984D02*
X14201134Y-14333984D01*
X14382087Y-14333984D02*
X14363039Y-14324460D01*
X14363039Y-14324460D02*
X14353515Y-14305412D01*
X14353515Y-14305412D02*
X14353515Y-14133984D01*
X14534468Y-14324460D02*
X14515420Y-14333984D01*
X14515420Y-14333984D02*
X14477325Y-14333984D01*
X14477325Y-14333984D02*
X14458277Y-14324460D01*
X14458277Y-14324460D02*
X14448753Y-14305412D01*
X14448753Y-14305412D02*
X14448753Y-14229222D01*
X14448753Y-14229222D02*
X14458277Y-14210174D01*
X14458277Y-14210174D02*
X14477325Y-14200650D01*
X14477325Y-14200650D02*
X14515420Y-14200650D01*
X14515420Y-14200650D02*
X14534468Y-14210174D01*
X14534468Y-14210174D02*
X14543991Y-14229222D01*
X14543991Y-14229222D02*
X14543991Y-14248269D01*
X14543991Y-14248269D02*
X14448753Y-14267317D01*
X14620182Y-14324460D02*
X14639230Y-14333984D01*
X14639230Y-14333984D02*
X14677325Y-14333984D01*
X14677325Y-14333984D02*
X14696372Y-14324460D01*
X14696372Y-14324460D02*
X14705896Y-14305412D01*
X14705896Y-14305412D02*
X14705896Y-14295888D01*
X14705896Y-14295888D02*
X14696372Y-14276841D01*
X14696372Y-14276841D02*
X14677325Y-14267317D01*
X14677325Y-14267317D02*
X14648753Y-14267317D01*
X14648753Y-14267317D02*
X14629706Y-14257793D01*
X14629706Y-14257793D02*
X14620182Y-14238746D01*
X14620182Y-14238746D02*
X14620182Y-14229222D01*
X14620182Y-14229222D02*
X14629706Y-14210174D01*
X14629706Y-14210174D02*
X14648753Y-14200650D01*
X14648753Y-14200650D02*
X14677325Y-14200650D01*
X14677325Y-14200650D02*
X14696372Y-14210174D01*
X14772563Y-14410174D02*
X14782087Y-14400650D01*
X14782087Y-14400650D02*
X14801134Y-14372079D01*
X14801134Y-14372079D02*
X14810658Y-14353031D01*
X14810658Y-14353031D02*
X14820182Y-14324460D01*
X14820182Y-14324460D02*
X14829706Y-14276841D01*
X14829706Y-14276841D02*
X14829706Y-14238746D01*
X14829706Y-14238746D02*
X14820182Y-14191127D01*
X14820182Y-14191127D02*
X14810658Y-14162555D01*
X14810658Y-14162555D02*
X14801134Y-14143508D01*
X14801134Y-14143508D02*
X14782087Y-14114936D01*
X14782087Y-14114936D02*
X14772563Y-14105412D01*
X15134468Y-14410174D02*
X15124944Y-14400650D01*
X15124944Y-14400650D02*
X15105896Y-14372079D01*
X15105896Y-14372079D02*
X15096372Y-14353031D01*
X15096372Y-14353031D02*
X15086849Y-14324460D01*
X15086849Y-14324460D02*
X15077325Y-14276841D01*
X15077325Y-14276841D02*
X15077325Y-14238746D01*
X15077325Y-14238746D02*
X15086849Y-14191127D01*
X15086849Y-14191127D02*
X15096372Y-14162555D01*
X15096372Y-14162555D02*
X15105896Y-14143508D01*
X15105896Y-14143508D02*
X15124944Y-14114936D01*
X15124944Y-14114936D02*
X15134468Y-14105412D01*
X15210658Y-14200650D02*
X15210658Y-14333984D01*
X15210658Y-14219698D02*
X15220182Y-14210174D01*
X15220182Y-14210174D02*
X15239230Y-14200650D01*
X15239230Y-14200650D02*
X15267801Y-14200650D01*
X15267801Y-14200650D02*
X15286849Y-14210174D01*
X15286849Y-14210174D02*
X15296372Y-14229222D01*
X15296372Y-14229222D02*
X15296372Y-14333984D01*
X15420182Y-14333984D02*
X15401134Y-14324460D01*
X15401134Y-14324460D02*
X15391611Y-14314936D01*
X15391611Y-14314936D02*
X15382087Y-14295888D01*
X15382087Y-14295888D02*
X15382087Y-14238746D01*
X15382087Y-14238746D02*
X15391611Y-14219698D01*
X15391611Y-14219698D02*
X15401134Y-14210174D01*
X15401134Y-14210174D02*
X15420182Y-14200650D01*
X15420182Y-14200650D02*
X15448753Y-14200650D01*
X15448753Y-14200650D02*
X15467801Y-14210174D01*
X15467801Y-14210174D02*
X15477325Y-14219698D01*
X15477325Y-14219698D02*
X15486849Y-14238746D01*
X15486849Y-14238746D02*
X15486849Y-14295888D01*
X15486849Y-14295888D02*
X15477325Y-14314936D01*
X15477325Y-14314936D02*
X15467801Y-14324460D01*
X15467801Y-14324460D02*
X15448753Y-14333984D01*
X15448753Y-14333984D02*
X15420182Y-14333984D01*
X15543992Y-14200650D02*
X15620182Y-14200650D01*
X15572563Y-14133984D02*
X15572563Y-14305412D01*
X15572563Y-14305412D02*
X15582087Y-14324460D01*
X15582087Y-14324460D02*
X15601134Y-14333984D01*
X15601134Y-14333984D02*
X15620182Y-14333984D01*
X15839230Y-14200650D02*
X15839230Y-14400650D01*
X15839230Y-14210174D02*
X15858277Y-14200650D01*
X15858277Y-14200650D02*
X15896373Y-14200650D01*
X15896373Y-14200650D02*
X15915420Y-14210174D01*
X15915420Y-14210174D02*
X15924944Y-14219698D01*
X15924944Y-14219698D02*
X15934468Y-14238746D01*
X15934468Y-14238746D02*
X15934468Y-14295888D01*
X15934468Y-14295888D02*
X15924944Y-14314936D01*
X15924944Y-14314936D02*
X15915420Y-14324460D01*
X15915420Y-14324460D02*
X15896373Y-14333984D01*
X15896373Y-14333984D02*
X15858277Y-14333984D01*
X15858277Y-14333984D02*
X15839230Y-14324460D01*
X16048753Y-14333984D02*
X16029706Y-14324460D01*
X16029706Y-14324460D02*
X16020182Y-14305412D01*
X16020182Y-14305412D02*
X16020182Y-14133984D01*
X16210658Y-14333984D02*
X16210658Y-14229222D01*
X16210658Y-14229222D02*
X16201134Y-14210174D01*
X16201134Y-14210174D02*
X16182087Y-14200650D01*
X16182087Y-14200650D02*
X16143992Y-14200650D01*
X16143992Y-14200650D02*
X16124944Y-14210174D01*
X16210658Y-14324460D02*
X16191611Y-14333984D01*
X16191611Y-14333984D02*
X16143992Y-14333984D01*
X16143992Y-14333984D02*
X16124944Y-14324460D01*
X16124944Y-14324460D02*
X16115420Y-14305412D01*
X16115420Y-14305412D02*
X16115420Y-14286365D01*
X16115420Y-14286365D02*
X16124944Y-14267317D01*
X16124944Y-14267317D02*
X16143992Y-14257793D01*
X16143992Y-14257793D02*
X16191611Y-14257793D01*
X16191611Y-14257793D02*
X16210658Y-14248269D01*
X16277325Y-14200650D02*
X16353515Y-14200650D01*
X16305896Y-14133984D02*
X16305896Y-14305412D01*
X16305896Y-14305412D02*
X16315420Y-14324460D01*
X16315420Y-14324460D02*
X16334468Y-14333984D01*
X16334468Y-14333984D02*
X16353515Y-14333984D01*
X16496373Y-14324460D02*
X16477325Y-14333984D01*
X16477325Y-14333984D02*
X16439230Y-14333984D01*
X16439230Y-14333984D02*
X16420182Y-14324460D01*
X16420182Y-14324460D02*
X16410658Y-14305412D01*
X16410658Y-14305412D02*
X16410658Y-14229222D01*
X16410658Y-14229222D02*
X16420182Y-14210174D01*
X16420182Y-14210174D02*
X16439230Y-14200650D01*
X16439230Y-14200650D02*
X16477325Y-14200650D01*
X16477325Y-14200650D02*
X16496373Y-14210174D01*
X16496373Y-14210174D02*
X16505896Y-14229222D01*
X16505896Y-14229222D02*
X16505896Y-14248269D01*
X16505896Y-14248269D02*
X16410658Y-14267317D01*
X16677325Y-14333984D02*
X16677325Y-14133984D01*
X16677325Y-14324460D02*
X16658277Y-14333984D01*
X16658277Y-14333984D02*
X16620182Y-14333984D01*
X16620182Y-14333984D02*
X16601134Y-14324460D01*
X16601134Y-14324460D02*
X16591611Y-14314936D01*
X16591611Y-14314936D02*
X16582087Y-14295888D01*
X16582087Y-14295888D02*
X16582087Y-14238746D01*
X16582087Y-14238746D02*
X16591611Y-14219698D01*
X16591611Y-14219698D02*
X16601134Y-14210174D01*
X16601134Y-14210174D02*
X16620182Y-14200650D01*
X16620182Y-14200650D02*
X16658277Y-14200650D01*
X16658277Y-14200650D02*
X16677325Y-14210174D01*
X16753515Y-14410174D02*
X16763039Y-14400650D01*
X16763039Y-14400650D02*
X16782087Y-14372079D01*
X16782087Y-14372079D02*
X16791611Y-14353031D01*
X16791611Y-14353031D02*
X16801135Y-14324460D01*
X16801135Y-14324460D02*
X16810658Y-14276841D01*
X16810658Y-14276841D02*
X16810658Y-14238746D01*
X16810658Y-14238746D02*
X16801135Y-14191127D01*
X16801135Y-14191127D02*
X16791611Y-14162555D01*
X16791611Y-14162555D02*
X16782087Y-14143508D01*
X16782087Y-14143508D02*
X16763039Y-14114936D01*
X16763039Y-14114936D02*
X16753515Y-14105412D01*
M02*
