M48
; DRILL file {KiCad 8.0.3} date 2024-11-10T15:02:51+0900
; FORMAT={-:-/ absolute / metric / decimal}
; #@! TF.CreationDate,2024-11-10T15:02:51+09:00
; #@! TF.GenerationSoftware,Kicad,Pcbnew,8.0.3
; #@! TF.FileFunction,Plated,1,2,PTH
FMAT,2
METRIC
; #@! TA.AperFunction,Plated,PTH,ViaDrill
T1C0.300
; #@! TA.AperFunction,Plated,PTH,ComponentDrill
T2C0.600
; #@! TA.AperFunction,Plated,PTH,ComponentDrill
T3C0.700
; #@! TA.AperFunction,Plated,PTH,ComponentDrill
T4C0.800
; #@! TA.AperFunction,Plated,PTH,ComponentDrill
T5C0.900
; #@! TA.AperFunction,Plated,PTH,ComponentDrill
T6C1.000
; #@! TA.AperFunction,Plated,PTH,ComponentDrill
T7C1.100
; #@! TA.AperFunction,Plated,PTH,ComponentDrill
T8C1.700
; #@! TA.AperFunction,Plated,PTH,ComponentDrill
T9C2.700
%
G90
G05
T1
X105.0Y-60.0
X105.0Y-65.0
X105.0Y-70.0
X105.0Y-75.0
X105.0Y-80.0
X105.0Y-85.0
X105.0Y-90.0
X105.0Y-95.0
X105.0Y-100.0
X105.0Y-105.0
X105.0Y-110.0
X105.0Y-115.0
X105.0Y-120.0
X110.0Y-65.0
X110.0Y-70.0
X110.0Y-80.0
X110.0Y-95.0
X110.0Y-110.0
X110.0Y-115.0
X110.0Y-120.0
X110.0Y-125.0
X115.0Y-75.0
X115.0Y-80.0
X115.0Y-82.25
X115.0Y-125.0
X117.535Y-91.235
X120.0Y-60.0
X120.0Y-65.0
X120.0Y-70.0
X120.0Y-75.0
X120.0Y-80.0
X120.0Y-95.0
X120.0Y-125.0
X120.15Y-100.33
X122.7Y-105.35
X125.0Y-55.0
X125.0Y-60.0
X125.0Y-65.0
X125.0Y-70.0
X125.0Y-75.0
X125.0Y-80.0
X125.0Y-85.0
X125.0Y-110.0
X125.0Y-125.0
X130.0Y-60.0
X130.0Y-65.0
X130.0Y-70.0
X130.0Y-75.0
X130.0Y-80.0
X130.0Y-85.0
X130.0Y-90.0
X130.0Y-95.0
X130.0Y-115.0
X130.0Y-120.0
X130.0Y-125.0
X135.0Y-70.0
X135.0Y-110.0
X135.0Y-115.0
X135.0Y-120.0
X135.0Y-125.0
X140.0Y-55.0
X140.0Y-60.0
X140.0Y-80.0
X140.0Y-85.0
X140.0Y-115.0
X140.0Y-120.0
X140.0Y-125.0
X144.5Y-77.64
X145.0Y-55.0
X145.0Y-60.0
X145.0Y-115.0
X145.0Y-120.0
X145.0Y-125.0
X150.0Y-55.0
X150.0Y-60.0
X150.0Y-110.0
X150.0Y-115.0
X150.0Y-120.0
X150.0Y-125.0
X155.0Y-55.0
X155.0Y-60.0
X155.0Y-65.0
X155.0Y-70.0
X155.0Y-110.0
X155.0Y-115.0
X155.0Y-120.0
X155.0Y-125.0
X160.0Y-55.0
X160.0Y-60.0
X160.0Y-65.0
X160.0Y-70.0
X160.0Y-80.0
X160.0Y-85.0
X160.0Y-90.0
X160.0Y-110.0
X160.0Y-115.0
X160.0Y-120.0
X160.0Y-125.0
X165.0Y-55.0
X165.0Y-60.0
X165.0Y-65.0
X165.0Y-75.0
X165.0Y-80.0
X165.0Y-85.0
X165.0Y-90.0
X165.0Y-125.0
X170.0Y-55.0
X170.0Y-60.0
X170.0Y-65.0
X170.0Y-75.0
X170.0Y-80.0
X170.0Y-85.0
X170.0Y-90.0
X170.0Y-95.0
X170.0Y-125.0
X175.0Y-55.0
X175.0Y-60.0
X175.0Y-75.0
X175.0Y-80.0
X175.0Y-85.0
X180.0Y-55.0
X180.0Y-60.0
X180.0Y-75.0
X180.0Y-120.0
X180.0Y-125.0
X185.0Y-60.0
X185.0Y-75.0
X185.0Y-80.0
X185.0Y-85.0
X185.0Y-90.0
X185.0Y-95.0
X185.0Y-100.0
X185.0Y-105.0
X185.0Y-110.0
X185.0Y-115.0
X185.0Y-120.0
T2
X144.476Y-82.255
X144.476Y-84.255
X149.302Y-82.244
X149.302Y-84.244
T3
X115.0Y-114.647
X117.573Y-114.647
X120.15Y-114.647
X122.7Y-114.634
X125.25Y-114.6
X154.402Y-94.61
X154.402Y-97.26
X154.402Y-99.86
X154.402Y-102.46
X154.402Y-105.06
T4
X125.38Y-90.125
X125.38Y-92.665
X125.38Y-95.205
X125.38Y-97.745
X125.38Y-100.285
X125.38Y-102.825
X125.38Y-105.365
X125.38Y-107.905
X129.18Y-96.795
X129.18Y-99.335
X129.18Y-101.875
X129.18Y-104.415
X129.18Y-106.955
X133.0Y-90.125
X133.0Y-92.665
X133.0Y-95.205
X133.0Y-97.745
X133.0Y-100.285
X133.0Y-102.825
X133.0Y-105.365
X133.0Y-107.905
X138.166Y-68.115
X138.44Y-90.18
X138.44Y-92.72
X138.44Y-95.26
X138.44Y-97.8
X138.44Y-100.34
X138.44Y-102.88
X138.44Y-105.42
X138.44Y-107.96
X138.44Y-110.5
X140.666Y-68.115
X141.09Y-113.63
X143.59Y-113.63
X146.0Y-75.1
X146.0Y-77.64
X146.06Y-90.18
X146.06Y-92.72
X146.06Y-95.26
X146.06Y-97.8
X146.06Y-100.34
X146.06Y-102.88
X146.06Y-105.42
X146.06Y-107.96
X146.06Y-110.5
X149.302Y-65.742
X149.302Y-68.242
X151.0Y-94.88
X151.0Y-97.42
X151.0Y-99.96
X151.0Y-102.5
X151.0Y-105.04
X152.604Y-75.1
X152.604Y-77.6
X164.68Y-120.6
X167.22Y-120.6
X169.76Y-120.6
X172.3Y-120.6
X174.84Y-120.6
T5
X162.235Y-82.385
X162.235Y-93.18
X162.235Y-103.34
X162.235Y-113.5
X164.775Y-82.385
X164.775Y-93.18
X164.775Y-103.34
X164.775Y-113.5
T6
X110.9Y-82.25
X110.9Y-84.75
X110.9Y-89.95
X110.9Y-92.45
X110.9Y-97.65
X110.9Y-100.15
X110.9Y-105.35
X110.9Y-107.85
X115.173Y-119.047
X117.673Y-119.047
X120.173Y-119.047
X122.673Y-119.047
X125.173Y-119.047
X141.108Y-57.1
X142.904Y-58.896
X144.7Y-57.1
X164.5Y-68.16
X164.5Y-70.7
X164.5Y-73.24
X179.1Y-70.25
X179.1Y-72.75
X179.1Y-80.0
X179.1Y-82.5
X179.1Y-85.0
X179.1Y-90.2
X179.1Y-92.7
X179.1Y-95.2
X179.1Y-100.4
X179.1Y-102.9
X179.1Y-105.4
X179.1Y-110.6
X179.1Y-113.1
X179.1Y-115.6
X186.7Y-62.6
X186.7Y-65.1
T7
X139.396Y-72.56
X139.396Y-75.1
X139.396Y-77.64
X142.7Y-75.1
X142.7Y-77.64
X149.302Y-72.56
X149.302Y-75.1
X155.9Y-72.56
X155.9Y-75.1
T8
X111.5Y-55.1
X118.2Y-55.1
X127.2Y-55.1
X133.9Y-55.1
T9
X116.6Y-64.35
X116.6Y-71.55
T2
G00X110.05Y-61.2
M15
G01X111.15Y-61.2
M16
G05
G00X110.05Y-74.7
M15
G01X111.15Y-74.7
M16
G05
M30
