%TF.GenerationSoftware,KiCad,Pcbnew,8.0.3*%
%TF.CreationDate,2024-07-10T23:10:10+09:00*%
%TF.ProjectId,power_control,706f7765-725f-4636-9f6e-74726f6c2e6b,rev?*%
%TF.SameCoordinates,PX5b8d800PY3473bc0*%
%TF.FileFunction,Soldermask,Bot*%
%TF.FilePolarity,Negative*%
%FSLAX46Y46*%
G04 Gerber Fmt 4.6, Leading zero omitted, Abs format (unit mm)*
G04 Created by KiCad (PCBNEW 8.0.3) date 2024-07-10 23:10:10*
%MOMM*%
%LPD*%
G01*
G04 APERTURE LIST*
%ADD10R,2.200000X2.200000*%
%ADD11O,2.200000X2.200000*%
%ADD12C,1.600000*%
%ADD13O,1.600000X1.600000*%
%ADD14C,1.800000*%
%ADD15R,1.800000X1.800000*%
%ADD16R,1.700000X1.700000*%
%ADD17O,1.700000X1.700000*%
%ADD18C,3.200000*%
%ADD19R,2.000000X4.600000*%
%ADD20O,2.000000X4.200000*%
%ADD21O,4.200000X2.000000*%
%ADD22C,2.000000*%
%ADD23O,1.800000X1.800000*%
%ADD24O,1.500000X1.500000*%
G04 APERTURE END LIST*
D10*
%TO.C,D6*%
X72275000Y-23486000D03*
D11*
X72275000Y-20946000D03*
%TD*%
D12*
%TO.C,R4*%
X12429000Y-9541000D03*
D13*
X14969000Y-9541000D03*
%TD*%
D14*
%TO.C,J18*%
X78916000Y-48158000D03*
X78916000Y-45658000D03*
%TD*%
D12*
%TO.C,R3*%
X18779000Y-9541000D03*
D13*
X21319000Y-9541000D03*
%TD*%
D15*
%TO.C,D1*%
X33286000Y-3674000D03*
D14*
X33286000Y-6214000D03*
%TD*%
%TO.C,J17*%
X78916000Y-55978000D03*
X78916000Y-53478000D03*
%TD*%
%TO.C,J14*%
X24630000Y-78950000D03*
X27130000Y-78950000D03*
X29630000Y-78950000D03*
%TD*%
D15*
%TO.C,D3*%
X19824000Y-3669000D03*
D14*
X19824000Y-6209000D03*
%TD*%
D16*
%TO.C,J5*%
X26682000Y-13326000D03*
D17*
X24142000Y-13326000D03*
X21602000Y-13326000D03*
X19062000Y-13326000D03*
%TD*%
D14*
%TO.C,J20*%
X78862000Y-64176000D03*
X78862000Y-61676000D03*
%TD*%
%TO.C,J11*%
X11278000Y-55149000D03*
X11278000Y-57649000D03*
X11278000Y-60149000D03*
%TD*%
D16*
%TO.C,J6*%
X27190000Y-20860000D03*
D17*
X27190000Y-23400000D03*
X27190000Y-25940000D03*
X27190000Y-28480000D03*
X27190000Y-31020000D03*
X27190000Y-33560000D03*
X27190000Y-36100000D03*
X27190000Y-38640000D03*
X27190000Y-41180000D03*
X27190000Y-43720000D03*
X27190000Y-46260000D03*
X27190000Y-48800000D03*
X27190000Y-51340000D03*
X27190000Y-53880000D03*
X27190000Y-56420000D03*
X27190000Y-58960000D03*
X27190000Y-61500000D03*
X27190000Y-64040000D03*
X27190000Y-66580000D03*
X27190000Y-69120000D03*
%TD*%
D18*
%TO.C,H3*%
X85000000Y-85000000D03*
%TD*%
D16*
%TO.C,J25*%
X65290000Y-69130000D03*
D17*
X65290000Y-66590000D03*
X65290000Y-64050000D03*
X65290000Y-61510000D03*
X65290000Y-58970000D03*
X65290000Y-56430000D03*
X65290000Y-53890000D03*
X65290000Y-51350000D03*
X65290000Y-48810000D03*
X65290000Y-46270000D03*
X65290000Y-43730000D03*
X65290000Y-41190000D03*
X65290000Y-38650000D03*
X65290000Y-36110000D03*
X65290000Y-33570000D03*
X65290000Y-31030000D03*
X65290000Y-28490000D03*
X65290000Y-25950000D03*
X65290000Y-23410000D03*
X65290000Y-20870000D03*
%TD*%
D14*
%TO.C,J21*%
X78862000Y-72050000D03*
X78862000Y-69550000D03*
%TD*%
D19*
%TO.C,J1*%
X75700000Y-21000000D03*
D20*
X82000000Y-21000000D03*
D21*
X78600000Y-16200000D03*
%TD*%
D12*
%TO.C,R2*%
X25593000Y-9504000D03*
D13*
X28133000Y-9504000D03*
%TD*%
D10*
%TO.C,D5*%
X72249600Y-28743800D03*
D11*
X72249600Y-31283800D03*
%TD*%
D14*
%TO.C,J23*%
X61206000Y-78950000D03*
X63706000Y-78950000D03*
X66206000Y-78950000D03*
%TD*%
%TO.C,J12*%
X11278000Y-65436000D03*
X11278000Y-67936000D03*
X11278000Y-70436000D03*
%TD*%
%TO.C,J10*%
X11278000Y-44862000D03*
X11278000Y-47362000D03*
X11278000Y-49862000D03*
%TD*%
%TO.C,J4*%
X42851000Y-78985000D03*
X45351000Y-78985000D03*
%TD*%
D18*
%TO.C,H4*%
X85000000Y-5000000D03*
%TD*%
%TO.C,H2*%
X5000000Y-85000000D03*
%TD*%
D14*
%TO.C,J24*%
X50792000Y-78950000D03*
X53292000Y-78950000D03*
X55792000Y-78950000D03*
%TD*%
%TO.C,J9*%
X11278000Y-34575000D03*
X11278000Y-37075000D03*
X11278000Y-39575000D03*
%TD*%
D16*
%TO.C,J15*%
X22110000Y-20870000D03*
D17*
X22110000Y-23410000D03*
X22110000Y-25950000D03*
X22110000Y-28490000D03*
X22110000Y-31030000D03*
X22110000Y-33570000D03*
X22110000Y-36110000D03*
X22110000Y-38650000D03*
X22110000Y-41190000D03*
X22110000Y-43730000D03*
X22110000Y-46270000D03*
X22110000Y-48810000D03*
X22110000Y-51350000D03*
X22110000Y-53890000D03*
X22110000Y-56430000D03*
X22110000Y-58970000D03*
X22110000Y-61510000D03*
X22110000Y-64050000D03*
X22110000Y-66590000D03*
X22110000Y-69130000D03*
%TD*%
D14*
%TO.C,J13*%
X14250000Y-78950000D03*
X16750000Y-78950000D03*
X19250000Y-78950000D03*
%TD*%
%TO.C,J3*%
X34977000Y-78985000D03*
X37477000Y-78985000D03*
%TD*%
D15*
%TO.C,D4*%
X13474000Y-3669000D03*
D14*
X13474000Y-6209000D03*
%TD*%
D12*
%TO.C,R1*%
X32241000Y-9516000D03*
D13*
X34781000Y-9516000D03*
%TD*%
D14*
%TO.C,J22*%
X71600000Y-78950000D03*
X74100000Y-78950000D03*
%TD*%
%TO.C,J7*%
X11278000Y-14001000D03*
X11278000Y-16501000D03*
X11278000Y-19001000D03*
%TD*%
D16*
%TO.C,J16*%
X60210000Y-69130000D03*
D17*
X60210000Y-66590000D03*
X60210000Y-64050000D03*
X60210000Y-61510000D03*
X60210000Y-58970000D03*
X60210000Y-56430000D03*
X60210000Y-53890000D03*
X60210000Y-51350000D03*
X60210000Y-48810000D03*
X60210000Y-46270000D03*
X60210000Y-43730000D03*
X60210000Y-41190000D03*
X60210000Y-38650000D03*
X60210000Y-36110000D03*
X60210000Y-33570000D03*
X60210000Y-31030000D03*
X60210000Y-28490000D03*
X60210000Y-25950000D03*
X60210000Y-23410000D03*
X60210000Y-20870000D03*
%TD*%
D22*
%TO.C,SW1*%
X78319000Y-12147000D03*
X71819000Y-12147000D03*
X78319000Y-7647000D03*
X71819000Y-7647000D03*
%TD*%
D14*
%TO.C,J8*%
X11278000Y-24288000D03*
X11278000Y-26788000D03*
X11278000Y-29288000D03*
%TD*%
D23*
%TO.C,U1*%
X41275000Y-21000000D03*
D24*
X41575000Y-24030000D03*
X46425000Y-24030000D03*
D23*
X46725000Y-21000000D03*
D17*
X35110000Y-20870000D03*
X35110000Y-23410000D03*
D16*
X35110000Y-25950000D03*
D17*
X35110000Y-28490000D03*
X35110000Y-31030000D03*
X35110000Y-33570000D03*
X35110000Y-36110000D03*
D16*
X35110000Y-38650000D03*
D17*
X35110000Y-41190000D03*
X35110000Y-43730000D03*
X35110000Y-46270000D03*
X35110000Y-48810000D03*
D16*
X35110000Y-51350000D03*
D17*
X35110000Y-53890000D03*
X35110000Y-56430000D03*
X35110000Y-58970000D03*
X35110000Y-61510000D03*
D16*
X35110000Y-64050000D03*
D17*
X35110000Y-66590000D03*
X35110000Y-69130000D03*
X52890000Y-69130000D03*
X52890000Y-66590000D03*
D16*
X52890000Y-64050000D03*
D17*
X52890000Y-61510000D03*
X52890000Y-58970000D03*
X52890000Y-56430000D03*
X52890000Y-53890000D03*
D16*
X52890000Y-51350000D03*
D17*
X52890000Y-48810000D03*
X52890000Y-46270000D03*
X52890000Y-43730000D03*
X52890000Y-41190000D03*
D16*
X52890000Y-38650000D03*
D17*
X52890000Y-36110000D03*
X52890000Y-33570000D03*
X52890000Y-31030000D03*
X52890000Y-28490000D03*
D16*
X52890000Y-25950000D03*
D17*
X52890000Y-23410000D03*
X52890000Y-20870000D03*
X41460000Y-68900000D03*
D16*
X44000000Y-68900000D03*
D17*
X46540000Y-68900000D03*
%TD*%
D15*
%TO.C,D2*%
X26682000Y-3669000D03*
D14*
X26682000Y-6209000D03*
%TD*%
%TO.C,J19*%
X78916000Y-40357000D03*
X78916000Y-37857000D03*
%TD*%
%TO.C,J2*%
X78862000Y-31902000D03*
X78862000Y-29402000D03*
%TD*%
D18*
%TO.C,H1*%
X5000000Y-5000000D03*
%TD*%
M02*
