%TF.GenerationSoftware,KiCad,Pcbnew,8.0.3*%
%TF.CreationDate,2024-07-10T23:10:10+09:00*%
%TF.ProjectId,power_control,706f7765-725f-4636-9f6e-74726f6c2e6b,rev?*%
%TF.SameCoordinates,PX5b8d800PY3473bc0*%
%TF.FileFunction,Copper,L1,Top*%
%TF.FilePolarity,Positive*%
%FSLAX46Y46*%
G04 Gerber Fmt 4.6, Leading zero omitted, Abs format (unit mm)*
G04 Created by KiCad (PCBNEW 8.0.3) date 2024-07-10 23:10:10*
%MOMM*%
%LPD*%
G01*
G04 APERTURE LIST*
%TA.AperFunction,ComponentPad*%
%ADD10R,2.200000X2.200000*%
%TD*%
%TA.AperFunction,ComponentPad*%
%ADD11O,2.200000X2.200000*%
%TD*%
%TA.AperFunction,ComponentPad*%
%ADD12C,1.600000*%
%TD*%
%TA.AperFunction,ComponentPad*%
%ADD13O,1.600000X1.600000*%
%TD*%
%TA.AperFunction,ComponentPad*%
%ADD14C,1.800000*%
%TD*%
%TA.AperFunction,ComponentPad*%
%ADD15R,1.800000X1.800000*%
%TD*%
%TA.AperFunction,ComponentPad*%
%ADD16R,1.700000X1.700000*%
%TD*%
%TA.AperFunction,ComponentPad*%
%ADD17O,1.700000X1.700000*%
%TD*%
%TA.AperFunction,ComponentPad*%
%ADD18R,2.000000X4.600000*%
%TD*%
%TA.AperFunction,ComponentPad*%
%ADD19O,2.000000X4.200000*%
%TD*%
%TA.AperFunction,ComponentPad*%
%ADD20O,4.200000X2.000000*%
%TD*%
%TA.AperFunction,ComponentPad*%
%ADD21C,2.000000*%
%TD*%
%TA.AperFunction,Conductor*%
%ADD22C,0.500000*%
%TD*%
%TA.AperFunction,Conductor*%
%ADD23C,1.500000*%
%TD*%
G04 APERTURE END LIST*
D10*
%TO.P,D6,1,K*%
%TO.N,VIN*%
X72275000Y-23486000D03*
D11*
%TO.P,D6,2,A*%
%TO.N,Net-(D6-A)*%
X72275000Y-20946000D03*
%TD*%
D12*
%TO.P,R4,1*%
%TO.N,Net-(D4-A)*%
X12429000Y-9541000D03*
D13*
%TO.P,R4,2*%
%TO.N,Net-(J5-Pin_4)*%
X14969000Y-9541000D03*
%TD*%
D14*
%TO.P,J18,1,Pin_1*%
%TO.N,Net-(J16-Pin_12)*%
X78916000Y-48158000D03*
%TO.P,J18,2,Pin_2*%
%TO.N,Net-(J16-Pin_13)*%
X78916000Y-45658000D03*
%TD*%
D12*
%TO.P,R3,1*%
%TO.N,Net-(D3-A)*%
X18779000Y-9541000D03*
D13*
%TO.P,R3,2*%
%TO.N,Net-(J5-Pin_3)*%
X21319000Y-9541000D03*
%TD*%
D15*
%TO.P,D1,1,K*%
%TO.N,GND*%
X33286000Y-3674000D03*
D14*
%TO.P,D1,2,A*%
%TO.N,Net-(D1-A)*%
X33286000Y-6214000D03*
%TD*%
%TO.P,J17,1,Pin_1*%
%TO.N,Net-(J16-Pin_11)*%
X78916000Y-55978000D03*
%TO.P,J17,2,Pin_2*%
%TO.N,Net-(J16-Pin_13)*%
X78916000Y-53478000D03*
%TD*%
%TO.P,J14,1,Pin_1*%
%TO.N,Net-(J14-Pin_1)*%
X24630000Y-78950000D03*
%TO.P,J14,2,Pin_2*%
%TO.N,Net-(J14-Pin_2)*%
X27130000Y-78950000D03*
%TO.P,J14,3,Pin_3*%
%TO.N,GND*%
X29630000Y-78950000D03*
%TD*%
D15*
%TO.P,D3,1,K*%
%TO.N,GND*%
X19824000Y-3669000D03*
D14*
%TO.P,D3,2,A*%
%TO.N,Net-(D3-A)*%
X19824000Y-6209000D03*
%TD*%
D16*
%TO.P,J5,1,Pin_1*%
%TO.N,Net-(J5-Pin_1)*%
X26682000Y-13326000D03*
D17*
%TO.P,J5,2,Pin_2*%
%TO.N,Net-(J5-Pin_2)*%
X24142000Y-13326000D03*
%TO.P,J5,3,Pin_3*%
%TO.N,Net-(J5-Pin_3)*%
X21602000Y-13326000D03*
%TO.P,J5,4,Pin_4*%
%TO.N,Net-(J5-Pin_4)*%
X19062000Y-13326000D03*
%TD*%
D14*
%TO.P,J20,1,Pin_1*%
%TO.N,Net-(J16-Pin_9)*%
X78862000Y-64176000D03*
%TO.P,J20,2,Pin_2*%
%TO.N,GND*%
X78862000Y-61676000D03*
%TD*%
%TO.P,J11,1,Pin_1*%
%TO.N,Net-(J11-Pin_1)*%
X11278000Y-55149000D03*
%TO.P,J11,2,Pin_2*%
%TO.N,Net-(J11-Pin_2)*%
X11278000Y-57649000D03*
%TO.P,J11,3,Pin_3*%
%TO.N,GND*%
X11278000Y-60149000D03*
%TD*%
D16*
%TO.P,J6,1,Pin_1*%
%TO.N,Net-(J15-Pin_1)*%
X27190000Y-20860000D03*
D17*
%TO.P,J6,2,Pin_2*%
%TO.N,Net-(J15-Pin_2)*%
X27190000Y-23400000D03*
%TO.P,J6,3,Pin_3*%
%TO.N,GND*%
X27190000Y-25940000D03*
%TO.P,J6,4,Pin_4*%
%TO.N,Net-(J15-Pin_4)*%
X27190000Y-28480000D03*
%TO.P,J6,5,Pin_5*%
%TO.N,Net-(J15-Pin_5)*%
X27190000Y-31020000D03*
%TO.P,J6,6,Pin_6*%
%TO.N,Net-(J15-Pin_6)*%
X27190000Y-33560000D03*
%TO.P,J6,7,Pin_7*%
%TO.N,Net-(J15-Pin_7)*%
X27190000Y-36100000D03*
%TO.P,J6,8,Pin_8*%
%TO.N,GND*%
X27190000Y-38640000D03*
%TO.P,J6,9,Pin_9*%
%TO.N,Net-(J10-Pin_1)*%
X27190000Y-41180000D03*
%TO.P,J6,10,Pin_10*%
%TO.N,Net-(J10-Pin_2)*%
X27190000Y-43720000D03*
%TO.P,J6,11,Pin_11*%
%TO.N,Net-(J11-Pin_1)*%
X27190000Y-46260000D03*
%TO.P,J6,12,Pin_12*%
%TO.N,Net-(J11-Pin_2)*%
X27190000Y-48800000D03*
%TO.P,J6,13,Pin_13*%
%TO.N,GND*%
X27190000Y-51340000D03*
%TO.P,J6,14,Pin_14*%
%TO.N,Net-(J12-Pin_1)*%
X27190000Y-53880000D03*
%TO.P,J6,15,Pin_15*%
%TO.N,Net-(J12-Pin_2)*%
X27190000Y-56420000D03*
%TO.P,J6,16,Pin_16*%
%TO.N,Net-(J13-Pin_1)*%
X27190000Y-58960000D03*
%TO.P,J6,17,Pin_17*%
%TO.N,Net-(J13-Pin_2)*%
X27190000Y-61500000D03*
%TO.P,J6,18,Pin_18*%
%TO.N,GND*%
X27190000Y-64040000D03*
%TO.P,J6,19,Pin_19*%
%TO.N,Net-(J14-Pin_1)*%
X27190000Y-66580000D03*
%TO.P,J6,20,Pin_20*%
%TO.N,Net-(J14-Pin_2)*%
X27190000Y-69120000D03*
%TD*%
D16*
%TO.P,J25,1,Pin_1*%
%TO.N,Net-(J16-Pin_1)*%
X65290000Y-69130000D03*
D17*
%TO.P,J25,2,Pin_2*%
%TO.N,Net-(J16-Pin_2)*%
X65290000Y-66590000D03*
%TO.P,J25,3,Pin_3*%
%TO.N,GND*%
X65290000Y-64050000D03*
%TO.P,J25,4,Pin_4*%
%TO.N,Net-(J16-Pin_4)*%
X65290000Y-61510000D03*
%TO.P,J25,5,Pin_5*%
%TO.N,Net-(J16-Pin_5)*%
X65290000Y-58970000D03*
%TO.P,J25,6,Pin_6*%
%TO.N,Net-(J16-Pin_6)*%
X65290000Y-56430000D03*
%TO.P,J25,7,Pin_7*%
%TO.N,Net-(J16-Pin_7)*%
X65290000Y-53890000D03*
%TO.P,J25,8,Pin_8*%
%TO.N,GND*%
X65290000Y-51350000D03*
%TO.P,J25,9,Pin_9*%
%TO.N,Net-(J16-Pin_9)*%
X65290000Y-48810000D03*
%TO.P,J25,10,Pin_10*%
%TO.N,Net-(J16-Pin_10)*%
X65290000Y-46270000D03*
%TO.P,J25,11,Pin_11*%
%TO.N,Net-(J16-Pin_11)*%
X65290000Y-43730000D03*
%TO.P,J25,12,Pin_12*%
%TO.N,Net-(J16-Pin_12)*%
X65290000Y-41190000D03*
%TO.P,J25,13,Pin_13*%
%TO.N,Net-(J16-Pin_13)*%
X65290000Y-38650000D03*
%TO.P,J25,14,Pin_14*%
%TO.N,Net-(J16-Pin_14)*%
X65290000Y-36110000D03*
%TO.P,J25,15,Pin_15*%
%TO.N,Net-(J16-Pin_15)*%
X65290000Y-33570000D03*
%TO.P,J25,16,Pin_16*%
%TO.N,3.3V*%
X65290000Y-31030000D03*
%TO.P,J25,17,Pin_17*%
%TO.N,Net-(J16-Pin_17)*%
X65290000Y-28490000D03*
%TO.P,J25,18,Pin_18*%
%TO.N,GND*%
X65290000Y-25950000D03*
%TO.P,J25,19,Pin_19*%
%TO.N,VIN*%
X65290000Y-23410000D03*
%TO.P,J25,20,Pin_20*%
%TO.N,5V*%
X65290000Y-20870000D03*
%TD*%
D14*
%TO.P,J21,1,Pin_1*%
%TO.N,Net-(J16-Pin_7)*%
X78862000Y-72050000D03*
%TO.P,J21,2,Pin_2*%
%TO.N,GND*%
X78862000Y-69550000D03*
%TD*%
D18*
%TO.P,J1,1*%
%TO.N,Net-(D6-A)*%
X75700000Y-21000000D03*
D19*
%TO.P,J1,2*%
%TO.N,GND*%
X82000000Y-21000000D03*
D20*
%TO.P,J1,3*%
X78600000Y-16200000D03*
%TD*%
D12*
%TO.P,R2,1*%
%TO.N,Net-(D2-A)*%
X25593000Y-9504000D03*
D13*
%TO.P,R2,2*%
%TO.N,Net-(J5-Pin_2)*%
X28133000Y-9504000D03*
%TD*%
D10*
%TO.P,D5,1,K*%
%TO.N,VIN*%
X72249600Y-28743800D03*
D11*
%TO.P,D5,2,A*%
%TO.N,Net-(D5-A)*%
X72249600Y-31283800D03*
%TD*%
D14*
%TO.P,J23,1,Pin_1*%
%TO.N,Net-(J16-Pin_4)*%
X61206000Y-78950000D03*
%TO.P,J23,2,Pin_2*%
%TO.N,Net-(J16-Pin_5)*%
X63706000Y-78950000D03*
%TO.P,J23,3,Pin_3*%
%TO.N,GND*%
X66206000Y-78950000D03*
%TD*%
%TO.P,J12,1,Pin_1*%
%TO.N,Net-(J12-Pin_1)*%
X11278000Y-65436000D03*
%TO.P,J12,2,Pin_2*%
%TO.N,Net-(J12-Pin_2)*%
X11278000Y-67936000D03*
%TO.P,J12,3,Pin_3*%
%TO.N,GND*%
X11278000Y-70436000D03*
%TD*%
%TO.P,J10,1,Pin_1*%
%TO.N,Net-(J10-Pin_1)*%
X11278000Y-44862000D03*
%TO.P,J10,2,Pin_2*%
%TO.N,Net-(J10-Pin_2)*%
X11278000Y-47362000D03*
%TO.P,J10,3,Pin_3*%
%TO.N,GND*%
X11278000Y-49862000D03*
%TD*%
%TO.P,J4,1,Pin_1*%
%TO.N,3.3V*%
X42851000Y-78985000D03*
%TO.P,J4,2,Pin_2*%
%TO.N,GND*%
X45351000Y-78985000D03*
%TD*%
%TO.P,J24,1,Pin_1*%
%TO.N,Net-(J16-Pin_1)*%
X50792000Y-78950000D03*
%TO.P,J24,2,Pin_2*%
%TO.N,Net-(J16-Pin_2)*%
X53292000Y-78950000D03*
%TO.P,J24,3,Pin_3*%
%TO.N,GND*%
X55792000Y-78950000D03*
%TD*%
%TO.P,J9,1,Pin_1*%
%TO.N,Net-(J15-Pin_6)*%
X11278000Y-34575000D03*
%TO.P,J9,2,Pin_2*%
%TO.N,Net-(J15-Pin_7)*%
X11278000Y-37075000D03*
%TO.P,J9,3,Pin_3*%
%TO.N,GND*%
X11278000Y-39575000D03*
%TD*%
D16*
%TO.P,J15,1,Pin_1*%
%TO.N,Net-(J15-Pin_1)*%
X22110000Y-20870000D03*
D17*
%TO.P,J15,2,Pin_2*%
%TO.N,Net-(J15-Pin_2)*%
X22110000Y-23410000D03*
%TO.P,J15,3,Pin_3*%
%TO.N,GND*%
X22110000Y-25950000D03*
%TO.P,J15,4,Pin_4*%
%TO.N,Net-(J15-Pin_4)*%
X22110000Y-28490000D03*
%TO.P,J15,5,Pin_5*%
%TO.N,Net-(J15-Pin_5)*%
X22110000Y-31030000D03*
%TO.P,J15,6,Pin_6*%
%TO.N,Net-(J15-Pin_6)*%
X22110000Y-33570000D03*
%TO.P,J15,7,Pin_7*%
%TO.N,Net-(J15-Pin_7)*%
X22110000Y-36110000D03*
%TO.P,J15,8,Pin_8*%
%TO.N,GND*%
X22110000Y-38650000D03*
%TO.P,J15,9,Pin_9*%
%TO.N,Net-(J10-Pin_1)*%
X22110000Y-41190000D03*
%TO.P,J15,10,Pin_10*%
%TO.N,Net-(J10-Pin_2)*%
X22110000Y-43730000D03*
%TO.P,J15,11,Pin_11*%
%TO.N,Net-(J11-Pin_1)*%
X22110000Y-46270000D03*
%TO.P,J15,12,Pin_12*%
%TO.N,Net-(J11-Pin_2)*%
X22110000Y-48810000D03*
%TO.P,J15,13,Pin_13*%
%TO.N,GND*%
X22110000Y-51350000D03*
%TO.P,J15,14,Pin_14*%
%TO.N,Net-(J12-Pin_1)*%
X22110000Y-53890000D03*
%TO.P,J15,15,Pin_15*%
%TO.N,Net-(J12-Pin_2)*%
X22110000Y-56430000D03*
%TO.P,J15,16,Pin_16*%
%TO.N,Net-(J13-Pin_1)*%
X22110000Y-58970000D03*
%TO.P,J15,17,Pin_17*%
%TO.N,Net-(J13-Pin_2)*%
X22110000Y-61510000D03*
%TO.P,J15,18,Pin_18*%
%TO.N,GND*%
X22110000Y-64050000D03*
%TO.P,J15,19,Pin_19*%
%TO.N,Net-(J14-Pin_1)*%
X22110000Y-66590000D03*
%TO.P,J15,20,Pin_20*%
%TO.N,Net-(J14-Pin_2)*%
X22110000Y-69130000D03*
%TD*%
D14*
%TO.P,J13,1,Pin_1*%
%TO.N,Net-(J13-Pin_1)*%
X14250000Y-78950000D03*
%TO.P,J13,2,Pin_2*%
%TO.N,Net-(J13-Pin_2)*%
X16750000Y-78950000D03*
%TO.P,J13,3,Pin_3*%
%TO.N,GND*%
X19250000Y-78950000D03*
%TD*%
%TO.P,J3,1,Pin_1*%
%TO.N,5V*%
X34977000Y-78985000D03*
%TO.P,J3,2,Pin_2*%
%TO.N,GND*%
X37477000Y-78985000D03*
%TD*%
D15*
%TO.P,D4,1,K*%
%TO.N,GND*%
X13474000Y-3669000D03*
D14*
%TO.P,D4,2,A*%
%TO.N,Net-(D4-A)*%
X13474000Y-6209000D03*
%TD*%
D12*
%TO.P,R1,1*%
%TO.N,Net-(D1-A)*%
X32241000Y-9516000D03*
D13*
%TO.P,R1,2*%
%TO.N,Net-(J5-Pin_1)*%
X34781000Y-9516000D03*
%TD*%
D14*
%TO.P,J22,1,Pin_1*%
%TO.N,Net-(J16-Pin_6)*%
X71600000Y-78950000D03*
%TO.P,J22,2,Pin_2*%
%TO.N,GND*%
X74100000Y-78950000D03*
%TD*%
%TO.P,J7,1,Pin_1*%
%TO.N,Net-(J15-Pin_1)*%
X11278000Y-14001000D03*
%TO.P,J7,2,Pin_2*%
%TO.N,Net-(J15-Pin_2)*%
X11278000Y-16501000D03*
%TO.P,J7,3,Pin_3*%
%TO.N,GND*%
X11278000Y-19001000D03*
%TD*%
D16*
%TO.P,J16,1,Pin_1*%
%TO.N,Net-(J16-Pin_1)*%
X60210000Y-69130000D03*
D17*
%TO.P,J16,2,Pin_2*%
%TO.N,Net-(J16-Pin_2)*%
X60210000Y-66590000D03*
%TO.P,J16,3,Pin_3*%
%TO.N,GND*%
X60210000Y-64050000D03*
%TO.P,J16,4,Pin_4*%
%TO.N,Net-(J16-Pin_4)*%
X60210000Y-61510000D03*
%TO.P,J16,5,Pin_5*%
%TO.N,Net-(J16-Pin_5)*%
X60210000Y-58970000D03*
%TO.P,J16,6,Pin_6*%
%TO.N,Net-(J16-Pin_6)*%
X60210000Y-56430000D03*
%TO.P,J16,7,Pin_7*%
%TO.N,Net-(J16-Pin_7)*%
X60210000Y-53890000D03*
%TO.P,J16,8,Pin_8*%
%TO.N,GND*%
X60210000Y-51350000D03*
%TO.P,J16,9,Pin_9*%
%TO.N,Net-(J16-Pin_9)*%
X60210000Y-48810000D03*
%TO.P,J16,10,Pin_10*%
%TO.N,Net-(J16-Pin_10)*%
X60210000Y-46270000D03*
%TO.P,J16,11,Pin_11*%
%TO.N,Net-(J16-Pin_11)*%
X60210000Y-43730000D03*
%TO.P,J16,12,Pin_12*%
%TO.N,Net-(J16-Pin_12)*%
X60210000Y-41190000D03*
%TO.P,J16,13,Pin_13*%
%TO.N,Net-(J16-Pin_13)*%
X60210000Y-38650000D03*
%TO.P,J16,14,Pin_14*%
%TO.N,Net-(J16-Pin_14)*%
X60210000Y-36110000D03*
%TO.P,J16,15,Pin_15*%
%TO.N,Net-(J16-Pin_15)*%
X60210000Y-33570000D03*
%TO.P,J16,16,Pin_16*%
%TO.N,3.3V*%
X60210000Y-31030000D03*
%TO.P,J16,17,Pin_17*%
%TO.N,Net-(J16-Pin_17)*%
X60210000Y-28490000D03*
%TO.P,J16,18,Pin_18*%
%TO.N,GND*%
X60210000Y-25950000D03*
%TO.P,J16,19,Pin_19*%
%TO.N,VIN*%
X60210000Y-23410000D03*
%TO.P,J16,20,Pin_20*%
%TO.N,5V*%
X60210000Y-20870000D03*
%TD*%
D21*
%TO.P,SW1,1,1*%
%TO.N,Net-(J16-Pin_10)*%
X78319000Y-12147000D03*
X71819000Y-12147000D03*
%TO.P,SW1,2,2*%
%TO.N,GND*%
X78319000Y-7647000D03*
X71819000Y-7647000D03*
%TD*%
D14*
%TO.P,J8,1,Pin_1*%
%TO.N,Net-(J15-Pin_4)*%
X11278000Y-24288000D03*
%TO.P,J8,2,Pin_2*%
%TO.N,Net-(J15-Pin_5)*%
X11278000Y-26788000D03*
%TO.P,J8,3,Pin_3*%
%TO.N,GND*%
X11278000Y-29288000D03*
%TD*%
D17*
%TO.P,U1,1,GPIO0*%
%TO.N,Net-(J15-Pin_1)*%
X35110000Y-20870000D03*
%TO.P,U1,2,GPIO1*%
%TO.N,Net-(J15-Pin_2)*%
X35110000Y-23410000D03*
D16*
%TO.P,U1,3,GND*%
%TO.N,GND*%
X35110000Y-25950000D03*
D17*
%TO.P,U1,4,GPIO2*%
%TO.N,Net-(J15-Pin_4)*%
X35110000Y-28490000D03*
%TO.P,U1,5,GPIO3*%
%TO.N,Net-(J15-Pin_5)*%
X35110000Y-31030000D03*
%TO.P,U1,6,GPIO4*%
%TO.N,Net-(J15-Pin_6)*%
X35110000Y-33570000D03*
%TO.P,U1,7,GPIO5*%
%TO.N,Net-(J15-Pin_7)*%
X35110000Y-36110000D03*
D16*
%TO.P,U1,8,GND*%
%TO.N,GND*%
X35110000Y-38650000D03*
D17*
%TO.P,U1,9,GPIO6*%
%TO.N,Net-(J10-Pin_1)*%
X35110000Y-41190000D03*
%TO.P,U1,10,GPIO7*%
%TO.N,Net-(J10-Pin_2)*%
X35110000Y-43730000D03*
%TO.P,U1,11,GPIO8*%
%TO.N,Net-(J11-Pin_1)*%
X35110000Y-46270000D03*
%TO.P,U1,12,GPIO9*%
%TO.N,Net-(J11-Pin_2)*%
X35110000Y-48810000D03*
D16*
%TO.P,U1,13,GND*%
%TO.N,GND*%
X35110000Y-51350000D03*
D17*
%TO.P,U1,14,GPIO10*%
%TO.N,Net-(J12-Pin_1)*%
X35110000Y-53890000D03*
%TO.P,U1,15,GPIO11*%
%TO.N,Net-(J12-Pin_2)*%
X35110000Y-56430000D03*
%TO.P,U1,16,GPIO12*%
%TO.N,Net-(J13-Pin_1)*%
X35110000Y-58970000D03*
%TO.P,U1,17,GPIO13*%
%TO.N,Net-(J13-Pin_2)*%
X35110000Y-61510000D03*
D16*
%TO.P,U1,18,GND*%
%TO.N,GND*%
X35110000Y-64050000D03*
D17*
%TO.P,U1,19,GPIO14*%
%TO.N,Net-(J14-Pin_1)*%
X35110000Y-66590000D03*
%TO.P,U1,20,GPIO15*%
%TO.N,Net-(J14-Pin_2)*%
X35110000Y-69130000D03*
%TO.P,U1,21,GPIO16*%
%TO.N,Net-(J16-Pin_1)*%
X52890000Y-69130000D03*
%TO.P,U1,22,GPIO17*%
%TO.N,Net-(J16-Pin_2)*%
X52890000Y-66590000D03*
D16*
%TO.P,U1,23,GND*%
%TO.N,GND*%
X52890000Y-64050000D03*
D17*
%TO.P,U1,24,GPIO18*%
%TO.N,Net-(J16-Pin_4)*%
X52890000Y-61510000D03*
%TO.P,U1,25,GPIO19*%
%TO.N,Net-(J16-Pin_5)*%
X52890000Y-58970000D03*
%TO.P,U1,26,GPIO20*%
%TO.N,Net-(J16-Pin_6)*%
X52890000Y-56430000D03*
%TO.P,U1,27,GPIO21*%
%TO.N,Net-(J16-Pin_7)*%
X52890000Y-53890000D03*
D16*
%TO.P,U1,28,GND*%
%TO.N,GND*%
X52890000Y-51350000D03*
D17*
%TO.P,U1,29,GPIO22*%
%TO.N,Net-(J16-Pin_9)*%
X52890000Y-48810000D03*
%TO.P,U1,30,RUN*%
%TO.N,Net-(J16-Pin_10)*%
X52890000Y-46270000D03*
%TO.P,U1,31,GPIO26_ADC0*%
%TO.N,Net-(J16-Pin_11)*%
X52890000Y-43730000D03*
%TO.P,U1,32,GPIO27_ADC1*%
%TO.N,Net-(J16-Pin_12)*%
X52890000Y-41190000D03*
D16*
%TO.P,U1,33,AGND*%
%TO.N,Net-(J16-Pin_13)*%
X52890000Y-38650000D03*
D17*
%TO.P,U1,34,GPIO28_ADC2*%
%TO.N,Net-(J16-Pin_14)*%
X52890000Y-36110000D03*
%TO.P,U1,35,ADC_VREF*%
%TO.N,Net-(J16-Pin_15)*%
X52890000Y-33570000D03*
%TO.P,U1,36,3V3*%
%TO.N,3.3V*%
X52890000Y-31030000D03*
%TO.P,U1,37,3V3_EN*%
%TO.N,Net-(J16-Pin_17)*%
X52890000Y-28490000D03*
D16*
%TO.P,U1,38,GND*%
%TO.N,GND*%
X52890000Y-25950000D03*
D17*
%TO.P,U1,39,VSYS*%
%TO.N,VIN*%
X52890000Y-23410000D03*
%TO.P,U1,40,VBUS*%
%TO.N,5V*%
X52890000Y-20870000D03*
%TO.P,U1,41,SWCLK*%
%TO.N,unconnected-(U1-SWCLK-Pad41)*%
X41460000Y-68900000D03*
D16*
%TO.P,U1,42,GND*%
%TO.N,unconnected-(U1-GND-Pad42)*%
X44000000Y-68900000D03*
D17*
%TO.P,U1,43,SWDIO*%
%TO.N,unconnected-(U1-SWDIO-Pad43)*%
X46540000Y-68900000D03*
%TD*%
D15*
%TO.P,D2,1,K*%
%TO.N,GND*%
X26682000Y-3669000D03*
D14*
%TO.P,D2,2,A*%
%TO.N,Net-(D2-A)*%
X26682000Y-6209000D03*
%TD*%
%TO.P,J19,1,Pin_1*%
%TO.N,Net-(J16-Pin_14)*%
X78916000Y-40357000D03*
%TO.P,J19,2,Pin_2*%
%TO.N,Net-(J16-Pin_13)*%
X78916000Y-37857000D03*
%TD*%
%TO.P,J2,1,Pin_1*%
%TO.N,Net-(D5-A)*%
X78862000Y-31902000D03*
%TO.P,J2,2,Pin_2*%
%TO.N,GND*%
X78862000Y-29402000D03*
%TD*%
D22*
%TO.N,Net-(D1-A)*%
X32241000Y-7259000D02*
X33286000Y-6214000D01*
X32241000Y-9516000D02*
X32241000Y-7259000D01*
D23*
%TO.N,VIN*%
X72275000Y-23486000D02*
X52966000Y-23486000D01*
X52966000Y-23486000D02*
X52890000Y-23410000D01*
X72249600Y-23511400D02*
X72275000Y-23486000D01*
X72249600Y-28743800D02*
X72249600Y-23511400D01*
D22*
%TO.N,Net-(D2-A)*%
X25593000Y-7298000D02*
X26682000Y-6209000D01*
X25593000Y-9504000D02*
X25593000Y-7298000D01*
%TO.N,Net-(D3-A)*%
X18779000Y-7254000D02*
X19824000Y-6209000D01*
X18779000Y-9541000D02*
X18779000Y-7254000D01*
%TO.N,Net-(D4-A)*%
X12429000Y-9541000D02*
X12429000Y-7254000D01*
X12429000Y-7254000D02*
X13474000Y-6209000D01*
D23*
%TO.N,Net-(D5-A)*%
X78769000Y-31995000D02*
X78862000Y-31902000D01*
X72249600Y-31283800D02*
X74865800Y-31283800D01*
X74865800Y-31283800D02*
X75577000Y-31995000D01*
X75577000Y-31995000D02*
X78769000Y-31995000D01*
%TO.N,Net-(D6-A)*%
X72275000Y-20946000D02*
X75646000Y-20946000D01*
X75646000Y-20946000D02*
X75700000Y-21000000D01*
D22*
%TO.N,Net-(J12-Pin_1)*%
X22110000Y-53890000D02*
X11278000Y-64722000D01*
X11278000Y-64722000D02*
X11278000Y-65436000D01*
X35110000Y-53890000D02*
X22110000Y-53890000D01*
%TO.N,Net-(J12-Pin_2)*%
X22110000Y-56430000D02*
X22110000Y-56506000D01*
X35110000Y-56430000D02*
X22110000Y-56430000D01*
X11487000Y-67936000D02*
X11278000Y-67936000D01*
X13550000Y-65066000D02*
X13550000Y-65873000D01*
X22110000Y-56506000D02*
X13550000Y-65066000D01*
X13550000Y-65873000D02*
X11487000Y-67936000D01*
%TO.N,Net-(J14-Pin_1)*%
X20332000Y-74652000D02*
X24630000Y-78950000D01*
X20332000Y-68368000D02*
X20332000Y-74652000D01*
X22110000Y-66590000D02*
X20332000Y-68368000D01*
X35110000Y-66590000D02*
X22110000Y-66590000D01*
D23*
%TO.N,5V*%
X52890000Y-20870000D02*
X65290000Y-20870000D01*
X52666000Y-20870000D02*
X52890000Y-20870000D01*
X34977000Y-78985000D02*
X34977000Y-75651000D01*
X34977000Y-75651000D02*
X38522000Y-72106000D01*
X38522000Y-72106000D02*
X38522000Y-35014000D01*
X38522000Y-35014000D02*
X52666000Y-20870000D01*
%TO.N,3.3V*%
X52890000Y-31030000D02*
X65290000Y-31030000D01*
X52890000Y-31030000D02*
X51687919Y-31030000D01*
X49669000Y-71238000D02*
X42851000Y-78056000D01*
X49669000Y-33048919D02*
X49669000Y-71238000D01*
X51687919Y-31030000D02*
X49669000Y-33048919D01*
X42851000Y-78056000D02*
X42851000Y-78985000D01*
D22*
%TO.N,Net-(J14-Pin_2)*%
X35110000Y-69130000D02*
X22110000Y-69130000D01*
X27190000Y-77050000D02*
X27130000Y-77110000D01*
X27130000Y-77110000D02*
X27130000Y-78950000D01*
X27190000Y-69120000D02*
X27190000Y-77050000D01*
%TO.N,Net-(J10-Pin_1)*%
X14950000Y-41190000D02*
X11278000Y-44862000D01*
X22110000Y-41190000D02*
X14950000Y-41190000D01*
X35110000Y-41190000D02*
X22110000Y-41190000D01*
%TO.N,Net-(J11-Pin_2)*%
X13271000Y-57649000D02*
X11278000Y-57649000D01*
X22110000Y-48810000D02*
X35110000Y-48810000D01*
X22110000Y-48810000D02*
X13271000Y-57649000D01*
%TO.N,Net-(J15-Pin_7)*%
X12243000Y-36110000D02*
X22110000Y-36110000D01*
X11278000Y-37075000D02*
X12243000Y-36110000D01*
X35110000Y-36110000D02*
X22110000Y-36110000D01*
%TO.N,Net-(J15-Pin_2)*%
X11278000Y-16501000D02*
X15469000Y-20692000D01*
X22110000Y-23410000D02*
X35110000Y-23410000D01*
X19392000Y-20692000D02*
X22110000Y-23410000D01*
X15469000Y-20692000D02*
X19392000Y-20692000D01*
%TO.N,Net-(J15-Pin_4)*%
X11278000Y-24288000D02*
X13270000Y-26280000D01*
X13270000Y-26280000D02*
X19900000Y-26280000D01*
X19900000Y-26280000D02*
X22110000Y-28490000D01*
X22110000Y-28490000D02*
X35110000Y-28490000D01*
%TO.N,Net-(J11-Pin_1)*%
X13231000Y-55149000D02*
X11278000Y-55149000D01*
X35110000Y-46270000D02*
X22110000Y-46270000D01*
X22110000Y-46270000D02*
X13231000Y-55149000D01*
%TO.N,Net-(J15-Pin_6)*%
X35110000Y-33570000D02*
X12283000Y-33570000D01*
X12283000Y-33570000D02*
X11278000Y-34575000D01*
%TO.N,Net-(J15-Pin_5)*%
X14072000Y-29582000D02*
X18808000Y-29582000D01*
X11278000Y-26788000D02*
X14072000Y-29582000D01*
X20256000Y-31030000D02*
X35110000Y-31030000D01*
X18808000Y-29582000D02*
X20256000Y-31030000D01*
%TO.N,Net-(J13-Pin_1)*%
X22110000Y-58970000D02*
X22110000Y-59135000D01*
X22110000Y-59135000D02*
X14250000Y-66995000D01*
X35110000Y-58970000D02*
X22110000Y-58970000D01*
X14250000Y-66995000D02*
X14250000Y-78950000D01*
%TO.N,Net-(J13-Pin_2)*%
X22110000Y-61510000D02*
X16750000Y-66870000D01*
X35110000Y-61510000D02*
X22110000Y-61510000D01*
X16750000Y-66870000D02*
X16750000Y-78950000D01*
%TO.N,Net-(J15-Pin_1)*%
X19900000Y-18660000D02*
X22110000Y-20870000D01*
X35110000Y-20870000D02*
X22110000Y-20870000D01*
X11278000Y-14001000D02*
X15937000Y-18660000D01*
X15937000Y-18660000D02*
X19900000Y-18660000D01*
%TO.N,Net-(J10-Pin_2)*%
X14910000Y-43730000D02*
X11278000Y-47362000D01*
X35110000Y-43730000D02*
X22110000Y-43730000D01*
X22110000Y-43730000D02*
X14910000Y-43730000D01*
%TO.N,Net-(J16-Pin_6)*%
X68846000Y-76196000D02*
X71600000Y-78950000D01*
X68846000Y-59986000D02*
X68846000Y-76196000D01*
X52890000Y-56430000D02*
X65290000Y-56430000D01*
X65290000Y-56430000D02*
X68846000Y-59986000D01*
%TO.N,Net-(J16-Pin_9)*%
X65290000Y-48810000D02*
X72148000Y-55668000D01*
X72148000Y-55668000D02*
X72148000Y-57462000D01*
X72148000Y-57462000D02*
X78862000Y-64176000D01*
X52890000Y-48810000D02*
X65290000Y-48810000D01*
%TO.N,Net-(J16-Pin_4)*%
X63258000Y-64558000D02*
X63258000Y-76898000D01*
X52890000Y-61510000D02*
X65290000Y-61510000D01*
X63258000Y-76898000D02*
X61206000Y-78950000D01*
X60210000Y-61510000D02*
X63258000Y-64558000D01*
%TO.N,Net-(J16-Pin_1)*%
X52890000Y-76852000D02*
X50792000Y-78950000D01*
X52890000Y-69130000D02*
X52890000Y-76852000D01*
%TO.N,Net-(J16-Pin_15)*%
X52890000Y-33570000D02*
X65290000Y-33570000D01*
%TO.N,Net-(J16-Pin_17)*%
X52890000Y-28490000D02*
X65290000Y-28490000D01*
%TO.N,Net-(J16-Pin_11)*%
X66668000Y-43730000D02*
X78916000Y-55978000D01*
X52890000Y-43730000D02*
X66668000Y-43730000D01*
%TO.N,Net-(J16-Pin_12)*%
X71948000Y-41190000D02*
X78916000Y-48158000D01*
X52890000Y-41190000D02*
X71948000Y-41190000D01*
D23*
%TO.N,Net-(J16-Pin_13)*%
X52890000Y-38650000D02*
X65295585Y-38650000D01*
X78809000Y-45711000D02*
X78862000Y-45658000D01*
X65290000Y-38650000D02*
X65295585Y-38650000D01*
X65295585Y-38650000D02*
X65295585Y-38650001D01*
D22*
%TO.N,Net-(J16-Pin_5)*%
X67449000Y-61129000D02*
X67449000Y-75207000D01*
X67449000Y-75207000D02*
X63706000Y-78950000D01*
X52890000Y-58970000D02*
X65290000Y-58970000D01*
X65290000Y-58970000D02*
X67449000Y-61129000D01*
%TO.N,Net-(J16-Pin_14)*%
X65290000Y-36110000D02*
X74669000Y-36110000D01*
X74669000Y-36110000D02*
X78916000Y-40357000D01*
X52890000Y-36110000D02*
X65290000Y-36110000D01*
%TO.N,Net-(J16-Pin_2)*%
X54192000Y-78050000D02*
X53292000Y-78950000D01*
X56781000Y-69841000D02*
X54192000Y-72430000D01*
X60210000Y-66590000D02*
X60150000Y-66590000D01*
X60150000Y-66590000D02*
X56899000Y-69841000D01*
X52890000Y-66590000D02*
X60210000Y-66590000D01*
X56899000Y-69841000D02*
X56781000Y-69841000D01*
X54192000Y-72430000D02*
X54192000Y-78050000D01*
%TO.N,Net-(J16-Pin_7)*%
X66103000Y-53890000D02*
X70116000Y-57903000D01*
X70116000Y-63304000D02*
X78862000Y-72050000D01*
X52890000Y-53890000D02*
X65290000Y-53890000D01*
X65290000Y-53890000D02*
X66103000Y-53890000D01*
X70116000Y-57903000D02*
X70116000Y-63304000D01*
%TO.N,Net-(J5-Pin_1)*%
X33540000Y-13326000D02*
X26682000Y-13326000D01*
X34781000Y-12085000D02*
X33540000Y-13326000D01*
X34781000Y-9516000D02*
X34781000Y-12085000D01*
%TO.N,Net-(J5-Pin_2)*%
X28133000Y-9504000D02*
X28133000Y-10605000D01*
X24142000Y-12310000D02*
X24142000Y-13326000D01*
X27190000Y-11548000D02*
X24904000Y-11548000D01*
X24904000Y-11548000D02*
X24142000Y-12310000D01*
X28133000Y-10605000D02*
X27190000Y-11548000D01*
%TO.N,Net-(J5-Pin_4)*%
X14969000Y-9541000D02*
X14969000Y-11773000D01*
X16522000Y-13326000D02*
X19062000Y-13326000D01*
X14969000Y-11773000D02*
X16522000Y-13326000D01*
%TO.N,Net-(J5-Pin_3)*%
X21319000Y-9541000D02*
X21348000Y-9570000D01*
X21348000Y-13072000D02*
X21602000Y-13326000D01*
X21348000Y-9570000D02*
X21348000Y-13072000D01*
%TD*%
M02*
