M48
; DRILL file {KiCad 8.0.3} date 2024-07-10T23:00:11+0900
; FORMAT={-:-/ absolute / metric / decimal}
; #@! TF.CreationDate,2024-07-10T23:00:11+09:00
; #@! TF.GenerationSoftware,Kicad,Pcbnew,8.0.3
; #@! TF.FileFunction,Plated,1,2,PTH
FMAT,2
METRIC
; #@! TA.AperFunction,Plated,PTH,ComponentDrill
T1C0.800
; #@! TA.AperFunction,Plated,PTH,ComponentDrill
T2C0.900
; #@! TA.AperFunction,Plated,PTH,ComponentDrill
T3C1.000
; #@! TA.AperFunction,Plated,PTH,ComponentDrill
T4C1.020
; #@! TA.AperFunction,Plated,PTH,ComponentDrill
T5C1.100
%
G90
G05
T1
X12.429Y-9.541
X14.969Y-9.541
X18.779Y-9.541
X21.319Y-9.541
X25.593Y-9.504
X28.133Y-9.504
X32.241Y-9.516
X34.781Y-9.516
T2
X13.474Y-3.669
X13.474Y-6.209
X19.824Y-3.669
X19.824Y-6.209
X26.682Y-3.669
X26.682Y-6.209
X33.286Y-3.674
X33.286Y-6.214
T3
X11.278Y-14.001
X11.278Y-16.501
X11.278Y-19.001
X11.278Y-24.288
X11.278Y-26.788
X11.278Y-29.288
X11.278Y-34.575
X11.278Y-37.075
X11.278Y-39.575
X11.278Y-44.862
X11.278Y-47.362
X11.278Y-49.862
X11.278Y-55.149
X11.278Y-57.649
X11.278Y-60.149
X11.278Y-65.436
X11.278Y-67.936
X11.278Y-70.436
X14.25Y-78.95
X16.75Y-78.95
X19.062Y-13.326
X19.25Y-78.95
X21.602Y-13.326
X22.11Y-20.87
X22.11Y-23.41
X22.11Y-25.95
X22.11Y-28.49
X22.11Y-31.03
X22.11Y-33.57
X22.11Y-36.11
X22.11Y-38.65
X22.11Y-41.19
X22.11Y-43.73
X22.11Y-46.27
X22.11Y-48.81
X22.11Y-51.35
X22.11Y-53.89
X22.11Y-56.43
X22.11Y-58.97
X22.11Y-61.51
X22.11Y-64.05
X22.11Y-66.59
X22.11Y-69.13
X24.142Y-13.326
X24.63Y-78.95
X26.682Y-13.326
X27.13Y-78.95
X27.19Y-20.86
X27.19Y-23.4
X27.19Y-25.94
X27.19Y-28.48
X27.19Y-31.02
X27.19Y-33.56
X27.19Y-36.1
X27.19Y-38.64
X27.19Y-41.18
X27.19Y-43.72
X27.19Y-46.26
X27.19Y-48.8
X27.19Y-51.34
X27.19Y-53.88
X27.19Y-56.42
X27.19Y-58.96
X27.19Y-61.5
X27.19Y-64.04
X27.19Y-66.58
X27.19Y-69.12
X29.63Y-78.95
X34.977Y-78.985
X37.477Y-78.985
X42.851Y-78.985
X45.351Y-78.985
X50.792Y-78.95
X53.292Y-78.95
X55.792Y-78.95
X60.21Y-20.87
X60.21Y-23.41
X60.21Y-25.95
X60.21Y-28.49
X60.21Y-31.03
X60.21Y-33.57
X60.21Y-36.11
X60.21Y-38.65
X60.21Y-41.19
X60.21Y-43.73
X60.21Y-46.27
X60.21Y-48.81
X60.21Y-51.35
X60.21Y-53.89
X60.21Y-56.43
X60.21Y-58.97
X60.21Y-61.51
X60.21Y-64.05
X60.21Y-66.59
X60.21Y-69.13
X61.206Y-78.95
X63.706Y-78.95
X65.29Y-20.87
X65.29Y-23.41
X65.29Y-25.95
X65.29Y-28.49
X65.29Y-31.03
X65.29Y-33.57
X65.29Y-36.11
X65.29Y-38.65
X65.29Y-41.19
X65.29Y-43.73
X65.29Y-46.27
X65.29Y-48.81
X65.29Y-51.35
X65.29Y-53.89
X65.29Y-56.43
X65.29Y-58.97
X65.29Y-61.51
X65.29Y-64.05
X65.29Y-66.59
X65.29Y-69.13
X66.206Y-78.95
X71.6Y-78.95
X74.1Y-78.95
X78.862Y-29.402
X78.862Y-31.902
X78.862Y-61.676
X78.862Y-64.176
X78.862Y-69.55
X78.862Y-72.05
X78.916Y-37.857
X78.916Y-40.357
X78.916Y-45.658
X78.916Y-48.158
X78.916Y-53.478
X78.916Y-55.978
T4
X35.11Y-20.87
X35.11Y-23.41
X35.11Y-25.95
X35.11Y-28.49
X35.11Y-31.03
X35.11Y-33.57
X35.11Y-36.11
X35.11Y-38.65
X35.11Y-41.19
X35.11Y-43.73
X35.11Y-46.27
X35.11Y-48.81
X35.11Y-51.35
X35.11Y-53.89
X35.11Y-56.43
X35.11Y-58.97
X35.11Y-61.51
X35.11Y-64.05
X35.11Y-66.59
X35.11Y-69.13
X41.46Y-68.9
X44.0Y-68.9
X46.54Y-68.9
X52.89Y-20.87
X52.89Y-23.41
X52.89Y-25.95
X52.89Y-28.49
X52.89Y-31.03
X52.89Y-33.57
X52.89Y-36.11
X52.89Y-38.65
X52.89Y-41.19
X52.89Y-43.73
X52.89Y-46.27
X52.89Y-48.81
X52.89Y-51.35
X52.89Y-53.89
X52.89Y-56.43
X52.89Y-58.97
X52.89Y-61.51
X52.89Y-64.05
X52.89Y-66.59
X52.89Y-69.13
T5
X71.819Y-7.647
X71.819Y-12.147
X72.25Y-28.744
X72.25Y-31.284
X72.275Y-20.946
X72.275Y-23.486
X78.319Y-7.647
X78.319Y-12.147
T3
G00X75.7Y-22.3
M15
G01X75.7Y-19.7
M16
G05
G00X77.5Y-16.2
M15
G01X79.7Y-16.2
M16
G05
G00X82.0Y-22.1
M15
G01X82.0Y-19.9
M16
G05
M30
