M48
; DRILL file {KiCad 8.0.3} date 2024-07-10T23:22:50+0900
; FORMAT={-:-/ absolute / metric / decimal}
; #@! TF.CreationDate,2024-07-10T23:22:50+09:00
; #@! TF.GenerationSoftware,Kicad,Pcbnew,8.0.3
; #@! TF.FileFunction,Plated,1,2,PTH
FMAT,2
METRIC
; #@! TA.AperFunction,Plated,PTH,ViaDrill
T1C0.300
; #@! TA.AperFunction,Plated,PTH,ViaDrill
T2C0.400
; #@! TA.AperFunction,Plated,PTH,ComponentDrill
T3C0.500
; #@! TA.AperFunction,Plated,PTH,ComponentDrill
T4C0.600
; #@! TA.AperFunction,Plated,PTH,ComponentDrill
T5C0.750
; #@! TA.AperFunction,Plated,PTH,ComponentDrill
T6C0.800
; #@! TA.AperFunction,Plated,PTH,ComponentDrill
T7C0.900
; #@! TA.AperFunction,Plated,PTH,ComponentDrill
T8C0.950
; #@! TA.AperFunction,Plated,PTH,ComponentDrill
T9C1.000
; #@! TA.AperFunction,Plated,PTH,ComponentDrill
T10C1.100
; #@! TA.AperFunction,Plated,PTH,ComponentDrill
T11C1.300
; #@! TA.AperFunction,Plated,PTH,ComponentDrill
T12C1.700
; #@! TA.AperFunction,Plated,PTH,ComponentDrill
T13C2.300
; #@! TA.AperFunction,Plated,PTH,ComponentDrill
T14C2.700
%
G90
G05
T1
X2.5Y-2.5
X2.5Y-7.5
X2.5Y-12.5
X2.5Y-17.5
X2.5Y-22.5
X2.5Y-27.5
X2.5Y-32.5
X2.5Y-37.5
X2.5Y-42.5
X2.5Y-47.5
X2.5Y-52.5
X2.5Y-57.5
X2.5Y-62.5
X2.5Y-67.5
X2.5Y-72.5
X2.5Y-77.5
X2.5Y-82.5
X2.5Y-87.5
X7.5Y-2.5
X7.5Y-7.5
X7.5Y-12.5
X7.5Y-17.5
X7.5Y-22.5
X7.5Y-27.5
X7.5Y-37.5
X7.5Y-42.5
X7.5Y-47.5
X7.5Y-52.5
X7.5Y-57.5
X7.5Y-62.5
X7.5Y-67.5
X7.5Y-77.5
X7.5Y-82.5
X7.5Y-87.5
X12.5Y-2.5
X12.5Y-7.5
X12.5Y-12.5
X12.5Y-17.5
X12.5Y-22.5
X12.5Y-27.5
X12.5Y-42.5
X12.5Y-47.5
X12.5Y-52.5
X12.5Y-57.5
X12.5Y-62.5
X12.5Y-67.5
X17.5Y-2.5
X17.5Y-17.5
X17.5Y-27.5
X17.5Y-37.5
X17.5Y-42.5
X17.5Y-47.5
X17.5Y-52.5
X17.5Y-67.5
X17.5Y-72.5
X22.5Y-2.5
X22.5Y-7.5
X22.5Y-32.5
X22.5Y-37.5
X22.5Y-42.5
X22.5Y-47.5
X22.5Y-52.5
X22.5Y-82.5
X22.5Y-87.5
X27.5Y-2.5
X27.5Y-7.5
X27.5Y-12.5
X27.5Y-17.5
X27.5Y-22.5
X27.5Y-27.5
X27.5Y-32.5
X27.5Y-37.5
X27.5Y-42.5
X27.5Y-47.5
X27.5Y-52.5
X27.5Y-57.5
X27.5Y-62.5
X27.5Y-67.5
X27.5Y-72.5
X27.5Y-77.5
X27.5Y-82.5
X27.5Y-87.5
X32.5Y-7.5
X32.5Y-12.5
X32.5Y-17.5
X32.5Y-22.5
X32.5Y-52.5
X32.5Y-57.5
X32.5Y-62.5
X32.5Y-67.5
X32.5Y-72.5
X32.5Y-77.5
X32.5Y-82.5
X37.5Y-12.5
X37.5Y-17.5
X37.5Y-22.5
X37.5Y-52.5
X37.5Y-57.5
X37.5Y-62.5
X37.5Y-67.5
X37.5Y-72.5
X37.5Y-77.5
X42.5Y-2.5
X42.5Y-12.5
X42.5Y-67.5
X42.5Y-72.5
X42.5Y-82.5
X42.5Y-87.5
X47.5Y-2.5
X47.5Y-12.5
X47.5Y-17.5
X47.5Y-52.5
X47.5Y-57.5
X47.5Y-62.5
X47.5Y-67.5
X47.5Y-77.5
X47.5Y-82.5
X47.5Y-87.5
X52.5Y-2.5
X52.5Y-52.5
X52.5Y-57.5
X52.5Y-72.5
X52.5Y-77.5
X52.5Y-82.5
X52.5Y-87.5
X57.5Y-2.5
X57.5Y-22.5
X57.5Y-67.5
X57.5Y-72.5
X57.5Y-77.5
X57.5Y-82.5
X57.5Y-87.5
X62.5Y-2.5
X62.5Y-12.5
X62.5Y-52.5
X62.5Y-57.5
X62.5Y-77.5
X62.5Y-82.5
X62.5Y-87.5
X67.5Y-2.5
X67.5Y-17.5
X67.5Y-47.5
X67.5Y-52.5
X67.5Y-77.5
X70.0Y-30.0
X70.0Y-35.0
X72.055Y-85.145
X72.5Y-2.5
X72.5Y-7.5
X72.5Y-17.5
X72.5Y-22.5
X72.5Y-47.5
X72.5Y-67.5
X72.5Y-72.5
X72.5Y-77.5
X72.5Y-82.5
X72.5Y-87.5
X74.19Y-41.43
X74.21Y-25.45
X75.0Y-30.0
X77.5Y-2.5
X77.5Y-22.5
X77.5Y-57.5
X77.5Y-62.5
X77.5Y-67.5
X77.5Y-77.5
X77.5Y-82.5
X77.5Y-87.5
X80.0Y-30.0
X82.5Y-2.5
X82.5Y-7.5
X82.5Y-62.5
X82.5Y-77.5
X82.5Y-82.5
X82.5Y-87.5
X85.0Y-30.0
X85.0Y-42.5
X87.5Y-2.5
X87.5Y-62.5
X87.5Y-67.5
X87.5Y-77.5
X87.5Y-82.5
X87.5Y-87.5
X92.5Y-2.5
X92.5Y-7.5
X92.5Y-12.5
X92.5Y-17.5
X92.5Y-47.5
X92.5Y-52.5
X92.5Y-57.5
X92.5Y-62.5
X92.5Y-77.5
X92.5Y-82.5
X92.5Y-87.5
X95.0Y-30.0
X97.5Y-2.5
X97.5Y-7.5
X97.5Y-42.5
X97.5Y-67.5
X97.5Y-77.5
X97.5Y-82.5
X97.5Y-87.5
X100.0Y-25.0
X100.0Y-30.0
X102.5Y-2.5
X102.5Y-7.5
X102.5Y-37.5
X102.5Y-42.5
X102.5Y-52.5
X102.5Y-67.5
X102.5Y-77.5
X102.5Y-87.5
X107.5Y-2.5
X107.5Y-7.5
X107.5Y-12.5
X107.5Y-37.5
X107.5Y-42.5
X107.5Y-67.5
X107.5Y-77.5
X107.5Y-82.5
X112.5Y-2.5
X112.5Y-7.5
X112.5Y-12.5
X112.5Y-17.5
X112.5Y-22.5
X112.5Y-37.5
X112.5Y-42.5
X112.5Y-47.5
X112.5Y-52.5
X112.5Y-57.5
X112.5Y-62.5
X112.5Y-67.5
X112.5Y-72.5
X112.5Y-77.5
X112.5Y-82.5
X112.5Y-87.5
X117.5Y-2.5
X117.5Y-7.5
X117.5Y-12.5
X117.5Y-17.5
X117.5Y-22.5
X117.5Y-27.5
X117.5Y-32.5
X117.5Y-37.5
X117.5Y-42.5
X117.5Y-47.5
X117.5Y-52.5
X117.5Y-57.5
X117.5Y-62.5
X117.5Y-67.5
X117.5Y-72.5
X117.5Y-77.5
X117.5Y-82.5
X117.5Y-87.5
T2
X61.9Y-50.2
X61.9Y-51.1
X62.8Y-50.2
X62.8Y-51.1
T4
X82.55Y-57.727
X82.55Y-59.727
X83.16Y-20.555
X83.16Y-22.555
X87.376Y-57.676
X87.376Y-59.676
X87.884Y-20.581
X87.884Y-22.581
T5
X47.503Y-37.18
X47.503Y-38.45
X47.503Y-39.72
T6
X24.825Y-43.983
X24.825Y-46.523
X25.175Y-49.658
X27.715Y-49.658
X32.445Y-43.983
X32.445Y-46.523
X35.045Y-47.874
X35.117Y-41.676
X35.121Y-44.774
X37.545Y-47.874
X37.657Y-41.676
X37.661Y-44.774
X37.851Y-28.584
X37.851Y-31.084
X41.89Y-48.28
X41.89Y-50.82
X41.89Y-53.36
X41.89Y-55.9
X41.89Y-58.44
X41.89Y-60.98
X41.89Y-63.52
X41.9Y-15.661
X41.9Y-18.201
X41.9Y-20.741
X41.9Y-23.281
X41.9Y-25.821
X41.9Y-28.361
X41.9Y-30.901
X43.084Y-37.057
X43.084Y-39.597
X49.51Y-48.28
X49.51Y-50.82
X49.51Y-53.36
X49.51Y-55.9
X49.51Y-58.44
X49.51Y-60.98
X49.51Y-63.52
X49.52Y-15.661
X49.52Y-18.201
X49.52Y-20.741
X49.52Y-23.281
X49.52Y-25.821
X49.52Y-28.361
X49.52Y-30.901
X52.726Y-48.223
X52.726Y-50.723
X52.761Y-30.881
X52.761Y-33.421
X52.812Y-18.069
X52.812Y-20.609
X52.837Y-23.276
X52.837Y-25.776
X59.721Y-30.802
X59.721Y-33.342
X62.052Y-63.398
X62.052Y-65.898
X62.052Y-69.53
X62.052Y-71.53
X67.66Y-68.91
X68.885Y-72.568
X68.885Y-74.568
X70.16Y-68.91
X76.164Y-43.485
X77.358Y-6.477
X78.664Y-43.485
X79.858Y-6.477
X83.82Y-13.839
X83.82Y-16.379
X83.871Y-50.746
X83.871Y-53.286
X88.443Y-5.349
X88.443Y-7.849
X88.748Y-42.534
X88.748Y-45.034
X90.54Y-13.51
X90.54Y-16.01
X90.84Y-50.81
X90.84Y-53.31
X102.25Y-57.54
X102.25Y-60.08
X102.692Y-26.873
X102.718Y-31.979
X102.855Y-70.626
X103.01Y-75.226
X105.232Y-26.873
X105.258Y-31.979
X105.395Y-70.626
X105.55Y-75.226
T7
X109.327Y-31.979
X109.347Y-26.848
X110.85Y-69.186
X110.85Y-71.726
X110.85Y-74.461
X110.85Y-77.001
X111.867Y-31.979
X111.887Y-26.848
T8
X106.64Y-55.5
X106.64Y-58.0
X106.64Y-60.0
X106.64Y-62.5
T9
X11.093Y-43.475
X11.093Y-45.975
X81.308Y-69.4
X83.104Y-67.604
X84.9Y-69.4
X92.348Y-69.41
X94.144Y-67.614
X95.94Y-69.41
X106.2Y-86.5
X108.7Y-86.5
X108.876Y-11.802
X108.876Y-14.302
X108.876Y-19.502
X108.876Y-22.002
X108.901Y-37.764
X108.901Y-40.264
X108.901Y-45.464
X108.901Y-47.964
T10
X38.0Y-81.46
X38.0Y-84.0
X38.0Y-86.54
X38.735Y-3.277
X38.735Y-5.817
X38.735Y-8.357
X65.075Y-65.867
X67.615Y-65.867
X70.155Y-65.867
X72.695Y-65.867
X77.195Y-48.16
X77.195Y-50.7
X77.195Y-53.24
X77.35Y-11.22
X77.35Y-13.76
X77.35Y-16.3
X80.62Y-50.724
X80.62Y-53.264
X80.67Y-13.741
X80.67Y-16.281
X87.198Y-10.998
X87.198Y-13.538
X87.351Y-48.235
X87.351Y-50.775
X98.67Y-37.691
X98.67Y-40.231
X98.67Y-45.391
X98.67Y-47.931
X98.753Y-11.756
X98.753Y-14.296
X98.753Y-19.525
X98.753Y-22.065
X98.831Y-59.995
X98.831Y-62.535
X101.93Y-40.231
X101.93Y-48.031
X101.981Y-14.296
X101.981Y-21.996
X104.47Y-40.231
X104.47Y-48.031
X104.521Y-14.296
X104.521Y-21.996
T11
X49.13Y-79.32
X49.13Y-84.32
X61.63Y-79.32
X61.63Y-84.32
X66.35Y-28.4
X66.35Y-35.9
X81.35Y-28.4
X81.35Y-35.9
X86.35Y-28.4
X86.35Y-35.9
X91.35Y-28.4
X91.35Y-35.9
T12
X11.3Y-5.0
X11.3Y-85.0
X18.0Y-5.0
X18.0Y-85.0
X27.0Y-5.0
X27.0Y-85.0
X33.7Y-5.0
X33.7Y-85.0
T13
X109.35Y-52.43
X109.35Y-65.57
T14
X16.777Y-14.307
X16.777Y-21.507
X16.802Y-56.507
X16.802Y-63.707
T3
G00X64.95Y-79.75
M15
G01X64.95Y-80.05
M16
G05
G00X64.95Y-82.25
M15
G01X64.95Y-82.55
M16
G05
G00X64.95Y-84.75
M15
G01X64.95Y-85.05
M16
G05
G00X68.25Y-79.75
M15
G01X68.25Y-80.05
M16
G05
G00X68.25Y-82.25
M15
G01X68.25Y-82.55
M16
G05
G00X68.25Y-84.75
M15
G01X68.25Y-85.05
M16
G05
T4
G00X10.227Y-11.157
M15
G01X11.327Y-11.157
M16
G05
G00X10.227Y-24.657
M15
G01X11.327Y-24.657
M16
G05
G00X10.252Y-53.357
M15
G01X11.352Y-53.357
M16
G05
G00X10.252Y-66.857
M15
G01X11.352Y-66.857
M16
G05
T9
G00X7.772Y-30.193
M15
G01X7.772Y-32.393
M16
G05
G00X7.797Y-72.418
M15
G01X7.797Y-74.618
M16
G05
G00X12.272Y-36.093
M15
G01X10.072Y-36.093
M16
G05
G00X12.297Y-78.318
M15
G01X10.097Y-78.318
M16
G05
G00X14.072Y-29.993
M15
G01X14.072Y-32.593
M16
G05
G00X14.097Y-72.218
M15
G01X14.097Y-74.818
M16
G05
M30
