%TF.GenerationSoftware,KiCad,Pcbnew,8.0.3*%
%TF.CreationDate,2024-07-10T23:22:52+09:00*%
%TF.ProjectId,power_6.6V,706f7765-725f-4362-9e36-562e6b696361,rev?*%
%TF.SameCoordinates,PX47868c0PY2faf080*%
%TF.FileFunction,Soldermask,Top*%
%TF.FilePolarity,Negative*%
%FSLAX46Y46*%
G04 Gerber Fmt 4.6, Leading zero omitted, Abs format (unit mm)*
G04 Created by KiCad (PCBNEW 8.0.3) date 2024-07-10 23:22:52*
%MOMM*%
%LPD*%
G01*
G04 APERTURE LIST*
G04 Aperture macros list*
%AMRoundRect*
0 Rectangle with rounded corners*
0 $1 Rounding radius*
0 $2 $3 $4 $5 $6 $7 $8 $9 X,Y pos of 4 corners*
0 Add a 4 corners polygon primitive as box body*
4,1,4,$2,$3,$4,$5,$6,$7,$8,$9,$2,$3,0*
0 Add four circle primitives for the rounded corners*
1,1,$1+$1,$2,$3*
1,1,$1+$1,$4,$5*
1,1,$1+$1,$6,$7*
1,1,$1+$1,$8,$9*
0 Add four rect primitives between the rounded corners*
20,1,$1+$1,$2,$3,$4,$5,0*
20,1,$1+$1,$4,$5,$6,$7,0*
20,1,$1+$1,$6,$7,$8,$9,0*
20,1,$1+$1,$8,$9,$2,$3,0*%
G04 Aperture macros list end*
%ADD10R,1.200000X1.200000*%
%ADD11C,1.200000*%
%ADD12R,2.200000X2.200000*%
%ADD13O,2.200000X2.200000*%
%ADD14C,1.600000*%
%ADD15O,1.600000X1.600000*%
%ADD16R,2.000000X4.600000*%
%ADD17O,2.000000X4.200000*%
%ADD18O,4.200000X2.000000*%
%ADD19R,1.500000X1.050000*%
%ADD20O,1.500000X1.050000*%
%ADD21R,1.800000X1.800000*%
%ADD22C,1.800000*%
%ADD23C,2.100000*%
%ADD24R,1.600000X1.600000*%
%ADD25C,2.000000*%
%ADD26R,2.000000X2.000000*%
%ADD27R,1.905000X2.000000*%
%ADD28O,1.905000X2.000000*%
%ADD29R,2.000000X0.900000*%
%ADD30RoundRect,1.025000X1.025000X-1.025000X1.025000X1.025000X-1.025000X1.025000X-1.025000X-1.025000X0*%
%ADD31C,4.100000*%
%ADD32C,2.300000*%
%ADD33R,1.500000X1.600000*%
%ADD34C,3.000000*%
%ADD35RoundRect,0.181818X-0.218182X-0.468182X0.218182X-0.468182X0.218182X0.468182X-0.218182X0.468182X0*%
%ADD36R,2.000000X1.905000*%
%ADD37O,2.000000X1.905000*%
%ADD38C,3.200000*%
%ADD39O,3.200000X1.900000*%
G04 APERTURE END LIST*
D10*
%TO.C,C9*%
X87376000Y-57676001D03*
D11*
X87376000Y-59676001D03*
%TD*%
D12*
%TO.C,D1*%
X98752766Y-14296400D03*
D13*
X98752766Y-11756400D03*
%TD*%
D14*
%TO.C,R2*%
X35117400Y-41676000D03*
D15*
X37657400Y-41676000D03*
%TD*%
D14*
%TO.C,R7*%
X105232200Y-26873200D03*
D15*
X102692200Y-26873200D03*
%TD*%
D16*
%TO.C,J1*%
X14097000Y-73518000D03*
D17*
X7797000Y-73518000D03*
D18*
X11197000Y-78318000D03*
%TD*%
D19*
%TO.C,Q1*%
X47503400Y-39720200D03*
D20*
X47503400Y-38450200D03*
X47503400Y-37180200D03*
%TD*%
D21*
%TO.C,D6*%
X110850200Y-77001200D03*
D22*
X110850200Y-74461200D03*
%TD*%
D12*
%TO.C,D4*%
X104470200Y-40231400D03*
D13*
X101930200Y-40231400D03*
%TD*%
D23*
%TO.C,REF\u002A\u002A*%
X70749999Y-59600000D03*
X70749999Y-41800000D03*
%TD*%
D24*
%TO.C,C16*%
X68884800Y-72567800D03*
D14*
X68884800Y-74567800D03*
%TD*%
%TO.C,C2*%
X52725800Y-48223400D03*
X52725800Y-50723400D03*
%TD*%
D23*
%TO.C,REF\u002A\u002A*%
X70849999Y-22700000D03*
X70849999Y-4900000D03*
%TD*%
D12*
%TO.C,D15*%
X87350600Y-48234600D03*
D13*
X87350600Y-50774600D03*
%TD*%
D21*
%TO.C,D8*%
X111866600Y-31978600D03*
D22*
X109326600Y-31978600D03*
%TD*%
D12*
%TO.C,D9*%
X98752766Y-22064634D03*
D13*
X98752766Y-19524634D03*
%TD*%
D12*
%TO.C,D2*%
X98670200Y-47931400D03*
D13*
X98670200Y-45391400D03*
%TD*%
D21*
%TO.C,D5*%
X110850200Y-71726200D03*
D22*
X110850200Y-69186200D03*
%TD*%
D25*
%TO.C,K1*%
X86349999Y-35900000D03*
X81349999Y-35900000D03*
X91349999Y-35900000D03*
X86349999Y-28400000D03*
X81349999Y-28400000D03*
X91349999Y-28400000D03*
D26*
X66349999Y-35900000D03*
D25*
X66349999Y-28400000D03*
%TD*%
D24*
%TO.C,U1*%
X24824800Y-43983000D03*
D15*
X24824800Y-46523000D03*
X32444800Y-46523000D03*
X32444800Y-43983000D03*
%TD*%
D12*
%TO.C,D10*%
X98670200Y-40231400D03*
D13*
X98670200Y-37691400D03*
%TD*%
D27*
%TO.C,U6*%
X65074800Y-65867400D03*
D28*
X67614800Y-65867400D03*
X70154800Y-65867400D03*
X72694800Y-65867400D03*
%TD*%
D12*
%TO.C,D11*%
X104521000Y-21996400D03*
D13*
X101981000Y-21996400D03*
%TD*%
D22*
%TO.C,J7*%
X11092600Y-43475200D03*
X11092600Y-45975200D03*
%TD*%
D14*
%TO.C,C6*%
X76163800Y-43484800D03*
X78663800Y-43484800D03*
%TD*%
D10*
%TO.C,C12*%
X83159600Y-20555200D03*
D11*
X83159600Y-22555200D03*
%TD*%
D22*
%TO.C,RV1*%
X84900000Y-69400000D03*
X83103949Y-67603949D03*
X81307898Y-69400000D03*
%TD*%
D14*
%TO.C,R3*%
X35121000Y-44773600D03*
D15*
X37661000Y-44773600D03*
%TD*%
D22*
%TO.C,J11*%
X108901400Y-47964400D03*
X108901400Y-45464400D03*
%TD*%
D14*
%TO.C,C11*%
X77357600Y-6477000D03*
X79857600Y-6477000D03*
%TD*%
%TO.C,C4*%
X37851400Y-31084200D03*
X37851400Y-28584200D03*
%TD*%
D29*
%TO.C,J5*%
X10776600Y-24657000D03*
X10776600Y-11157000D03*
D30*
X16776600Y-21507000D03*
D31*
X16776600Y-14307000D03*
%TD*%
D22*
%TO.C,RV2*%
X95940000Y-69410000D03*
X94143949Y-67613949D03*
X92347898Y-69410000D03*
%TD*%
D32*
%TO.C,F1*%
X33700000Y-85000000D03*
X27000000Y-85000000D03*
X18000000Y-85000000D03*
X11300000Y-85000000D03*
%TD*%
D24*
%TO.C,C15*%
X62052200Y-69529888D03*
D14*
X62052200Y-71529888D03*
%TD*%
D12*
%TO.C,D13*%
X98831400Y-62534800D03*
D13*
X98831400Y-59994800D03*
%TD*%
D21*
%TO.C,D7*%
X111887000Y-26847800D03*
D22*
X109347000Y-26847800D03*
%TD*%
D10*
%TO.C,C14*%
X87884000Y-20580600D03*
D11*
X87884000Y-22580600D03*
%TD*%
D14*
%TO.C,R11*%
X102250000Y-60080000D03*
D15*
X102250000Y-57540000D03*
%TD*%
D33*
%TO.C,J12*%
X106640000Y-62500000D03*
D14*
X106640000Y-60000000D03*
X106640000Y-58000000D03*
X106640000Y-55500000D03*
D34*
X109350000Y-65570000D03*
X109350000Y-52430000D03*
%TD*%
D12*
%TO.C,D12*%
X104470200Y-48031400D03*
D13*
X101930200Y-48031400D03*
%TD*%
D35*
%TO.C,SW4*%
X64950000Y-79900000D03*
X64950000Y-82400000D03*
X64950000Y-84900000D03*
X68250000Y-84900000D03*
X68250000Y-82400000D03*
X68250000Y-79900000D03*
%TD*%
D36*
%TO.C,U5*%
X77349999Y-16300000D03*
D37*
X77349999Y-13760000D03*
X77349999Y-11220000D03*
%TD*%
D14*
%TO.C,SW3*%
X38735000Y-8356600D03*
X38735000Y-5816600D03*
X38735000Y-3276600D03*
%TD*%
%TO.C,C13*%
X90540000Y-13510000D03*
X90540000Y-16010000D03*
%TD*%
%TO.C,R5*%
X105395200Y-70626200D03*
D15*
X102855200Y-70626200D03*
%TD*%
D14*
%TO.C,R13*%
X83820000Y-13839400D03*
D15*
X83820000Y-16379400D03*
%TD*%
D38*
%TO.C,REF\u002A\u002A*%
X115000000Y-85000000D03*
%TD*%
D14*
%TO.C,SW2*%
X38000000Y-81460000D03*
X38000000Y-84000000D03*
X38000000Y-86540000D03*
%TD*%
D12*
%TO.C,D3*%
X104521000Y-14296400D03*
D13*
X101981000Y-14296400D03*
%TD*%
D14*
%TO.C,C17*%
X62052200Y-65898400D03*
X62052200Y-63398400D03*
%TD*%
D10*
%TO.C,C7*%
X82550000Y-57726801D03*
D11*
X82550000Y-59726801D03*
%TD*%
D24*
%TO.C,C5*%
X88747600Y-45034200D03*
D14*
X88747600Y-42534200D03*
%TD*%
D12*
%TO.C,D17*%
X87198200Y-10998200D03*
D13*
X87198200Y-13538200D03*
%TD*%
D38*
%TO.C,REF\u002A\u002A*%
X5000000Y-85000000D03*
%TD*%
D22*
%TO.C,J8*%
X108876000Y-14301800D03*
X108876000Y-11801800D03*
%TD*%
D12*
%TO.C,D16*%
X80619600Y-50723800D03*
D13*
X80619600Y-53263800D03*
%TD*%
D22*
%TO.C,J10*%
X108876000Y-22001800D03*
X108876000Y-19501800D03*
%TD*%
D38*
%TO.C,REF\u002A\u002A*%
X5000000Y-5000000D03*
%TD*%
D32*
%TO.C,REF\u002A\u002A*%
X75300000Y-82300000D03*
X101300000Y-82300000D03*
%TD*%
D36*
%TO.C,U4*%
X77194999Y-53240000D03*
D37*
X77194999Y-50700000D03*
X77194999Y-48160000D03*
%TD*%
D24*
%TO.C,D14*%
X59720800Y-30801515D03*
D15*
X59720800Y-33341515D03*
%TD*%
D14*
%TO.C,R8*%
X105257600Y-31978600D03*
D15*
X102717600Y-31978600D03*
%TD*%
D14*
%TO.C,R9*%
X52761200Y-33421000D03*
D15*
X52761200Y-30881000D03*
%TD*%
D14*
%TO.C,R4*%
X52812000Y-18068600D03*
D15*
X52812000Y-20608600D03*
%TD*%
D24*
%TO.C,U2*%
X41890000Y-48280000D03*
D15*
X41890000Y-50820000D03*
X41890000Y-53360000D03*
X41890000Y-55900000D03*
X41890000Y-58440000D03*
X41890000Y-60980000D03*
X41890000Y-63520000D03*
X49510000Y-63520000D03*
X49510000Y-60980000D03*
X49510000Y-58440000D03*
X49510000Y-55900000D03*
X49510000Y-53360000D03*
X49510000Y-50820000D03*
X49510000Y-48280000D03*
%TD*%
D16*
%TO.C,J2*%
X14072400Y-31292800D03*
D17*
X7772400Y-31292800D03*
D18*
X11172400Y-36092800D03*
%TD*%
D39*
%TO.C,SW1*%
X49130000Y-79320000D03*
X61630000Y-79320000D03*
X49130000Y-84320000D03*
X61630000Y-84320000D03*
%TD*%
D14*
%TO.C,C3*%
X52837400Y-25775600D03*
X52837400Y-23275600D03*
%TD*%
D12*
%TO.C,D18*%
X80670400Y-13741400D03*
D13*
X80670400Y-16281400D03*
%TD*%
D22*
%TO.C,J13*%
X106200000Y-86500000D03*
X108700000Y-86500000D03*
%TD*%
D14*
%TO.C,R6*%
X105550200Y-75226200D03*
D15*
X103010200Y-75226200D03*
%TD*%
D14*
%TO.C,C18*%
X67660200Y-68910200D03*
X70160200Y-68910200D03*
%TD*%
D32*
%TO.C,F2*%
X33700000Y-5000000D03*
X27000000Y-5000000D03*
X18000000Y-5000000D03*
X11300000Y-5000000D03*
%TD*%
D38*
%TO.C,REF\u002A\u002A*%
X115000000Y-5000000D03*
%TD*%
D14*
%TO.C,C8*%
X90840000Y-50810000D03*
X90840000Y-53310000D03*
%TD*%
D24*
%TO.C,C10*%
X88442800Y-7848600D03*
D14*
X88442800Y-5348600D03*
%TD*%
D29*
%TO.C,J3*%
X10802000Y-66856800D03*
X10802000Y-53356800D03*
D30*
X16802000Y-63706800D03*
D31*
X16802000Y-56506800D03*
%TD*%
D14*
%TO.C,C1*%
X37544800Y-47873600D03*
X35044800Y-47873600D03*
%TD*%
D22*
%TO.C,J9*%
X108901400Y-40264400D03*
X108901400Y-37764400D03*
%TD*%
D24*
%TO.C,U3*%
X49520000Y-30901400D03*
D15*
X49520000Y-28361400D03*
X49520000Y-25821400D03*
X49520000Y-23281400D03*
X49520000Y-20741400D03*
X49520000Y-18201400D03*
X49520000Y-15661400D03*
X41900000Y-15661400D03*
X41900000Y-18201400D03*
X41900000Y-20741400D03*
X41900000Y-23281400D03*
X41900000Y-25821400D03*
X41900000Y-28361400D03*
X41900000Y-30901400D03*
%TD*%
D14*
%TO.C,R10*%
X43083800Y-39596800D03*
D15*
X43083800Y-37056800D03*
%TD*%
D14*
%TO.C,R12*%
X83870800Y-50745600D03*
D15*
X83870800Y-53285600D03*
%TD*%
D14*
%TO.C,R1*%
X25174800Y-49658000D03*
D15*
X27714800Y-49658000D03*
%TD*%
M02*
